<?xml version="1.0" encoding="utf-8"?>
<!-- Generator: Adobe Illustrator 25.0.0, SVG Export Plug-In . SVG Version: 6.00 Build 0)  -->
<svg version="1.1" id="Capa_1" xmlns="http://www.w3.org/2000/svg" xmlns:xlink="http://www.w3.org/1999/xlink" x="0px" y="0px"
	 viewBox="0 0 841.9 446.7" style="enable-background:new 0 0 841.9 446.7;" xml:space="preserve">
<style type="text/css">
	.st0{fill:#5F2167;}
	.st1{fill:#FFFFFF;}
</style>
<rect x="-2.8" class="st0" width="849.8" height="446.7"/>
<g>
	<path class="st1" d="M280.6,397.7L54.8,277.1v0c-18.9-10.1-30.2-29-30.2-50.4c0-21.5,11.3-40.3,30.2-50.4L280.6,55.6
		c17.9-9.5,38.9-9,56.3,1.4c17.4,10.4,27.8,28.8,27.8,49v241.3c0,20.3-10.4,38.6-27.8,49c-9.1,5.5-19.2,8.2-29.4,8.2
		C298.4,404.5,289.1,402.2,280.6,397.7z M291.4,75.7L65.6,196.4c-11.4,6.1-18.1,17.4-18.1,30.3c0,12.9,6.8,24.2,18.1,30.3
		l225.8,120.6c10.7,5.7,23.4,5.4,33.8-0.8c10.4-6.3,16.7-17.3,16.7-29.4V106c0-12.2-6.2-23.2-16.7-29.4c-5.5-3.3-11.5-4.9-17.6-4.9
		C302,71.6,296.5,73,291.4,75.7z"/>
	<path class="st1" d="M534.3,404.5c-10.1,0-20.3-2.7-29.4-8.2c-17.4-10.4-27.8-28.8-27.8-49V106c0-20.3,10.4-38.6,27.8-49
		c17.4-10.4,38.5-10.9,56.3-1.4l225.8,120.6c18.9,10.1,30.2,29,30.2,50.4s-11.3,40.3-30.2,50.4v0L561.3,397.7
		C552.7,402.2,543.5,404.5,534.3,404.5z M534.3,71.6c-6.1,0-12.2,1.6-17.6,4.9C506.2,82.8,500,93.8,500,106v241.3
		c0,12.2,6.2,23.2,16.7,29.4c10.4,6.3,23.1,6.6,33.8,0.8l225.8-120.6c11.4-6.1,18.1-17.4,18.1-30.3c0-12.9-6.8-24.2-18.1-30.3
		L550.5,75.7C545.4,73,539.8,71.6,534.3,71.6z"/>
</g>
</svg>
