<?xml version="1.0" encoding="utf-8"?>
<!-- Generator: Adobe Illustrator 25.0.0, SVG Export Plug-In . SVG Version: 6.00 Build 0)  -->
<svg version="1.1" id="Capa_1" xmlns="http://www.w3.org/2000/svg" xmlns:xlink="http://www.w3.org/1999/xlink" x="0px" y="0px"
	 viewBox="0 0 841.89 595.28" style="enable-background:new 0 0 841.89 595.28;" xml:space="preserve">
<style type="text/css">
	.st0{fill:#5E2366;}
</style>
<g>
	<g>
		<g>
			<path class="st0" d="M707.82,239.01H606.07c-27.43,0-49.88,22.45-49.88,49.89v127.6c0,25.62,19.58,46.88,44.51,49.58v122.57
				h24.63l0.09-146.9h-19.35c-13.92,0-25.24-11.33-25.24-25.25v-127.6c0-13.93,11.33-25.26,25.24-25.26h101.75
				c13.93,0,25.26,11.32,25.26,25.26v127.6c0,13.92-11.33,25.25-25.26,25.25h-19.33l0.1,146.9h24.64V466.08
				c24.91-2.71,44.49-23.97,44.49-49.58v-127.6C757.71,261.47,735.26,239.01,707.82,239.01"/>
		</g>
		<g>
			<path class="st0" d="M656.94,75.61c-37.39,0-67.66,30.28-67.66,67.63c0,37.36,30.27,67.63,67.66,67.63
				c37.41,0,67.69-30.27,67.69-67.63C724.63,105.88,694.36,75.61,656.94,75.61 M656.94,186.23c-23.73,0-43.03-19.28-43.03-42.99
				s19.29-42.99,43.03-42.99s43.05,19.28,43.05,42.99S680.68,186.23,656.94,186.23"/>
		</g>
	</g>
	<g>
		<g>
			<path class="st0" d="M476.25,434.55H151.33c-37.03,0-67.15-30.13-67.15-67.15V73.78c0-37.03,30.13-67.15,67.15-67.15h324.92
				c37.03,0,67.16,30.13,67.16,67.15v293.62C543.4,404.42,513.28,434.55,476.25,434.55z M151.33,27.89
				c-25.3,0-45.88,20.58-45.88,45.89v293.62c0,25.3,20.58,45.89,45.88,45.89h324.92c25.3,0,45.89-20.58,45.89-45.89V73.78
				c0-25.3-20.59-45.89-45.89-45.89H151.33z"/>
		</g>
	</g>
	<g>
		<g>
			
				<rect x="448.21" y="32.12" transform="matrix(0.7204 -0.6936 0.6936 0.7204 -0.8609 370.3244)" class="st0" width="21.27" height="308.22"/>
		</g>
	</g>
</g>
</svg>
