<?xml version="1.0" encoding="utf-8"?>
<!-- Generator: Adobe Illustrator 25.0.0, SVG Export Plug-In . SVG Version: 6.00 Build 0)  -->
<svg version="1.1" id="Capa_1" xmlns="http://www.w3.org/2000/svg" xmlns:xlink="http://www.w3.org/1999/xlink" x="0px" y="0px"
	 viewBox="0 0 400 103.1" style="enable-background:new 0 0 400 103.1;" xml:space="preserve">
<style type="text/css">
	.st0{fill:#5E2366;}
	.st1{fill:none;}
	.st2{fill:#FFFFFF;}
</style>
<path class="st0" d="M352.1,103.1H47.9C21.4,103.1,0,81.6,0,55.2v-7.3C0,21.4,21.4,0,47.9,0h304.2C378.6,0,400,21.4,400,47.9v7.3
	C400,81.6,378.6,103.1,352.1,103.1z"/>
<g>
	<rect x="37.3" y="27.5" class="st1" width="329.6" height="48.1"/>
	<path class="st2" d="M132.2,73.2h-25.8V29.9h25.2v2.9h-22.1v17.1H128v2.9h-18.4v17.6h22.6V73.2z"/>
	<path class="st2" d="M134.7,42.8h3.3l10.5,25.1l10.4-25.1h3.4l-13.8,31.5L134.7,42.8z"/>
	<path class="st2" d="M193.1,73.2h-2.9l-0.2-4.7c0,0-3.3,5.3-10.9,5.3c-8.6,0-15.2-6.8-15.2-15.8c0-8.8,6.5-15.8,15.2-15.8
		c7.6,0,10.9,5.3,10.9,5.3l0.2-4.6h2.9V73.2z M167,58c0,7.4,5.5,13.2,12.2,13.2c7.8,0,10.8-6.9,10.8-6.9V51.8c0,0-3-7-10.8-7
		C172.5,44.8,167,50.5,167,58z"/>
	<path class="st2" d="M205.9,27.5v45.7h-3.2V27.5H205.9z"/>
	<path class="st2" d="M214.9,42.8h3.1v18.5c0,6.5,3.7,9.8,8.6,9.8c7.4,0,11.7-7.1,11.7-7.1V42.8h3.1v30.3h-2.9l-0.2-5.2
		c0,0-4.2,5.8-11.8,5.8c-6.4,0-11.5-4-11.5-11.7L214.9,42.8L214.9,42.8z"/>
	<path class="st2" d="M277.9,73.2H275l-0.2-4.7c0,0-3.3,5.3-10.9,5.3c-8.6,0-15.2-6.8-15.2-15.8c0-8.8,6.5-15.8,15.2-15.8
		c7.6,0,10.9,5.3,10.9,5.3l0.2-4.6h2.9V73.2z M251.9,58c0,7.4,5.5,13.2,12.2,13.2c7.8,0,10.8-6.9,10.8-6.9V51.8c0,0-3-7-10.8-7
		C257.3,44.8,251.9,50.5,251.9,58z"/>
	<path class="st2" d="M301.9,45.1c0,0-0.7-0.1-1.6-0.1c-5,0-9.7,5.7-9.7,11.7v16.6h-3.1V42.8h2.9l0.3,6.2c0,0,2.5-6.9,9.8-6.9
		c0.8,0,1.5,0.1,1.5,0.1V45.1z"/>
</g>
</svg>
