<svg xmlns="http://www.w3.org/2000/svg" viewBox="0 0 1232.13 1000.13"><defs><style>.cls-1,.cls-6{fill:#d9ddfa;}.cls-2,.cls-5{fill:none;}.cls-2,.cls-5,.cls-6{stroke:#5f2167;stroke-linecap:round;stroke-linejoin:round;}.cls-2{stroke-dasharray:12.08 12.08;}.cls-3{fill:#612166;}.cls-16,.cls-21,.cls-4{fill:#5f2167;}.cls-5{stroke-dasharray:12;}.cls-7{fill:#30193b;}.cls-8{fill:#5f6060;}.cls-9{fill:#565656;}.cls-10{fill:#3b2b5b;}.cls-11{fill:#ffb593;}.cls-12{fill:#f7aa8b;}.cls-13{fill:#fff;}.cls-14{fill:#da291c;}.cls-15{fill:#c42320;}.cls-16{opacity:0.4;}.cls-17{fill:#efefef;}.cls-18{fill:#c43b72;}.cls-19{fill:#b72567;}.cls-20{fill:#f2f2f2;}.cls-21{opacity:0.1;}</style></defs><g id="Capa_2" data-name="Capa 2"><g id="arte"><rect class="cls-1" width="1232.13" height="1000.13"/></g><g id="arte2"><circle class="cls-2" cx="621.75" cy="501.38" r="269.22"/><path class="cls-3" d="M229.36,709.74l1.35,1.35a13.3,13.3,0,0,1,18.82,0l1.36-1.35a15.22,15.22,0,0,0-21.53,0ZM240.12,714a6.49,6.49,0,0,0,0,13h0a6.49,6.49,0,0,0,0-13Zm3.23,9.71a4.55,4.55,0,0,1-6.45,0l-.68.68.67-.68a4.57,4.57,0,1,1,6.46,0Zm-20-20.05,1.35,1.36h0a21.86,21.86,0,0,1,30.93,0l1.36-1.36a23.8,23.8,0,0,0-33.64,0Zm16.81-15.43a32.2,32.2,0,0,0-22.81,9.44l1.36,1.36a30.36,30.36,0,0,1,42.91,0l1.35-1.36A32.2,32.2,0,0,0,240.12,688.25Z"/><path class="cls-3" d="M984.43,358.38a4.17,4.17,0,0,0,4.17,4.15h38a4.14,4.14,0,0,0,4.14-4.15V342.55H984.43Zm2-13.82h42.3v13.82a2.14,2.14,0,0,1-2.13,2.14h-38a2.16,2.16,0,0,1-2.15-2.14Zm40,4.32h-18.36v2h18.36Zm.19-16.52h-38a4.17,4.17,0,0,0-4.17,4.15v2.93h46.33v-2.93A4.14,4.14,0,0,0,1026.62,332.36Zm2.13,5.07h-42.3v-.92a2.16,2.16,0,0,1,2.15-2.14h38a2.14,2.14,0,0,1,2.13,2.14Z"/><path class="cls-3" d="M645.21,948.89a3,3,0,0,0,0-.52,2.55,2.55,0,0,0-1.63-2.38v-8l1.27-.68-25.72-13.6-26.27,14.18,10.43,5.52v14.29h31.13V942.92l7.14-3.86v7a2.55,2.55,0,0,0-1.48,2.32,2.6,2.6,0,0,0,.06.56l-1.07,9.85v.05a2.44,2.44,0,0,0,1.23,2,4.44,4.44,0,0,0,2.35.63,4.5,4.5,0,0,0,2.36-.63,2.46,2.46,0,0,0,1.22-2v-.05Zm-26-22.91,20.35,10.76H623.78a3.42,3.42,0,0,0-1.49-1.65,7.19,7.19,0,0,0-6.78,0,2.84,2.84,0,0,0,0,5.18,7.19,7.19,0,0,0,6.78,0,3.47,3.47,0,0,0,1.43-1.51h14.19l-19.3,10.42L597.2,937.85Zm2.76,11.7c0,.18-.14.52-.7.86a5.13,5.13,0,0,1-4.7,0c-.56-.34-.71-.68-.7-.86s.14-.51.7-.86a5.21,5.21,0,0,1,4.7,0C621.81,937.17,622,937.5,622,937.68Zm10.5,18H605.36V944.45l13.27,7,.47-.26,13.35-7.2Zm9.7-7.29a.55.55,0,0,1,.54-.55.55.55,0,0,1,.55.55.55.55,0,0,1-.55.54A.54.54,0,0,1,642.15,948.37ZM644,959.13a2.48,2.48,0,0,1-1.27.32,2.51,2.51,0,0,1-1.27-.32c-.22-.14-.27-.24-.28-.28l.87-8a2.47,2.47,0,0,0,.67.1,2.56,2.56,0,0,0,.69-.1l.87,8S644.18,959,644,959.13Z"/><path class="cls-3" d="M1076.62,491.76c-.1-.17-4.24-5.26-14.45-5.25-7.9,0-12,3.2-13.55,4.76-1.52-1.56-5.64-4.77-13.54-4.76-10.22,0-14.35,5.08-14.46,5.25a1,1,0,0,0-.22.62V519a1,1,0,0,0,1.81.62.88.88,0,0,1,.12-.15c.74-.77,4.41-4.31,12.75-4.32a18.48,18.48,0,0,1,9.85,2.43,11.72,11.72,0,0,1,2.09,1.62c.21.22.37.4.46.51s.11.16.12.16a1,1,0,0,0,.84.44h.37a1,1,0,0,0,.83-.44l.12-.16c.68-.81,4.09-4.54,12.41-4.56a20.4,20.4,0,0,1,10,2.3,12.39,12.39,0,0,1,2.2,1.54c.23.21.39.38.49.48a.78.78,0,0,1,.13.15,1,1,0,0,0,1.13.33,1,1,0,0,0,.68-.95V492.38A1,1,0,0,0,1076.62,491.76Zm-41.51,21.32h0c-6.51,0-10.55,2.06-12.66,3.6V492.76c.91-.92,4.61-4.22,12.66-4.23A18.77,18.77,0,0,1,1045,491a11.41,11.41,0,0,1,2.1,1.62,5.74,5.74,0,0,1,.47.51.36.36,0,0,1,.07.09V517C1045.6,515.32,1041.68,513.08,1035.11,513.08Zm39.71,3.6c-2.1-1.54-6.14-3.61-12.65-3.6s-10.55,2.25-12.54,3.9v-23.8l.08-.1c.69-.82,4.14-4.54,12.46-4.55a20.4,20.4,0,0,1,10,2.3,12.39,12.39,0,0,1,2.2,1.54l.41.39Z"/><path class="cls-3" d="M224.2,538.42V510.93H180.67v27.49l-6.06,6.91h55.64ZM182.69,513h39.49v22.52H182.69Zm0,26.23v-1.69h39.49v1.69l.25.29,3.36,3.84H179.07Zm7.39,2.83h24.71v-2H190.08Z"/><path class="cls-3" d="M631.54,77.27h19.39v-2H631.54Zm0,5.26h19.39v-2H631.54Zm0,5.25h19.39v-2H631.54Zm38.12,11.59V75.92l-.32-.29-7.61-7H626.39V99.37h25a7,7,0,0,0,1.83,3.69l-4.54,8.09h9.06v-5.91l.59,0a7.23,7.23,0,0,0,1.33-.13v6h9.06l-4.83-8.61a7.11,7.11,0,0,0,1.39-3.17Zm-7.3-27.52,3.81,3.52h-3.81Zm-6.55,37.34h-3.75l2.74-4.89a7.19,7.19,0,0,0,1,.48Zm2.54-5.89a5.09,5.09,0,1,1,5.09-5.09A5.1,5.1,0,0,1,658.35,103.3Zm7,5.89h-3.75v-4.74a8.39,8.39,0,0,0,.81-.5Zm-7-18a7.06,7.06,0,0,0-7,6.25h-23V70.57h32v6.76h7.3V97.41h-2.35A7,7,0,0,0,658.35,91.16Z"/><path class="cls-3" d="M314.66,223.13v-11H301.1v11h-6.61v30.59h3.75v2.62h1.88v-2.62h15.5v2.62h1.89v-2.62h3.75V223.13ZM303,215.45h9.78v7.68H303Zm-2.86,36.38v-20.4h15.5v20.4Zm17.39,0V229.54H298.24v22.29h-1.86V225h23v26.82Zm-9.64-18.65a2,2,0,1,0,2,2A2,2,0,0,0,307.87,233.18Z"/><path class="cls-4" d="M1041.73,723.66h-25.06a4.56,4.56,0,0,1-4.56-4.56V684.93a4.56,4.56,0,0,1,4.56-4.56h25.06a4.56,4.56,0,0,1,4.55,4.56V719.1a4.56,4.56,0,0,1-4.55,4.56m-25.06-41a2.28,2.28,0,0,0-2.28,2.28V719.1a2.28,2.28,0,0,0,2.28,2.28h25.06a2.28,2.28,0,0,0,2.27-2.28V684.93a2.28,2.28,0,0,0-2.27-2.28Z"/><path class="cls-4" d="M1042.87,727.08h-5.7a2.28,2.28,0,0,1-2.28-2.28v-2.28h2.28v2.28h5.7v-2.28h2.27v2.28a2.28,2.28,0,0,1-2.27,2.28"/><path class="cls-4" d="M1021.22,727.08h-5.69a2.28,2.28,0,0,1-2.28-2.28v-2.28h2.28v2.28h5.69v-2.28h2.28v2.28a2.28,2.28,0,0,1-2.28,2.28"/><rect class="cls-4" x="1013.25" y="706.57" width="31.9" height="2.28"/><rect class="cls-4" x="1016.67" y="712.27" width="5.7" height="2.28"/><rect class="cls-4" x="1036.03" y="712.27" width="5.7" height="2.28"/><rect class="cls-4" x="1013.25" y="687.21" width="31.9" height="2.28"/><path class="cls-4" d="M1009.83,699.74h-2.28V692.9a1.14,1.14,0,0,1,.46-.91l4.55-3.42,1.37,1.83-4.1,3.07Z"/><path class="cls-4" d="M1050.84,699.74h-2.28v-6.27l-4.1-3.07,1.37-1.83,4.56,3.42a1.16,1.16,0,0,1,.45.91Z"/><rect class="cls-4" x="1028.06" y="688.34" width="2.28" height="19.37"/><path class="cls-4" d="M995,235H934.53a.8.8,0,0,1-.8-.8v-5.43a.8.8,0,0,1,.8-.79H995a.8.8,0,0,1,.8.79v5.43A.8.8,0,0,1,995,235Zm-59.67-1.59H994.2v-3.84H935.32Z"/><path class="cls-4" d="M995,229.57H934.53a.8.8,0,0,1-.8-.8V221a.79.79,0,0,1,.8-.79H995a.79.79,0,0,1,.8.79v7.8A.8.8,0,0,1,995,229.57ZM935.32,228H994.2v-6.21H935.32Z"/><path class="cls-4" d="M995,229.57H934.53a.8.8,0,0,1-.8-.8V221a.79.79,0,0,1,.8-.79H995a.79.79,0,0,1,.8.79v7.8A.8.8,0,0,1,995,229.57ZM935.32,228H994.2v-6.21H935.32Z"/><path class="cls-4" d="M955.64,253.74H934.53a.8.8,0,0,1-.8-.8V234.2a.79.79,0,0,1,.8-.79h21.11a.79.79,0,0,1,.8.79v18.74A.8.8,0,0,1,955.64,253.74Zm-20.32-1.59h19.52V235H935.32Z"/><path class="cls-4" d="M995,253.74H973.88a.8.8,0,0,1-.8-.8V234.2a.79.79,0,0,1,.8-.79H995a.79.79,0,0,1,.8.79v18.74A.8.8,0,0,1,995,253.74Zm-20.32-1.59H994.2V235H974.67Z"/><path class="cls-4" d="M973.88,262.08H955.64a.8.8,0,0,1-.8-.8V234.2a.79.79,0,0,1,.8-.79h18.24a.79.79,0,0,1,.79.79v27.08A.79.79,0,0,1,973.88,262.08Zm-17.44-1.6h16.64V235H956.44Z"/><path class="cls-4" d="M995,262.08H934.53a.8.8,0,0,1-.8-.8V228.77h1.59v31.71H994.2V228.77h1.59v32.51A.8.8,0,0,1,995,262.08Z"/><rect class="cls-4" x="963.96" y="234.2" width="1.59" height="27.08"/><path class="cls-4" d="M981.82,216H947.7a.8.8,0,0,1-.8-.8V205.09a.8.8,0,0,1,.8-.8h34.12a.8.8,0,0,1,.8.8v10.09A.8.8,0,0,1,981.82,216Zm-33.33-1.59H981v-8.51H948.49Z"/><rect class="cls-4" x="953.89" y="215.18" width="1.59" height="5.79"/><rect class="cls-4" x="974.04" y="215.18" width="1.59" height="5.79"/><rect class="cls-4" x="928.71" y="260.48" width="72.1" height="1.59"/><path class="cls-5" d="M621.75,231.8s44.43-40.7,0-80.73,0-67.63,0-67.63"/><path class="cls-5" d="M467,278.85s-33.83-49.87-79.88-11.7-66.92-9.81-66.92-9.81"/><circle class="cls-6" cx="468.62" cy="281.27" r="4.04"/><circle class="cls-6" cx="622.35" cy="233.18" r="4.04"/><path class="cls-5" d="M404.1,666.78s-33.82,49.86-79.87,11.7-79.16,10.88-79.16,10.88"/><circle class="cls-6" cx="406.83" cy="665.27" r="4.04"/><path class="cls-5" d="M387.82,368.87s-18.19,3.89-64.24,42.05-60.33-51.29-60.33-51.29"/><circle class="cls-6" cx="386.84" cy="368.6" r="4.04"/><path class="cls-5" d="M351.31,506.64s-78.43-35.19-124.48,3"/><circle class="cls-6" cx="351.31" cy="506.88" r="4.04"/><path class="cls-5" d="M784.05,288.08s33.83-49.86,79.88-11.7,66.92-9.8,66.92-9.8"/><circle class="cls-6" cx="782.41" cy="290.51" r="4.04"/><path class="cls-5" d="M846.93,676s33.83,49.87,79.88,11.71S1006,698.6,1006,698.6"/><circle class="cls-6" cx="844.2" cy="674.5" r="4.04"/><path class="cls-5" d="M863.21,378.11s18.2,3.89,64.25,42.05,60.33-51.29,60.33-51.29"/><circle class="cls-6" cx="864.19" cy="377.84" r="4.04"/><path class="cls-5" d="M892.05,495.12s78.43-35.19,124.48,3"/><circle class="cls-6" cx="892.05" cy="495.36" r="4.04"/><path class="cls-7" d="M650.41,720l.89-.19c4.38-.8,6.19-2.64,6.54-3.43,1.08-2.42,1.52-2.84,1.63-4.29s10.19.74,10.19.74L668.9,720l-.06.1a22.33,22.33,0,0,1,1.47,8.21c0,3.12-37.25,5-37.64,2.34C631.27,721.27,642.76,721.39,650.41,720Z"/><path class="cls-7" d="M856.12,720l-.89-.19c-4.38-.8-6.19-2.64-6.55-3.43-1.07-2.42-.36-2.87-.47-4.32s-11.34.77-11.34.77l.76,7.18.06.1a22.35,22.35,0,0,0-1.48,8.21c0,3.12,37.25,5,37.65,2.34C875.26,721.27,863.77,721.39,856.12,720Z"/><path class="cls-8" d="M809,365.52c4.05,2.57,15.56,16.47,27.77,38.83,37,67.7,13.13,274.5,13.12,314.75-5.87-.1-13.17,1.75-14.33-4.86C828.24,672.78,783.46,467,783.46,467c-6.71,22-32.51,76.38-41.54,99-38.72,96.89-73.53,154.82-73.53,154.82l-11-2.37s25.23-116.64,34-170.65C696.15,518.48,703.54,459,716,421a386.13,386.13,0,0,1,16.44-41.13C744.17,375.67,790,366.46,809,365.52Z"/><path class="cls-9" d="M809,365.52c4.05,2.57,20.14,14.52,27.77,38.83,20.71,65.91,13.13,274.5,13.12,314.75-14,5.3-12.53,5.08-13.7-1.52-6.3-35.66-40.79-195.39-50.31-239.37a3.24,3.24,0,0,0-6.2-.46c-9.74,25.62-30,68.71-37.78,88.18-38.72,96.89-73.53,154.82-73.53,154.82h0S711.26,635,736.67,552.26c32.05-104.38,5.71-174.19,15-175.86C764.71,374,801,365.92,809,365.52Z"/><path class="cls-7" d="M766,254.77c-.09-.24-3.26-17.46-7.37-20.56a16.9,16.9,0,0,0-20,2c-3.39,3-12.24,4.54-6,16.09,2.19,4,12.14,16.24,13.65,16.72C746.76,269.16,768.23,260.51,766,254.77Z"/><path class="cls-10" d="M749.71,236.62a6.33,6.33,0,0,0-5.62-4.44c-3.83-.26-9.56,2.53-13.36,9.25-2.66,4.71-8.47,3.59-8.47,3.59a14.89,14.89,0,0,0,15.16,3.23c5.66-1.92,10.9-9.3,10.9-9.3Z"/><path class="cls-11" d="M753,266.75s.63,14.66,2.27,15.92,6.8,2.17,8.69-2S760.31,265,760.31,265Z"/><path class="cls-12" d="M753.47,273.59c2.61,1.48,7.07,2.16,10.14,0a41.18,41.18,0,0,0-2-5.62l-8.44,2.1A26.11,26.11,0,0,0,753.47,273.59Z"/><path class="cls-11" d="M767.12,258.16c0-1.67-2.72-6.67-5.09-10.79a7,7,0,0,0-9.73-2.47c-5.21,3.18-10.8,7-11.83,8.92-1.63,3,.26,6.65,1.6,9.4s4.72,7.17,7.55,8.56c2.58,1.28,7.89.81,10.32-.54C767.25,267.18,768.33,264.16,767.12,258.16Z"/><path class="cls-13" d="M757.61,280.84l-.14,56.88s-3,50.79-2.26,51,12.86-1.76,20.21-3.09,26.23-6.57,26.23-6.57l-12.86-80.19-15.57-19Z"/><path class="cls-14" d="M757.92,279.38l7-1.95s1.63,7.18-1.18,8.13S758.74,285,757.92,279.38Z"/><path class="cls-14" d="M762.63,283.15a381.21,381.21,0,0,0,6.26,49.92c5.31,27.65,7.86,50.2,7.86,50.2l17.91,7.28,8.11-15.83s-32.55-88.52-37.91-92.13S762.63,283.15,762.63,283.15Z"/><path class="cls-15" d="M764.62,282.62c-2.62-1.76-3.2-1.66-3.12-1.11a15.9,15.9,0,0,1,2.11,1.25c5.37,3.61,37.92,92.13,37.92,92.13l-7.89,15.37.78.32,8.12-15.83S770,286.23,764.62,282.62Z"/><polygon class="cls-13" points="784.11 377.21 781.96 382.38 784.62 381.63 784.11 377.21 784.11 377.21"/><polygon class="cls-13" points="786.22 376.62 784.46 377.11 784.97 381.53 786.71 381.04 786.22 376.62"/><path class="cls-13" d="M788.87,375.87l.5,4.42a2.7,2.7,0,0,0,1.85-2.8A1.81,1.81,0,0,0,788.87,375.87Z"/><polygon class="cls-13" points="786.75 376.47 787.24 380.89 789 380.39 789 380.39 789.02 380.39 788.51 375.97 786.75 376.47"/><path class="cls-13" d="M793.44,374.59a2.69,2.69,0,0,0-1.87,2.8,1.82,1.82,0,0,0,2.35,1.62h0l-.51-4.41Z"/><path class="cls-13" d="M793.8,374.49l.5,4.41a2.7,2.7,0,0,0,1.85-2.8A1.81,1.81,0,0,0,793.8,374.49Z"/><path class="cls-13" d="M796,373.8a.28.28,0,0,0,.15.53.28.28,0,0,0,.19-.34A.27.27,0,0,0,796,373.8Zm.13.48a.22.22,0,0,1-.27-.15.24.24,0,0,1,.15-.28.24.24,0,0,1,.28.16A.23.23,0,0,1,796.13,374.28Z"/><path class="cls-13" d="M796.17,374c0-.06-.06-.08-.13-.06l-.12,0,.08.31h0l0-.14h.06l.12.11,0,0-.13-.11A.08.08,0,0,0,796.17,374Zm-.17.09,0-.09.06,0s.07,0,.08,0,0,.06-.06.07Z"/><path class="cls-8" d="M737,359.67c4.37,17.4-18,52.73-18,52.73s33.88,31.3,61.71,26.53c-1.31-14.9,3.85-93.24-5.6-118.41-8.34-22.22-20.94-42.65-26.94-40.38-18.61,7.06-33.7,11.87-37.77,20.65C707.91,306,731.41,337.59,737,359.67Z"/><path class="cls-8" d="M723.54,299.18a4.41,4.41,0,0,0-5.88-6,70.36,70.36,0,0,0-20.48,14.63c-13.35,14.21-31.67,29.92-30.17,47.21,1.72,19.75,34.7,56.2,56.07,49.25,6.25-2,6-10.49,5.55-14a4.4,4.4,0,0,0-1.27-2.58l-36.65-36.39a4.42,4.42,0,0,1-.32-5.91L716,313.89a4.83,4.83,0,0,0,.5-.77Z"/><path class="cls-11" d="M727.59,392.78s-1.1-10.14,2.15-11.25,8.51-3.1,9.35-1.85-3,2.62-3,2.62a28.2,28.2,0,0,1,4.1,1.49c.57.43-1.22,1.61-1.22,1.61a1.75,1.75,0,0,1,1.29,1.44c.25,1.24-2.87.61-4.22,1.4s-2.82,6.42-5.46,8.13C729.56,397,727.76,395.58,727.59,392.78Z"/><path class="cls-8" d="M808.82,433.85s30.95-9.15,31.08-23.16c-20.63-42-15.44-18.47-16.08-29.94-2.83-51-3.86-66-11.58-88-1.44-4.11-2.62-13.11-7.75-15.6a37.6,37.6,0,0,0-13.41-3,87.33,87.33,0,0,0-11.32,0,133,133,0,0,0-14.31,1.74c-.67.12-3.8.85-3.8.85s13.37,22.17,23.84,43.9S808.82,433.85,808.82,433.85Z"/><path class="cls-11" d="M827,380.37s-3-9.74-6.42-9.48-9,.52-9.32,2,3.83,1.2,3.83,1.2a29.6,29.6,0,0,0-3.18,3c-.35.62,1.76,1,1.76,1a1.78,1.78,0,0,0-.62,1.84c.26,1.24,2.88-.57,4.43-.38s5.13,4.78,8.23,5.31C826.83,385,827.92,383,827,380.37Z"/><path class="cls-9" d="M862.44,323.7c-5.45-16.48-28.27-35.15-45.88-43.5A54.16,54.16,0,0,0,802,276.14a22.94,22.94,0,0,1,2.46,1c5,2.43,6.75,15.55,10.26,24.13a3.06,3.06,0,0,0,.75,1.07l23.73,22.23a3,3,0,0,1,.79,3.22l-16.64,47a3.07,3.07,0,0,0-.07,1.8c.81,3,3.85,11.9,10.8,11.26C856.49,385.81,868.67,342.52,862.44,323.7Z"/><polygon class="cls-4" points="765.25 318.24 800.95 353.81 766.09 315.48 765.25 318.24"/><polygon class="cls-4" points="780.65 306 798.87 350.9 781.49 303.24 780.65 306"/><rect class="cls-13" x="793.74" y="343.89" width="16.58" height="25.74" rx="0.52" transform="translate(1676.08 275.72) rotate(150.72)"/><path class="cls-4" d="M803.35,342.17a.78.78,0,0,0-1.07-.3l-13.09,7.34a.78.78,0,0,0-.3,1.06l3.12,5.57C792.22,356.22,803.35,342.17,803.35,342.17Z"/><path class="cls-16" d="M799.89,356.76a2.68,2.68,0,0,0,3.26-1.83,2.2,2.2,0,0,1,2.89.92l1.27,2.26a.87.87,0,0,1-.34,1.18l-5.36,3a.87.87,0,0,1-1.18-.34l-1.27-2.26A2.19,2.19,0,0,1,799.89,356.76Z"/><path class="cls-16" d="M801.52,355.85a2.31,2.31,0,1,1-2.26-4,2.31,2.31,0,0,1,2.26,4Z"/><path class="cls-9" d="M750.75,279.09c-4.14,1.56-10.48,4-10.48,4l4,11.68,8.2-1.39-9.91,7.09,36.06,31.15a124.48,124.48,0,0,0-6.53-18.36C765.21,297.65,754.37,277.71,750.75,279.09Z"/><path class="cls-9" d="M786.69,285.82c0-3.38-13.53-.56-13.53-.56l5.09-4.12-8.48-6s-2.16.31-4.32.69c-.67.12-3.8.85-3.8.85s23.77,45.28,26.75,51.5Z"/><path class="cls-17" d="M765.14,269.74l-2.7,4.52a13.77,13.77,0,0,1-3.28,3.83l9,6.64,3.47-11.34Z"/><path class="cls-17" d="M759.64,277.86l-2.22,11.05s-5.3-1-8.95-8.85l-.81-1.84,2.62-3.88s3.75,3.93,9,3.39"/><path class="cls-7" d="M514.75,255.25a9.35,9.35,0,0,1,10.45,1.58c4.13,3.87,6.9,12.85,3.48,23.71-2.4,7.61,4.66,12.75,4.66,12.75a22,22,0,0,1-18.74-13.08c-3.63-8-1-21.11-1-21.11Z"/><path class="cls-11" d="M397.82,431.68s-6.7-3-10.06-.94c-3.15,2-6.55,7.83-6.48,8.39.2,1.62,3.93-3.5,3.93-3.5s-4.69,6.11-3.45,7.23c.57.52,2.31-1.51,2.31-1.51s-1,.53.12,1.34,4.62-3.39,6-4.35,6.91-.33,9.79-2.13C401.06,435.55,400.48,433.13,397.82,431.68Z"/><path class="cls-11" d="M398.63,436.49s-4.39,4.56-6,5,2.28-4.67,2.28-4.67Z"/><polygon class="cls-11" points="399.01 418.46 395.07 431.23 399.82 435.29 405.07 421.65 399.01 418.46"/><path class="cls-11" d="M609.13,714.84c-.07-.3-23.46-118-35.29-170-8.8-38.68-20.59-115-56.52-165.84-5.18-1.58-13.39,1.22-26.16.72h-.11l-.36,0a4,4,0,0,1-.54-.07c-1.58-.15-2.52-.27-2.52-.27l.05,0c-12.7-1.54-24.84-4.23-28.75-6.12-.07,0-.16,0-.23,0-.16.81-24.83,27-30.9,48.17-18.31,63.9-13.49,263.83-11.87,298.62.06,1.23-.83.47,3.38-1.09,2.5-.92,54.6-205.1,66.59-252.22a3.52,3.52,0,0,1,6.6-.6L607.09,715.27Z"/><path class="cls-12" d="M575.52,544.45c-8.81-38.68-50.21-153.17-55.88-162.06,11.65,40.17,42.63,117.68,42.63,219.73q0,5.37-.1,10.68l46.59,102.06,3.06-.17C611.75,714.39,587.35,596.42,575.52,544.45Z"/><polygon class="cls-18" points="583.51 277.46 583.58 277.9 583.51 277.98 583.51 277.46"/><path class="cls-19" d="M493.5,384.28h-.05v0S493.48,384.26,493.5,384.28Z"/><path class="cls-20" d="M534.3,316.93s0,0,0,0,0-.1,0-.17,0,.11,0,.17c17.55-7.59,53.44-25.08,63.35-44.76v0c.33-.64.62-1.26.88-1.9.14-.31.27-.65.39-1,7.84-21.15,19.68-65.89-4.4-70.05-1.08-.18-2.05-.36-3-.55-2.82-.53-10.12,5.44-11.8,12-4.07,16-10.93,50.56-10.93,50.56l.08.42-.07.08,0,.13s-23.54,27.28-33,31.32c-2.69,1.15-10.15,1.44-12.55-.24C523.29,292.94,534,318.56,534.3,316.93ZM586,286.31c-12.6,11.27-31,20.94-44.32,27.15,13.35-6.21,31.72-15.88,44.32-27.15a58.45,58.45,0,0,0,9.49-10.53A58.45,58.45,0,0,1,586,286.31Z"/><path class="cls-20" d="M484.55,286.86c-6.85.3-25.19,3.84-35.54,21.41-9.45,16-27.2,48.65-30.47,59.81-2.39,8.19,15.27,11.2,15.27,11.2l24.43-56.44S487.82,286.72,484.55,286.86Z"/><path class="cls-20" d="M432.72,353.89c-21.3,5-48.12,50-33.46,67.32,5.46,6.43,10.85,4.93,10.85,4.93l26.74-51.24s4.95-13.22,6.39-17.42C445.64,350.48,443.73,351.3,432.72,353.89Z"/><path class="cls-11" d="M611,180.45c.7-3.91-3-7.51-5.84-5.76a20.94,20.94,0,0,0-2.31,2.66c-.71.9-1.3,1.67-1.3,1.67s.29-4.84-.87-4.87-.84,3.27-1.21,4.6-4.05,10,.25,10.05C599.7,188.8,610,186.09,611,180.45Z"/><path class="cls-11" d="M607.45,172.43s1.54.21.5,2.14c0,0,2.61-2.16,3.62-1.1s-.68,3.73-.75,4.35c0,0,1.23-1.6,1.37-.39s-1.27,4.94-2.73,6-7.3-5.27-7.3-5.27S605.93,173.1,607.45,172.43Z"/><rect class="cls-11" x="499.49" y="273.67" width="7.56" height="17.49" rx="1.18" transform="translate(70.77 -99.66) rotate(12.16)"/><path class="cls-12" d="M503.27,284.73c-1.48-.9-3.77-2.85-3.4-4.57l2-8.77a3.18,3.18,0,0,1,3.78-2.44l1.17.25a3.19,3.19,0,0,1,2.44,3.79l-2.34,10.86C506.54,285.57,504.77,285.65,503.27,284.73Z"/><path class="cls-11" d="M493.65,265.29c.06-1.81,3.06-7.24,5.71-11.69A7.65,7.65,0,0,1,510,251c5.65,3.55,11.68,7.8,12.78,9.91,1.73,3.3-.38,7.25-1.88,10.23s-5.26,7.76-8.36,9.24c-2.84,1.35-8.63.76-11.26-.75C493.38,275.14,492.24,271.82,493.65,265.29Z"/><path class="cls-10" d="M508.37,277.7s26.9.84,17.67-15.26c-5.63-9.84-3.33-17.45-16-15.11-15.37,2.84-13.68-7.47-13.68-7.47s-8.77,1.73-3.18,16.4c1.77,4.64,2.39,4.11,2.39,4.11s2.55-7.18,10.4-7.39,11.73,4.27,13.71,12.86C522.27,277.08,508.37,277.7,508.37,277.7Z"/><path class="cls-10" d="M498.39,251.7s6.92,12.42,16.94,14-2.55-16-2.55-16Z"/><path class="cls-13" d="M515.25,378.72s10.41-23.19,13.75-32.38c3.28-9,15.32-36,15.32-36s-8.45-10.17-12.29-12.67c-19.23-12.54-54-13.21-65.64-2.5"/><path class="cls-20" d="M546,308.5s-8.6-8.89-12.44-11.39c-7.61-4.95-18.93-7.34-29-8.62a3.88,3.88,0,0,0-1.87.5S491,306.31,487,332.85c-3.48,22.69,28.58,44.48,28.58,44.48S526,354.2,529.29,345C532.57,336.05,546,308.5,546,308.5Z"/><path class="cls-8" d="M514.14,377.64l-.39.08Z"/><path class="cls-8" d="M492.23,379.11l-1.39-.06Z"/><path class="cls-8" d="M485,378.54l-1.16-.13Z"/><path class="cls-8" d="M495.44,379.21l-1.35,0Z"/><path class="cls-8" d="M488.79,378.9l-1.36-.1Z"/><path class="cls-8" d="M513.08,377.85l-.55.1Z"/><path class="cls-8" d="M501.23,379.13l-1.22.05Z"/><path class="cls-8" d="M503.8,379l-1.13.07Z"/><path class="cls-8" d="M498.44,379.21l-1.3,0Z"/><path class="cls-8" d="M523.79,302.08a13.15,13.15,0,0,0-.38,3.16A13.15,13.15,0,0,1,523.79,302.08Z"/><path class="cls-8" d="M511.74,378.09l-.68.1Z"/><path class="cls-8" d="M510.13,378.33l-.8.11Z"/><path class="cls-8" d="M515.38,377.37l-.09,0Z"/><path class="cls-8" d="M508.26,378.58l-.91.1Z"/><path class="cls-8" d="M514.92,377.48l-.27,0Z"/><path class="cls-8" d="M506.15,378.8l-1,.09Z"/><path class="cls-8" d="M526.67,293.11c.78.37,1.55.76,2.3,1.16C528.22,293.87,527.45,293.48,526.67,293.11Z"/><path class="cls-8" d="M524,301.38c0,.18-.13.36-.17.54C523.86,301.74,523.94,301.56,524,301.38Z"/><path class="cls-9" d="M511.06,378.19l-.93.14Z"/><path class="cls-9" d="M512.53,378l-.79.14Z"/><path class="cls-9" d="M509.33,378.44l-1.07.14Z"/><path class="cls-9" d="M515.29,377.39l-.37.09Z"/><path class="cls-9" d="M515.54,377.32l-.16.05Z"/><path class="cls-9" d="M514.65,377.53l-.51.11Z"/><path class="cls-9" d="M513.75,377.72l-.67.13Z"/><path class="cls-9" d="M487.43,378.8l-2.41-.26Z"/><path class="cls-9" d="M483.75,378.4h0Z"/><path class="cls-9" d="M490.84,379.05l-2-.15Z"/><path class="cls-9" d="M526,292.82l.63.29Z"/><path class="cls-9" d="M524,301.38a12.89,12.89,0,0,1,5.12-7l-.14-.08.14.08A12.89,12.89,0,0,0,524,301.38Z"/><path class="cls-9" d="M523.82,301.92a1.1,1.1,0,0,0,0,.16A1.1,1.1,0,0,1,523.82,301.92Z"/><path class="cls-9" d="M502.67,379.06l-1.44.07Z"/><path class="cls-9" d="M494.09,379.19l-1.86-.08Z"/><path class="cls-9" d="M507.35,378.68l-1.2.12Z"/><path class="cls-9" d="M505.12,378.89l-1.32.1Z"/><path class="cls-9" d="M500,379.18c-.51,0-1,0-1.57,0C499,379.2,499.5,379.2,500,379.18Z"/><path class="cls-9" d="M497.14,379.23l-1.7,0Z"/><path class="cls-8" d="M487,332.73c1.28-8.39.4-16.13,2.53-22.72l-.2-4.12L491,286c-10.48.25-19.75,2.62-24.71,7.19-15,13.83-6,69.67-8.06,85.59,4.55,10.25,17.93,11.23,18.55,11.31C476.18,389.89,483.49,355.44,487,332.73Z"/><path class="cls-9" d="M476.89,388.32c-11.87.4-18.62-10.09-18.68-9.58,4.54,10.25,17.58,11.18,18.21,11.26C476.34,390,476.74,389.33,476.89,388.32Z"/><path class="cls-8" d="M526,292.82a73.17,73.17,0,0,0-16.31-5.19l-.08.09A70.86,70.86,0,0,1,526,292.82Z"/><path class="cls-9" d="M535.64,318.14c-6.75,0-12.23-5.77-12.23-12.9a13.15,13.15,0,0,1,.38-3.16,1.1,1.1,0,0,1,0-.16c0-.18.12-.36.17-.54a12.89,12.89,0,0,1,5.12-7l-.14-.08c-.75-.4-1.52-.79-2.3-1.16l-.63-.29a70.86,70.86,0,0,0-16.39-5.1l-17.28,22.35a146.4,146.4,0,0,0-5.4,22.66c-3.48,22.71-10.85,57.37-10.27,57.52,20.78,5.64,16,4.11,29.45,5.48,18.31,1.87,18.18-33.22,24.57-49.72,6.69-17.24,8.62-23.61,12.68-32.07C541.47,315.27,538.13,318.14,535.64,318.14Z"/><polygon class="cls-13" points="499.54 281.76 493.19 280.16 495.45 287.63 498.55 286.34 499.54 281.76"/><polygon class="cls-17" points="506.99 283.46 510.69 283.22 508.42 290.69 505.32 289.4 506.99 283.46"/><path class="cls-11" d="M598.5,205.7s-.86-14.62,2-18-2.82-1.09-2.82-1.09-6.49,11.48-5.41,17S598.5,205.7,598.5,205.7Z"/><path class="cls-8" d="M458.21,372.18A211.24,211.24,0,0,0,426.64,415c-14,25.33-20.9,102.86-20,162.63,0,0,45.48,22.18,149.84,11.2,0,0,27-3.41,33.76-8.17,0,0-19.28-102.38-44.1-154.29s-24.59-50.34-24.59-50.34a146,146,0,0,1-33.91,3.26C466.09,379,458.21,372.18,458.21,372.18Z"/><path class="cls-9" d="M524,449.84c24.26,44,64.42,132.16,66.27,130.86,0,0-19.28-102.38-44.1-154.29s-24.59-50.34-24.59-50.34a146,146,0,0,1-33.91,3.26c-21.59-.32-29.47-7.15-29.47-7.15s-11.34,30.29,7.3,30.57C485.09,403.05,496.2,399.44,524,449.84Z"/><path class="cls-11" d="M415.93,714.23c1.23.85,3.58,2.51,3.92,2.82-1.09,3.36-7.85,7.59-11.55,8.09-2.55.34-1.71-1.6-.68-3.16,2.57-2.22,4.77-4,5.23-4.48S415.2,715.1,415.93,714.23Z"/><path class="cls-10" d="M419.85,717.05a17.57,17.57,0,0,1,3.63,5.61c.94,2.23-23.12,14.86-25.17,10.64-.73-1.47,5.17-7.72,9.31-11.32-1,1.56-1.87,3.5.68,3.16C412,724.64,418.76,720.41,419.85,717.05Z"/><path class="cls-10" d="M423.51,723.26l-.24,3.92a.68.68,0,0,1-1,.56l-2.9-1.57a.69.69,0,0,1-.09-1.16l3.14-2.34A.69.69,0,0,1,423.51,723.26Z"/><path class="cls-11" d="M610.66,711.9c-1.24.85-3.59,2.52-3.93,2.82,1.1,3.36,7.86,7.59,11.55,8.1,2.55.33,1.72-1.61.68-3.17-2.57-2.22-4.77-4-5.22-4.47S611.38,712.78,610.66,711.9Z"/><path class="cls-10" d="M606.73,714.72a17.68,17.68,0,0,0-3.63,5.61c-.94,2.24,23.13,14.86,25.18,10.64.73-1.46-5.18-7.72-9.32-11.32,1,1.56,1.87,3.5-.68,3.17C614.59,722.31,607.83,718.08,606.73,714.72Z"/><path class="cls-10" d="M603.08,720.42l.29,4.92a.42.42,0,0,0,.62.34l3.64-2a.42.42,0,0,0,0-.7l-3.94-2.94A.42.42,0,0,0,603.08,720.42Z"/><polygon class="cls-8" points="512.7 286.86 521.31 314.86 507.09 308.15 481.3 364.81 489.3 315.37 512.7 286.86"/><polygon class="cls-9" points="494.93 285.92 471.35 292.65 484.73 300.92 481.3 364.81 488.37 319.76 494.93 285.92"/><path class="cls-17" d="M493.18,280.16l3.64,4.38a14.8,14.8,0,0,0,4.13,3.54l-28.52,9.75,14.42-12.7Z"/><rect class="cls-13" x="461.77" y="332.63" width="16.58" height="25.74" rx="0.52" transform="translate(750.1 857.27) rotate(-155)"/><path class="cls-4" d="M482.68,338.05a.79.79,0,0,0-.38-1l-13.61-6.34a.77.77,0,0,0-1,.38L465,336.83C464.78,337.22,482.68,338.05,482.68,338.05Z"/><path class="cls-16" d="M468.81,343.76a2.64,2.64,0,0,0,1.37,1.49,2.67,2.67,0,0,0,2,.09,2.2,2.2,0,0,1,.94,2.88l-1.09,2.35a.87.87,0,0,1-1.16.42l-5.57-2.59a.89.89,0,0,1-.42-1.16l1.1-2.35A2.2,2.2,0,0,1,468.81,343.76Z"/><path class="cls-16" d="M470.5,344.55a2.31,2.31,0,1,1,3.07-1.11A2.31,2.31,0,0,1,470.5,344.55Z"/><polygon class="cls-4" points="488.41 292.36 473.35 336.76 491.14 291.43 488.41 292.36"/><polygon class="cls-4" points="506.07 292.36 474.5 333.38 508.8 291.43 506.07 292.36"/><polygon class="cls-15" points="504.75 293.85 494.95 304.58 501.3 288.49 504.75 293.85"/><polygon class="cls-14" points="472.43 352.01 492.93 307.48 487.68 361.51 472.43 352.01"/><polygon class="cls-13" points="475.16 346.01 473.68 349.22 488.92 358.72 489.3 354.82 475.16 346.01"/><polygon class="cls-14" points="492.04 291.12 494.4 307.48 500.35 288.28 492.04 291.12"/><polygon class="cls-14" points="478.52 348.63 475.4 349.81 476.82 350.66 478.52 348.63 478.52 348.63"/><polygon class="cls-14" points="479.65 349.31 478.71 348.74 477 350.77 477.93 351.32 479.65 349.31"/><path class="cls-14" d="M481.05,350.15l-1.71,2a1.6,1.6,0,0,0,2-.34A1.07,1.07,0,0,0,481.05,350.15Z"/><polygon class="cls-14" points="479.93 349.47 478.21 351.49 479.14 352.06 479.14 352.06 479.15 352.06 480.86 350.04 479.93 349.47"/><path class="cls-14" d="M483.48,351.61a1.59,1.59,0,0,0-2,.33,1.07,1.07,0,0,0,.26,1.68h0l1.71-2Z"/><path class="cls-14" d="M483.67,351.72l-1.71,2a1.61,1.61,0,0,0,2-.35A1.08,1.08,0,0,0,483.67,351.72Z"/><path class="cls-14" d="M484.87,352.39a.18.18,0,0,0-.23.06.15.15,0,0,0,.06.22.15.15,0,0,0,.22-.05A.17.17,0,0,0,484.87,352.39Zm-.16.26a.13.13,0,0,1,0-.18.13.13,0,0,1,.18-.05.14.14,0,0,1,0,.18A.15.15,0,0,1,484.71,352.65Z"/><path class="cls-14" d="M484.86,352.54s0-.06,0-.09l-.06,0-.1.16,0,0,0-.08,0,0v.1h0v-.1A0,0,0,0,0,484.86,352.54Zm-.11,0,0-.05,0,0a0,0,0,0,1,0,0s0,0-.06,0Z"/><polygon class="cls-15" points="480.6 361.08 493.61 303.03 498.05 304.34 500.43 367.38 480.6 361.08"/><polygon class="cls-13" points="482.09 354.47 481.14 358.71 500.33 364.81 500.16 360.2 482.09 354.47"/><polygon class="cls-15" points="487.98 357.03 484.62 359.31 486.53 359.91 487.98 357.03 487.98 357.03"/><polygon class="cls-15" points="489.5 357.51 488.23 357.11 486.78 359.99 488.03 360.39 489.5 357.51"/><path class="cls-15" d="M491.39,358.11,489.94,361a2,2,0,0,0,2.24-1A1.32,1.32,0,0,0,491.39,358.11Z"/><polygon class="cls-15" points="489.88 357.63 488.41 360.51 489.68 360.91 489.68 360.91 489.69 360.91 491.14 358.03 489.88 357.63"/><path class="cls-15" d="M494.68,359.15a2,2,0,0,0-2.25,1,1.32,1.32,0,0,0,.78,1.92h0l1.45-2.89Z"/><path class="cls-15" d="M494.94,359.24l-1.45,2.88a2,2,0,0,0,2.23-1A1.31,1.31,0,0,0,494.94,359.24Z"/><path class="cls-15" d="M496.55,359.7a.2.2,0,0,0-.26.13.21.21,0,0,0,.14.25.21.21,0,0,0,.25-.13A.2.2,0,0,0,496.55,359.7Zm-.11.34a.16.16,0,1,1,.09-.31.16.16,0,1,1-.09.31Z"/><path class="cls-15" d="M496.58,359.86s0-.07-.05-.08l-.09,0-.07.22h0l0-.09h0l0,.11h0l0-.11A.06.06,0,0,0,496.58,359.86Zm-.14,0,0-.07h0s.05,0,0,.05,0,0-.07,0Z"/><path class="cls-14" d="M493.56,301.65l4.64-.62s1.18,7.41-4.46,8.75C490.84,310.47,488.43,304.42,493.56,301.65Z"/><path class="cls-13" d="M501.19,288.53,515.54,310s-4.66-12-2.06-21l.55-2.1-3.44-3.7s-3.34,4.81-9,5.11"/><path class="cls-21" d="M752.09,712.43c-48.54,0-91,3.52-113.89,8.77-22.94-5.25-65.36-8.77-113.89-8.77-72.93,0-132,8-132,17.76S451.38,748,524.31,748c48.53,0,91-3.53,113.89-8.78,22.94,5.25,65.35,8.78,113.89,8.78,72.92,0,132-8,132-17.77S825,712.43,752.09,712.43Z"/><rect class="cls-3" x="258.4" y="322.95" width="1.56" height="14.74" transform="translate(-128.29 168.61) rotate(-29.23)"/><rect class="cls-3" x="255.37" y="324.64" width="1.56" height="14.74" transform="translate(-129.5 167.35) rotate(-29.23)"/><rect class="cls-3" x="252.35" y="326.33" width="1.56" height="14.74" transform="translate(-130.71 166.09) rotate(-29.23)"/><rect class="cls-3" x="249.32" y="328.02" width="1.56" height="14.74" transform="translate(-131.93 164.83) rotate(-29.23)"/><rect class="cls-3" x="246.3" y="329.72" width="1.56" height="14.74" transform="translate(-133.14 163.57) rotate(-29.23)"/><rect class="cls-3" x="243.27" y="331.41" width="1.56" height="14.74" transform="translate(-134.35 162.31) rotate(-29.23)"/><rect class="cls-3" x="274.43" y="332.55" width="1.85" height="1.77" transform="translate(678.46 489.96) rotate(150.77)"/><rect class="cls-3" x="272.7" y="329.46" width="1.85" height="1.77" transform="translate(673.71 485.02) rotate(150.77)"/><rect class="cls-3" x="270.97" y="326.37" width="1.85" height="1.77" transform="translate(668.96 480.09) rotate(150.77)"/><rect class="cls-3" x="269.24" y="323.28" width="1.85" height="1.77" transform="translate(664.22 475.14) rotate(150.77)"/><rect class="cls-3" x="267.51" y="320.19" width="1.85" height="1.77" transform="translate(659.48 470.2) rotate(150.77)"/><rect class="cls-3" x="265.79" y="317.11" width="1.85" height="1.77" transform="translate(654.74 465.27) rotate(150.77)"/><rect class="cls-3" x="264.06" y="314.02" width="1.85" height="1.77" transform="translate(649.99 460.33) rotate(150.77)"/><rect class="cls-3" x="278.71" y="348.36" width="1.85" height="1.77" transform="translate(572.18 687.76) rotate(177.85)"/><rect class="cls-3" x="278.58" y="344.83" width="1.85" height="1.77" transform="translate(571.78 680.69) rotate(177.85)"/><rect class="cls-3" x="278.44" y="341.29" width="1.85" height="1.77" transform="translate(571.39 673.62) rotate(177.85)"/><rect class="cls-3" x="278.31" y="337.76" width="1.85" height="1.77" transform="translate(570.98 666.56) rotate(177.85)"/><path class="cls-3" d="M291.24,351.68l-.34-9a1,1,0,0,0-1-.94,3.55,3.55,0,0,1-.27-7.08,1,1,0,0,0,.91-1l-.34-9a1,1,0,0,0-.31-.68,1,1,0,0,0-.7-.26l-4.85.19.85,1.53,3.47-.13.29,7.84a5.11,5.11,0,0,0,.38,10.09l.3,7.85L251,352.61l-3,1.68,42.35-1.59A1,1,0,0,0,291.24,351.68Z"/><path class="cls-3" d="M240.14,357.34l-.17,0a1,1,0,0,1-.59-.46L235,349a1,1,0,0,1,.34-1.32,3.54,3.54,0,0,0-3.46-6.17,1,1,0,0,1-1.3-.4l-4.37-7.82a1,1,0,0,1-.09-.74.94.94,0,0,1,.46-.59l45.7-25.57a1,1,0,0,1,1.33.37l4.38,7.83a1,1,0,0,1-.34,1.31,3.54,3.54,0,0,0,3.46,6.18,1,1,0,0,1,1.29.39h0l4.38,7.83a1,1,0,0,1,.09.74,1,1,0,0,1-.46.59l-45.71,25.57A.94.94,0,0,1,240.14,357.34Zm-3.51-8.62,3.83,6.85,44.68-25-3.83-6.85a5.11,5.11,0,0,1-4.93-8.81l-3.83-6.85-44.68,25,3.83,6.85a5.11,5.11,0,0,1,4.93,8.81Z"/><path class="cls-5" d="M619,771.9s44.44,40.7,0,80.73,0,67.63,0,67.63"/><circle class="cls-6" cx="616.07" cy="770.51" r="4.04"/></g></g></svg>