<?xml version="1.0" encoding="utf-8"?>
<!-- Generator: Adobe Illustrator 25.0.0, SVG Export Plug-In . SVG Version: 6.00 Build 0)  -->
<svg version="1.1" id="Capa_1" xmlns="http://www.w3.org/2000/svg" xmlns:xlink="http://www.w3.org/1999/xlink" x="0px" y="0px"
	 viewBox="0 0 400 103.1" style="enable-background:new 0 0 400 103.1;" xml:space="preserve">
<style type="text/css">
	.st0{fill:#5E2366;}
	.st1{fill:none;}
	.st2{fill:#FFFFFF;}
</style>
<path class="st0" d="M352.1,103.1H47.9C21.4,103.1,0,81.6,0,55.2v-7.3C0,21.4,21.4,0,47.9,0h304.2C378.6,0,400,21.4,400,47.9v7.3
	C400,81.6,378.6,103.1,352.1,103.1z"/>
<g>
	<rect x="37.3" y="27.5" class="st1" width="329.6" height="48.1"/>
	<path class="st2" d="M115.9,51.4h9.3c5.8,0,9.7-4,9.7-9.3c0-5.3-3.9-9.4-9.7-9.4h-10.7v40.4h-3.2V29.9h13.8c8.2,0,13,5.7,13,12.2
		c0,6.5-4.9,12.1-13,12.1c-0.6,0-2.5,0-2.5,0l17.6,18.9h-4.4L115.9,51.4z"/>
	<path class="st2" d="M170.5,56.9c0,1.3-0.1,2.6-0.1,2.6H145c0.4,6.4,5.5,11.8,12.6,11.8c4.8,0,9.5-3,9.5-3v3c0,0-4.3,2.5-9.8,2.5
		c-9.2,0-15.5-7-15.5-15.9c0-8.6,6.7-15.7,15.3-15.7C166.5,42.2,170.5,50.6,170.5,56.9z M145,56.9h22.6c0-6.3-4-12.2-10.5-12.2
		C150.4,44.7,145.2,50.9,145,56.9z"/>
	<path class="st2" d="M173.1,42.8h3.3l10.5,25.1l10.4-25.1h3.4l-13.8,31.5L173.1,42.8z"/>
	<path class="st2" d="M206,31.4h3.4v5.5H206V31.4z M209.3,42.8v30.3h-3.2V42.8H209.3z"/>
	<path class="st2" d="M235.9,46.7c0,0-3.6-1.8-7.9-1.8c-3.5,0-7,1.6-7,5.1c0,7.5,17.8,5,17.8,15.3c0,4.2-3.7,8.6-11.9,8.6
		c-5.6,0-9.5-2.4-9.5-2.4v-3.2c0,0,4.1,3,9.6,3c3.5,0,8.5-1.3,8.5-5.7c0-7.7-17.8-5.5-17.8-15.2c0-5.3,4.8-8.1,10.7-8.1
		c4.3,0,7.7,1.5,7.7,1.5L235.9,46.7z"/>
	<path class="st2" d="M273,73.2h-2.9l-0.2-4.7c0,0-3.3,5.3-10.9,5.3c-8.6,0-15.2-6.8-15.2-15.8c0-8.8,6.5-15.8,15.2-15.8
		c7.6,0,10.9,5.3,10.9,5.3l0.2-4.6h2.9V73.2z M247,58c0,7.4,5.5,13.2,12.2,13.2c7.8,0,10.8-6.9,10.8-6.9V51.8c0,0-3-7-10.8-7
		C252.4,44.8,247,50.5,247,58z"/>
	<path class="st2" d="M297,45.1c0,0-0.7-0.1-1.6-0.1c-5,0-9.7,5.7-9.7,11.7v16.6h-3.1V42.8h2.9l0.3,6.2c0,0,2.5-6.9,9.8-6.9
		c0.8,0,1.5,0.1,1.5,0.1V45.1z"/>
</g>
</svg>
