<?xml version="1.0" encoding="utf-8"?>
<!-- Generator: Adobe Illustrator 25.0.0, SVG Export Plug-In . SVG Version: 6.00 Build 0)  -->
<svg version="1.1" id="Capa_1" xmlns="http://www.w3.org/2000/svg" xmlns:xlink="http://www.w3.org/1999/xlink" x="0px" y="0px"
	 viewBox="0 0 100 48" style="enable-background:new 0 0 100 48;" xml:space="preserve">
<style type="text/css">
	.st0{fill:#E1251B;}
	.st1{fill:#FFFFFF;}
</style>
<g>
	<g>
		<polygon class="st0" points="52.6,9.1 52.6,12.5 57.2,14.7 61.8,16.8 57.2,19 57.2,14.7 54.5,15.9 54.5,20.2 52.6,21.1 52.6,24.5 
			69.1,16.8 		"/>
		<polygon class="st1" points="36.1,16.8 52.6,9.1 33.4,0.1 33.4,2.7 47.1,9.1 33.4,15.5 33.4,18.1 47.1,24.5 33.4,30.9 33.4,33.5 
			52.6,24.5 		"/>
	</g>
	<path class="st1" d="M9.5,39.6V45c0,1.2-0.9,1.7-1.8,1.7S6,46.2,6,45v-5.4H5v5.5c0,1.7,1.4,2.7,2.8,2.7s2.8-1,2.8-2.7v-5.5H9.5z"/>
	<polygon class="st1" points="16.7,40.6 16.7,45.1 12.1,40.6 12.1,47.8 13.1,47.8 13.1,43.1 17.8,47.8 17.8,40.6 	"/>
	<polygon class="st1" points="26.8,40.6 24.7,45.2 22.7,40.6 21.6,40.6 24.7,47.8 27.9,40.6 	"/>
	<polygon class="st1" points="33.4,41.7 33.4,40.6 29.2,40.6 29.2,47.8 33.4,47.8 33.4,46.7 30.2,46.7 30.2,44.5 33.4,44.5 
		33.4,43.4 30.2,43.4 30.2,41.7 	"/>
	<path class="st1" d="M37.8,44.9c1.1-0.1,2-1,2-2.1c0-1.3-1-2.2-2.3-2.2H35v7.1h1v-3.3l3,3.3h1.4L37.8,44.9z M36,41.6h1.5
		c0.7,0,1.3,0.5,1.3,1.2c0,0.6-0.5,1.3-1.4,1.3H36V41.6z"/>
	<path class="st1" d="M43.8,43.6c-0.8-0.3-1.5-0.6-1.5-1.2c0-0.8,0.9-0.9,1.3-0.9c0.9,0,1.7,0.3,1.7,0.3l0.1,0l0-0.9l0,0
		c0,0-0.6-0.3-1.7-0.3c-1.2,0-2.4,0.6-2.4,1.8c0,1.2,1.1,1.7,2.1,2c0.8,0.3,1.5,0.6,1.5,1.2c0,0.8-0.8,1.1-1.6,1.1c-1,0-2-0.6-2-0.6
		l-0.1-0.1v1.1l0.1,0c0,0,0.9,0.5,2.1,0.5c1.8,0,2.6-1.1,2.6-2.1C46,44.4,44.9,43.9,43.8,43.6z"/>
	<path class="st1" d="M51.8,40.6h-1.7v7.1h1.7c2.3,0,3.8-1.4,3.8-3.6S54.2,40.6,51.8,40.6z M54.6,44.2c0,1.6-1,2.7-2.7,2.7h-0.7
		v-5.3h0.7C53.6,41.5,54.6,42.5,54.6,44.2z"/>
	<path class="st1" d="M65.3,40.6h-1.7v7.1h1.7c2.3,0,3.8-1.4,3.8-3.6S67.6,40.6,65.3,40.6z M68.1,44.2c0,1.6-1,2.7-2.7,2.7h-0.7
		v-5.3h0.7C67,41.5,68.1,42.5,68.1,44.2z"/>
	<path class="st0" d="M83.1,40.6h-3.1v7.1h3.1c2,0,3.6-1.6,3.6-3.6C86.6,42.2,85,40.6,83.1,40.6 M83,46.1h-1.2v-3.7H83
		c1,0,1.9,0.7,1.9,1.9C84.9,45.3,84,46.1,83,46.1"/>
	<path class="st0" d="M91.4,40.5c-2,0-3.7,1.6-3.7,3.7c0,2,1.6,3.7,3.7,3.7c2,0,3.7-1.6,3.7-3.7C95,42.2,93.4,40.5,91.4,40.5
		 M91.4,46.1c-1.1,0-1.9-0.9-1.9-1.9c0-1.1,0.9-1.9,1.9-1.9c1.1,0,1.9,0.9,1.9,1.9C93.3,45.2,92.4,46.1,91.4,46.1"/>
	<path class="st0" d="M71.5,47.8h1.7l1.1-2.3l0.6,1.3H77l0.4,0.9h1.7l-3.8-8.2L71.5,47.8z M74.2,45.5l1.1-2.3l1.1,2.3H74.2z"/>
	<rect x="47.5" y="40.6" class="st1" width="1" height="7.1"/>
	<path class="st1" d="M61.2,47.8h1.1l-3.2-7.1L56,47.8h1.1l0.7-1.6h2.6L61.2,47.8z M58.3,45.1l0.8-1.9l0.8,1.9H58.3z"/>
	<rect x="19.3" y="40.6" class="st1" width="1" height="7.1"/>
</g>
</svg>
