<?xml version="1.0" encoding="utf-8"?>
<!-- Generator: Adobe Illustrator 25.0.0, SVG Export Plug-In . SVG Version: 6.00 Build 0)  -->
<svg version="1.1" id="Capa_1" xmlns="http://www.w3.org/2000/svg" xmlns:xlink="http://www.w3.org/1999/xlink" x="0px" y="0px"
	 viewBox="0 0 841.89 595.28" style="enable-background:new 0 0 841.89 595.28;" xml:space="preserve">
<style type="text/css">
	.st0{fill:#FFFFFF;}
</style>
<path class="st0" d="M236.95,587.47c-16.53,0-33.01-4.47-47.86-13.37c-28.34-16.99-45.26-46.86-45.26-79.9V101.07
	c0-33.04,16.92-62.91,45.26-79.9c28.33-16.98,62.66-17.82,91.8-2.27l367.93,196.57c30.84,16.48,49.25,47.2,49.25,82.17
	c0,34.97-18.41,65.69-49.25,82.17v0.01L280.88,576.37C267.01,583.78,251.96,587.47,236.95,587.47z M236.96,45.11
	c-9.92,0-19.81,2.68-28.72,8.02c-17.01,10.19-27.16,28.12-27.16,47.94V494.2c0,19.83,10.15,37.75,27.16,47.94
	c17.01,10.2,37.6,10.72,55.07,1.36l367.93-196.57c18.51-9.89,29.55-28.32,29.55-49.3c0-20.98-11.04-39.41-29.55-49.3L263.32,51.77
	C255,47.32,245.97,45.11,236.96,45.11z"/>
</svg>
