<?xml version="1.0" encoding="utf-8"?>
<!-- Generator: Adobe Illustrator 25.0.0, SVG Export Plug-In . SVG Version: 6.00 Build 0)  -->
<svg version="1.1" id="Capa_1" xmlns="http://www.w3.org/2000/svg" xmlns:xlink="http://www.w3.org/1999/xlink" x="0px" y="0px"
	 viewBox="0 0 841.89 595.28" style="enable-background:new 0 0 841.89 595.28;" xml:space="preserve">
<style type="text/css">
	.st0{fill:#FFFFFF;}
</style>
<path class="st0" d="M561.01,576.37L193.08,379.81v-0.01c-30.84-16.48-49.25-47.2-49.25-82.17c0-34.96,18.41-65.68,49.25-82.17
	L561.01,18.9c29.14-15.56,63.46-14.71,91.8,2.27c28.34,16.99,45.26,46.86,45.26,79.9V494.2c0,33.04-16.92,62.91-45.26,79.9
	c-14.85,8.9-31.33,13.37-47.86,13.37C589.93,587.47,574.88,583.78,561.01,576.37z M578.57,51.77L210.64,248.33
	c-18.51,9.89-29.55,28.32-29.55,49.3c0,20.98,11.04,39.42,29.55,49.3L578.57,543.5c17.48,9.36,38.07,8.84,55.07-1.36
	c17.01-10.19,27.16-28.12,27.16-47.94V101.07c0-19.83-10.15-37.75-27.16-47.94c-8.91-5.34-18.8-8.02-28.72-8.02
	C595.92,45.11,586.89,47.32,578.57,51.77z"/>
</svg>
