<?xml version="1.0" encoding="utf-8"?>
<!-- Generator: Adobe Illustrator 25.0.0, SVG Export Plug-In . SVG Version: 6.00 Build 0)  -->
<svg version="1.1" id="Capa_1" xmlns="http://www.w3.org/2000/svg" xmlns:xlink="http://www.w3.org/1999/xlink" x="0px" y="0px"
	 viewBox="0 0 1302.8 623" style="enable-background:new 0 0 1302.8 623;" xml:space="preserve">
<style type="text/css">
	.st0{fill:#ffffff;}
	.st1{enable-background:new    ;}
</style>
<g>
	<g>
		<g>
			<path class="st0" d="M1252.8,232.4h-101.7c-27.4,0-49.9,22.4-49.9,49.9v127.6c0,25.6,19.6,46.9,44.5,49.6v122.6h24.6l0.1-146.9
				h-19.3c-13.9,0-25.2-11.3-25.2-25.2V282.3c0-13.9,11.3-25.3,25.2-25.3h101.8c13.9,0,25.3,11.3,25.3,25.3v127.6
				c0,13.9-11.3,25.2-25.3,25.2h-19.3l0.1,146.9h24.6V459.5c24.9-2.7,44.5-24,44.5-49.6V282.3
				C1302.7,254.9,1280.3,232.4,1252.8,232.4"/>
		</g>
		<g>
			<path class="st0" d="M1201.9,69c-37.4,0-67.7,30.3-67.7,67.6c0,37.4,30.3,67.6,67.7,67.6s67.7-30.3,67.7-67.6
				S1239.4,69,1201.9,69 M1201.9,179.6c-23.7,0-43-19.3-43-43s19.3-43,43-43s43,19.3,43,43S1225.7,179.6,1201.9,179.6"/>
		</g>
	</g>
	<g>
		<g>
			<path class="st0" d="M1021.2,427.9H696.3c-37,0-67.2-30.1-67.2-67.1V67.2c0-37,30.1-67.2,67.2-67.2h324.9
				c37,0,67.2,30.1,67.2,67.2v293.6C1088.4,397.8,1058.3,427.9,1021.2,427.9z M696.3,21.3c-25.3,0-45.9,20.6-45.9,45.9v293.6
				c0,25.3,20.6,45.9,45.9,45.9h324.9c25.3,0,45.9-20.6,45.9-45.9V67.2c0-25.3-20.6-45.9-45.9-45.9
				C1021.2,21.3,696.3,21.3,696.3,21.3z"/>
		</g>
	</g>
	<g>
		<g>
			
				<rect x="993.2" y="25.5" transform="matrix(0.7204 -0.6936 0.6936 0.7204 156.146 746.4767)" class="st0" width="21.3" height="308.2"/>
		</g>
	</g>
</g>
<g class="st1">
	<path class="st0" d="M56.6,523.1H25.2v53.4H16V448.2h40.8c27.6,0,39.5,19.9,39.5,37.4C96.3,503.3,84.4,523.1,56.6,523.1z
		 M25.2,514.6H57c19.4,0,29.9-13,29.9-28.8c0-16.2-10.3-29.1-29.9-29.1H25.2V514.6z"/>
	<path class="st0" d="M159.8,493.2c0,0-2.1-0.4-4.9-0.4c-14.9,0-28.8,16.9-28.8,34.6v49.1h-9.2v-89.9h8.6l0.8,18.4
		c0,0,7.5-20.3,29.1-20.3c2.3,0,4.3,0.4,4.3,0.4V493.2z"/>
	<path class="st0" d="M251.7,528.1c0,3.9-0.2,7.7-0.2,7.7H176c1.1,19,16.4,35,37.4,35c14.1,0,28-8.8,28-8.8v9c0,0-12.8,7.3-29.1,7.3
		c-27.3,0-45.9-20.7-45.9-47c0-25.6,19.9-46.6,45.3-46.6C239.7,484.7,251.7,509.5,251.7,528.1z M176,528.3h66.9
		c0-18.8-11.8-36.1-31.2-36.1C191.9,492.2,176.7,510.5,176,528.3z"/>
	<path class="st0" d="M321.7,498c0,0-10.5-5.5-23.5-5.5c-10.3,0-20.9,4.7-20.9,15c0,22.4,52.8,14.9,52.8,45.3
		c0,12.6-10.9,25.4-35.3,25.4c-16.5,0-28-7.1-28-7.1v-9.6c0,0,12.2,8.8,28.4,8.8c10.3,0,25.2-3.9,25.2-16.9
		c0-22.9-52.8-16.2-52.8-44.9c0-15.8,14.1-23.9,31.6-23.9c12.8,0,22.7,4.5,22.7,4.5L321.7,498z"/>
	<path class="st0" d="M351.7,452.7h10.2v16.4h-10.2V452.7z M361.5,486.6v89.9h-9.4v-89.9H361.5z"/>
	<path class="st0" d="M429.8,484.7c25.8,0,46.2,21.1,46.2,46.8c0,25.8-20.5,46.8-46.2,46.8s-46.2-21.1-46.2-46.8
		C383.5,505.8,404,484.7,429.8,484.7z M429.8,570.8c20.5,0,37-17.7,37-39.3c0-21.6-16.5-39.3-37-39.3s-37,17.7-37,39.3
		C392.7,553.1,409.3,570.8,429.8,570.8z"/>
	<path class="st0" d="M576,576.4h-9.2v-54.9c0-19.4-12-29-26.5-29c-21.8,0-33.5,21.1-33.5,21.1v62.8h-9.2v-89.9h8.6l0.6,15
		c0,0,11.5-16.9,33.8-16.9c19,0,35.3,11.8,35.3,34.6V576.4z"/>
	<path class="st0" d="M682.4,576.4h-8.6l-0.6-13.9c0,0-9.8,15.8-32.3,15.8c-25.6,0-45.1-20.1-45.1-46.8c0-26.1,19.4-46.8,45.1-46.8
		c22.6,0,32.3,15.6,32.3,15.6l0.6-13.7h8.6V576.4z M605.2,531.5c0,22,16.2,39.1,36.1,39.1c23.1,0,32-20.5,32-20.5v-36.8
		c0,0-8.8-20.9-32-20.9C621.3,492.4,605.2,509.3,605.2,531.5z"/>
	<path class="st0" d="M835.8,576.4h-8.6l-0.6-13.9c0,0-9.8,15.8-32.3,15.8c-25.6,0-45.1-20.1-45.1-46.8c0-26.1,19.4-46.8,45.1-46.8
		c22.6,0,32.3,15.6,32.3,15.6l0.6-13.7h8.6V576.4z M758.6,531.5c0,22,16.2,39.1,36.1,39.1c23.1,0,32-20.5,32-20.5v-36.8
		c0,0-8.8-20.9-32-20.9C774.7,492.4,758.6,509.3,758.6,531.5z"/>
	<path class="st0" d="M941.5,614h-9.2v-52.5c0,0-10.2,16.7-33.1,16.7c-24.3,0-41.7-21.1-41.7-46.8c0-25.8,17.7-46.8,42.1-46.8
		c23.1,0,32.7,17.1,32.7,17.1l0.6-15.2h8.6V614z M932.3,547.5v-32.3c-0.9-3.9-11.8-22.7-32-22.7c-19.2,0-33.5,18-33.5,39.1
		c0,21.2,14.3,39.1,33.5,39.1C920.4,570.6,931.3,551.8,932.3,547.5z"/>
	<path class="st0" d="M967.8,486.6h9.2v54.9c0,19.4,10.9,29,25.4,29c21.8,0,34.6-21.1,34.6-21.1v-62.8h9.2v89.9h-8.6L1037,561
		c0,0-12.6,17.3-35,17.3c-19,0-34.2-11.8-34.2-34.6V486.6z"/>
	<path class="st0" d="M1096,458.2l-30.1,13.9l-3.2-6.4l28.8-16.4L1096,458.2z M1084.2,486.6v89.9h-9.4v-89.9H1084.2z"/>
</g>
</svg>
