<?xml version="1.0" encoding="utf-8"?>
<!-- Generator: Adobe Illustrator 25.0.0, SVG Export Plug-In . SVG Version: 6.00 Build 0)  -->
<svg version="1.1" id="Capa_1" xmlns="http://www.w3.org/2000/svg" xmlns:xlink="http://www.w3.org/1999/xlink" x="0px" y="0px"
	 viewBox="0 0 907 907" style="enable-background:new 0 0 907 907;" xml:space="preserve">
<style type="text/css">
	.st0{fill:none;stroke:#5F2167;stroke-linecap:round;stroke-linejoin:round;stroke-dasharray:12.08,12.08;}
	.st1{fill:#612166;}
	.st2{fill:#5F2167;}
	.st3{fill:none;stroke:#5F2167;stroke-linecap:round;stroke-linejoin:round;stroke-dasharray:12;}
	.st4{fill:#D9DDFA;stroke:#5F2167;stroke-linecap:round;stroke-linejoin:round;}
	.st5{fill:#30193B;}
	.st6{fill:#5F6060;}
	.st7{fill:#565656;}
	.st8{fill:#3B2B5B;}
	.st9{fill:#FFB593;}
	.st10{fill:#F7AA8B;}
	.st11{fill:#FFFFFF;}
	.st12{fill:#DA291C;}
	.st13{fill:#C42320;}
	.st14{opacity:0.4;fill:#5F2167;enable-background:new    ;}
	.st15{fill:#EFEFEF;}
	.st16{fill:#C43B72;}
	.st17{fill:#B72567;}
	.st18{fill:#F2F2F2;}
	.st19{opacity:0.1;fill:#5F2167;enable-background:new    ;}
</style>
<g id="arte2">
	<circle class="st0" cx="449.5" cy="439.8" r="269.2"/>
	<path class="st1" d="M57.2,648.2l1.4,1.3c5.2-5.2,13.6-5.2,18.8,0c0,0,0,0,0,0l1.4-1.3C72.7,642.2,63.1,642.2,57.2,648.2
		C57.2,648.2,57.2,648.2,57.2,648.2z M67.9,652.4c-3.6,0-6.5,2.9-6.5,6.5s2.9,6.5,6.5,6.5l0,0c3.6,0,6.5-2.9,6.5-6.5
		S71.5,652.4,67.9,652.4z M71.1,662.2c-1.8,1.8-4.7,1.8-6.4,0c0,0,0,0,0,0l-0.7,0.7l0.7-0.7c-1.8-1.8-1.8-4.7,0-6.5
		c1.8-1.8,4.7-1.8,6.5,0S72.9,660.4,71.1,662.2C71.1,662.2,71.1,662.2,71.1,662.2L71.1,662.2z M51.1,642.1l1.4,1.4l0,0
		c8.5-8.5,22.4-8.5,30.9,0c0,0,0,0,0,0l1.4-1.4C75.5,632.8,60.4,632.8,51.1,642.1z M68,626.7c-8.6,0-16.8,3.4-22.8,9.4l1.4,1.4
		c11.9-11.8,31.1-11.8,42.9,0l1.4-1.4C84.7,630.1,76.5,626.7,68,626.7L68,626.7z"/>
	<path class="st1" d="M812.2,296.8c0,2.3,1.9,4.2,4.2,4.1h38c2.3,0,4.1-1.9,4.1-4.1c0,0,0,0,0,0V281h-46.3V296.8z M814.2,283h42.3
		v13.8c0,1.2-1,2.1-2.1,2.1h-38c-1.2,0-2.1-1-2.2-2.1L814.2,283z M854.2,287.3h-18.4v2h18.4V287.3z M854.4,270.8h-38
		c-2.3,0-4.2,1.9-4.2,4.1v2.9h46.3V275C858.6,272.7,856.7,270.8,854.4,270.8C854.4,270.8,854.4,270.8,854.4,270.8L854.4,270.8z
		 M856.5,275.9h-42.3V275c0-1.2,1-2.1,2.2-2.1h38c1.2,0,2.1,1,2.1,2.1L856.5,275.9z"/>
	<path class="st1" d="M473,887.3c0-0.2,0-0.3,0-0.5c0-1.1-0.6-2-1.6-2.4v-8l1.3-0.7l-25.7-13.6l-26.3,14.2l10.4,5.5v14.3h31.1v-14.8
		l7.1-3.9v7c-0.9,0.4-1.5,1.3-1.5,2.3c0,0.2,0,0.4,0.1,0.6l-1.1,9.8v0c0,0.8,0.5,1.6,1.2,2c0.7,0.4,1.5,0.6,2.3,0.6
		c0.8,0,1.6-0.2,2.4-0.6c0.7-0.4,1.2-1.2,1.2-2v0L473,887.3z M447,864.4l20.3,10.8h-15.8c-0.3-0.7-0.8-1.3-1.5-1.7
		c-2.1-1.1-4.7-1.1-6.8,0c-1.4,0.6-2.1,2.3-1.4,3.8c0.3,0.6,0.8,1.1,1.4,1.4c2.1,1.1,4.7,1.1,6.8,0c0.6-0.3,1.1-0.9,1.4-1.5h14.2
		l-19.3,10.4L425,876.3L447,864.4z M449.8,876.1c0,0.2-0.1,0.5-0.7,0.9c-1.5,0.8-3.2,0.8-4.7,0c-0.6-0.3-0.7-0.7-0.7-0.9
		s0.1-0.5,0.7-0.9c1.5-0.7,3.2-0.7,4.7,0C449.6,875.6,449.8,875.9,449.8,876.1L449.8,876.1z M460.3,894.1h-27.1v-11.2l13.3,7
		l0.5-0.3l13.3-7.2L460.3,894.1z M470,886.8c0-0.3,0.2-0.5,0.5-0.5c0.3,0,0.5,0.2,0.5,0.5c0,0.3-0.3,0.5-0.5,0.5
		C470.2,887.4,470,887.2,470,886.8C469.9,886.8,469.9,886.8,470,886.8L470,886.8z M471.8,897.6c-0.4,0.2-0.8,0.3-1.3,0.3
		c-0.4,0-0.9-0.1-1.3-0.3c-0.2-0.1-0.3-0.2-0.3-0.3l0.9-8c0.2,0.1,0.4,0.1,0.7,0.1c0.2,0,0.5,0,0.7-0.1l0.9,8
		C472.1,897.3,472,897.4,471.8,897.6z"/>
	<path class="st1" d="M904.4,430.2c-0.1-0.2-4.2-5.3-14.4-5.2c-7.9,0-12,3.2-13.6,4.8c-1.5-1.6-5.6-4.8-13.5-4.8
		c-10.2,0-14.3,5.1-14.5,5.2c-0.1,0.2-0.2,0.4-0.2,0.6v26.6c0,0.6,0.4,1,1,1c0.3,0,0.6-0.1,0.8-0.4c0-0.1,0.1-0.1,0.1-0.2
		c0.7-0.8,4.4-4.3,12.8-4.3c3.4-0.1,6.9,0.7,9.8,2.4c0.8,0.5,1.5,1,2.1,1.6c0.2,0.2,0.4,0.4,0.5,0.5s0.1,0.2,0.1,0.2
		c0.2,0.3,0.5,0.4,0.8,0.4h0.4c0.3,0,0.6-0.2,0.8-0.4l0.1-0.2c0.7-0.8,4.1-4.5,12.4-4.6c3.5-0.1,6.9,0.7,10,2.3
		c0.8,0.4,1.5,0.9,2.2,1.5c0.2,0.2,0.4,0.4,0.5,0.5c0,0,0.1,0.1,0.1,0.2c0.3,0.3,0.7,0.5,1.1,0.3c0.4-0.1,0.7-0.5,0.7-1v-26.6
		C904.6,430.6,904.5,430.4,904.4,430.2z M862.9,451.5L862.9,451.5c-6.5,0-10.6,2.1-12.7,3.6v-23.9c0.9-0.9,4.6-4.2,12.7-4.2
		c3.5-0.1,6.9,0.8,9.9,2.5c0.8,0.5,1.5,1,2.1,1.6c0.2,0.2,0.3,0.3,0.5,0.5c0,0,0.1,0.1,0.1,0.1v23.8
		C873.4,453.8,869.5,451.5,862.9,451.5z M902.6,455.1c-2.1-1.5-6.1-3.6-12.7-3.6s-10.6,2.2-12.5,3.9v-23.8l0.1-0.1
		c0.7-0.8,4.1-4.5,12.5-4.5c3.5-0.1,6.9,0.7,10,2.3c0.8,0.4,1.5,0.9,2.2,1.5l0.4,0.4L902.6,455.1z"/>
	<path class="st1" d="M52,476.9v-27.5H8.5v27.5l-6.1,6.9H58L52,476.9z M10.5,451.4H50V474H10.5V451.4z M10.5,477.7V476H50v1.7
		l0.2,0.3l3.4,3.8H6.9L10.5,477.7z M17.9,480.5h24.7v-2H17.9V480.5z"/>
	<path class="st1" d="M459.3,15.7h19.4v-2h-19.4V15.7z M459.3,21h19.4v-2h-19.4V21z M459.3,26.2h19.4v-2h-19.4V26.2z M497.5,37.8
		V14.4l-0.3-0.3l-7.6-7h-35.3v30.7h25c0.2,1.4,0.9,2.7,1.8,3.7l-4.5,8.1h9.1v-5.9h0.6c0.4,0,0.9,0,1.3-0.1v6h9.1l-4.8-8.6
		c0.7-0.9,1.2-2,1.4-3.2L497.5,37.8z M490.2,10.3l3.8,3.5h-3.8V10.3z M483.6,47.6h-3.8l2.7-4.9c0.3,0.2,0.7,0.3,1,0.5L483.6,47.6z
		 M486.1,41.7c-2.8,0-5.1-2.3-5.1-5.1s2.3-5.1,5.1-5.1c2.8,0,5.1,2.3,5.1,5.1C491.2,39.5,489,41.7,486.1,41.7L486.1,41.7z
		 M493.1,47.6h-3.8v-4.7c0.3-0.2,0.5-0.3,0.8-0.5L493.1,47.6z M486.1,29.6c-3.6,0-6.6,2.7-7,6.2h-23V9h32v6.8h7.3v20.1h-2.3
		C492.7,32.3,489.7,29.6,486.1,29.6L486.1,29.6z"/>
	<path class="st1" d="M142.5,161.6v-11h-13.6v11h-6.6v30.6h3.8v2.6h1.9v-2.6h15.5v2.6h1.9v-2.6h3.8v-30.6H142.5z M130.8,153.9h9.8
		v7.7h-9.8V153.9z M127.9,190.3v-20.4h15.5v20.4H127.9z M145.3,190.3V168H126v22.3h-1.9v-26.8h23v26.8L145.3,190.3z M135.7,171.6
		c-1.1,0-2,0.9-2,2s0.9,2,2,2s2-0.9,2-2C137.7,172.5,136.8,171.6,135.7,171.6C135.7,171.6,135.7,171.6,135.7,171.6L135.7,171.6z"/>
	<path class="st2" d="M869.5,662.1h-25.1c-2.5,0-4.6-2-4.6-4.6v-34.2c0-2.5,2-4.6,4.6-4.6h25.1c2.5,0,4.6,2,4.6,4.6v34.2
		C874.1,660.1,872,662.1,869.5,662.1 M844.5,621.1c-1.3,0-2.3,1-2.3,2.3v0v34.2c0,1.3,1,2.3,2.3,2.3h0h25.1c1.3,0,2.3-1,2.3-2.3
		v-34.2c0-1.3-1-2.3-2.3-2.3L844.5,621.1z"/>
	<path class="st2" d="M870.7,665.5H865c-1.3,0-2.3-1-2.3-2.3v0V661h2.3v2.3h5.7V661h2.3v2.3C872.9,664.5,871.9,665.5,870.7,665.5"/>
	<path class="st2" d="M849,665.5h-5.7c-1.3,0-2.3-1-2.3-2.3v0V661h2.3v2.3h5.7V661h2.3v2.3C851.3,664.5,850.3,665.5,849,665.5
		L849,665.5"/>
	<rect x="841" y="645" class="st2" width="31.9" height="2.3"/>
	<rect x="844.5" y="650.7" class="st2" width="5.7" height="2.3"/>
	<rect x="863.8" y="650.7" class="st2" width="5.7" height="2.3"/>
	<rect x="841" y="625.7" class="st2" width="31.9" height="2.3"/>
	<path class="st2" d="M837.6,638.2h-2.3v-6.8c0-0.4,0.2-0.7,0.5-0.9l4.5-3.4l1.4,1.8l-4.1,3.1V638.2z"/>
	<path class="st2" d="M878.6,638.2h-2.3v-6.3l-4.1-3.1l1.4-1.8l4.6,3.4c0.3,0.2,0.4,0.6,0.4,0.9V638.2z"/>
	<rect x="855.9" y="626.8" class="st2" width="2.3" height="19.4"/>
	<path class="st2" d="M822.8,173.4h-60.5c-0.4,0-0.8-0.4-0.8-0.8v-5.4c0-0.4,0.4-0.8,0.8-0.8h60.5c0.4,0,0.8,0.4,0.8,0.8v5.4
		C823.6,173.1,823.2,173.4,822.8,173.4z M763.1,171.9H822V168h-58.9L763.1,171.9z"/>
	<path class="st2" d="M822.8,168h-60.5c-0.4,0-0.8-0.4-0.8-0.8v-7.8c0-0.4,0.4-0.8,0.8-0.8c0,0,0,0,0,0h60.5c0.4,0,0.8,0.3,0.8,0.8
		c0,0,0,0,0,0v7.8C823.6,167.7,823.2,168,822.8,168z M763.1,166.4H822v-6.2h-58.9V166.4z"/>
	<path class="st2" d="M822.8,168h-60.5c-0.4,0-0.8-0.4-0.8-0.8v-7.8c0-0.4,0.4-0.8,0.8-0.8c0,0,0,0,0,0h60.5c0.4,0,0.8,0.3,0.8,0.8
		c0,0,0,0,0,0v7.8C823.6,167.7,823.2,168,822.8,168z M763.1,166.4H822v-6.2h-58.9V166.4z"/>
	<path class="st2" d="M783.4,192.2h-21.1c-0.4,0-0.8-0.4-0.8-0.8v-18.7c0-0.4,0.4-0.8,0.8-0.8c0,0,0,0,0,0h21.1
		c0.4,0,0.8,0.3,0.8,0.8c0,0,0,0,0,0v18.7C784.2,191.8,783.9,192.2,783.4,192.2z M763.1,190.6h19.5v-17.2h-19.5V190.6z"/>
	<path class="st2" d="M822.8,192.2h-21.1c-0.4,0-0.8-0.4-0.8-0.8v-18.7c0-0.4,0.4-0.8,0.8-0.8c0,0,0,0,0,0h21.1
		c0.4,0,0.8,0.3,0.8,0.8c0,0,0,0,0,0v18.7C823.6,191.8,823.2,192.2,822.8,192.2z M802.5,190.6H822v-17.2h-19.5L802.5,190.6z"/>
	<path class="st2" d="M801.7,200.5h-18.2c-0.4,0-0.8-0.4-0.8-0.8v-27.1c0-0.4,0.4-0.8,0.8-0.8c0,0,0,0,0,0h18.2
		c0.4,0,0.8,0.4,0.8,0.8v27.1C802.5,200.2,802.1,200.5,801.7,200.5C801.7,200.5,801.7,200.5,801.7,200.5z M784.2,198.9h16.6v-25.5
		h-16.6V198.9z"/>
	<path class="st2" d="M822.8,200.5h-60.5c-0.4,0-0.8-0.4-0.8-0.8v-32.5h1.6v31.7H822v-31.7h1.6v32.5
		C823.6,200.2,823.2,200.5,822.8,200.5z"/>
	<rect x="791.8" y="172.6" class="st2" width="1.6" height="27.1"/>
	<path class="st2" d="M809.6,154.4h-34.1c-0.4,0-0.8-0.4-0.8-0.8v-10.1c0-0.4,0.4-0.8,0.8-0.8h34.1c0.4,0,0.8,0.4,0.8,0.8v10.1
		C810.4,154.1,810.1,154.4,809.6,154.4C809.6,154.4,809.6,154.4,809.6,154.4z M776.3,152.9h32.5v-8.5h-32.5V152.9z"/>
	<rect x="781.7" y="153.6" class="st2" width="1.6" height="5.8"/>
	<rect x="801.8" y="153.6" class="st2" width="1.6" height="5.8"/>
	<rect x="756.5" y="198.9" class="st2" width="72.1" height="1.6"/>
	<path class="st3" d="M449.5,170.2c0,0,44.4-40.7,0-80.7s0-67.6,0-67.6"/>
	<path class="st3" d="M294.8,217.3c0,0-33.8-49.9-79.9-11.7s-66.9-9.8-66.9-9.8"/>
	<circle class="st4" cx="296.4" cy="219.7" r="4"/>
	<circle class="st4" cx="450.1" cy="171.6" r="4"/>
	<path class="st3" d="M231.9,605.2c0,0-33.8,49.9-79.9,11.7s-79.2,10.9-79.2,10.9"/>
	<circle class="st4" cx="234.6" cy="603.7" r="4"/>
	<path class="st3" d="M215.6,307.3c0,0-18.2,3.9-64.2,42S91,298.1,91,298.1"/>
	<circle class="st4" cx="214.6" cy="307" r="4"/>
	<path class="st3" d="M179.1,445.1c0,0-78.4-35.2-124.5,3"/>
	<circle class="st4" cx="179.1" cy="445.3" r="4"/>
	<path class="st3" d="M611.8,226.5c0,0,33.8-49.9,79.9-11.7s66.9-9.8,66.9-9.8"/>
	<circle class="st4" cx="610.2" cy="229" r="4"/>
	<path class="st3" d="M674.7,614.4c0,0,33.8,49.9,79.9,11.7s79.2,10.9,79.2,10.9"/>
	<circle class="st4" cx="672" cy="612.9" r="4"/>
	<path class="st3" d="M691,316.6c0,0,18.2,3.9,64.2,42s60.3-51.3,60.3-51.3"/>
	<circle class="st4" cx="692" cy="316.3" r="4"/>
	<path class="st3" d="M719.8,433.6c0,0,78.4-35.2,124.5,3"/>
	<circle class="st4" cx="719.8" cy="433.8" r="4"/>
	<path class="st5" d="M478.2,658.4l0.9-0.2c4.4-0.8,6.2-2.6,6.5-3.4c1.1-2.4,1.5-2.8,1.6-4.3s10.2,0.7,10.2,0.7l-0.8,7.2l-0.1,0.1
		c1,2.6,1.5,5.4,1.5,8.2c0,3.1-37.2,5-37.6,2.3C459.1,659.7,470.6,659.8,478.2,658.4z"/>
	<path class="st5" d="M683.9,658.4l-0.9-0.2c-4.4-0.8-6.2-2.6-6.5-3.4c-1.1-2.4-0.4-2.9-0.5-4.3s-11.3,0.8-11.3,0.8l0.8,7.2l0.1,0.1
		c-1,2.6-1.5,5.4-1.5,8.2c0,3.1,37.2,5,37.7,2.3C703.1,659.7,691.6,659.8,683.9,658.4z"/>
	<path class="st6" d="M636.8,304c4,2.6,15.6,16.5,27.8,38.8c37,67.7,13.1,274.5,13.1,314.8c-5.9-0.1-13.2,1.8-14.3-4.9
		c-7.3-41.5-52.1-247.2-52.1-247.2c-6.7,22-32.5,76.4-41.5,99c-38.7,96.9-73.5,154.8-73.5,154.8l-11-2.4c0,0,25.2-116.6,34-170.6
		c4.8-29.3,12.1-88.8,24.6-126.8c4.7-14,10.2-27.7,16.4-41.1C572,314.1,617.8,304.9,636.8,304z"/>
	<path class="st7" d="M636.8,304c4,2.6,20.1,14.5,27.8,38.8c20.7,65.9,13.1,274.5,13.1,314.8c-14,5.3-12.5,5.1-13.7-1.5
		c-6.3-35.7-40.8-195.4-50.3-239.4c-0.4-1.7-2.1-2.9-3.8-2.5c-1.1,0.2-2,1-2.4,2c-9.7,25.6-30,68.7-37.8,88.2
		c-38.7,96.9-73.5,154.8-73.5,154.8l0,0c0,0,42.9-85.8,68.3-168.5c32-104.4,5.7-174.2,15-175.9C592.5,312.4,628.8,304.4,636.8,304z"
		/>
	<path class="st5" d="M593.8,193.2c-0.1-0.2-3.3-17.5-7.4-20.6c-6.4-3.8-14.5-3-20,2c-3.4,3-12.2,4.5-6,16.1
		c2.2,4,12.1,16.2,13.7,16.7C574.6,207.6,596,199,593.8,193.2z"/>
	<path class="st8" d="M577.5,175.1c-0.8-2.5-3-4.3-5.6-4.4c-3.8-0.3-9.6,2.5-13.4,9.2c-2.7,4.7-8.5,3.6-8.5,3.6
		c4.1,3.8,9.9,5.1,15.2,3.2c5.7-1.9,10.9-9.3,10.9-9.3L577.5,175.1z"/>
	<path class="st9" d="M580.8,205.2c0,0,0.6,14.7,2.3,15.9s6.8,2.2,8.7-2s-3.7-15.7-3.7-15.7L580.8,205.2z"/>
	<path class="st10" d="M581.3,212c2.6,1.5,7.1,2.2,10.1,0c-0.5-1.9-1.2-3.8-2-5.6l-8.4,2.1C581,209.7,581.1,210.9,581.3,212z"/>
	<path class="st9" d="M594.9,196.6c0-1.7-2.7-6.7-5.1-10.8c-1.9-3.3-6.2-4.5-9.6-2.6c-0.1,0-0.1,0.1-0.2,0.1
		c-5.2,3.2-10.8,7-11.8,8.9c-1.6,3,0.3,6.6,1.6,9.4s4.7,7.2,7.5,8.6c2.6,1.3,7.9,0.8,10.3-0.5C595,205.6,596.1,202.6,594.9,196.6z"
		/>
	<path class="st11" d="M585.4,219.3l-0.1,56.9c0,0-3,50.8-2.3,51s12.9-1.8,20.2-3.1s26.2-6.6,26.2-6.6l-12.9-80.2l-15.6-19
		L585.4,219.3z"/>
	<path class="st12" d="M585.7,217.8l7-2c0,0,1.6,7.2-1.2,8.1S586.5,223.4,585.7,217.8z"/>
	<path class="st12" d="M590.4,221.6c1,16.8,3.1,33.4,6.3,49.9c5.3,27.6,7.9,50.2,7.9,50.2l17.9,7.3l8.1-15.8
		c0,0-32.5-88.5-37.9-92.1S590.4,221.6,590.4,221.6z"/>
	<path class="st13" d="M592.4,221.1c-2.6-1.8-3.2-1.7-3.1-1.1c0.7,0.4,1.4,0.8,2.1,1.2c5.4,3.6,37.9,92.1,37.9,92.1l-7.9,15.4
		l0.8,0.3l8.1-15.8C630.3,313.2,597.8,224.7,592.4,221.1z"/>
	<polygon class="st11" points="611.9,315.7 609.8,320.8 612.4,320.1 611.9,315.7 	"/>
	<polygon class="st11" points="614,315.1 612.3,315.6 612.8,320 614.5,319.5 	"/>
	<path class="st11" d="M616.7,314.3l0.5,4.4c1.2-0.4,2-1.6,1.8-2.8c-0.1-1-0.9-1.8-1.9-1.7C617,314.2,616.8,314.3,616.7,314.3z"/>
	<polygon class="st11" points="614.5,314.9 615,319.3 616.8,318.8 616.8,318.8 616.8,318.8 616.3,314.4 	"/>
	<path class="st11" d="M621.2,313c-1.2,0.4-2,1.5-1.9,2.8c0.1,1,0.9,1.8,1.9,1.7c0.1,0,0.3,0,0.4-0.1l0,0L621.2,313L621.2,313z"/>
	<path class="st11" d="M621.6,312.9l0.5,4.4c1.2-0.4,2-1.6,1.8-2.8c-0.1-1-0.9-1.8-1.9-1.7C621.9,312.9,621.7,312.9,621.6,312.9z"/>
	<path class="st11" d="M623.8,312.2c-0.1,0.1-0.2,0.2-0.1,0.4c0.1,0.1,0.2,0.2,0.3,0.2c0.1,0,0.2-0.2,0.2-0.3
		C624.1,312.3,623.9,312.2,623.8,312.2C623.8,312.2,623.8,312.2,623.8,312.2z M623.9,312.7c-0.1,0-0.2,0-0.3-0.1
		c0-0.1,0-0.2,0.2-0.3c0.1,0,0.2,0,0.3,0.2C624.1,312.6,624,312.7,623.9,312.7z"/>
	<path class="st11" d="M624,312.4c0-0.1-0.1-0.1-0.1-0.1h-0.1l0.1,0.3l0,0v-0.1h0.1l0.1,0.1l0,0l-0.1-0.1c0,0,0.1,0,0.1,0
		S624,312.5,624,312.4z M623.8,312.5L623.8,312.5L623.8,312.5c0.1-0.1,0.1-0.1,0.1-0.1S623.9,312.5,623.8,312.5L623.8,312.5z"/>
	<path class="st6" d="M564.8,298.1c4.4,17.4-18,52.7-18,52.7s33.9,31.3,61.7,26.5c-1.3-14.9,3.8-93.2-5.6-118.4
		c-8.3-22.2-20.9-42.6-26.9-40.4c-18.6,7.1-33.7,11.9-37.8,20.6C535.7,244.4,559.2,276,564.8,298.1z"/>
	<path class="st6" d="M551.3,237.6c1.1-2.2,0.3-4.8-1.8-6c-1.3-0.7-2.8-0.7-4,0c-7.7,3.6-14.6,8.6-20.5,14.6
		c-13.3,14.2-31.7,29.9-30.2,47.2c1.7,19.8,34.7,56.2,56.1,49.2c6.2-2,6-10.5,5.5-14c-0.1-1-0.6-1.9-1.3-2.6l-36.7-36.4
		c-1.6-1.6-1.7-4.1-0.3-5.9l25.6-31.5c0.2-0.2,0.4-0.5,0.5-0.8L551.3,237.6z"/>
	<path class="st9" d="M555.4,331.2c0,0-1.1-10.1,2.2-11.2s8.5-3.1,9.3-1.9s-3,2.6-3,2.6c1.4,0.4,2.8,0.9,4.1,1.5
		c0.6,0.4-1.2,1.6-1.2,1.6c0.7,0.2,1.2,0.7,1.3,1.4c0.2,1.2-2.9,0.6-4.2,1.4s-2.8,6.4-5.5,8.1C557.4,335.4,555.6,334,555.4,331.2z"
		/>
	<path class="st6" d="M636.6,372.3c0,0,31-9.1,31.1-23.2c-20.6-42-15.4-18.5-16.1-29.9c-2.8-51-3.9-66-11.6-88
		c-1.4-4.1-2.6-13.1-7.8-15.6c-4.2-1.8-8.8-2.8-13.4-3c-3.8-0.2-7.6-0.2-11.3,0c-4.8,0.3-9.6,0.9-14.3,1.7c-0.7,0.1-3.8,0.9-3.8,0.9
		s13.4,22.2,23.8,43.9S636.6,372.3,636.6,372.3z"/>
	<path class="st9" d="M654.8,318.8c0,0-3-9.7-6.4-9.5s-9,0.5-9.3,2s3.8,1.2,3.8,1.2c-1.1,0.9-2.2,1.9-3.2,3c-0.3,0.6,1.8,1,1.8,1
		c-0.6,0.4-0.8,1.2-0.6,1.8c0.3,1.2,2.9-0.6,4.4-0.4s5.1,4.8,8.2,5.3C654.6,323.4,655.7,321.4,654.8,318.8z"/>
	<path class="st7" d="M690.2,262.1c-5.5-16.5-28.3-35.1-45.9-43.5c-4.6-2-9.5-3.4-14.6-4.1c0.8,0.3,1.7,0.6,2.5,1
		c5,2.4,6.8,15.5,10.3,24.1c0.2,0.4,0.4,0.8,0.8,1.1L667,263c0.9,0.8,1.2,2.1,0.8,3.2l-16.6,47c-0.2,0.6-0.2,1.2-0.1,1.8
		c0.8,3,3.8,11.9,10.8,11.3C684.3,324.3,696.5,281,690.2,262.1z"/>
	<polygon class="st2" points="593,256.7 628.7,292.3 593.9,253.9 	"/>
	<polygon class="st2" points="608.4,244.4 626.7,289.3 609.3,241.7 	"/>
	<path class="st11" d="M642.9,302.7l-13.6,7.6c-0.3,0.1-0.6,0.1-0.7-0.2l-12.1-21.5c-0.1-0.3-0.1-0.6,0.2-0.7l13.6-7.6
		c0.3-0.1,0.6-0.1,0.7,0.2l12.1,21.5C643.2,302.2,643.2,302.5,642.9,302.7z"/>
	<path class="st2" d="M631.1,280.6c-0.2-0.4-0.7-0.5-1.1-0.3c0,0,0,0,0,0l-13.1,7.3c-0.4,0.2-0.5,0.7-0.3,1.1l3.1,5.6
		C620,294.7,631.1,280.6,631.1,280.6z"/>
	<path class="st14" d="M627.7,295.2c1.4,0.4,2.8-0.4,3.3-1.8c1.1-0.5,2.3-0.1,2.9,0.9l1.3,2.3c0.2,0.4,0.1,0.9-0.3,1.2l-5.4,3
		c-0.4,0.2-0.9,0.1-1.2-0.3l-1.3-2.3C626.4,297.1,626.7,295.8,627.7,295.2z"/>
	<path class="st14" d="M629.3,294.3c-1,0.7-2.5,0.5-3.2-0.5c-0.7-1-0.5-2.5,0.5-3.2c0.1-0.1,0.3-0.2,0.4-0.2c1.2-0.5,2.5,0,3,1.2
		C630.5,292.5,630.2,293.7,629.3,294.3z"/>
	<path class="st7" d="M578.5,217.5c-4.1,1.6-10.5,4-10.5,4l4,11.7l8.2-1.4l-9.9,7.1l36.1,31.1c-1.7-6.3-3.9-12.4-6.5-18.4
		C593,236.1,582.2,216.2,578.5,217.5z"/>
	<path class="st7" d="M614.5,224.3c0-3.4-13.5-0.6-13.5-0.6l5.1-4.1l-8.5-6c0,0-2.2,0.3-4.3,0.7c-0.7,0.1-3.8,0.9-3.8,0.9
		s23.8,45.3,26.8,51.5L614.5,224.3z"/>
	<path class="st15" d="M592.9,208.2l-2.7,4.5c-0.8,1.5-2,2.8-3.3,3.8l9,6.6l3.5-11.3L592.9,208.2z"/>
	<path class="st15" d="M587.4,216.3l-2.2,11c0,0-5.3-1-9-8.9l-0.8-1.8l2.6-3.9c0,0,3.8,3.9,9,3.4"/>
	<path class="st5" d="M342.5,193.7c3.5-1.7,7.6-1.1,10.5,1.6c4.1,3.9,6.9,12.9,3.5,23.7c-2.4,7.6,4.7,12.8,4.7,12.8
		c-8.2-0.5-15.4-5.6-18.7-13.1c-3.6-8-1-21.1-1-21.1L342.5,193.7z"/>
	<path class="st9" d="M225.6,370.1c0,0-6.7-3-10.1-0.9c-3.1,2-6.5,7.8-6.5,8.4c0.2,1.6,3.9-3.5,3.9-3.5s-4.7,6.1-3.5,7.2
		c0.6,0.5,2.3-1.5,2.3-1.5s-1,0.5,0.1,1.3s4.6-3.4,6-4.4s6.9-0.3,9.8-2.1C228.9,374,228.3,371.6,225.6,370.1z"/>
	<path class="st9" d="M226.4,374.9c0,0-4.4,4.6-6,5s2.3-4.7,2.3-4.7L226.4,374.9z"/>
	<polygon class="st9" points="226.8,356.9 222.9,369.7 227.6,373.7 232.9,360.1 	"/>
	<path class="st9" d="M436.9,653.3c-0.1-0.3-23.5-118-35.3-170c-8.8-38.7-20.6-115-56.5-165.8c-5.2-1.6-13.4,1.2-26.2,0.7h-0.1h-0.4
		c-0.2,0-0.4,0-0.5-0.1c-1.6-0.1-2.5-0.3-2.5-0.3h0c-12.7-1.5-24.8-4.2-28.8-6.1c-0.1,0-0.2,0-0.2,0c-0.2,0.8-24.8,27-30.9,48.2
		c-18.3,63.9-13.5,263.8-11.9,298.6c0.1,1.2-0.8,0.5,3.4-1.1c2.5-0.9,54.6-205.1,66.6-252.2c0.5-1.9,2.4-3,4.3-2.5
		c1,0.3,1.9,1,2.3,1.9l114.6,249.1L436.9,653.3z"/>
	<path class="st10" d="M403.3,482.9c-8.8-38.7-50.2-153.2-55.9-162.1c11.7,40.2,42.6,117.7,42.6,219.7c0,3.6,0,7.1-0.1,10.7
		l46.6,102.1l3.1-0.2C439.5,652.8,415.1,534.9,403.3,482.9z"/>
	<polygon class="st16" points="411.3,215.9 411.4,216.3 411.3,216.4 	"/>
	<path class="st17" d="M321.3,322.7L321.3,322.7L321.3,322.7C321.2,322.7,321.3,322.7,321.3,322.7z"/>
	<path class="st18" d="M362.1,255.4L362.1,255.4c0,0,0-0.1,0-0.2S362.1,255.3,362.1,255.4c17.5-7.6,53.4-25.1,63.3-44.8l0,0
		c0.3-0.6,0.6-1.3,0.9-1.9c0.1-0.3,0.3-0.6,0.4-1c7.8-21.1,19.7-65.9-4.4-70.1c-1.1-0.2-2-0.4-3-0.6c-2.8-0.5-10.1,5.4-11.8,12
		c-4.1,16-10.9,50.6-10.9,50.6l0.1,0.4l-0.1,0.1v0.1c0,0-23.5,27.3-33,31.3c-2.7,1.1-10.2,1.4-12.5-0.2
		C351.1,231.4,361.8,257,362.1,255.4z M413.8,224.8c-12.6,11.3-31,20.9-44.3,27.1C382.8,245.7,401.2,236,413.8,224.8
		c3.6-3.1,6.8-6.6,9.5-10.5C420.6,218.1,417.4,221.6,413.8,224.8z"/>
	<path class="st18" d="M312.3,225.3c-6.9,0.3-25.2,3.8-35.5,21.4c-9.5,16-27.2,48.6-30.5,59.8c-2.4,8.2,15.3,11.2,15.3,11.2
		l24.4-56.4C286,261.3,315.6,225.2,312.3,225.3z"/>
	<path class="st18" d="M260.5,292.3c-21.3,5-48.1,50-33.5,67.3c5.5,6.4,10.9,4.9,10.9,4.9l26.7-51.2c0,0,5-13.2,6.4-17.4
		C273.4,288.9,271.5,289.7,260.5,292.3z"/>
	<path class="st9" d="M438.8,118.9c0.7-3.9-3-7.5-5.8-5.8c-0.8,0.8-1.6,1.7-2.3,2.7c-0.7,0.9-1.3,1.7-1.3,1.7s0.3-4.8-0.9-4.9
		s-0.8,3.3-1.2,4.6s-4,10,0.2,10.1C427.5,127.2,437.8,124.5,438.8,118.9z"/>
	<path class="st9" d="M435.2,110.9c0,0,1.5,0.2,0.5,2.1c0,0,2.6-2.2,3.6-1.1s-0.7,3.7-0.8,4.4c0,0,1.2-1.6,1.4-0.4s-1.3,4.9-2.7,6
		s-7.3-5.3-7.3-5.3S433.7,111.5,435.2,110.9z"/>
	<path class="st9" d="M330.4,211.8l5.1,1.1c0.6,0.1,1,0.8,0.9,1.4l-3.2,14.8c-0.1,0.6-0.8,1-1.4,0.9l-5.1-1.1
		c-0.6-0.1-1-0.8-0.9-1.4l3.2-14.8C329.1,212,329.7,211.6,330.4,211.8z"/>
	<path class="st10" d="M331.1,223.2c-1.5-0.9-3.8-2.9-3.4-4.6l2-8.8c0.4-1.7,2.1-2.8,3.8-2.4c0,0,0,0,0,0l1.2,0.2
		c1.7,0.4,2.8,2.1,2.4,3.8l-2.3,10.9C334.3,224,332.6,224.1,331.1,223.2z"/>
	<path class="st9" d="M321.4,203.7c0.1-1.8,3.1-7.2,5.7-11.7c2.1-3.6,6.8-4.8,10.5-2.7c0.1,0,0.1,0.1,0.2,0.1
		c5.7,3.6,11.7,7.8,12.8,9.9c1.7,3.3-0.4,7.2-1.9,10.2s-5.3,7.8-8.4,9.2c-2.8,1.4-8.6,0.8-11.3-0.8
		C321.2,213.6,320,210.3,321.4,203.7z"/>
	<path class="st8" d="M336.2,216.1c0,0,26.9,0.8,17.7-15.3c-5.6-9.8-3.3-17.4-16-15.1c-15.4,2.8-13.7-7.5-13.7-7.5
		s-8.8,1.7-3.2,16.4c1.8,4.6,2.4,4.1,2.4,4.1s2.5-7.2,10.4-7.4s11.7,4.3,13.7,12.9C350.1,215.5,336.2,216.1,336.2,216.1z"/>
	<path class="st8" d="M326.2,190.1c0,0,6.9,12.4,16.9,14c10,1.6-2.5-16-2.5-16L326.2,190.1z"/>
	<path class="st11" d="M343,317.2c0,0,10.4-23.2,13.8-32.4c3.3-9,15.3-36,15.3-36s-8.5-10.2-12.3-12.7c-19.2-12.5-54-13.2-65.6-2.5"
		/>
	<path class="st18" d="M373.8,246.9c0,0-8.6-8.9-12.4-11.4c-7.6-5-18.9-7.3-29-8.6c-0.7,0-1.3,0.2-1.9,0.5c0,0-11.7,17.3-15.7,43.9
		c-3.5,22.7,28.6,44.5,28.6,44.5s10.4-23.1,13.7-32.3C360.4,274.5,373.8,246.9,373.8,246.9z"/>
	<path class="st6" d="M341.9,316.1l-0.4,0.1L341.9,316.1z"/>
	<path class="st6" d="M320,317.6l-1.4-0.1L320,317.6z"/>
	<path class="st6" d="M312.8,317l-1.2-0.1L312.8,317z"/>
	<path class="st6" d="M323.2,317.7h-1.4H323.2z"/>
	<path class="st6" d="M316.6,317.3l-1.4-0.1L316.6,317.3z"/>
	<path class="st6" d="M340.9,316.3l-0.5,0.1L340.9,316.3z"/>
	<path class="st6" d="M329,317.6l-1.2,0L329,317.6z"/>
	<path class="st6" d="M331.6,317.4l-1.1,0.1L331.6,317.4z"/>
	<path class="st6" d="M326.2,317.7h-1.3H326.2z"/>
	<path class="st6" d="M351.6,240.5c-0.3,1-0.4,2.1-0.4,3.2C351.2,242.6,351.3,241.6,351.6,240.5z"/>
	<path class="st6" d="M339.5,316.5l-0.7,0.1L339.5,316.5z"/>
	<path class="st6" d="M337.9,316.8l-0.8,0.1L337.9,316.8z"/>
	<path class="st6" d="M343.2,315.8L343.2,315.8L343.2,315.8z"/>
	<path class="st6" d="M336.1,317l-0.9,0.1L336.1,317z"/>
	<path class="st6" d="M342.7,315.9h-0.3H342.7z"/>
	<path class="st6" d="M333.9,317.2l-1,0.1L333.9,317.2z"/>
	<path class="st6" d="M354.5,231.6c0.8,0.4,1.5,0.8,2.3,1.2C356,232.3,355.2,231.9,354.5,231.6z"/>
	<path class="st6" d="M351.8,239.8c0,0.2-0.1,0.4-0.2,0.5C351.7,240.2,351.7,240,351.8,239.8z"/>
	<path class="st7" d="M338.9,316.6l-0.9,0.1L338.9,316.6z"/>
	<path class="st7" d="M340.3,316.4l-0.8,0.1L340.3,316.4z"/>
	<path class="st7" d="M337.1,316.9l-1.1,0.1L337.1,316.9z"/>
	<path class="st7" d="M343.1,315.8l-0.4,0.1L343.1,315.8z"/>
	<path class="st7" d="M343.3,315.8l-0.2,0L343.3,315.8z"/>
	<path class="st7" d="M342.4,316l-0.5,0.1L342.4,316z"/>
	<path class="st7" d="M341.5,316.2l-0.7,0.1L341.5,316.2z"/>
	<path class="st7" d="M315.2,317.2l-2.4-0.3L315.2,317.2z"/>
	<path class="st7" d="M311.5,316.8L311.5,316.8z"/>
	<path class="st7" d="M318.6,317.5l-2-0.1L318.6,317.5z"/>
	<path class="st7" d="M353.8,231.3l0.6,0.3L353.8,231.3z"/>
	<path class="st7" d="M351.8,239.8c0.8-2.9,2.7-5.3,5.1-7l-0.1-0.1l0.1,0.1C354.5,234.5,352.6,237,351.8,239.8z"/>
	<path class="st7" d="M351.6,240.4c0,0.1,0,0.1,0,0.2C351.6,240.5,351.6,240.4,351.6,240.4z"/>
	<path class="st7" d="M330.5,317.5l-1.4,0.1L330.5,317.5z"/>
	<path class="st7" d="M321.9,317.6l-1.9-0.1L321.9,317.6z"/>
	<path class="st7" d="M335.1,317.1l-1.2,0.1L335.1,317.1z"/>
	<path class="st7" d="M332.9,317.3l-1.3,0.1L332.9,317.3z"/>
	<path class="st7" d="M327.8,317.6c-0.5,0-1,0-1.6,0C326.8,317.6,327.3,317.6,327.8,317.6z"/>
	<path class="st7" d="M324.9,317.7h-1.7H324.9z"/>
	<path class="st6" d="M314.8,271.2c1.3-8.4,0.4-16.1,2.5-22.7l-0.2-4.1l1.7-19.9c-10.5,0.2-19.8,2.6-24.7,7.2
		c-15,13.8-6,69.7-8.1,85.6c4.5,10.2,17.9,11.2,18.5,11.3C304,328.3,311.3,293.9,314.8,271.2z"/>
	<path class="st7" d="M304.7,326.8c-11.9,0.4-18.6-10.1-18.7-9.6c4.5,10.2,17.6,11.2,18.2,11.3C304.1,328.4,304.5,327.8,304.7,326.8
		z"/>
	<path class="st6" d="M353.8,231.3c-5.2-2.4-10.7-4.1-16.3-5.2l-0.1,0.1C343.1,227.2,348.6,228.9,353.8,231.3z"/>
	<path class="st7" d="M363.4,256.6c-6.8,0-12.2-5.8-12.2-12.9c0-1.1,0.1-2.1,0.4-3.2c0-0.1,0-0.1,0-0.2c0-0.2,0.1-0.4,0.2-0.5
		c0.8-2.9,2.7-5.3,5.1-7l-0.1-0.1c-0.8-0.4-1.5-0.8-2.3-1.2l-0.6-0.3c-5.2-2.4-10.7-4.1-16.4-5.1l-17.3,22.4
		c-2.4,7.4-4.2,15-5.4,22.7c-3.5,22.7-10.9,57.4-10.3,57.5c20.8,5.6,16,4.1,29.5,5.5c18.3,1.9,18.2-33.2,24.6-49.7
		c6.7-17.2,8.6-23.6,12.7-32.1C369.3,253.7,365.9,256.6,363.4,256.6z"/>
	<polygon class="st11" points="327.3,220.2 321,218.6 323.2,226.1 326.3,224.8 	"/>
	<polygon class="st15" points="334.8,221.9 338.5,221.7 336.2,229.1 333.1,227.8 	"/>
	<path class="st9" d="M426.3,144.1c0,0-0.9-14.6,2-18c2.9-3.4-2.8-1.1-2.8-1.1s-6.5,11.5-5.4,17S426.3,144.1,426.3,144.1z"/>
	<path class="st6" d="M286,310.6c-12.3,12.9-22.9,27.3-31.6,42.8c-14,25.3-20.9,102.9-20,162.6c0,0,45.5,22.2,149.8,11.2
		c0,0,27-3.4,33.8-8.2c0,0-19.3-102.4-44.1-154.3s-24.6-50.3-24.6-50.3c-11.1,2.4-22.5,3.5-33.9,3.3
		C293.9,317.4,286,310.6,286,310.6z"/>
	<path class="st7" d="M351.8,388.3c24.3,44,64.4,132.2,66.3,130.9c0,0-19.3-102.4-44.1-154.3s-24.6-50.3-24.6-50.3
		c-11.1,2.4-22.5,3.5-33.9,3.3c-21.6-0.3-29.5-7.1-29.5-7.1s-11.3,30.3,7.3,30.6C312.9,341.5,324,337.9,351.8,388.3z"/>
	<path class="st9" d="M243.7,652.7c1.2,0.8,3.6,2.5,3.9,2.8c-1.1,3.4-7.9,7.6-11.5,8.1c-2.5,0.3-1.7-1.6-0.7-3.2
		c2.6-2.2,4.8-4,5.2-4.5S243,653.5,243.7,652.7z"/>
	<path class="st8" d="M247.6,655.5c1.6,1.6,2.8,3.5,3.6,5.6c0.9,2.2-23.1,14.9-25.2,10.6c-0.7-1.5,5.2-7.7,9.3-11.3
		c-1,1.6-1.9,3.5,0.7,3.2C239.8,663.1,246.6,658.9,247.6,655.5z"/>
	<path class="st8" d="M251.3,661.7l-0.2,3.9c0,0.4-0.3,0.7-0.7,0.6c-0.1,0-0.2,0-0.3-0.1l-2.9-1.6c-0.3-0.2-0.5-0.6-0.3-0.9
		c0-0.1,0.1-0.2,0.2-0.2l3.1-2.3c0.3-0.2,0.7-0.1,1,0.2C251.3,661.4,251.3,661.6,251.3,661.7z"/>
	<path class="st9" d="M438.5,650.3c-1.2,0.8-3.6,2.5-3.9,2.8c1.1,3.4,7.9,7.6,11.5,8.1c2.5,0.3,1.7-1.6,0.7-3.2
		c-2.6-2.2-4.8-4-5.2-4.5S439.2,651.2,438.5,650.3z"/>
	<path class="st8" d="M434.5,653.2c-1.6,1.6-2.8,3.5-3.6,5.6c-0.9,2.2,23.1,14.9,25.2,10.6c0.7-1.5-5.2-7.7-9.3-11.3
		c1,1.6,1.9,3.5-0.7,3.2C442.4,660.8,435.6,656.5,434.5,653.2z"/>
	<path class="st8" d="M430.9,658.9l0.3,4.9c0,0.2,0.2,0.4,0.4,0.4c0.1,0,0.1,0,0.2-0.1l3.6-2c0.2-0.1,0.2-0.4,0.1-0.6
		c0,0-0.1-0.1-0.1-0.1l-3.9-2.9c-0.2-0.1-0.5,0-0.6,0.2C430.9,658.7,430.9,658.8,430.9,658.9z"/>
	<polygon class="st6" points="340.5,225.3 349.1,253.3 334.9,246.6 309.1,303.3 317.1,253.8 	"/>
	<polygon class="st7" points="322.7,224.4 299.1,231.1 312.5,239.4 309.1,303.3 316.2,258.2 	"/>
	<path class="st15" d="M321,218.6l3.6,4.4c1.1,1.4,2.5,2.6,4.1,3.5l-28.5,9.8l14.4-12.7L321,218.6z"/>
	<path class="st11" d="M299.5,298.9l-14.1-6.6c-0.3-0.1-0.4-0.4-0.3-0.7l10.4-22.4c0.1-0.3,0.4-0.4,0.7-0.3l14.1,6.6
		c0.3,0.1,0.4,0.4,0.3,0.7l-10.4,22.4C300.1,298.9,299.8,299,299.5,298.9z"/>
	<path class="st2" d="M310.5,276.5c0.2-0.4,0-0.8-0.4-1l-13.6-6.3c-0.4-0.2-0.8,0-1,0.4l-2.7,5.7
		C292.6,275.7,310.5,276.5,310.5,276.5z"/>
	<path class="st14" d="M296.6,282.2c0.2,0.7,0.7,1.2,1.4,1.5c0.6,0.3,1.3,0.3,2,0.1c1,0.6,1.4,1.8,0.9,2.9l-1.1,2.4
		c-0.2,0.4-0.7,0.6-1.2,0.4c0,0,0,0,0,0l-5.6-2.6c-0.4-0.2-0.6-0.7-0.4-1.2l1.1-2.4C294.3,282.3,295.5,281.8,296.6,282.2z"/>
	<path class="st14" d="M298.3,283c-1.2-0.5-1.7-1.9-1.1-3.1c0.5-1.2,1.9-1.7,3.1-1.1s1.7,1.9,1.1,3.1c0,0,0,0,0,0
		C300.8,283,299.4,283.5,298.3,283z"/>
	<polygon class="st2" points="316.2,230.8 301.1,275.2 318.9,229.9 	"/>
	<polygon class="st2" points="333.9,230.8 302.3,271.8 336.6,229.9 	"/>
	<polygon class="st13" points="332.5,232.3 322.7,243 329.1,226.9 	"/>
	<polygon class="st12" points="300.2,290.5 320.7,245.9 315.5,300 	"/>
	<polygon class="st11" points="303,284.5 301.5,287.7 316.7,297.2 317.1,293.3 	"/>
	<polygon class="st12" points="319.8,229.6 322.2,245.9 328.1,226.7 	"/>
	<polygon class="st12" points="306.3,287.1 303.2,288.3 304.6,289.1 306.3,287.1 	"/>
	<polygon class="st12" points="307.4,287.8 306.5,287.2 304.8,289.2 305.7,289.8 	"/>
	<path class="st12" d="M308.8,288.6l-1.7,2c0.7,0.4,1.5,0.2,2-0.3c0.4-0.4,0.4-1.1-0.1-1.5C309,288.7,308.9,288.6,308.8,288.6z"/>
	<polygon class="st12" points="307.7,287.9 306,289.9 306.9,290.5 306.9,290.5 306.9,290.5 308.7,288.5 	"/>
	<path class="st12" d="M311.3,290.1c-0.7-0.4-1.5-0.2-2,0.3c-0.4,0.4-0.4,1.1,0,1.5c0.1,0.1,0.1,0.1,0.2,0.2l0,0L311.3,290.1
		L311.3,290.1z"/>
	<path class="st12" d="M311.5,290.2l-1.7,2c0.7,0.4,1.5,0.2,2-0.4c0.4-0.5,0.3-1.1-0.1-1.5C311.6,290.2,311.5,290.2,311.5,290.2z"/>
	<path class="st12" d="M312.7,290.8c-0.1,0-0.2,0-0.2,0.1c0,0.1,0,0.2,0,0.2c0,0,0,0,0,0c0.1,0,0.2,0,0.2,0c0,0,0,0,0,0
		C312.8,291,312.7,290.9,312.7,290.8z M312.5,291.1c0-0.1,0-0.1,0-0.2c0-0.1,0.1-0.1,0.2-0.1c0,0,0,0,0,0c0,0.1,0,0.1,0,0.2
		C312.6,291.1,312.6,291.1,312.5,291.1L312.5,291.1z"/>
	<path class="st12" d="M312.7,291C312.7,291,312.7,290.9,312.7,291L312.7,291l-0.2,0.1l0,0V291l0,0v0.1l0,0V291L312.7,291z
		 M312.5,291L312.5,291L312.5,291L312.5,291C312.5,290.9,312.5,290.9,312.5,291L312.5,291z"/>
	<polygon class="st13" points="308.4,299.5 321.4,241.5 325.8,242.8 328.2,305.8 	"/>
	<polygon class="st11" points="309.9,292.9 308.9,297.2 328.1,303.3 328,298.6 	"/>
	<polygon class="st13" points="315.8,295.5 312.4,297.8 314.3,298.4 315.8,295.5 	"/>
	<polygon class="st13" points="317.3,296 316,295.6 314.6,298.4 315.8,298.8 	"/>
	<path class="st13" d="M319.2,296.6l-1.5,2.9c0.9,0.2,1.8-0.2,2.2-1c0.3-0.6,0.1-1.4-0.5-1.8C319.4,296.6,319.3,296.6,319.2,296.6z"
		/>
	<polygon class="st13" points="317.7,296.1 316.2,299 317.5,299.4 317.5,299.4 317.5,299.4 318.9,296.5 	"/>
	<path class="st13" d="M322.5,297.6c-0.9-0.2-1.8,0.2-2.2,1c-0.4,0.6-0.1,1.4,0.5,1.8c0.1,0.1,0.2,0.1,0.3,0.1l0,0L322.5,297.6
		L322.5,297.6z"/>
	<path class="st13" d="M322.7,297.7l-1.5,2.9c0.9,0.2,1.8-0.2,2.2-1c0.3-0.6,0.1-1.4-0.5-1.8C322.9,297.8,322.8,297.7,322.7,297.7z"
		/>
	<path class="st13" d="M324.3,298.1c-0.1,0-0.2,0-0.3,0.1c0,0,0,0,0,0c0,0.1,0,0.2,0.1,0.2c0.1,0,0.2,0,0.2-0.1
		C324.5,298.3,324.4,298.2,324.3,298.1z M324.2,298.5c-0.1,0-0.1-0.1-0.1-0.2c0-0.1,0.1-0.1,0.2-0.1s0.1,0.1,0.1,0.2
		C324.4,298.5,324.3,298.5,324.2,298.5z"/>
	<path class="st13" d="M324.4,298.3C324.4,298.3,324.4,298.2,324.4,298.3l-0.1-0.1l-0.1,0.2l0,0v-0.1l0,0v0.1l0,0v-0.1
		c0,0.1,0.1,0.1,0.1,0.1S324.4,298.4,324.4,298.3z M324.2,298.3L324.2,298.3L324.2,298.3C324.2,298.2,324.3,298.2,324.2,298.3
		C324.2,298.3,324.2,298.3,324.2,298.3L324.2,298.3z"/>
	<path class="st12" d="M321.4,240.1l4.6-0.6c0,0,1.2,7.4-4.5,8.8C318.6,248.9,316.2,242.9,321.4,240.1z"/>
	<path class="st11" d="M329,227l14.3,21.5c0,0-4.7-12-2.1-21l0.5-2.1l-3.4-3.7c0,0-3.3,4.8-9,5.1"/>
	<path class="st19" d="M579.9,650.9c-48.5,0-91,3.5-113.9,8.8c-22.9-5.2-65.4-8.8-113.9-8.8c-72.9,0-132,8-132,17.8
		s59.1,17.8,132,17.8c48.5,0,91-3.5,113.9-8.8c22.9,5.2,65.3,8.8,113.9,8.8c72.9,0,132-8,132-17.8S652.8,650.9,579.9,650.9z"/>
	
		<rect x="86.2" y="261.4" transform="matrix(0.8727 -0.4883 0.4883 0.8727 -120.1627 76.697)" class="st1" width="1.6" height="14.7"/>
	
		<rect x="83.2" y="263.1" transform="matrix(0.8727 -0.4883 0.4883 0.8727 -121.3758 75.4337)" class="st1" width="1.6" height="14.7"/>
	
		<rect x="80.2" y="264.8" transform="matrix(0.8727 -0.4883 0.4883 0.8727 -122.5854 74.174)" class="st1" width="1.6" height="14.7"/>
	
		<rect x="77.1" y="266.5" transform="matrix(0.8727 -0.4883 0.4883 0.8727 -123.7997 72.9058)" class="st1" width="1.6" height="14.7"/>
	
		<rect x="74.1" y="268.2" transform="matrix(0.8727 -0.4883 0.4883 0.8727 -125.013 71.6496)" class="st1" width="1.6" height="14.7"/>
	
		<rect x="71.1" y="269.9" transform="matrix(0.8727 -0.4883 0.4883 0.8727 -126.2261 70.3863)" class="st1" width="1.6" height="14.7"/>
	
		<rect x="102.2" y="271" transform="matrix(0.8727 -0.4883 0.4883 0.8727 -119.6365 84.9858)" class="st1" width="1.9" height="1.8"/>
	
		<rect x="100.5" y="267.9" transform="matrix(0.8727 -0.4883 0.4883 0.8727 -118.349 83.7471)" class="st1" width="1.9" height="1.8"/>
	
		<rect x="98.8" y="264.8" transform="matrix(0.8727 -0.4883 0.4883 0.8727 -117.0663 82.5097)" class="st1" width="1.9" height="1.8"/>
	
		<rect x="97" y="261.7" transform="matrix(0.8727 -0.4883 0.4883 0.8727 -115.7725 81.2746)" class="st1" width="1.9" height="1.8"/>
	
		<rect x="95.3" y="258.7" transform="matrix(0.8727 -0.4883 0.4883 0.8727 -114.4837 80.0408)" class="st1" width="1.9" height="1.8"/>
	
		<rect x="93.6" y="255.6" transform="matrix(0.8727 -0.4883 0.4883 0.8727 -113.1996 78.8011)" class="st1" width="1.9" height="1.8"/>
	
		<rect x="91.8" y="252.5" transform="matrix(0.8727 -0.4883 0.4883 0.8727 -111.912 77.5624)" class="st1" width="1.9" height="1.8"/>
	
		<rect x="106.5" y="286.8" transform="matrix(0.9993 -3.751567e-02 3.751567e-02 0.9993 -10.7177 4.233)" class="st1" width="1.9" height="1.8"/>
	
		<rect x="106.4" y="283.3" transform="matrix(0.9993 -3.751567e-02 3.751567e-02 0.9993 -10.5847 4.2253)" class="st1" width="1.9" height="1.8"/>
	
		<rect x="106.3" y="279.7" transform="matrix(0.9993 -3.751567e-02 3.751567e-02 0.9993 -10.4521 4.2184)" class="st1" width="1.9" height="1.8"/>
	
		<rect x="106.1" y="276.2" transform="matrix(0.9993 -3.751567e-02 3.751567e-02 0.9993 -10.3194 4.2104)" class="st1" width="1.9" height="1.8"/>
	<path class="st1" d="M119,290.1l-0.3-9c0-0.5-0.5-0.9-1-0.9c-2-0.1-3.5-1.7-3.5-3.6c0-1.8,1.4-3.3,3.2-3.4c0.5,0,0.9-0.5,0.9-1
		l-0.3-9c0-0.3-0.1-0.5-0.3-0.7c-0.2-0.2-0.4-0.3-0.7-0.3l-4.9,0.2l0.9,1.5l3.5-0.1l0.3,7.8c-2.8,0.5-4.6,3.2-4,6
		c0.4,2.2,2.2,3.8,4.4,4.1l0.3,7.9l-38.6,1.5l-3,1.7l42.4-1.6C118.7,291.1,119,290.6,119,290.1z"/>
	<path class="st1" d="M67.9,295.8h-0.2c-0.2-0.1-0.5-0.2-0.6-0.5l-4.4-7.9c-0.3-0.5-0.1-1,0.3-1.3c1.7-1,2.2-3.2,1.2-4.9
		c-1-1.6-3-2.1-4.6-1.3c-0.5,0.2-1,0.1-1.3-0.4l-4.4-7.8c-0.1-0.2-0.2-0.5-0.1-0.7c0.1-0.3,0.2-0.5,0.5-0.6l45.7-25.6
		c0.5-0.3,1.1-0.1,1.3,0.4l4.4,7.8c0.2,0.5,0.1,1-0.3,1.3c-1.7,1-2.3,3.1-1.4,4.8c1,1.7,3.1,2.3,4.8,1.4l0,0c0.5-0.2,1-0.1,1.3,0.4
		l0,0l4.4,7.8c0.1,0.2,0.2,0.5,0.1,0.7c-0.1,0.2-0.2,0.5-0.5,0.6l-45.7,25.6C68.3,295.8,68.1,295.8,67.9,295.8z M64.4,287.2l3.8,6.9
		l44.7-25l-3.8-6.9c-2.6,1-5.6-0.4-6.6-3c-0.8-2.1-0.1-4.4,1.6-5.8l-3.8-6.9l-44.7,25l3.8,6.9c2.6-1,5.6,0.4,6.6,3
		C66.8,283.5,66.2,285.8,64.4,287.2L64.4,287.2z"/>
	<path class="st3" d="M446.8,710.3c0,0,44.4,40.7,0,80.7s0,67.6,0,67.6"/>
	<circle class="st4" cx="443.9" cy="709" r="4"/>
</g>
</svg>
