<?xml version="1.0" encoding="utf-8"?>
<!-- Generator: Adobe Illustrator 25.0.0, SVG Export Plug-In . SVG Version: 6.00 Build 0)  -->
<svg version="1.1" id="Capa_1" xmlns="http://www.w3.org/2000/svg" xmlns:xlink="http://www.w3.org/1999/xlink" x="0px" y="0px"
	 viewBox="0 0 841.9 595.3" style="enable-background:new 0 0 841.9 595.3;" xml:space="preserve">
<style type="text/css">
	.st0{fill:none;}
	.st1{fill:#FFFFFF;}
</style>
<g>
	<path class="st0" d="M373.6,118.2H226.1c-12.9,0-23.7-9.2-26.3-21.3h-47.5c-14.8,0-26.8,12-26.8,26.8v402.4
		c0,14.8,12,26.8,26.8,26.8h295.1c14.8,0,26.8-12,26.8-26.8V123.7c0-14.8-12-26.8-26.8-26.8h-47.5
		C397.4,109,386.5,118.2,373.6,118.2z"/>
</g>
<g>
	<path class="st1" d="M447.4,70h-47v21.3c0,1.9-0.2,3.7-0.6,5.5h47.5c14.8,0,26.8,12,26.8,26.8v402.4c0,14.8-12,26.8-26.8,26.8
		H152.3c-14.8,0-26.8-12-26.8-26.8V123.7c0-14.8,12-26.8,26.8-26.8h47.5c-0.4-1.8-0.6-3.6-0.6-5.5V70h-46.9
		c-29.6,0-53.7,24.1-53.7,53.7v402.4c0,29.6,24.1,53.7,53.7,53.7h295.1c29.6,0,53.7-24,53.7-53.7V123.7C501.1,94.1,477,70,447.4,70z
		"/>
</g>
<g>
	<rect x="298.8" y="217.5" class="st1" width="146.6" height="26.8"/>
</g>
<g>
	<rect x="298.8" y="343.8" class="st1" width="146.6" height="26.8"/>
</g>
<g>
	<rect x="298.8" y="450.7" class="st1" width="107.9" height="26.8"/>
</g>
<g>
	<g>
		<path class="st1" d="M373.6,15.5H226.1c-29.6,0-53.7,24.1-53.7,53.7v22.1c0,29.6,24.1,53.7,53.7,53.7h147.6
			c29.6,0,53.7-24.1,53.7-53.7V69.2C427.3,39.6,403.2,15.5,373.6,15.5z M414.8,84c0,22.9-18.7,41.6-41.6,41.6H234.1
			c-22.9,0-41.6-18.7-41.6-41.6V64.8c0-22.9,18.7-41.6,41.6-41.6h139.1c22.9,0,41.6,18.7,41.6,41.6L414.8,84L414.8,84z"/>
	</g>
	<g>
		<path class="st1" d="M373.2,23.1H234.1c-22.9,0-41.6,18.7-41.6,41.6V84c0,22.9,18.7,41.6,41.6,41.6h139.1
			c22.9,0,41.6-18.7,41.6-41.6V64.8C414.8,41.9,396.1,23.1,373.2,23.1z M400.5,91.3c0,14.8-12,26.8-26.8,26.8H226.1
			c-14.8,0-26.8-12-26.8-26.8V69.2c0-14.8,12-26.8,26.8-26.8h147.6c14.8,0,26.8,12,26.8,26.8V91.3z"/>
	</g>
</g>
<g>
	<g>
		
			<rect x="404.2" y="348.6" transform="matrix(0.8342 -0.5515 0.5515 0.8342 -102.1117 382.6657)" class="st1" width="362.1" height="25"/>
	</g>
</g>
<g>
	<path class="st1" d="M179,201.2c5.8-1.2,8.1,1.3,10.7,4.6l18.6,24.1l43.5-36.8l15.4,18.2l-53,44.9c-2.5,2.1-5.7,3.1-9,2.8
		c-3.2-0.4-6.2-2-8.1-4.6l-22.1-28.8C174.9,225.6,160.4,208.7,179,201.2z"/>
</g>
<g>
	<path class="st1" d="M179,319c5.8-1.2,8.1,1.3,10.7,4.6l18.6,24.1l43.5-36.8l15.4,18.2l-53,44.9c-2.5,2.1-5.7,3.1-9,2.8
		c-3.2-0.4-6.2-2-8.1-4.6l-22.1-28.8C174.9,343.3,160.4,326.5,179,319z"/>
</g>
<g>
	<path class="st1" d="M179,439.2c5.8-1.2,8.1,1.3,10.7,4.6l18.6,24.1l43.5-36.8l15.4,18.2l-53,44.9c-2.5,2.1-5.7,3.1-9,2.8
		c-3.2-0.4-6.2-2-8.1-4.6l-22.1-28.8C174.9,463.6,160.4,446.7,179,439.2z"/>
</g>
</svg>
