<svg xmlns="http://www.w3.org/2000/svg" viewBox="0 0 69.36 106.41"><defs><style>.cls-1{fill:#008b7a;}.cls-2,.cls-7{fill:#28b095;}.cls-3{fill:#000001;opacity:0.25;}.cls-3,.cls-5,.cls-6,.cls-7,.cls-8,.cls-9{fill-rule:evenodd;}.cls-4,.cls-8{fill:#fff;}.cls-5{fill:#e3e2e2;}.cls-6{fill:#2d2e2e;}.cls-9{fill:#ff8062;}</style></defs><g id="Capa_2" data-name="Capa 2"><g id="Capa_1-2" data-name="Capa 1"><rect class="cls-1" y="11.81" width="69.36" height="94.6" rx="6.11"/><rect class="cls-2" y="10.73" width="69.36" height="94.6" rx="6.11"/><path class="cls-3" d="M7.78,17.52l54.65,1a1.24,1.24,0,0,1,1.22,1.22c1.17,27.36.52,54.06,2.65,81.1A1.17,1.17,0,0,1,65.08,102C46,100.17,27.73,100.5,8.64,99.33a1.27,1.27,0,0,1-1.23-1.22L6.56,18.74A1.21,1.21,0,0,1,7.78,17.52Z"/><rect class="cls-4" x="6.56" y="17.52" width="56.24" height="81.01" rx="1.22"/><path class="cls-5" d="M22.16,7.5H28L28.6,7V5.81A5.83,5.83,0,0,1,34.41,0h0a5.83,5.83,0,0,1,5.81,5.81V7l.69.46h6.28a3.07,3.07,0,0,1,3.06,3.06V18a3.07,3.07,0,0,1-3.06,3.06h-25A3.06,3.06,0,0,1,19.11,18V10.56A3.06,3.06,0,0,1,22.16,7.5ZM34.41,3.74A1.86,1.86,0,1,0,36.27,5.6,1.86,1.86,0,0,0,34.41,3.74Z"/><path class="cls-5" d="M50.25,18a3.07,3.07,0,0,1-3.06,3.06h-25A3.06,3.06,0,0,1,19.11,18Z"/><path class="cls-6" d="M27,81h29.4a.62.62,0,0,0,.61-.61h0a.61.61,0,0,0-.61-.61H27a.61.61,0,0,0-.61.61h0A.62.62,0,0,0,27,81Z"/><path class="cls-6" d="M27,86.66H51.59a.61.61,0,0,0,.61-.61h0a.62.62,0,0,0-.61-.61H27a.62.62,0,0,0-.61.61h0A.61.61,0,0,0,27,86.66Z"/><path class="cls-7" d="M16.18,77.9h3.57a3.54,3.54,0,0,1,2.48,1,3.51,3.51,0,0,1,1,2.49V85a3.5,3.5,0,0,1-1,2.48,3.54,3.54,0,0,1-2.48,1H16.18A3.53,3.53,0,0,1,12.66,85V81.42a3.53,3.53,0,0,1,3.52-3.52Z"/><path class="cls-8" d="M15,83.66a.61.61,0,0,1,.91-.81l1.22,1.36,3.18-3.15a.61.61,0,0,1,.86,0,.6.6,0,0,1,0,.86l-3.64,3.6h0l0,0a.61.61,0,0,1-.86,0Z"/><path class="cls-6" d="M27,66.49h29.4a.62.62,0,0,0,.61-.61h0a.61.61,0,0,0-.61-.61H27a.61.61,0,0,0-.61.61h0A.62.62,0,0,0,27,66.49Z"/><path class="cls-6" d="M27,72.19H51.59a.61.61,0,0,0,.61-.61h0a.62.62,0,0,0-.61-.61H27a.62.62,0,0,0-.61.61h0A.61.61,0,0,0,27,72.19Z"/><path class="cls-9" d="M16.18,63.43h3.57a3.54,3.54,0,0,1,2.48,1,3.51,3.51,0,0,1,1,2.49v3.57a3.5,3.5,0,0,1-1,2.48,3.54,3.54,0,0,1-2.48,1H16.18a3.53,3.53,0,0,1-3.52-3.51V67a3.53,3.53,0,0,1,3.52-3.52Z"/><path class="cls-8" d="M20.53,66.21a.63.63,0,0,0-.87,0l-4.25,4.19a.6.6,0,0,0,0,.86.61.61,0,0,0,.86,0l4.26-4.19A.61.61,0,0,0,20.53,66.21Z"/><path class="cls-8" d="M15.44,66.17a.6.6,0,0,0,0,.86l4.18,4.26a.6.6,0,0,0,.86,0,.61.61,0,0,0,0-.86L16.3,66.17A.61.61,0,0,0,15.44,66.17Z"/><path class="cls-6" d="M27,52.24h29.4a.61.61,0,0,0,.61-.61h0a.61.61,0,0,0-.61-.61H27a.61.61,0,0,0-.61.61h0A.61.61,0,0,0,27,52.24Z"/><path class="cls-6" d="M27,58H51.59a.62.62,0,0,0,.61-.61h0a.61.61,0,0,0-.61-.61H27a.61.61,0,0,0-.61.61h0A.62.62,0,0,0,27,58Z"/><path class="cls-7" d="M16.18,49.19h3.57a3.5,3.5,0,0,1,2.48,1,3.47,3.47,0,0,1,1,2.48v3.57a3.52,3.52,0,0,1-3.51,3.51H16.18a3.53,3.53,0,0,1-3.52-3.51V52.7a3.53,3.53,0,0,1,3.52-3.51Z"/><path class="cls-8" d="M15,55a.61.61,0,0,1,.91-.81l1.22,1.35,3.18-3.14a.61.61,0,0,1,.86.87l-3.64,3.59h0l0,0a.61.61,0,0,1-.86,0Z"/><rect class="cls-2" x="12.66" y="30.98" width="44.38" height="7.29"/></g></g></svg>