<?xml version="1.0" encoding="utf-8"?>
<!-- Generator: Adobe Illustrator 25.0.0, SVG Export Plug-In . SVG Version: 6.00 Build 0)  -->
<svg version="1.1" id="Capa_1" xmlns="http://www.w3.org/2000/svg" xmlns:xlink="http://www.w3.org/1999/xlink" x="0px" y="0px"
	 viewBox="0 0 101.2 140.4" style="enable-background:new 0 0 101.2 140.4;" xml:space="preserve">
<style type="text/css">
	.st0{fill-rule:evenodd;clip-rule:evenodd;fill:#008B7A;}
	.st1{fill-rule:evenodd;clip-rule:evenodd;fill:#28B095;}
	.st2{opacity:0.25;fill-rule:evenodd;clip-rule:evenodd;fill:#000001;}
	.st3{fill-rule:evenodd;clip-rule:evenodd;fill:#FFFFFF;}
	.st4{fill-rule:evenodd;clip-rule:evenodd;fill:#E3E2E2;}
	.st5{fill-rule:evenodd;clip-rule:evenodd;fill:#2D2E2E;}
</style>
<g>
	<path class="st0" d="M7.7,15h72.5c4.3,0,7.7,3.5,7.7,7.7v104.5c0,4.3-3.5,7.7-7.7,7.7H7.7c-4.3,0-7.7-3.5-7.7-7.7V22.7
		C0,18.5,3.5,15,7.7,15z"/>
	<path class="st1" d="M7.7,13.6h72.5c4.3,0,7.7,3.5,7.7,7.7v104.5c0,4.3-3.5,7.7-7.7,7.7H7.7c-4.3,0-7.7-3.5-7.7-7.7V21.4
		C0,17.1,3.5,13.6,7.7,13.6z"/>
	<path class="st2" d="M9.9,22.2l69.3,1.2c0.9,0,1.5,0.7,1.5,1.5c1.5,34.7,0.6,68.6,3.4,102.8c0.1,0.8-0.7,1.6-1.5,1.5
		c-24.2-2.4-47.4-2-71.6-3.4c-0.8-0.1-1.5-0.7-1.5-1.5L8.3,23.8C8.3,22.9,9,22.2,9.9,22.2z"/>
	<path class="st3" d="M9.9,22.2h68.2c0.9,0,1.5,0.7,1.5,1.5v99.6c0,0.9-0.7,1.5-1.5,1.5H9.9c-0.9,0-1.5-0.7-1.5-1.5V23.8
		C8.3,22.9,9,22.2,9.9,22.2z"/>
	<path class="st4" d="M28.1,9.5h7.3l0.8-0.6l0-1.6c0-4,3.3-7.4,7.4-7.4h0c4,0,7.4,3.3,7.4,7.4v1.6l0.9,0.6h8c2.1,0,3.9,1.7,3.9,3.9
		v9.5c0,2.1-1.7,3.9-3.9,3.9H28.1c-2.1,0-3.9-1.7-3.9-3.9v-9.5C24.2,11.3,26,9.5,28.1,9.5L28.1,9.5z M43.6,4.7
		c-1.3,0-2.4,1.1-2.4,2.4c0,1.3,1.1,2.4,2.4,2.4c1.3,0,2.4-1.1,2.4-2.4C46,5.8,44.9,4.7,43.6,4.7z"/>
	<path class="st4" d="M63.7,22.9c0,2.1-1.7,3.9-3.9,3.9H28.1c-2.1,0-3.9-1.7-3.9-3.9H63.7z"/>
	<g>
		<path class="st5" d="M34.3,102.7h37.3c0.4,0,0.8-0.3,0.8-0.8l0,0c0-0.4-0.4-0.8-0.8-0.8H34.3c-0.4,0-0.8,0.3-0.8,0.8l0,0
			C33.5,102.3,33.9,102.7,34.3,102.7z"/>
		<path class="st5" d="M34.3,70.4h31.1c0.4,0,0.8-0.3,0.8-0.8l0,0c0-0.4-0.4-0.8-0.8-0.8H34.3c-0.4,0-0.8,0.3-0.8,0.8l0,0
			C33.5,70,33.9,70.4,34.3,70.4z"/>
		<path class="st5" d="M34.3,63.1h37.3c0.4,0,0.8-0.3,0.8-0.8l0,0c0-0.4-0.4-0.8-0.8-0.8H34.3c-0.4,0-0.8,0.3-0.8,0.8l0,0
			C33.5,62.8,33.9,63.1,34.3,63.1z"/>
		<path class="st5" d="M34.3,90.1h31.1c0.4,0,0.8-0.3,0.8-0.8l0,0c0-0.4-0.4-0.8-0.8-0.8H34.3c-0.4,0-0.8,0.3-0.8,0.8l0,0
			C33.5,89.8,33.9,90.1,34.3,90.1z"/>
		<path class="st5" d="M34.3,82.9h37.3c0.4,0,0.8-0.3,0.8-0.8l0,0c0-0.4-0.4-0.8-0.8-0.8H34.3c-0.4,0-0.8,0.3-0.8,0.8l0,0
			C33.5,82.6,33.9,82.9,34.3,82.9z"/>
		<path class="st5" d="M34.3,109.9h31.1c0.4,0,0.8-0.3,0.8-0.8l0,0c0-0.4-0.4-0.8-0.8-0.8H34.3c-0.4,0-0.8,0.3-0.8,0.8l0,0
			C33.5,109.6,33.9,109.9,34.3,109.9z"/>
	</g>
	<g>
		<path class="st1" d="M20.5,98.8H25c1.2,0,2.3,0.5,3.1,1.3c0.8,0.8,1.3,1.9,1.3,3.1v4.5c0,1.2-0.5,2.3-1.3,3.1
			c-0.8,0.8-1.9,1.3-3.1,1.3h-4.5c-1.2,0-2.3-0.5-3.1-1.3c-0.8-0.8-1.3-1.9-1.3-3.1v-4.5c0-1.2,0.5-2.3,1.3-3.1
			C18.2,99.3,19.3,98.8,20.5,98.8z"/>
		<path class="st3" d="M19,106.1c-0.3-0.3-0.3-0.8,0.1-1.1c0.3-0.3,0.8-0.3,1.1,0.1l1.5,1.7l4-4c0.3-0.3,0.8-0.3,1.1,0
			c0.3,0.3,0.3,0.8,0,1.1l-4.6,4.6l0,0c0,0,0,0,0,0c-0.3,0.3-0.8,0.3-1.1-0.1L19,106.1z"/>
	</g>
	<g>
		<circle class="st1" cx="85.4" cy="124.6" r="15.8"/>
		<path class="st3" d="M76.3,125.6c-0.7-0.7-0.6-1.9,0.1-2.5c0.7-0.7,1.9-0.6,2.5,0.1l3.6,4l9.3-9.2c0.7-0.7,1.8-0.7,2.5,0
			c0.7,0.7,0.7,1.8,0,2.5l-10.7,10.5l0,0c0,0,0,0-0.1,0.1c-0.7,0.7-1.9,0.6-2.5-0.1L76.3,125.6z"/>
	</g>
	<g>
		<path class="st1" d="M20.5,79H25c1.2,0,2.3,0.5,3.1,1.3c0.8,0.8,1.3,1.9,1.3,3.1V88c0,1.2-0.5,2.3-1.3,3.1
			c-0.8,0.8-1.9,1.3-3.1,1.3h-4.5c-1.2,0-2.3-0.5-3.1-1.3c-0.8-0.8-1.3-1.9-1.3-3.1v-4.5c0-1.2,0.5-2.3,1.3-3.1
			C18.2,79.5,19.3,79,20.5,79z"/>
		<path class="st3" d="M18.9,86.2c-0.3-0.3-0.3-0.8,0.1-1.1c0.3-0.3,0.8-0.3,1.1,0.1l1.5,1.7l4-4c0.3-0.3,0.8-0.3,1.1,0
			c0.3,0.3,0.3,0.8,0,1.1l-4.6,4.6l0,0c0,0,0,0,0,0c-0.3,0.3-0.8,0.3-1.1-0.1L18.9,86.2z"/>
	</g>
	<g>
		<path class="st1" d="M20.5,59.3H25c1.2,0,2.3,0.5,3.1,1.3c0.8,0.8,1.3,1.9,1.3,3.1v4.5c0,1.2-0.5,2.3-1.3,3.1
			c-0.8,0.8-1.9,1.3-3.1,1.3h-4.5c-1.2,0-2.3-0.5-3.1-1.3c-0.8-0.8-1.3-1.9-1.3-3.1v-4.5c0-1.2,0.5-2.3,1.3-3.1
			C18.2,59.8,19.3,59.3,20.5,59.3z"/>
		<path class="st3" d="M18.7,66.2c-0.3-0.3-0.3-0.8,0.1-1.1c0.3-0.3,0.8-0.3,1.1,0.1l1.5,1.7l4-4c0.3-0.3,0.8-0.3,1.1,0
			c0.3,0.3,0.3,0.8,0,1.1l-4.6,4.6l0,0c0,0,0,0,0,0c-0.3,0.3-0.8,0.3-1.1-0.1L18.7,66.2z"/>
	</g>
	<rect x="16.1" y="33.4" class="st1" width="56.3" height="9.2"/>
</g>
<g>
</g>
<g>
</g>
<g>
</g>
<g>
</g>
<g>
</g>
<g>
</g>
<g>
</g>
<g>
</g>
<g>
</g>
<g>
</g>
<g>
</g>
<g>
</g>
<g>
</g>
<g>
</g>
<g>
</g>
</svg>
