<?xml version="1.0" encoding="utf-8"?>
<!-- Generator: Adobe Illustrator 25.0.0, SVG Export Plug-In . SVG Version: 6.00 Build 0)  -->
<svg version="1.1" xmlns="http://www.w3.org/2000/svg" xmlns:xlink="http://www.w3.org/1999/xlink" x="0px" y="0px"
	 viewBox="0 0 1314 753" style="enable-background:new 0 0 1314 753;" xml:space="preserve">
<style type="text/css">
	.st0{fill:#DA291C;}
	.st1{fill:none;}
	.st2{enable-background:new    ;}
	.st3{fill:#FFFFFF;}
</style>
<g id="Capa_2">
</g>
<g id="Capa_1">
	<g>
		<path class="st0" d="M971.4,124H346.6c-11.1,0-20.1-9-20.1-20.1V34.2c0-11.1,9-20.1,20.1-20.1h624.7c11.1,0,20.1,9,20.1,20.1v69.7
			c0.1,5.3-2,10.3-5.8,14.2C981.8,121.9,976.8,124,971.4,124z M346.6,19.1c-8.3,0-15.1,6.8-15.1,15.1v69.7c0,8.3,6.8,15.1,15.1,15.1
			h624.8c4,0,7.8-1.6,10.7-4.5c2.8-2.9,4.4-6.6,4.3-10.6V34.2c0-8.3-6.8-15.1-15.1-15.1H346.6z"/>
	</g>
	<g>
		<path class="st0" d="M405.4,372.5H33.6c-11.1,0-20.1-9-20.1-20.1v-69.7c0-11.1,9-20.1,20.1-20.1h371.7c11.1,0,20.1,9,20.1,20.1
			v69.7c0.1,5.3-2,10.3-5.8,14.2C415.8,370.4,410.8,372.5,405.4,372.5z M33.6,267.6c-8.3,0-15.1,6.8-15.1,15.1v69.7
			c0,8.3,6.8,15.1,15.1,15.1h371.8c4,0,7.8-1.6,10.7-4.5c2.8-2.9,4.4-6.6,4.3-10.6v-69.7c0-8.3-6.8-15.1-15.1-15.1H33.6z"/>
	</g>
	<g>
		<path class="st0" d="M1282.4,372.5H910.6c-11.1,0-20.1-9-20.1-20.1v-69.7c0-11.1,9-20.1,20.1-20.1h371.7c11.1,0,20.1,9,20.1,20.1
			v69.7c0.1,5.3-2,10.3-5.8,14.2C1292.8,370.4,1287.8,372.5,1282.4,372.5z M910.6,267.6c-8.3,0-15.1,6.8-15.1,15.1v69.7
			c0,8.3,6.8,15.1,15.1,15.1h371.8c4,0,7.8-1.6,10.7-4.5c2.8-2.9,4.4-6.6,4.3-10.6v-69.7c0-8.3-6.8-15.1-15.1-15.1H910.6z"/>
	</g>
	<g>
		<polygon class="st0" points="219.8,131.9 216.2,131.9 216.2,67 329,67 329,70.6 219.8,70.6 		"/>
	</g>
	<g>
		<polygon class="st0" points="1097.8,131.9 1094.2,131.9 1094.2,70.6 988.5,70.6 988.5,67 1097.8,67 		"/>
	</g>
	<g>
		<rect x="217" y="212.5" class="st0" width="5" height="52.5"/>
	</g>
	<g>
		<rect x="217" y="370.5" class="st0" width="5" height="52.5"/>
	</g>
	<g>
		<rect x="217" y="475.5" class="st0" width="5" height="52.5"/>
	</g>
	<g>
		<rect x="1094" y="370.5" class="st0" width="5" height="52.5"/>
	</g>
	<g>
		<rect x="1094" y="475.5" class="st0" width="5" height="52.5"/>
	</g>
	<g>
		<rect x="1094" y="212.5" class="st0" width="5" height="52.5"/>
	</g>
	<g>
		<rect x="373.5" y="55.6" class="st1" width="580.5" height="26.4"/>
	</g>
	<g class="st2">
		<path class="st3" d="M391.4,80.1h-15V56.9h14.7v2.7h-11.7v7.3h9.9v2.8h-9.9v7.6h12V80.1z"/>
		<path class="st3" d="M409.3,77.3v2.8h-14V56.9h3v20.4H409.3z"/>
		<path class="st3" d="M433,60.4c0,0-2.5-1-5.5-1c-2.3,0-4.6,0.8-4.6,3.2c0,4.9,11.9,3.4,11.9,11.2c0,3.5-2.8,6.8-8.3,6.8
			c-3.8,0-6.6-1.7-6.6-1.7v-3.1c0,0,3.2,2.1,6.6,2.1c2.3,0,5.3-0.9,5.3-3.9c0-5.2-11.9-3.7-11.9-11.1c0-4.1,3.5-6.1,7.5-6.1
			c3.6,0,5.5,1,5.5,1L433,60.4z"/>
		<path class="st3" d="M441.7,71.7c0,3.7,2.8,6,6,6s6-2.3,6-6V56.9h3v14.9c0,5.2-4.2,8.6-8.9,8.6s-8.9-3.4-8.9-8.6V56.9h3v14.8
			C441.9,71.7,441.7,71.7,441.7,71.7z"/>
		<path class="st3" d="M470.2,71H465v9.1h-3V56.9h8.1c4.8,0,7.4,3.2,7.4,7C477.6,67.8,474.9,71,470.2,71z M465,68.3h5.1
			c2.8,0,4.6-1.7,4.6-4.4c0-2.6-1.8-4.4-4.6-4.4H465V68.3z"/>
		<path class="st3" d="M496.5,80.1h-15V56.9h14.7v2.7h-11.7v7.3h9.9v2.8h-9.9v7.6h12V80.1z"/>
		<path class="st3" d="M503.7,68.1h4.5c2.9,0,4.7-2,4.7-4.3s-1.8-4.2-4.3-4.2h-5.1v20.5h-3V56.9h8c4.3,0,7.2,3.1,7.2,6.9
			c0,3.5-2.9,6.5-6.6,6.5l8.5,9.8h-3.9L503.7,68.1z"/>
		<path class="st3" d="M517.6,56.9h3.2l6.8,17.5l6.7-17.5h3.2l-10,24.2L517.6,56.9z"/>
		<path class="st3" d="M544.1,56.9v23.2h-3V56.9H544.1z"/>
		<path class="st3" d="M561.9,60.4c0,0-2.5-1-5.5-1c-2.3,0-4.6,0.8-4.6,3.2c0,4.9,11.9,3.4,11.9,11.2c0,3.5-2.8,6.8-8.3,6.8
			c-3.8,0-6.6-1.7-6.6-1.7v-3.1c0,0,3.2,2.1,6.6,2.1c2.3,0,5.3-0.9,5.3-3.9c0-5.2-11.9-3.7-11.9-11.1c0-4.1,3.5-6.1,7.5-6.1
			c3.6,0,5.5,1,5.5,1L561.9,60.4z"/>
		<path class="st3" d="M578.7,56.5c6.7,0,12.1,5.3,12.1,11.9s-5.4,11.9-12.1,11.9c-6.7,0-12.1-5.3-12.1-11.9S572,56.5,578.7,56.5z
			 M578.7,77.7c5.1,0,9.2-4.2,9.2-9.2s-4.1-9.2-9.2-9.2c-5,0-9.1,4.2-9.1,9.2S573.6,77.7,578.7,77.7z"/>
		<path class="st3" d="M598.4,68.1h4.5c2.9,0,4.7-2,4.7-4.3s-1.8-4.2-4.3-4.2h-5.1v20.5h-3V56.9h8c4.3,0,7.2,3.1,7.2,6.9
			c0,3.5-2.9,6.5-6.6,6.5l8.5,9.8h-3.9L598.4,68.1z"/>
		<path class="st3" d="M623.8,80.1V56.9h5.8c7.8,0,12.2,4.8,12.2,11.6c0,6.7-4.5,11.6-12.2,11.6H623.8L623.8,80.1z M626.9,77.3h3
			c5.9,0,9.1-3.7,9.1-8.8c0-5.2-3.2-8.8-9.1-8.8h-3V77.3z"/>
		<path class="st3" d="M661.3,80.1h-15V56.9H661v2.7h-11.7v7.3h9.9v2.8h-9.9v7.6h12V80.1z"/>
		<path class="st3" d="M676.6,68.1h4.5c2.9,0,4.7-2,4.7-4.3s-1.8-4.2-4.3-4.2h-5.1v20.5h-3V56.9h8c4.3,0,7.2,3.1,7.2,6.9
			c0,3.5-2.9,6.5-6.6,6.5l8.5,9.8h-3.9L676.6,68.1z"/>
		<path class="st3" d="M696,71.7c0,3.7,2.8,6,6,6s6-2.3,6-6V56.9h3v14.9c0,5.2-4.2,8.6-8.9,8.6s-8.9-3.4-8.9-8.6V56.9h3v14.8
			C696.2,71.7,696,71.7,696,71.7z"/>
		<path class="st3" d="M723.5,59.7v20.4h-3V59.7H714v-2.8h16v2.8H723.5z"/>
		<path class="st3" d="M748.2,80.1h-3.3l-1.9-5h-9.6l-1.9,5h-3.2l10-24.2L748.2,80.1z M738.3,62.7l-3.8,9.8h7.5L738.3,62.7z"/>
		<path class="st3" d="M765.2,70.8l-8-13.9h3.2l6.3,11.4l6.3-11.4h3.2l-8,13.9v9.3h-3V70.8z"/>
		<path class="st3" d="M787.5,56.3l11.1,11.6l11.1-11.6v23.8h-3V63.3l-8.2,8.5l-8.1-8.5v16.8h-3V56.3H787.5z"/>
		<path class="st3" d="M830.5,80.1h-15V56.9h14.7v2.7h-11.7v7.3h9.9v2.8h-9.9v7.6h12V80.1z"/>
		<path class="st3" d="M837.7,68.1h4.5c2.9,0,4.7-2,4.7-4.3s-1.8-4.2-4.3-4.2h-5.1v20.5h-3V56.9h8c4.3,0,7.2,3.1,7.2,6.9
			c0,3.5-2.9,6.5-6.6,6.5l8.5,9.8h-3.9L837.7,68.1z"/>
		<path class="st3" d="M870.6,60.6c0,0-2.3-1.3-5.2-1.3c-4.8,0-8.8,4-8.8,9.1c0,5.6,4.2,9.2,8.7,9.2c3.4,0,5.8-1.7,5.8-1.7v3.2
			c0,0-2.4,1.3-5.9,1.3c-6.5,0-11.6-5.2-11.6-12c0-6.7,5.3-11.9,11.7-11.9c3.2,0,5.3,0.9,5.3,0.9V60.6z"/>
		<path class="st3" d="M892.6,80.1h-3.3l-1.9-5h-9.6l-1.9,5h-3.2l10-24.2L892.6,80.1z M882.7,62.7l-3.8,9.8h7.5L882.7,62.7z"/>
		<path class="st3" d="M896,80.1V56.9h5.8c7.8,0,12.2,4.8,12.2,11.6c0,6.7-4.5,11.6-12.2,11.6H896L896,80.1z M899.1,77.3h3
			c5.9,0,9.1-3.7,9.1-8.8c0-5.2-3.2-8.8-9.1-8.8h-3V77.3z"/>
		<path class="st3" d="M929.3,56.5c6.7,0,12.1,5.3,12.1,11.9s-5.4,11.9-12.1,11.9c-6.7,0-12.1-5.3-12.1-11.9S922.6,56.5,929.3,56.5z
			 M929.3,77.7c5.1,0,9.2-4.2,9.2-9.2s-4.1-9.2-9.2-9.2c-5,0-9.1,4.2-9.1,9.2S924.2,77.7,929.3,77.7z"/>
	</g>
	<g>
		<rect x="59" y="287" class="st1" width="321" height="76"/>
	</g>
	<g class="st2">
		<path class="st3" d="M77.2,290.6v18h-2.6v-18h-5.7v-2.4h14v2.4H77.2z"/>
		<path class="st3" d="M90.2,308.9c-4.2,0-7.5-3.3-7.5-7.5s3.3-7.4,7.5-7.4c4.1,0,7.5,3.3,7.5,7.4C97.7,305.6,94.4,308.9,90.2,308.9
			z M90.2,296.3c-2.8,0-5,2.4-5,5.2c0,2.8,2.2,5.2,5,5.2c2.9,0,5-2.4,5-5.2C95.3,298.6,93.1,296.3,90.2,296.3z"/>
		<path class="st3" d="M113.1,308.6h-2.7v-8.9c0-2.1-0.7-3.4-2.7-3.4s-3.8,2-3.8,2v10.3h-2.7v-14.3h2.5l0.1,1.5c0,0,2-1.8,4.4-1.8
			c2.8,0,4,1.9,4,1.9s2.2-1.9,5.1-1.9c3.5,0,5.1,2.5,5.1,5.6v9h-2.7V300c0-2.4-0.9-3.7-2.9-3.7s-3.7,1.7-3.7,1.7L113.1,308.6
			L113.1,308.6z"/>
		<path class="st3" d="M139.7,308.6h-2.5l-0.1-1.8c0,0-1.5,2.1-4.6,2.1c-3.8,0-7-3.3-7-7.5s3.1-7.5,7-7.5c3.1,0,4.6,2,4.6,2l0.1-1.7
			h2.5V308.6z M128,301.4c0,2.8,2.1,5.2,4.9,5.2c2.9,0,4.1-2.3,4.1-2.3v-5.6c0,0-1.4-2.3-4.1-2.3C130.1,296.3,128,298.6,128,301.4z"
			/>
		<path class="st3" d="M164.3,308.6h-2.5l-0.1-1.8c0,0-1.5,2.1-4.6,2.1c-3.8,0-6.7-3.3-6.7-7.5s2.9-7.5,6.7-7.5c3.1,0,4.6,2,4.6,2
			v-9h2.7L164.3,308.6L164.3,308.6z M152.9,301.4c0,2.8,1.8,5.2,4.6,5.2s4.1-2.3,4.1-2.3v-5.6c0,0-1.4-2.3-4.1-2.3
			C154.7,296.3,152.9,298.6,152.9,301.4z"/>
		<path class="st3" d="M181.4,300.8c0,1.2-0.2,1.7-0.2,1.7h-10.9c0.1,2.2,2.2,4,4.8,4s4.8-1.3,4.8-1.3v2.5c0,0-1.8,1.1-4.9,1.1
			c-4.4,0-7.3-3.3-7.3-7.5s3.2-7.4,7.3-7.4C179.4,294,181.4,297.8,181.4,300.8z M170.3,300.4h8.7c0-2-1.7-4.2-4.1-4.2
			C172.4,296.2,170.7,298.3,170.3,300.4z"/>
		<path class="st3" d="M204.7,308.6h-2.5l-0.1-1.8c0,0-1.5,2.1-4.6,2.1c-3.8,0-6.7-3.3-6.7-7.5s2.9-7.5,6.7-7.5c3.1,0,4.6,2,4.6,2
			v-9h2.7L204.7,308.6L204.7,308.6z M193.3,301.4c0,2.8,1.8,5.2,4.6,5.2s4.1-2.3,4.1-2.3v-5.6c0,0-1.4-2.3-4.1-2.3
			C195.1,296.3,193.3,298.6,193.3,301.4z"/>
		<path class="st3" d="M221.9,300.8c0,1.2-0.2,1.7-0.2,1.7h-10.9c0.1,2.2,2.2,4,4.8,4s4.8-1.3,4.8-1.3v2.5c0,0-1.8,1.1-4.9,1.1
			c-4.4,0-7.3-3.3-7.3-7.5s3.2-7.4,7.3-7.4C219.8,294,221.9,297.8,221.9,300.8z M210.8,300.4h8.7c0-2-1.7-4.2-4.1-4.2
			C212.8,296.2,211.1,298.3,210.8,300.4z"/>
		<path class="st3" d="M234.6,297.2c0,0-1.3-0.9-3.4-0.9c-2.7,0-4.8,2.3-4.8,5.1c0,2.8,2,5.2,4.7,5.2c2.2,0,3.6-1,3.6-1v2.5
			c0,0-0.9,0.8-3.8,0.8c-4.1,0-7-3.3-7-7.5s3.1-7.4,7.2-7.4c2.4,0,3.4,0.6,3.4,0.6L234.6,297.2z"/>
		<path class="st3" d="M238.4,288.6h2.9v2.9h-2.9V288.6z M241.2,294.3v14.3h-2.8v-14.3H241.2z"/>
		<path class="st3" d="M254.7,297.1c0,0-1.9-0.9-4.2-0.9c-1.2,0-2.5,0.7-2.5,1.8c0,2.5,7.9,1.7,7.9,6.5c0,2.2-2,4.4-5.9,4.4
			c-2.6,0-4.8-1.2-4.8-1.2v-2.6c0,0,2,1.5,4.8,1.5c1.3,0,3.2-0.5,3.2-2c0-2.7-7.9-1.9-7.9-6.5c0-2.7,2.5-4.2,5.3-4.2
			s4.1,0.8,4.1,0.8L254.7,297.1L254.7,297.1z"/>
		<path class="st3" d="M259.4,288.6h2.9v2.9h-2.9V288.6z M262.3,294.3v14.3h-2.8v-14.3H262.3z"/>
		<path class="st3" d="M273.4,308.9c-4.2,0-7.5-3.3-7.5-7.5s3.3-7.4,7.5-7.4c4.1,0,7.5,3.3,7.5,7.4
			C280.9,305.6,277.6,308.9,273.4,308.9z M273.4,296.3c-2.8,0-5,2.4-5,5.2c0,2.8,2.2,5.2,5,5.2c2.9,0,5-2.4,5-5.2
			C278.4,298.6,276.2,296.3,273.4,296.3z"/>
		<path class="st3" d="M297.4,308.6h-2.7V300c0-2.4-1.4-3.7-3.3-3.7c-2.7,0-4.4,2-4.4,2v10.3h-2.7v-14.3h2.5l0.1,1.6
			c0,0,1.9-1.8,4.9-1.8c3.5,0,5.5,2.6,5.5,5.7v8.8H297.4z"/>
		<path class="st3" d="M314.2,300.8c0,1.2-0.2,1.7-0.2,1.7h-10.9c0.1,2.2,2.2,4,4.8,4s4.8-1.3,4.8-1.3v2.5c0,0-1.8,1.1-4.9,1.1
			c-4.4,0-7.3-3.3-7.3-7.5s3.2-7.4,7.3-7.4C312.2,294,314.2,297.8,314.2,300.8z M303.1,300.4h8.7c0-2-1.7-4.2-4.1-4.2
			C305.2,296.2,303.5,298.3,303.1,300.4z"/>
		<path class="st3" d="M326.1,297.1c0,0-1.9-0.9-4.2-0.9c-1.2,0-2.5,0.7-2.5,1.8c0,2.5,7.9,1.7,7.9,6.5c0,2.2-2,4.4-5.9,4.4
			c-2.6,0-4.8-1.2-4.8-1.2v-2.6c0,0,2,1.5,4.8,1.5c1.3,0,3.2-0.5,3.2-2c0-2.7-7.9-1.9-7.9-6.5c0-2.7,2.5-4.2,5.3-4.2
			s4.1,0.8,4.1,0.8V297.1z"/>
		<path class="st3" d="M350.6,300.8c0,1.2-0.2,1.7-0.2,1.7h-10.9c0.1,2.2,2.2,4,4.8,4s4.8-1.3,4.8-1.3v2.5c0,0-1.8,1.1-4.9,1.1
			c-4.4,0-7.3-3.3-7.3-7.5s3.2-7.4,7.3-7.4C348.6,294,350.6,297.8,350.6,300.8z M339.5,300.4h8.7c0-2-1.7-4.2-4.1-4.2
			C341.6,296.2,339.8,298.3,339.5,300.4z"/>
		<path class="st3" d="M366.8,308.6h-2.7V300c0-2.4-1.4-3.7-3.3-3.7c-2.7,0-4.4,2-4.4,2v10.3h-2.7v-14.3h2.5l0.1,1.6
			c0,0,1.9-1.8,4.9-1.8c3.5,0,5.5,2.6,5.5,5.7v8.8H366.8z"/>
	</g>
	<g class="st2">
		<path class="st3" d="M113.8,343.6h-2.7v-8.9c0-2.1-0.7-3.4-2.7-3.4s-3.8,2-3.8,2v10.3h-2.7v-14.3h2.5l0.1,1.5c0,0,2-1.8,4.4-1.8
			c2.8,0,4,1.9,4,1.9s2.2-1.9,5.1-1.9c3.5,0,5.1,2.5,5.1,5.6v9h-2.7V335c0-2.4-0.9-3.7-2.9-3.7s-3.7,1.7-3.7,1.7L113.8,343.6z"/>
		<path class="st3" d="M140.4,343.6h-2.5l-0.1-1.8c0,0-1.5,2.1-4.6,2.1c-3.8,0-7-3.3-7-7.5s3.1-7.5,7-7.5c3.1,0,4.6,2,4.6,2l0.1-1.7
			h2.5V343.6z M128.7,336.4c0,2.8,2.1,5.2,4.9,5.2c2.9,0,4.1-2.3,4.1-2.3v-5.6c0,0-1.4-2.3-4.1-2.3
			C130.7,331.3,128.7,333.6,128.7,336.4z"/>
		<path class="st3" d="M145.4,331.6h-2.1v-2.3h2.1v-3h2.7v3h3.1v2.3h-3.1v12h-2.7V331.6z"/>
		<path class="st3" d="M166.4,335.8c0,1.2-0.2,1.7-0.2,1.7h-10.9c0.1,2.2,2.2,4,4.8,4s4.8-1.3,4.8-1.3v2.5c0,0-1.8,1.1-4.9,1.1
			c-4.4,0-7.3-3.3-7.3-7.5s3.2-7.4,7.3-7.4C164.4,329,166.4,332.8,166.4,335.8z M155.3,335.4h8.7c0-2-1.7-4.2-4.1-4.2
			C157.3,331.2,155.6,333.3,155.3,335.4z"/>
		<path class="st3" d="M177.6,331.4c0,0-0.4-0.1-1.1-0.1c-2.9,0-4.3,2.7-4.3,4.4v7.9h-2.7v-14.3h2.4l0.2,2.2c0,0,1.3-2.5,4.4-2.5
			c0.7,0,1,0.1,1,0.1L177.6,331.4z"/>
		<path class="st3" d="M180.6,323.6h2.9v2.9h-2.9V323.6z M183.4,329.3v14.3h-2.8v-14.3H183.4z"/>
		<path class="st3" d="M201.3,343.6h-2.5l-0.1-1.8c0,0-1.5,2.1-4.6,2.1c-3.8,0-7-3.3-7-7.5s3.1-7.5,7-7.5c3.1,0,4.6,2,4.6,2l0.1-1.7
			h2.5V343.6z M189.6,336.4c0,2.8,2.1,5.2,4.9,5.2c2.9,0,4.1-2.3,4.1-2.3v-5.6c0,0-1.4-2.3-4.1-2.3
			C191.7,331.3,189.6,333.6,189.6,336.4z"/>
		<path class="st3" d="M222.6,332.2c0,0-1.3-0.9-3.4-0.9c-2.7,0-4.8,2.3-4.8,5.1c0,2.8,2,5.2,4.7,5.2c2.2,0,3.6-1,3.6-1v2.5
			c0,0-0.9,0.8-3.8,0.8c-4.1,0-7-3.3-7-7.5s3.1-7.4,7.2-7.4c2.4,0,3.4,0.6,3.4,0.6L222.6,332.2z"/>
		<path class="st3" d="M232.6,343.9c-4.2,0-7.5-3.3-7.5-7.5s3.3-7.4,7.5-7.4c4.1,0,7.5,3.3,7.5,7.4
			C240.1,340.6,236.8,343.9,232.6,343.9z M232.6,331.3c-2.8,0-5,2.4-5,5.2c0,2.8,2.2,5.2,5,5.2c2.9,0,5-2.4,5-5.2
			C237.7,333.6,235.5,331.3,232.6,331.3z"/>
		<path class="st3" d="M255.5,343.6h-2.7v-8.9c0-2.1-0.7-3.4-2.7-3.4s-3.8,2-3.8,2v10.3h-2.7v-14.3h2.5l0.1,1.5c0,0,2-1.8,4.4-1.8
			c2.8,0,4,1.9,4,1.9s2.2-1.9,5.1-1.9c3.5,0,5.1,2.5,5.1,5.6v9h-2.7V335c0-2.4-0.9-3.7-2.9-3.7s-3.7,1.7-3.7,1.7L255.5,343.6
			L255.5,343.6z"/>
		<path class="st3" d="M281.6,335.8c0,1.2-0.2,1.7-0.2,1.7h-10.9c0.1,2.2,2.2,4,4.8,4s4.8-1.3,4.8-1.3v2.5c0,0-1.8,1.1-4.9,1.1
			c-4.4,0-7.3-3.3-7.3-7.5s3.2-7.4,7.3-7.4C279.6,329,281.6,332.8,281.6,335.8z M270.5,335.4h8.7c0-2-1.7-4.2-4.1-4.2
			C272.6,331.2,270.8,333.3,270.5,335.4z"/>
		<path class="st3" d="M292.8,331.4c0,0-0.4-0.1-1.1-0.1c-2.9,0-4.3,2.7-4.3,4.4v7.9h-2.7v-14.3h2.4l0.2,2.2c0,0,1.3-2.5,4.4-2.5
			c0.7,0,1,0.1,1,0.1L292.8,331.4z"/>
		<path class="st3" d="M304.4,332.2c0,0-1.3-0.9-3.4-0.9c-2.7,0-4.8,2.3-4.8,5.1c0,2.8,2,5.2,4.7,5.2c2.2,0,3.6-1,3.6-1v2.5
			c0,0-0.9,0.8-3.8,0.8c-4.1,0-7-3.3-7-7.5s3.1-7.4,7.2-7.4c2.4,0,3.4,0.6,3.4,0.6L304.4,332.2z"/>
		<path class="st3" d="M308.2,323.6h2.9v2.9h-2.9V323.6z M311,329.3v14.3h-2.8v-14.3H311z"/>
		<path class="st3" d="M328.8,343.6h-2.5l-0.1-1.8c0,0-1.5,2.1-4.6,2.1c-3.8,0-7-3.3-7-7.5s3.1-7.5,7-7.5c3.1,0,4.6,2,4.6,2l0.1-1.7
			h2.5V343.6z M317.1,336.4c0,2.8,2.1,5.2,4.9,5.2c2.9,0,4.1-2.3,4.1-2.3v-5.6c0,0-1.4-2.3-4.1-2.3
			C319.2,331.3,317.1,333.6,317.1,336.4z"/>
		<path class="st3" d="M333.3,322h2.7v21.6h-2.7V322z"/>
	</g>
	<g>
		<path class="st0" d="M405.9,709.2H34.1c-11.5,0-20.9-9.4-20.9-20.8V546.1c0-11.5,9.4-20.8,20.9-20.8h371.7
			c11.5,0,20.9,9.4,20.9,20.8v142.2c0.1,5.6-2.1,10.8-6,14.8C416.7,707.1,411.5,709.2,405.9,709.2z M34.1,531.8
			c-7.9,0-14.3,6.4-14.3,14.3v142.3c0,7.9,6.4,14.3,14.3,14.3h371.8c3.8,0,7.4-1.5,10.1-4.2s4.2-6.3,4.1-10.2V546.1
			c0-7.9-6.4-14.3-14.3-14.3H34.1z"/>
	</g>
	<g>
		<rect x="43" y="550.5" class="st1" width="350" height="208.5"/>
	</g>
	<g class="st2">
		<path class="st3" d="M57.9,569.7v2.4H45.5v-20.5h2.6v18L57.9,569.7L57.9,569.7z"/>
		<path class="st3" d="M73.9,572.1h-2.5l-0.1-1.8c0,0-1.5,2.1-4.6,2.1c-3.8,0-7-3.3-7-7.5s3.1-7.5,7-7.5c3.1,0,4.6,2,4.6,2l0.1-1.7
			h2.5V572.1z M62.2,564.9c0,2.8,2.1,5.2,4.9,5.2c2.9,0,4.1-2.3,4.1-2.3v-5.6c0,0-1.4-2.3-4.1-2.3C64.3,559.8,62.2,562.1,62.2,564.9
			z"/>
		<path class="st3" d="M92,572.4c-4.2,0-7.5-3.3-7.5-7.5s3.3-7.4,7.5-7.4c4.1,0,7.5,3.3,7.5,7.4C99.5,569.1,96.2,572.4,92,572.4z
			 M92,559.8c-2.8,0-5,2.4-5,5.2s2.2,5.2,5,5.2c2.9,0,5-2.4,5-5.2C97.1,562.1,94.9,559.8,92,559.8z"/>
		<path class="st3" d="M101.1,557.8h2.1v-2.5c0-1.9,1.2-5.1,5.4-5.1v2.3c-2.2,0-2.8,1.4-2.8,2.7v2.5h2.8v2.3h-2.8v12h-2.7v-12H101
			L101.1,557.8L101.1,557.8z"/>
		<path class="st3" d="M123.8,564.3c0,1.2-0.2,1.7-0.2,1.7h-10.9c0.1,2.2,2.2,4,4.8,4s4.8-1.3,4.8-1.3v2.5c0,0-1.8,1.1-4.9,1.1
			c-4.4,0-7.3-3.3-7.3-7.5s3.2-7.4,7.3-7.4C121.8,557.5,123.8,561.3,123.8,564.3z M112.7,563.9h8.7c0-2-1.7-4.2-4.1-4.2
			C114.8,559.7,113,561.8,112.7,563.9z"/>
		<path class="st3" d="M135,559.9c0,0-0.4-0.1-1.1-0.1c-2.9,0-4.3,2.7-4.3,4.4v7.9H127v-14.3h2.4l0.2,2.2c0,0,1.3-2.5,4.4-2.5
			c0.7,0,1,0.1,1,0.1L135,559.9z"/>
		<path class="st3" d="M138.5,560.1h-2.1v-2.3h2.1v-3h2.7v3h3.1v2.3h-3.1v12h-2.7V560.1z"/>
		<path class="st3" d="M159.9,572.1h-2.5l-0.1-1.8c0,0-1.5,2.1-4.6,2.1c-3.8,0-7-3.3-7-7.5s3.1-7.5,7-7.5c3.1,0,4.6,2,4.6,2l0.1-1.7
			h2.5V572.1z M148.2,564.9c0,2.8,2.1,5.2,4.9,5.2c2.9,0,4.1-2.3,4.1-2.3v-5.6c0,0-1.4-2.3-4.1-2.3
			C150.3,559.8,148.2,562.1,148.2,564.9z"/>
		<path class="st3" d="M184.5,572.1H182l-0.1-1.8c0,0-1.5,2.1-4.6,2.1c-3.8,0-6.7-3.3-6.7-7.5s2.9-7.5,6.7-7.5c3.1,0,4.6,2,4.6,2v-9
			h2.7L184.5,572.1L184.5,572.1z M173.1,564.9c0,2.8,1.8,5.2,4.6,5.2s4.1-2.3,4.1-2.3v-5.6c0,0-1.4-2.3-4.1-2.3
			C174.9,559.8,173.1,562.1,173.1,564.9z"/>
		<path class="st3" d="M201.7,564.3c0,1.2-0.2,1.7-0.2,1.7h-10.9c0.1,2.2,2.2,4,4.8,4s4.8-1.3,4.8-1.3v2.5c0,0-1.8,1.1-4.9,1.1
			c-4.4,0-7.3-3.3-7.3-7.5s3.2-7.4,7.3-7.4C199.7,557.5,201.7,561.3,201.7,564.3z M190.6,563.9h8.7c0-2-1.7-4.2-4.1-4.2
			C192.6,559.7,190.9,561.8,190.6,563.9z"/>
		<path class="st3" d="M220.8,560.6c0,0-1.9-0.9-4.2-0.9c-1.2,0-2.5,0.7-2.5,1.8c0,2.5,7.9,1.7,7.9,6.5c0,2.2-2,4.4-5.9,4.4
			c-2.6,0-4.8-1.2-4.8-1.2v-2.6c0,0,2,1.5,4.8,1.5c1.3,0,3.2-0.5,3.2-2c0-2.7-7.9-1.9-7.9-6.5c0-2.7,2.5-4.2,5.3-4.2
			s4.1,0.8,4.1,0.8L220.8,560.6z"/>
		<path class="st3" d="M238.1,564.3c0,1.2-0.2,1.7-0.2,1.7H227c0.1,2.2,2.2,4,4.8,4s4.8-1.3,4.8-1.3v2.5c0,0-1.8,1.1-4.9,1.1
			c-4.4,0-7.3-3.3-7.3-7.5s3.2-7.4,7.3-7.4C236,557.5,238.1,561.3,238.1,564.3z M227,563.9h8.7c0-2-1.7-4.2-4.1-4.2
			C229,559.7,227.3,561.8,227,563.9z"/>
		<path class="st3" d="M249.3,559.9c0,0-0.4-0.1-1.1-0.1c-2.9,0-4.3,2.7-4.3,4.4v7.9h-2.7v-14.3h2.4l0.2,2.2c0,0,1.3-2.5,4.4-2.5
			c0.7,0,1,0.1,1,0.1L249.3,559.9z"/>
		<path class="st3" d="M250.2,557.8h2.7l4.2,9.6l4.2-9.6h2.7l-6.9,15.3L250.2,557.8z"/>
		<path class="st3" d="M266.7,552.1h2.9v2.9h-2.9V552.1z M269.5,557.8v14.3h-2.8v-14.3H269.5z"/>
		<path class="st3" d="M283.8,560.7c0,0-1.3-0.9-3.4-0.9c-2.7,0-4.8,2.3-4.8,5.1s2,5.2,4.7,5.2c2.2,0,3.6-1,3.6-1v2.5
			c0,0-0.9,0.8-3.8,0.8c-4.1,0-7-3.3-7-7.5s3.1-7.4,7.2-7.4c2.4,0,3.4,0.6,3.4,0.6L283.8,560.7z"/>
		<path class="st3" d="M287.6,552.1h2.9v2.9h-2.9V552.1z M290.4,557.8v14.3h-2.8v-14.3H290.4z"/>
		<path class="st3" d="M301.5,572.4c-4.2,0-7.5-3.3-7.5-7.5s3.3-7.4,7.5-7.4c4.1,0,7.5,3.3,7.5,7.4
			C309,569.1,305.7,572.4,301.5,572.4z M301.5,559.8c-2.8,0-5,2.4-5,5.2s2.2,5.2,5,5.2c2.9,0,5-2.4,5-5.2
			C306.6,562.1,304.4,559.8,301.5,559.8z"/>
		<path class="st3" d="M332.3,557.8l-9,20.3h-2.6l3.1-7l-6.1-13.3h2.7l4.7,10.5l4.6-10.5H332.3z"/>
	</g>
	<g class="st2">
		<path class="st3" d="M55.5,605.1c0,0-1.4,1.9-4.4,1.9c-3.9,0-6.8-3.1-6.8-7.3c0-4.1,2.9-7.3,6.8-7.3c3,0,4.5,2,4.5,2l0.1-1.7h2.5
			v13.5c0,4.2-2.2,7.1-7,7.1c-4,0-5.8-1.8-5.8-1.8l1.2-2c0,0,1.5,1.6,4.4,1.6c2.4,0,4.6-1.5,4.6-4.2L55.5,605.1L55.5,605.1z
			 M55.5,602.6V597c0,0-1.3-2.3-4.1-2.3s-4.6,2.3-4.6,5.1s1.8,5.1,4.6,5.1C54.1,604.8,55.5,602.6,55.5,602.6z"/>
		<path class="st3" d="M75.3,599.3c0,1.2-0.2,1.7-0.2,1.7H64.2c0.1,2.2,2.2,4,4.8,4s4.8-1.3,4.8-1.3v2.5c0,0-1.8,1.1-4.9,1.1
			c-4.4,0-7.3-3.3-7.3-7.5s3.2-7.4,7.3-7.4C73.3,592.5,75.3,596.3,75.3,599.3z M64.2,598.9h8.7c0-2-1.7-4.2-4.1-4.2
			C66.3,594.7,64.5,596.8,64.2,598.9z"/>
		<path class="st3" d="M87.2,595.6c0,0-1.9-0.9-4.2-0.9c-1.2,0-2.5,0.7-2.5,1.8c0,2.5,7.9,1.7,7.9,6.5c0,2.2-2,4.4-5.9,4.4
			c-2.6,0-4.8-1.2-4.8-1.2v-2.6c0,0,2,1.5,4.8,1.5c1.3,0,3.2-0.5,3.2-2c0-2.7-7.9-1.9-7.9-6.5c0-2.7,2.5-4.2,5.3-4.2
			s4.1,0.8,4.1,0.8V595.6z"/>
		<path class="st3" d="M92.1,595.1H90v-2.3h2.1v-3h2.7v3h3.1v2.3h-3.1v12h-2.7V595.1z"/>
		<path class="st3" d="M100.5,587.1h2.9v2.9h-2.9V587.1z M103.4,592.8v14.3h-2.8v-14.3H103.4z"/>
		<path class="st3" d="M114.5,607.4c-4.2,0-7.5-3.3-7.5-7.5s3.3-7.4,7.5-7.4c4.1,0,7.5,3.3,7.5,7.4
			C122,604.1,118.7,607.4,114.5,607.4z M114.5,594.8c-2.8,0-5,2.4-5,5.2s2.2,5.2,5,5.2c2.9,0,5-2.4,5-5.2
			C119.5,597.1,117.3,594.8,114.5,594.8z M117.5,588.4l-5.6,2.3l-0.7-1.5l5.1-3.1L117.5,588.4z"/>
		<path class="st3" d="M138.5,607.1h-2.7v-8.6c0-2.4-1.4-3.7-3.3-3.7c-2.7,0-4.4,2-4.4,2v10.3h-2.7v-14.3h2.5l0.1,1.6
			c0,0,1.9-1.8,4.9-1.8c3.5,0,5.5,2.6,5.5,5.7L138.5,607.1L138.5,607.1z"/>
		<path class="st3" d="M162.8,607.1h-2.5l-0.1-1.8c0,0-1.5,2.1-4.6,2.1c-3.8,0-6.7-3.3-6.7-7.5s2.9-7.5,6.7-7.5c3.1,0,4.6,2,4.6,2
			v-9h2.7L162.8,607.1L162.8,607.1z M151.3,599.9c0,2.8,1.8,5.2,4.6,5.2s4.1-2.3,4.1-2.3v-5.6c0,0-1.4-2.3-4.1-2.3
			C153.1,594.8,151.3,597.1,151.3,599.9z"/>
		<path class="st3" d="M179.9,599.3c0,1.2-0.2,1.7-0.2,1.7h-10.9c0.1,2.2,2.2,4,4.8,4s4.8-1.3,4.8-1.3v2.5c0,0-1.8,1.1-4.9,1.1
			c-4.4,0-7.3-3.3-7.3-7.5s3.2-7.4,7.3-7.4C177.9,592.5,179.9,596.3,179.9,599.3z M168.8,598.9h8.7c0-2-1.7-4.2-4.1-4.2
			C170.9,594.7,169.1,596.8,168.8,598.9z"/>
		<path class="st3" d="M202.2,607.1h-2.7v-8.9c0-2.1-0.7-3.4-2.7-3.4s-3.8,2-3.8,2v10.3h-2.7v-14.3h2.5l0.1,1.5c0,0,2-1.8,4.4-1.8
			c2.8,0,4,1.9,4,1.9s2.2-1.9,5.1-1.9c3.5,0,5.1,2.5,5.1,5.6v9h-2.7v-8.6c0-2.4-0.9-3.7-2.9-3.7s-3.7,1.7-3.7,1.7L202.2,607.1
			L202.2,607.1z"/>
		<path class="st3" d="M228.3,599.3c0,1.2-0.2,1.7-0.2,1.7h-10.9c0.1,2.2,2.2,4,4.8,4s4.8-1.3,4.8-1.3v2.5c0,0-1.8,1.1-4.9,1.1
			c-4.4,0-7.3-3.3-7.3-7.5s3.2-7.4,7.3-7.4C226.3,592.5,228.3,596.3,228.3,599.3z M217.2,598.9h8.7c0-2-1.7-4.2-4.1-4.2
			C219.2,594.7,217.5,596.8,217.2,598.9z"/>
		<path class="st3" d="M239.5,594.9c0,0-0.4-0.1-1.1-0.1c-2.9,0-4.3,2.7-4.3,4.4v7.9h-2.7v-14.3h2.4l0.2,2.2c0,0,1.3-2.5,4.4-2.5
			c0.7,0,1,0.1,1,0.1L239.5,594.9z"/>
		<path class="st3" d="M251,595.7c0,0-1.3-0.9-3.4-0.9c-2.7,0-4.8,2.3-4.8,5.1s2,5.2,4.7,5.2c2.2,0,3.6-1,3.6-1v2.5
			c0,0-0.9,0.8-3.8,0.8c-4.1,0-7-3.3-7-7.5s3.1-7.4,7.2-7.4c2.4,0,3.4,0.6,3.4,0.6L251,595.7z"/>
		<path class="st3" d="M267.5,607.1H265l-0.1-1.8c0,0-1.5,2.1-4.6,2.1c-3.8,0-7-3.3-7-7.5s3.1-7.5,7-7.5c3.1,0,4.6,2,4.6,2l0.1-1.7
			h2.5V607.1z M255.8,599.9c0,2.8,2.1,5.2,4.9,5.2c2.9,0,4.1-2.3,4.1-2.3v-5.6c0,0-1.4-2.3-4.1-2.3
			C257.9,594.8,255.8,597.1,255.8,599.9z"/>
		<path class="st3" d="M284.9,607.1h-2.5l-0.1-1.8c0,0-1.5,2.1-4.6,2.1c-3.8,0-6.7-3.3-6.7-7.5s2.9-7.5,6.7-7.5c3.1,0,4.6,2,4.6,2
			v-9h2.7v21.7H284.9z M273.5,599.9c0,2.8,1.8,5.2,4.6,5.2c2.8,0,4.1-2.3,4.1-2.3v-5.6c0,0-1.4-2.3-4.1-2.3
			C275.3,594.8,273.5,597.1,273.5,599.9z"/>
		<path class="st3" d="M295.9,607.4c-4.2,0-7.5-3.3-7.5-7.5s3.3-7.4,7.5-7.4c4.1,0,7.5,3.3,7.5,7.4
			C303.4,604.1,300,607.4,295.9,607.4z M295.9,594.8c-2.8,0-5,2.4-5,5.2s2.2,5.2,5,5.2c2.9,0,5-2.4,5-5.2
			C300.9,597.1,298.7,594.8,295.9,594.8z"/>
		<path class="st3" d="M315.6,595.6c0,0-1.9-0.9-4.2-0.9c-1.2,0-2.5,0.7-2.5,1.8c0,2.5,7.9,1.7,7.9,6.5c0,2.2-2,4.4-5.9,4.4
			c-2.6,0-4.8-1.2-4.8-1.2v-2.6c0,0,2,1.5,4.8,1.5c1.3,0,3.2-0.5,3.2-2c0-2.7-7.9-1.9-7.9-6.5c0-2.7,2.5-4.2,5.3-4.2
			s4.1,0.8,4.1,0.8V595.6z"/>
		<path class="st3" d="M340.3,613.1h-2.7v-7.7c0,0-1.4,2-4.6,2c-3.8,0-6.7-3.3-6.7-7.5s2.9-7.5,6.7-7.5c3.1,0,4.6,2.1,4.6,2.1
			l0.1-1.8h2.5v20.4H340.3z M337.7,602.8v-5.6c0,0-1.3-2.3-4.1-2.3c-2.8,0-4.6,2.4-4.6,5.2s1.8,5.2,4.6,5.2
			C336.2,605.1,337.7,602.8,337.7,602.8z"/>
		<path class="st3" d="M344.5,592.8h2.7v8.6c0,2.5,1.1,3.7,3.3,3.7c2.8,0,4.4-2.2,4.4-2.2v-10.1h2.7v14.3H355l-0.1-1.7
			c0,0-1.9,2-4.9,2c-3.7,0-5.5-2.4-5.5-5.8V592.8z"/>
		<path class="st3" d="M374.7,599.3c0,1.2-0.2,1.7-0.2,1.7h-10.9c0.1,2.2,2.2,4,4.8,4s4.8-1.3,4.8-1.3v2.5c0,0-1.8,1.1-4.9,1.1
			c-4.4,0-7.3-3.3-7.3-7.5s3.2-7.4,7.3-7.4C372.7,592.5,374.7,596.3,374.7,599.3z M363.6,598.9h8.7c0-2-1.7-4.2-4.1-4.2
			C365.6,594.7,363.9,596.8,363.6,598.9z"/>
	</g>
	<g class="st2">
		<path class="st3" d="M53.3,629.9c0,0-0.4-0.1-1.1-0.1c-2.9,0-4.3,2.7-4.3,4.4v7.9h-2.7v-14.3h2.4l0.2,2.2c0,0,1.3-2.5,4.4-2.5
			c0.7,0,1,0.1,1,0.1L53.3,629.9z"/>
		<path class="st3" d="M68.1,634.3c0,1.2-0.2,1.7-0.2,1.7H57c0.1,2.2,2.2,4,4.8,4c2.6,0,4.8-1.3,4.8-1.3v2.5c0,0-1.8,1.1-4.9,1.1
			c-4.4,0-7.3-3.3-7.3-7.5s3.2-7.4,7.3-7.4C66.1,627.5,68.1,631.3,68.1,634.3z M57,633.9h8.7c0-2-1.7-4.2-4.1-4.2
			C59.1,629.7,57.3,631.8,57,633.9z"/>
		<path class="st3" d="M84.4,642.1h-2.5l-0.1-1.8c0,0-1.5,2.1-4.6,2.1c-3.8,0-7-3.3-7-7.5s3.1-7.5,7-7.5c3.1,0,4.6,2,4.6,2l0.1-1.7
			h2.5V642.1z M72.7,634.9c0,2.8,2.1,5.2,4.9,5.2c2.9,0,4.1-2.3,4.1-2.3v-5.6c0,0-1.4-2.3-4.1-2.3C74.8,629.8,72.7,632.1,72.7,634.9
			z"/>
		<path class="st3" d="M88.9,620.5h2.7v21.6h-2.7V620.5z"/>
		<path class="st3" d="M96.4,622.1h2.9v2.9h-2.9V622.1z M99.2,627.8v14.3h-2.8v-14.3H99.2z"/>
		<path class="st3" d="M114.8,642.1h-12.3L111,630h-7.5v-2.3h11.9l-8.5,12.1h7.8L114.8,642.1L114.8,642.1z"/>
		<path class="st3" d="M131.8,642.1h-2.5l-0.1-1.8c0,0-1.5,2.1-4.6,2.1c-3.8,0-7-3.3-7-7.5s3.1-7.5,7-7.5c3.1,0,4.6,2,4.6,2l0.1-1.7
			h2.5V642.1z M120.1,634.9c0,2.8,2.1,5.2,4.9,5.2c2.9,0,4.1-2.3,4.1-2.3v-5.6c0,0-1.4-2.3-4.1-2.3
			C122.2,629.8,120.1,632.1,120.1,634.9z"/>
		<path class="st3" d="M149.3,642.1h-2.7v-8.6c0-2.4-1.4-3.7-3.3-3.7c-2.7,0-4.4,2-4.4,2v10.3h-2.7v-14.3h2.5l0.1,1.6
			c0,0,1.9-1.8,4.9-1.8c3.5,0,5.5,2.6,5.5,5.7L149.3,642.1L149.3,642.1z"/>
		<path class="st3" d="M173.6,642.1h-2.5l-0.1-1.8c0,0-1.5,2.1-4.6,2.1c-3.8,0-6.7-3.3-6.7-7.5s2.9-7.5,6.7-7.5c3.1,0,4.6,2,4.6,2
			v-9h2.7L173.6,642.1L173.6,642.1z M162.2,634.9c0,2.8,1.8,5.2,4.6,5.2s4.1-2.3,4.1-2.3v-5.6c0,0-1.4-2.3-4.1-2.3
			C164,629.8,162.2,632.1,162.2,634.9z"/>
		<path class="st3" d="M190.8,634.3c0,1.2-0.2,1.7-0.2,1.7h-10.9c0.1,2.2,2.2,4,4.8,4s4.8-1.3,4.8-1.3v2.5c0,0-1.8,1.1-4.9,1.1
			c-4.4,0-7.3-3.3-7.3-7.5s3.2-7.4,7.3-7.4C188.8,627.5,190.8,631.3,190.8,634.3z M179.7,633.9h8.7c0-2-1.7-4.2-4.1-4.2
			C181.7,629.7,180,631.8,179.7,633.9z"/>
		<path class="st3" d="M214.3,642.1h-2.5l-0.1-1.8c0,0-1.5,2.1-4.6,2.1c-3.8,0-7-3.3-7-7.5s3.1-7.5,7-7.5c3.1,0,4.6,2,4.6,2l0.1-1.7
			h2.5V642.1z M202.6,634.9c0,2.8,2.1,5.2,4.9,5.2c2.9,0,4.1-2.3,4.1-2.3v-5.6c0,0-1.4-2.3-4.1-2.3
			C204.6,629.8,202.6,632.1,202.6,634.9z"/>
		<path class="st3" d="M228.3,630.7c0,0-1.3-0.9-3.4-0.9c-2.7,0-4.8,2.3-4.8,5.1s2,5.2,4.7,5.2c2.2,0,3.6-1,3.6-1v2.5
			c0,0-0.9,0.8-3.8,0.8c-4.1,0-7-3.3-7-7.5s3.1-7.4,7.2-7.4c2.4,0,3.4,0.6,3.4,0.6L228.3,630.7z"/>
		<path class="st3" d="M231.7,627.8h2.7v8.6c0,2.5,1.1,3.7,3.3,3.7c2.8,0,4.4-2.2,4.4-2.2v-10.1h2.7v14.3h-2.5l-0.1-1.7
			c0,0-1.9,2-4.9,2c-3.7,0-5.5-2.4-5.5-5.8L231.7,627.8L231.7,627.8z"/>
		<path class="st3" d="M261.9,634.3c0,1.2-0.2,1.7-0.2,1.7h-10.9c0.1,2.2,2.2,4,4.8,4c2.6,0,4.8-1.3,4.8-1.3v2.5
			c0,0-1.8,1.1-4.9,1.1c-4.4,0-7.3-3.3-7.3-7.5s3.2-7.4,7.3-7.4C259.9,627.5,261.9,631.3,261.9,634.3z M250.8,633.9h8.7
			c0-2-1.7-4.2-4.1-4.2C252.8,629.7,251.1,631.8,250.8,633.9z"/>
		<path class="st3" d="M273.1,629.9c0,0-0.4-0.1-1.1-0.1c-2.9,0-4.3,2.7-4.3,4.4v7.9H265v-14.3h2.4l0.2,2.2c0,0,1.3-2.5,4.4-2.5
			c0.7,0,1,0.1,1,0.1L273.1,629.9z"/>
		<path class="st3" d="M288.4,642.1h-2.5l-0.1-1.8c0,0-1.5,2.1-4.6,2.1c-3.8,0-6.7-3.3-6.7-7.5s2.9-7.5,6.7-7.5c3.1,0,4.6,2,4.6,2
			v-9h2.7v21.7H288.4z M277,634.9c0,2.8,1.8,5.2,4.6,5.2c2.8,0,4.1-2.3,4.1-2.3v-5.6c0,0-1.4-2.3-4.1-2.3
			C278.8,629.8,277,632.1,277,634.9z"/>
		<path class="st3" d="M299.3,642.4c-4.2,0-7.5-3.3-7.5-7.5s3.3-7.4,7.5-7.4c4.1,0,7.5,3.3,7.5,7.4
			C306.8,639.1,303.5,642.4,299.3,642.4z M299.3,629.8c-2.8,0-5,2.4-5,5.2s2.2,5.2,5,5.2c2.9,0,5-2.4,5-5.2
			C304.4,632.1,302.2,629.8,299.3,629.8z"/>
		<path class="st3" d="M330.6,642.1h-2.5l-0.1-1.8c0,0-1.5,2.1-4.6,2.1c-3.8,0-7-3.3-7-7.5s3.1-7.5,7-7.5c3.1,0,4.6,2,4.6,2l0.1-1.7
			h2.5V642.1z M318.9,634.9c0,2.8,2.1,5.2,4.9,5.2c2.9,0,4.1-2.3,4.1-2.3v-5.6c0,0-1.4-2.3-4.1-2.3
			C321,629.8,318.9,632.1,318.9,634.9z"/>
		<path class="st3" d="M342.3,620.5h2.7v21.6h-2.7V620.5z"/>
		<path class="st3" d="M362.8,642.1h-2.5l-0.1-1.8c0,0-1.5,2.1-4.6,2.1c-3.8,0-7-3.3-7-7.5s3.1-7.5,7-7.5c3.1,0,4.6,2,4.6,2l0.1-1.7
			h2.5V642.1z M351.1,634.9c0,2.8,2.1,5.2,4.9,5.2c2.9,0,4.1-2.3,4.1-2.3v-5.6c0,0-1.4-2.3-4.1-2.3
			C353.2,629.8,351.1,632.1,351.1,634.9z"/>
		<path class="st3" d="M376.1,630.6c0,0-1.9-0.9-4.2-0.9c-1.2,0-2.5,0.7-2.5,1.8c0,2.5,7.9,1.7,7.9,6.5c0,2.2-2,4.4-5.9,4.4
			c-2.6,0-4.8-1.2-4.8-1.2v-2.6c0,0,2,1.5,4.8,1.5c1.3,0,3.2-0.5,3.2-2c0-2.7-7.9-1.9-7.9-6.5c0-2.7,2.5-4.2,5.3-4.2
			s4.1,0.8,4.1,0.8V630.6z"/>
	</g>
	<g class="st2">
		<path class="st3" d="M58.3,677.1h-2.7v-8.6c0-2.4-1.4-3.7-3.3-3.7c-2.7,0-4.4,2-4.4,2v10.3h-2.7v-14.3h2.5l0.1,1.6
			c0,0,1.9-1.8,4.9-1.8c3.5,0,5.5,2.6,5.5,5.7v8.8H58.3z"/>
		<path class="st3" d="M75.1,669.3c0,1.2-0.2,1.7-0.2,1.7H64c0.1,2.2,2.2,4,4.8,4s4.8-1.3,4.8-1.3v2.5c0,0-1.8,1.1-4.9,1.1
			c-4.4,0-7.3-3.3-7.3-7.5s3.2-7.4,7.3-7.4C73.1,662.5,75.1,666.3,75.1,669.3z M64,668.9h8.7c0-2-1.7-4.2-4.1-4.2
			C66.1,664.7,64.4,666.8,64,668.9z"/>
		<path class="st3" d="M87.8,665.7c0,0-1.3-0.9-3.4-0.9c-2.7,0-4.8,2.3-4.8,5.1s2,5.2,4.7,5.2c2.2,0,3.6-1,3.6-1v2.5
			c0,0-0.9,0.8-3.8,0.8c-4.1,0-7-3.3-7-7.5s3.1-7.4,7.2-7.4c2.4,0,3.4,0.6,3.4,0.6L87.8,665.7z"/>
		<path class="st3" d="M104.2,669.3c0,1.2-0.2,1.7-0.2,1.7H93.1c0.1,2.2,2.2,4,4.8,4s4.8-1.3,4.8-1.3v2.5c0,0-1.8,1.1-4.9,1.1
			c-4.4,0-7.3-3.3-7.3-7.5s3.2-7.4,7.3-7.4C102.2,662.5,104.2,666.3,104.2,669.3z M93.1,668.9h8.7c0-2-1.7-4.2-4.1-4.2
			C95.1,664.7,93.4,666.8,93.1,668.9z"/>
		<path class="st3" d="M116.1,665.6c0,0-1.9-0.9-4.2-0.9c-1.2,0-2.5,0.7-2.5,1.8c0,2.5,7.9,1.7,7.9,6.5c0,2.2-2,4.4-5.9,4.4
			c-2.6,0-4.8-1.2-4.8-1.2v-2.6c0,0,2,1.5,4.8,1.5c1.3,0,3.2-0.5,3.2-2c0-2.7-7.9-1.9-7.9-6.5c0-2.7,2.5-4.2,5.3-4.2
			s4.1,0.8,4.1,0.8V665.6z"/>
		<path class="st3" d="M120.8,657.1h2.9v2.9h-2.9V657.1z M123.7,662.8v14.3h-2.8v-14.3H123.7z"/>
		<path class="st3" d="M141.3,677.1h-2.5l-0.1-1.8c0,0-1.5,2.1-4.6,2.1c-3.8,0-6.7-3.3-6.7-7.5s2.9-7.5,6.7-7.5c3.1,0,4.6,2,4.6,2
			v-9h2.7L141.3,677.1L141.3,677.1z M129.8,669.9c0,2.8,1.8,5.2,4.6,5.2s4.1-2.3,4.1-2.3v-5.6c0,0-1.4-2.3-4.1-2.3
			C131.6,664.8,129.8,667.1,129.8,669.9z"/>
		<path class="st3" d="M158.9,677.1h-2.5l-0.1-1.8c0,0-1.5,2.1-4.6,2.1c-3.8,0-7-3.3-7-7.5s3.1-7.5,7-7.5c3.1,0,4.6,2,4.6,2l0.1-1.7
			h2.5V677.1z M147.2,669.9c0,2.8,2.1,5.2,4.9,5.2c2.9,0,4.1-2.3,4.1-2.3v-5.6c0,0-1.4-2.3-4.1-2.3
			C149.3,664.8,147.2,667.1,147.2,669.9z"/>
		<path class="st3" d="M176.3,677.1h-2.5l-0.1-1.8c0,0-1.5,2.1-4.6,2.1c-3.8,0-6.7-3.3-6.7-7.5s2.9-7.5,6.7-7.5c3.1,0,4.6,2,4.6,2
			v-9h2.7L176.3,677.1L176.3,677.1z M164.9,669.9c0,2.8,1.8,5.2,4.6,5.2s4.1-2.3,4.1-2.3v-5.6c0,0-1.4-2.3-4.1-2.3
			C166.7,664.8,164.9,667.1,164.9,669.9z"/>
		<path class="st3" d="M193.5,669.3c0,1.2-0.2,1.7-0.2,1.7h-10.9c0.1,2.2,2.2,4,4.8,4s4.8-1.3,4.8-1.3v2.5c0,0-1.8,1.1-4.9,1.1
			c-4.4,0-7.3-3.3-7.3-7.5s3.2-7.4,7.3-7.4C191.5,662.5,193.5,666.3,193.5,669.3z M182.4,668.9h8.7c0-2-1.7-4.2-4.1-4.2
			C184.4,664.7,182.7,666.8,182.4,668.9z"/>
		<path class="st3" d="M205.4,665.6c0,0-1.9-0.9-4.2-0.9c-1.2,0-2.5,0.7-2.5,1.8c0,2.5,7.9,1.7,7.9,6.5c0,2.2-2,4.4-5.9,4.4
			c-2.6,0-4.8-1.2-4.8-1.2v-2.6c0,0,2,1.5,4.8,1.5c1.3,0,3.2-0.5,3.2-2c0-2.7-7.9-1.9-7.9-6.5c0-2.7,2.5-4.2,5.3-4.2
			s4.1,0.8,4.1,0.8L205.4,665.6z"/>
		<path class="st3" d="M230.1,677.1h-2.5l-0.1-1.8c0,0-1.5,2.1-4.6,2.1c-3.8,0-6.7-3.3-6.7-7.5s2.9-7.5,6.7-7.5c3.1,0,4.6,2,4.6,2
			v-9h2.7L230.1,677.1L230.1,677.1z M218.7,669.9c0,2.8,1.8,5.2,4.6,5.2s4.1-2.3,4.1-2.3v-5.6c0,0-1.4-2.3-4.1-2.3
			C220.5,664.8,218.7,667.1,218.7,669.9z"/>
		<path class="st3" d="M247.3,669.3c0,1.2-0.2,1.7-0.2,1.7h-10.9c0.1,2.2,2.2,4,4.8,4s4.8-1.3,4.8-1.3v2.5c0,0-1.8,1.1-4.9,1.1
			c-4.4,0-7.3-3.3-7.3-7.5s3.2-7.4,7.3-7.4C245.3,662.5,247.3,666.3,247.3,669.3z M236.2,668.9h8.7c0-2-1.7-4.2-4.1-4.2
			C238.2,664.7,236.5,666.8,236.2,668.9z"/>
		<path class="st3" d="M250.4,655.5h2.7v21.6h-2.7V655.5z"/>
		<path class="st3" d="M264.9,662.8h2.5l0.1,1.8c0,0,1.5-2.1,4.6-2.1c3.8,0,6.7,3.3,6.7,7.5s-2.9,7.5-6.7,7.5c-3.1,0-4.6-2-4.6-2
			v7.7h-2.7v-20.4H264.9z M276.4,669.9c0-2.8-1.8-5.2-4.6-5.2c-2.8,0-4.1,2.3-4.1,2.3v5.6c0,0,1.4,2.3,4.1,2.3
			C274.6,675.1,276.4,672.7,276.4,669.9z"/>
		<path class="st3" d="M295.5,677.1H293l-0.1-1.8c0,0-1.5,2.1-4.6,2.1c-3.8,0-7-3.3-7-7.5s3.1-7.5,7-7.5c3.1,0,4.6,2,4.6,2l0.1-1.7
			h2.5V677.1z M283.8,669.9c0,2.8,2.1,5.2,4.9,5.2c2.9,0,4.1-2.3,4.1-2.3v-5.6c0,0-1.4-2.3-4.1-2.3
			C285.8,664.8,283.8,667.1,283.8,669.9z"/>
		<path class="st3" d="M308.7,665.6c0,0-1.9-0.9-4.2-0.9c-1.2,0-2.5,0.7-2.5,1.8c0,2.5,7.9,1.7,7.9,6.5c0,2.2-2,4.4-5.9,4.4
			c-2.6,0-4.8-1.2-4.8-1.2v-2.6c0,0,2,1.5,4.8,1.5c1.3,0,3.2-0.5,3.2-2c0-2.7-7.9-1.9-7.9-6.5c0-2.7,2.5-4.2,5.3-4.2
			s4.1,0.8,4.1,0.8V665.6z"/>
		<path class="st3" d="M326.5,677.1H324l-0.1-1.8c0,0-1.5,2.1-4.6,2.1c-3.8,0-7-3.3-7-7.5s3.1-7.5,7-7.5c3.1,0,4.6,2,4.6,2l0.1-1.7
			h2.5V677.1z M314.8,669.9c0,2.8,2.1,5.2,4.9,5.2c2.9,0,4.1-2.3,4.1-2.3v-5.6c0,0-1.4-2.3-4.1-2.3
			C316.9,664.8,314.8,667.1,314.8,669.9z"/>
		<path class="st3" d="M333.9,678.3c0,1.9-1.2,5.1-5.4,5.1V681c2.2,0,2.8-1.4,2.8-2.7v-15.6h2.7v15.6H333.9z M331.1,657.1h2.9v2.9
			h-2.9V657.1z"/>
		<path class="st3" d="M351.3,669.3c0,1.2-0.2,1.7-0.2,1.7h-10.9c0.1,2.2,2.2,4,4.8,4s4.8-1.3,4.8-1.3v2.5c0,0-1.8,1.1-4.9,1.1
			c-4.4,0-7.3-3.3-7.3-7.5s3.2-7.4,7.3-7.4C349.3,662.5,351.3,666.3,351.3,669.3z M340.2,668.9h8.7c0-2-1.7-4.2-4.1-4.2
			C342.2,664.7,340.5,666.8,340.2,668.9z"/>
		<path class="st3" d="M362.5,664.9c0,0-0.4-0.1-1.1-0.1c-2.9,0-4.3,2.7-4.3,4.4v7.9h-2.7v-14.3h2.4l0.2,2.2c0,0,1.3-2.5,4.4-2.5
			c0.7,0,1,0.1,1,0.1L362.5,664.9z"/>
		<path class="st3" d="M370.9,677.4c-4.2,0-7.5-3.3-7.5-7.5s3.3-7.4,7.5-7.4c4.1,0,7.5,3.3,7.5,7.4
			C378.4,674.1,375.1,677.4,370.9,677.4z M370.9,664.8c-2.8,0-5,2.4-5,5.2s2.2,5.2,5,5.2c2.9,0,5-2.4,5-5.2
			C375.9,667.1,373.7,664.8,370.9,664.8z"/>
	</g>
	<g>
		<path class="st0" d="M1281.9,741H910.1c-11.7,0-21.1-9.5-21.1-21.1V545.1c0-11.7,9.5-21.1,21.1-21.1h371.7
			c11.7,0,21.1,9.5,21.1,21.1v174.7c0.1,5.6-2.1,11-6.1,15C1292.9,738.8,1287.6,741,1281.9,741z M910.1,531
			c-7.8,0-14.1,6.3-14.1,14.1v174.8c0,7.8,6.3,14.1,14.1,14.1h371.8c3.8,0,7.3-1.5,9.9-4.1c2.6-2.7,4.1-6.2,4-10V545.1
			c0-7.8-6.3-14.1-14.1-14.1H910.1z"/>
	</g>
	<g>
		<rect x="953" y="549.5" class="st1" width="286" height="209.5"/>
	</g>
	<g class="st2">
		<path class="st3" d="M960.6,565.4c-2.5,0-4.5-2-4.5-4.5s2-4.5,4.5-4.5s4.5,2,4.5,4.5S963.1,565.4,960.6,565.4z"/>
		<path class="st3" d="M983.8,563.1h-4.6v8h-2.6v-20.5h7.2c4.2,0,6.6,2.8,6.6,6.2S988,563.1,983.8,563.1z M979.3,560.7h4.5
			c2.5,0,4.1-1.5,4.1-3.8s-1.6-3.9-4.1-3.9h-4.5V560.7z"/>
		<path class="st3" d="M993.5,549.5h2.7v21.6h-2.7V549.5z"/>
		<path class="st3" d="M1014,571.1h-2.5l-0.1-1.8c0,0-1.5,2.1-4.6,2.1c-3.8,0-7-3.3-7-7.5s3.1-7.5,7-7.5c3.1,0,4.6,2,4.6,2l0.1-1.7
			h2.5V571.1z M1002.3,563.9c0,2.8,2.1,5.2,4.9,5.2c2.8,0,4.1-2.3,4.1-2.3v-5.6c0,0-1.4-2.3-4.1-2.3
			C1004.4,558.8,1002.3,561.1,1002.3,563.9z"/>
		<path class="st3" d="M1031.5,571.1h-2.7v-8.6c0-2.4-1.3-3.7-3.3-3.7c-2.7,0-4.4,2-4.4,2v10.3h-2.7v-14.3h2.5l0.1,1.6
			c0,0,1.9-1.8,4.9-1.8c3.5,0,5.5,2.6,5.5,5.7L1031.5,571.1L1031.5,571.1z"/>
		<path class="st3" d="M1048.4,563.3c0,1.2-0.2,1.7-0.2,1.7h-10.9c0.1,2.2,2.2,4,4.8,4s4.8-1.3,4.8-1.3v2.5c0,0-1.8,1.1-4.9,1.1
			c-4.4,0-7.3-3.3-7.3-7.5s3.2-7.4,7.3-7.4C1046.4,556.5,1048.4,560.3,1048.4,563.3z M1037.3,562.9h8.7c0-2-1.7-4.2-4.1-4.2
			C1039.3,558.7,1037.6,560.8,1037.3,562.9z"/>
		<path class="st3" d="M1064.7,571.1h-2.5l-0.1-1.8c0,0-1.5,2.1-4.6,2.1c-3.8,0-7-3.3-7-7.5s3.1-7.5,7-7.5c3.1,0,4.6,2,4.6,2
			l0.1-1.7h2.5V571.1z M1053,563.9c0,2.8,2.1,5.2,4.9,5.2s4.1-2.3,4.1-2.3v-5.6c0,0-1.4-2.3-4.1-2.3
			C1055,558.8,1053,561.1,1053,563.9z"/>
		<path class="st3" d="M1078.7,559.7c0,0-1.3-0.9-3.4-0.9c-2.7,0-4.8,2.3-4.8,5.1s2,5.2,4.7,5.2c2.2,0,3.6-1,3.6-1v2.5
			c0,0-0.9,0.8-3.8,0.8c-4.1,0-7-3.3-7-7.5s3.1-7.4,7.2-7.4c2.4,0,3.4,0.6,3.4,0.6L1078.7,559.7z"/>
		<path class="st3" d="M1082.5,551.1h2.9v2.9h-2.9V551.1z M1085.4,556.8v14.3h-2.8v-14.3H1085.4z"/>
		<path class="st3" d="M1096.5,571.4c-4.2,0-7.5-3.3-7.5-7.5s3.3-7.4,7.5-7.4c4.1,0,7.5,3.3,7.5,7.4
			C1104,568.1,1100.7,571.4,1096.5,571.4z M1096.5,558.8c-2.8,0-5,2.4-5,5.2s2.2,5.2,5,5.2c2.9,0,5-2.4,5-5.2
			C1101.5,561.1,1099.3,558.8,1096.5,558.8z M1099.5,552.4l-5.6,2.3l-0.7-1.5l5.1-3.1L1099.5,552.4z"/>
		<path class="st3" d="M1120.5,571.1h-2.7v-8.6c0-2.4-1.4-3.7-3.3-3.7c-2.7,0-4.4,2-4.4,2v10.3h-2.7v-14.3h2.5l0.1,1.6
			c0,0,1.9-1.8,4.9-1.8c3.5,0,5.5,2.6,5.5,5.7L1120.5,571.1L1120.5,571.1z"/>
	</g>
	<g class="st2">
		<path class="st3" d="M960.6,600.4c-2.5,0-4.5-2-4.5-4.5s2-4.5,4.5-4.5s4.5,2,4.5,4.5S963.1,600.4,960.6,600.4z"/>
		<path class="st3" d="M986.1,585.3c5.9,0,10.7,4.7,10.7,10.5s-4.8,10.5-10.7,10.5s-10.6-4.7-10.6-10.5
			C975.4,590,980.2,585.3,986.1,585.3z M986.1,604c4.5,0,8.1-3.7,8.1-8.2s-3.6-8.2-8.1-8.2c-4.4,0-8.1,3.7-8.1,8.2
			S981.7,604,986.1,604z"/>
		<path class="st3" d="M1008.4,593.9c0,0-0.4-0.1-1.1-0.1c-2.9,0-4.3,2.7-4.3,4.4v7.9h-2.7v-14.3h2.4l0.2,2.2c0,0,1.3-2.5,4.4-2.5
			c0.7,0,1.1,0.1,1.1,0.1L1008.4,593.9z"/>
		<path class="st3" d="M1020.7,604.1c0,0-1.4,1.9-4.4,1.9c-3.9,0-6.8-3.1-6.8-7.3c0-4.1,2.9-7.3,6.8-7.3c3,0,4.5,2,4.5,2l0.1-1.7
			h2.5v13.5c0,4.2-2.2,7.1-7,7.1c-4,0-5.8-1.8-5.8-1.8l1.2-2c0,0,1.5,1.6,4.4,1.6c2.4,0,4.6-1.5,4.6-4.2L1020.7,604.1L1020.7,604.1z
			 M1020.7,601.6V596c0,0-1.3-2.3-4.1-2.3s-4.6,2.3-4.6,5.1s1.8,5.1,4.6,5.1C1019.2,603.8,1020.7,601.6,1020.7,601.6z"/>
		<path class="st3" d="M1041,606.1h-2.5l-0.1-1.8c0,0-1.5,2.1-4.6,2.1c-3.8,0-7-3.3-7-7.5s3.2-7.5,7-7.5c3.1,0,4.6,2,4.6,2l0.1-1.7
			h2.5V606.1z M1029.3,598.9c0,2.8,2.1,5.2,4.9,5.2c2.9,0,4.1-2.3,4.1-2.3v-5.6c0,0-1.4-2.3-4.1-2.3
			C1031.3,593.8,1029.3,596.1,1029.3,598.9z"/>
		<path class="st3" d="M1058.5,606.1h-2.7v-8.6c0-2.4-1.4-3.7-3.3-3.7c-2.7,0-4.4,2-4.4,2v10.3h-2.7v-14.3h2.5l0.1,1.6
			c0,0,1.9-1.8,4.9-1.8c3.5,0,5.5,2.6,5.5,5.7L1058.5,606.1L1058.5,606.1z"/>
		<path class="st3" d="M1062.8,586.1h2.9v2.9h-2.9V586.1z M1065.7,591.8v14.3h-2.8v-14.3H1065.7z"/>
		<path class="st3" d="M1081.3,606.1H1069l8.5-12.1h-7.5v-2.3h11.9l-8.5,12.1h7.8L1081.3,606.1L1081.3,606.1z"/>
		<path class="st3" d="M1098.3,606.1h-2.5l-0.1-1.8c0,0-1.5,2.1-4.6,2.1c-3.8,0-7-3.3-7-7.5s3.1-7.5,7-7.5c3.1,0,4.6,2,4.6,2
			l0.1-1.7h2.5V606.1z M1086.6,598.9c0,2.8,2.1,5.2,4.9,5.2s4.1-2.3,4.1-2.3v-5.6c0,0-1.4-2.3-4.1-2.3
			C1088.6,593.8,1086.6,596.1,1086.6,598.9z"/>
		<path class="st3" d="M1112.3,594.7c0,0-1.3-0.9-3.4-0.9c-2.7,0-4.8,2.3-4.8,5.1s2,5.2,4.7,5.2c2.2,0,3.6-1,3.6-1v2.5
			c0,0-0.9,0.8-3.8,0.8c-4.1,0-7-3.3-7-7.5s3.1-7.4,7.2-7.4c2.4,0,3.4,0.6,3.4,0.6L1112.3,594.7z"/>
		<path class="st3" d="M1116.1,586.1h2.9v2.9h-2.9V586.1z M1119,591.8v14.3h-2.8v-14.3H1119z"/>
		<path class="st3" d="M1130.1,606.4c-4.2,0-7.5-3.3-7.5-7.5s3.3-7.4,7.5-7.4c4.1,0,7.5,3.3,7.5,7.4
			C1137.6,603.1,1134.3,606.4,1130.1,606.4z M1130.1,593.8c-2.8,0-5,2.4-5,5.2s2.2,5.2,5,5.2c2.9,0,5-2.4,5-5.2
			C1135.1,596.1,1132.9,593.8,1130.1,593.8z M1133.1,587.4l-5.6,2.3l-0.7-1.5l5.1-3.1L1133.1,587.4z"/>
		<path class="st3" d="M1154.1,606.1h-2.7v-8.6c0-2.4-1.4-3.7-3.3-3.7c-2.7,0-4.4,2-4.4,2v10.3h-2.7v-14.3h2.5l0.1,1.6
			c0,0,1.9-1.8,4.9-1.8c3.5,0,5.5,2.6,5.5,5.7L1154.1,606.1L1154.1,606.1z"/>
	</g>
	<g class="st2">
		<path class="st3" d="M960.6,635.4c-2.5,0-4.5-2-4.5-4.5s2-4.5,4.5-4.5s4.5,2,4.5,4.5S963.1,635.4,960.6,635.4z"/>
		<path class="st3" d="M990.5,623.9c0,0-2-1.1-4.6-1.1c-4.2,0-7.8,3.5-7.8,8.1c0,4.9,3.7,8.2,7.7,8.2c3,0,5.1-1.5,5.1-1.5v2.8
			c0,0-2.1,1.1-5.2,1.1c-5.8,0-10.2-4.6-10.2-10.6c0-5.9,4.6-10.5,10.3-10.5c2.8,0,4.7,0.8,4.7,0.8V623.9z"/>
		<path class="st3" d="M1000.1,641.4c-4.2,0-7.5-3.3-7.5-7.5s3.3-7.4,7.5-7.4c4.1,0,7.5,3.3,7.5,7.4
			C1007.6,638.1,1004.2,641.4,1000.1,641.4z M1000.1,628.8c-2.8,0-5,2.4-5,5.2s2.2,5.2,5,5.2c2.9,0,5-2.4,5-5.2
			C1005.1,631.1,1002.9,628.8,1000.1,628.8z"/>
		<path class="st3" d="M1024,641.1h-2.7v-8.6c0-2.4-1.4-3.7-3.3-3.7c-2.7,0-4.4,2-4.4,2v10.3h-2.7v-14.3h2.5l0.1,1.6
			c0,0,1.9-1.8,4.9-1.8c3.5,0,5.5,2.6,5.5,5.7v8.8H1024z"/>
		<path class="st3" d="M1028.8,629.1h-2.1v-2.3h2.1v-3h2.7v3h3.1v2.3h-3.1v12h-2.7V629.1z"/>
		<path class="st3" d="M1045.2,628.9c0,0-0.4-0.1-1.1-0.1c-2.9,0-4.3,2.7-4.3,4.4v7.9h-2.7v-14.3h2.4l0.2,2.2c0,0,1.3-2.5,4.4-2.5
			c0.7,0,1,0.1,1,0.1L1045.2,628.9z"/>
		<path class="st3" d="M1053.6,641.4c-4.2,0-7.5-3.3-7.5-7.5s3.3-7.4,7.5-7.4c4.1,0,7.5,3.3,7.5,7.4
			C1061.1,638.1,1057.7,641.4,1053.6,641.4z M1053.6,628.8c-2.8,0-5,2.4-5,5.2s2.2,5.2,5,5.2c2.9,0,5-2.4,5-5.2
			C1058.6,631.1,1056.4,628.8,1053.6,628.8z"/>
		<path class="st3" d="M1064.5,619.5h2.7v21.6h-2.7V619.5z"/>
	</g>
	<g class="st2">
		<path class="st3" d="M960.6,670.4c-2.5,0-4.5-2-4.5-4.5s2-4.5,4.5-4.5s4.5,2,4.5,4.5S963.1,670.4,960.6,670.4z"/>
		<path class="st3" d="M987.2,658.7c0,0-2.2-0.9-4.9-0.9c-2,0-4,0.7-4,2.8c0,4.3,10.5,3,10.5,9.8c0,3.1-2.5,6-7.3,6
			c-3.4,0-5.8-1.5-5.8-1.5v-2.7c0,0,2.8,1.8,5.8,1.8c2,0,4.7-0.8,4.7-3.5c0-4.6-10.5-3.3-10.5-9.8c0-3.6,3.1-5.4,6.7-5.4
			c3.2,0,4.9,0.9,4.9,0.9L987.2,658.7z"/>
		<path class="st3" d="M1004.9,668.3c0,1.2-0.2,1.7-0.2,1.7h-10.9c0.1,2.2,2.2,4,4.8,4s4.8-1.3,4.8-1.3v2.5c0,0-1.8,1.1-4.9,1.1
			c-4.4,0-7.3-3.3-7.3-7.5s3.2-7.4,7.3-7.4C1002.9,661.5,1004.9,665.3,1004.9,668.3z M993.8,667.9h8.7c0-2-1.7-4.2-4.1-4.2
			C995.9,663.7,994.1,665.8,993.8,667.9z"/>
		<path class="st3" d="M1018.3,674.1c0,0-1.4,1.9-4.4,1.9c-3.9,0-6.8-3.1-6.8-7.3c0-4.1,2.9-7.3,6.8-7.3c3,0,4.5,2,4.5,2l0.1-1.7
			h2.5v13.5c0,4.2-2.2,7.1-7,7.1c-4,0-5.8-1.8-5.8-1.8l1.2-2c0,0,1.5,1.6,4.4,1.6c2.4,0,4.6-1.5,4.6-4.2L1018.3,674.1L1018.3,674.1z
			 M1018.3,671.6V666c0,0-1.3-2.3-4.1-2.3s-4.6,2.3-4.6,5.1s1.8,5.1,4.6,5.1C1016.9,673.8,1018.3,671.6,1018.3,671.6z"/>
		<path class="st3" d="M1025.2,661.8h2.7v8.6c0,2.5,1.1,3.7,3.3,3.7c2.8,0,4.4-2.2,4.4-2.2v-10.1h2.7v14.3h-2.5l-0.1-1.7
			c0,0-1.9,2-4.9,2c-3.7,0-5.5-2.4-5.5-5.8L1025.2,661.8L1025.2,661.8z"/>
		<path class="st3" d="M1042.8,656.1h2.9v2.9h-2.9V656.1z M1045.6,661.8v14.3h-2.8v-14.3H1045.6z"/>
		<path class="st3" d="M1062.3,676.1h-2.7v-8.9c0-2.1-0.7-3.4-2.7-3.4s-3.8,2-3.8,2v10.3h-2.7v-14.3h2.5l0.1,1.5c0,0,2-1.8,4.4-1.8
			c2.8,0,4,1.9,4,1.9s2.2-1.9,5.1-1.9c3.5,0,5.1,2.5,5.1,5.6v9h-2.7v-8.6c0-2.4-0.9-3.7-2.9-3.7s-3.7,1.7-3.7,1.7L1062.3,676.1
			L1062.3,676.1z"/>
		<path class="st3" d="M1075.9,656.1h2.9v2.9h-2.9V656.1z M1078.7,661.8v14.3h-2.8v-14.3H1078.7z"/>
		<path class="st3" d="M1096,668.3c0,1.2-0.2,1.7-0.2,1.7h-10.9c0.1,2.2,2.2,4,4.8,4s4.8-1.3,4.8-1.3v2.5c0,0-1.8,1.1-4.9,1.1
			c-4.4,0-7.3-3.3-7.3-7.5s3.2-7.4,7.3-7.4C1094,661.5,1096,665.3,1096,668.3z M1084.9,667.9h8.7c0-2-1.7-4.2-4.1-4.2
			C1087,663.7,1085.3,665.8,1084.9,667.9z"/>
		<path class="st3" d="M1112.2,676.1h-2.7v-8.6c0-2.4-1.4-3.7-3.3-3.7c-2.7,0-4.4,2-4.4,2v10.3h-2.7v-14.3h2.5l0.1,1.6
			c0,0,1.9-1.8,4.9-1.8c3.5,0,5.5,2.6,5.5,5.7L1112.2,676.1L1112.2,676.1z"/>
		<path class="st3" d="M1117,664.1h-2.1v-2.3h2.1v-3h2.7v3h3.1v2.3h-3.1v12h-2.7V664.1z"/>
		<path class="st3" d="M1131.7,676.4c-4.2,0-7.5-3.3-7.5-7.5s3.3-7.4,7.5-7.4c4.1,0,7.5,3.3,7.5,7.4
			C1139.2,673.1,1135.9,676.4,1131.7,676.4z M1131.7,663.8c-2.8,0-5,2.4-5,5.2s2.2,5.2,5,5.2c2.9,0,5-2.4,5-5.2
			C1136.7,666.1,1134.5,663.8,1131.7,663.8z"/>
		<path class="st3" d="M1162.7,676.1h-2.5l-0.1-1.8c0,0-1.5,2.1-4.6,2.1c-3.8,0-6.7-3.3-6.7-7.5s2.9-7.5,6.7-7.5c3.1,0,4.6,2,4.6,2
			v-9h2.7L1162.7,676.1L1162.7,676.1z M1151.3,668.9c0,2.8,1.8,5.2,4.6,5.2c2.8,0,4.1-2.3,4.1-2.3v-5.6c0,0-1.4-2.3-4.1-2.3
			C1153.1,663.8,1151.3,666.1,1151.3,668.9z"/>
		<path class="st3" d="M1179.9,668.3c0,1.2-0.2,1.7-0.2,1.7h-10.9c0.1,2.2,2.2,4,4.8,4s4.8-1.3,4.8-1.3v2.5c0,0-1.8,1.1-4.9,1.1
			c-4.4,0-7.3-3.3-7.3-7.5s3.2-7.4,7.3-7.4C1177.9,661.5,1179.9,665.3,1179.9,668.3z M1168.8,667.9h8.7c0-2-1.7-4.2-4.1-4.2
			C1170.9,663.7,1169.1,665.8,1168.8,667.9z"/>
		<path class="st3" d="M1199,664.6c0,0-1.9-0.9-4.2-0.9c-1.2,0-2.5,0.7-2.5,1.8c0,2.5,7.9,1.7,7.9,6.5c0,2.2-2,4.4-5.9,4.4
			c-2.6,0-4.8-1.2-4.8-1.2v-2.6c0,0,2,1.5,4.8,1.5c1.3,0,3.2-0.5,3.2-2c0-2.7-7.9-1.9-7.9-6.5c0-2.7,2.5-4.2,5.3-4.2
			s4.1,0.8,4.1,0.8V664.6z"/>
		<path class="st3" d="M1203.3,661.8h2.7v8.6c0,2.5,1.1,3.7,3.3,3.7c2.8,0,4.4-2.2,4.4-2.2v-10.1h2.7v14.3h-2.5l-0.1-1.7
			c0,0-1.9,2-4.9,2c-3.7,0-5.5-2.4-5.5-5.8L1203.3,661.8L1203.3,661.8z"/>
		<path class="st3" d="M1229.6,664.6c0,0-1.9-0.9-4.2-0.9c-1.2,0-2.5,0.7-2.5,1.8c0,2.5,7.9,1.7,7.9,6.5c0,2.2-2,4.4-5.9,4.4
			c-2.6,0-4.8-1.2-4.8-1.2v-2.6c0,0,2,1.5,4.8,1.5c1.3,0,3.2-0.5,3.2-2c0-2.7-7.9-1.9-7.9-6.5c0-2.7,2.5-4.2,5.3-4.2
			s4.1,0.8,4.1,0.8V664.6z"/>
	</g>
	<g class="st2">
		<path class="st3" d="M989.2,711.1h-2.5l-0.1-1.8c0,0-1.5,2.1-4.6,2.1c-3.8,0-7-3.3-7-7.5s3.1-7.5,7-7.5c3.1,0,4.6,2,4.6,2l0.1-1.7
			h2.5V711.1z M977.5,703.9c0,2.8,2.1,5.2,4.9,5.2c2.8,0,4.1-2.3,4.1-2.3v-5.6c0,0-1.4-2.3-4.1-2.3
			C979.6,698.8,977.5,701.1,977.5,703.9z"/>
		<path class="st3" d="M1003.3,699.7c0,0-1.3-0.9-3.4-0.9c-2.7,0-4.8,2.3-4.8,5.1s2,5.2,4.7,5.2c2.2,0,3.6-1,3.6-1v2.5
			c0,0-0.9,0.8-3.8,0.8c-4.1,0-7-3.3-7-7.5s3.1-7.4,7.2-7.4c2.4,0,3.4,0.6,3.4,0.6L1003.3,699.7z"/>
		<path class="st3" d="M1007.5,699.1h-2.1v-2.3h2.1v-3h2.7v3h3.1v2.3h-3.1v12h-2.7V699.1z"/>
		<path class="st3" d="M1015.9,691.1h2.9v2.9h-2.9V691.1z M1018.7,696.8v14.3h-2.8v-14.3H1018.7z"/>
		<path class="st3" d="M1021.5,696.8h2.7l4.2,9.6l4.2-9.6h2.7l-6.9,15.3L1021.5,696.8z"/>
		<path class="st3" d="M1038,691.1h2.9v2.9h-2.9V691.1z M1040.8,696.8v14.3h-2.8v-14.3H1040.8z"/>
		<path class="st3" d="M1058.4,711.1h-2.5l-0.1-1.8c0,0-1.5,2.1-4.6,2.1c-3.8,0-6.7-3.3-6.7-7.5s2.9-7.5,6.7-7.5c3.1,0,4.6,2,4.6,2
			v-9h2.7L1058.4,711.1L1058.4,711.1z M1047,703.9c0,2.8,1.8,5.2,4.6,5.2c2.8,0,4.1-2.3,4.1-2.3v-5.6c0,0-1.4-2.3-4.1-2.3
			C1048.8,698.8,1047,701.1,1047,703.9z"/>
		<path class="st3" d="M1076,711.1h-2.5l-0.1-1.8c0,0-1.5,2.1-4.6,2.1c-3.8,0-7-3.3-7-7.5s3.1-7.5,7-7.5c3.1,0,4.6,2,4.6,2l0.1-1.7
			h2.6L1076,711.1L1076,711.1z M1064.3,703.9c0,2.8,2.1,5.2,4.9,5.2c2.9,0,4.1-2.3,4.1-2.3v-5.6c0,0-1.4-2.3-4.1-2.3
			C1066.4,698.8,1064.3,701.1,1064.3,703.9z"/>
		<path class="st3" d="M1093.4,711.1h-2.5l-0.1-1.8c0,0-1.5,2.1-4.6,2.1c-3.8,0-6.7-3.3-6.7-7.5s2.9-7.5,6.7-7.5c3.1,0,4.6,2,4.6,2
			v-9h2.7L1093.4,711.1L1093.4,711.1z M1082,703.9c0,2.8,1.8,5.2,4.6,5.2c2.8,0,4.1-2.3,4.1-2.3v-5.6c0,0-1.4-2.3-4.1-2.3
			C1083.8,698.8,1082,701.1,1082,703.9z"/>
		<path class="st3" d="M1110.6,703.3c0,1.2-0.2,1.7-0.2,1.7h-10.9c0.1,2.2,2.2,4,4.8,4c2.6,0,4.8-1.3,4.8-1.3v2.5
			c0,0-1.8,1.1-4.9,1.1c-4.4,0-7.3-3.3-7.3-7.5s3.2-7.4,7.3-7.4C1108.6,696.5,1110.6,700.3,1110.6,703.3z M1099.5,702.9h8.7
			c0-2-1.7-4.2-4.1-4.2C1101.6,698.7,1099.8,700.8,1099.5,702.9z"/>
		<path class="st3" d="M1122.5,699.6c0,0-1.9-0.9-4.2-0.9c-1.2,0-2.5,0.7-2.5,1.8c0,2.5,7.9,1.7,7.9,6.5c0,2.2-2,4.4-5.9,4.4
			c-2.6,0-4.8-1.2-4.8-1.2v-2.6c0,0,2,1.5,4.8,1.5c1.3,0,3.2-0.5,3.2-2c0-2.7-7.9-1.9-7.9-6.5c0-2.7,2.5-4.2,5.3-4.2
			s4.1,0.8,4.1,0.8V699.6z"/>
	</g>
	<g>
		<rect x="936" y="301" class="st1" width="321" height="62"/>
	</g>
	<g class="st2">
		<path class="st3" d="M996.9,312.5h8.9v7.4c0,0-2.8,3-7.9,3c-5.4,0-10.3-4.2-10.3-10.5c0-5.9,4.6-10.5,10.9-10.5
			c3.6,0,5.8,1.2,5.8,1.2v2.6c0,0-2.7-1.4-5.8-1.4c-4.6,0-8.3,3.4-8.3,8.1c0,5,3.9,8.1,7.8,8.1c3.4,0,5.1-1.6,5.1-1.6v-4h-6.4v-2.4
			L996.9,312.5L996.9,312.5z"/>
		<path class="st3" d="M1022.5,314.8c0,1.2-0.2,1.7-0.2,1.7h-10.9c0.1,2.2,2.2,4,4.8,4s4.8-1.3,4.8-1.3v2.5c0,0-1.8,1.1-4.9,1.1
			c-4.4,0-7.3-3.3-7.3-7.5s3.2-7.4,7.3-7.4C1020.5,308,1022.5,311.8,1022.5,314.8z M1011.4,314.4h8.7c0-2-1.7-4.2-4.1-4.2
			C1013.5,310.2,1011.7,312.3,1011.4,314.4z"/>
		<path class="st3" d="M1034.4,311.1c0,0-1.9-0.9-4.2-0.9c-1.2,0-2.5,0.7-2.5,1.8c0,2.5,7.9,1.7,7.9,6.5c0,2.2-2,4.4-5.9,4.4
			c-2.6,0-4.8-1.2-4.8-1.2v-2.6c0,0,2,1.5,4.8,1.5c1.3,0,3.2-0.5,3.2-2c0-2.7-7.9-1.9-7.9-6.5c0-2.7,2.5-4.2,5.3-4.2
			s4.1,0.8,4.1,0.8V311.1z"/>
		<path class="st3" d="M1039.3,310.6h-2.1v-2.3h2.1v-3h2.7v3h3.1v2.3h-3.1v12h-2.7V310.6z"/>
		<path class="st3" d="M1047.7,302.6h2.9v2.9h-2.9V302.6z M1050.6,308.3v14.3h-2.8v-14.3H1050.6z"/>
		<path class="st3" d="M1061.7,322.9c-4.2,0-7.5-3.3-7.5-7.5s3.3-7.4,7.5-7.4c4.1,0,7.5,3.3,7.5,7.4
			C1069.2,319.6,1065.9,322.9,1061.7,322.9z M1061.7,310.3c-2.8,0-5,2.4-5,5.2c0,2.8,2.2,5.2,5,5.2c2.9,0,5-2.4,5-5.2
			C1066.7,312.6,1064.5,310.3,1061.7,310.3z M1064.7,303.9l-5.6,2.3l-0.7-1.5l5.1-3.1L1064.7,303.9z"/>
		<path class="st3" d="M1085.7,322.6h-2.7V314c0-2.4-1.4-3.7-3.3-3.7c-2.7,0-4.4,2-4.4,2v10.3h-2.7v-14.3h2.5l0.1,1.6
			c0,0,1.9-1.8,4.9-1.8c3.5,0,5.5,2.6,5.5,5.7L1085.7,322.6L1085.7,322.6z"/>
		<path class="st3" d="M1110.6,322.6h-13.2v-20.5h13v2.4H1100v6.5h8.7v2.4h-8.7v6.7h10.6V322.6z"/>
		<path class="st3" d="M1112.4,308.3h2.1v-2.5c0-1.9,1.2-5.1,5.4-5.1v2.3c-2.2,0-2.8,1.4-2.8,2.7v2.5h8.3v14.3h-2.8v-12h-5.5v12
			h-2.7v-12h-2.1L1112.4,308.3L1112.4,308.3z M1122.6,302.6h2.9v2.9h-2.9V302.6z"/>
		<path class="st3" d="M1139.7,311.2c0,0-1.3-0.9-3.4-0.9c-2.7,0-4.8,2.3-4.8,5.1c0,2.8,2,5.2,4.7,5.2c2.2,0,3.6-1,3.6-1v2.5
			c0,0-0.9,0.8-3.8,0.8c-4.1,0-7-3.3-7-7.5s3.1-7.4,7.2-7.4c2.4,0,3.4,0.6,3.4,0.6L1139.7,311.2z"/>
		<path class="st3" d="M1143.5,302.6h2.9v2.9h-2.9V302.6z M1146.3,308.3v14.3h-2.8v-14.3H1146.3z"/>
		<path class="st3" d="M1163.7,314.8c0,1.2-0.2,1.7-0.2,1.7h-10.9c0.1,2.2,2.2,4,4.8,4s4.8-1.3,4.8-1.3v2.5c0,0-1.8,1.1-4.9,1.1
			c-4.4,0-7.3-3.3-7.3-7.5s3.2-7.4,7.3-7.4C1161.7,308,1163.7,311.8,1163.7,314.8z M1152.6,314.4h8.7c0-2-1.7-4.2-4.1-4.2
			C1154.7,310.2,1152.9,312.3,1152.6,314.4z"/>
		<path class="st3" d="M1179.9,322.6h-2.7V314c0-2.4-1.3-3.7-3.3-3.7c-2.7,0-4.4,2-4.4,2v10.3h-2.7v-14.3h2.5l0.1,1.6
			c0,0,1.9-1.8,4.9-1.8c3.5,0,5.5,2.6,5.5,5.7L1179.9,322.6L1179.9,322.6z"/>
		<path class="st3" d="M1184.6,310.6h-2.1v-2.3h2.1v-3h2.7v3h3.1v2.3h-3.1v12h-2.7V310.6z"/>
		<path class="st3" d="M1205.6,314.8c0,1.2-0.2,1.7-0.2,1.7h-10.9c0.1,2.2,2.2,4,4.8,4c2.6,0,4.8-1.3,4.8-1.3v2.5
			c0,0-1.8,1.1-4.9,1.1c-4.4,0-7.3-3.3-7.3-7.5s3.2-7.4,7.3-7.4C1203.6,308,1205.6,311.8,1205.6,314.8z M1194.5,314.4h8.7
			c0-2-1.7-4.2-4.1-4.2C1196.5,310.2,1194.8,312.3,1194.5,314.4z"/>
	</g>
	<g>
		<rect x="110.6" y="141" class="st1" width="217.4" height="64"/>
	</g>
	<path class="st3" d="M140.8,150.1c0,0-1.7-0.9-3.8-0.9c-1.6,0-3.3,0.8-3.3,2.4c0,3.6,8.4,2.4,8.4,7.2c0,2-1.7,4-5.6,4
		c-2.6,0-4.5-1.1-4.5-1.1v-1.5c0,0,1.9,1.4,4.5,1.4c1.6,0,4-0.6,4-2.7c0-3.7-8.4-2.6-8.4-7.2c0-2.5,2.2-3.8,5-3.8
		c2,0,3.6,0.7,3.6,0.7L140.8,150.1z"/>
	<path class="st3" d="M153.3,149.4h-2.1v-1.2h2.1v-3h1.5v3h3.1v1.2h-3.1v13.1h-1.5V149.4z"/>
	<path class="st3" d="M167.2,149.3c0,0-0.3-0.1-0.8-0.1c-2.4,0-4.6,2.7-4.6,5.5v7.8h-1.5v-14.3h1.4l0.1,2.9c0,0,1.2-3.2,4.6-3.2
		c0.4,0,0.7,0.1,0.7,0.1v1.3H167.2z"/>
	<path class="st3" d="M182,162.6h-1.4l-0.1-2.2c0,0-1.6,2.5-5.2,2.5c-4.1,0-7.2-3.2-7.2-7.5c0-4.2,3.1-7.5,7.2-7.5
		c3.6,0,5.2,2.5,5.2,2.5l0.1-2.2h1.4V162.6z M169.6,155.4c0,3.5,2.6,6.2,5.8,6.2c3.7,0,5.1-3.3,5.1-3.3v-5.9c0,0-1.4-3.3-5.1-3.3
		C172.2,149.2,169.6,151.9,169.6,155.4z"/>
	<path class="st3" d="M194.5,150.1c0,0-1.7-0.9-3.8-0.9c-1.6,0-3.3,0.8-3.3,2.4c0,3.6,8.4,2.4,8.4,7.2c0,2-1.7,4-5.6,4
		c-2.6,0-4.5-1.1-4.5-1.1v-1.5c0,0,1.9,1.4,4.5,1.4c1.6,0,4-0.6,4-2.7c0-3.7-8.4-2.6-8.4-7.2c0-2.5,2.2-3.8,5-3.8
		c2,0,3.6,0.7,3.6,0.7L194.5,150.1z"/>
	<path class="st3" d="M208.6,149.9c0,0-1.2-0.7-3-0.7c-3.2,0-5.8,2.8-5.8,6.2c0,3.5,2.6,6.2,5.8,6.2c2,0,3.4-0.8,3.4-0.8v1.4
		c0,0-1.3,0.7-3.5,0.7c-4.1,0-7.2-3.2-7.2-7.5c0-4.1,3.3-7.5,7.4-7.5c2,0,3.1,0.5,3.1,0.5L208.6,149.9z"/>
	<path class="st3" d="M225,154.9c0,0.6,0,1.2,0,1.2h-12.1c0.2,3,2.6,5.6,6,5.6c2.2,0,4.5-1.4,4.5-1.4v1.4c0,0-2,1.2-4.6,1.2
		c-4.3,0-7.3-3.3-7.3-7.5c0-4.1,3.2-7.4,7.2-7.4C223.1,147.9,225,151.9,225,154.9z M212.9,154.9h10.7c0-3-1.9-5.8-5-5.8
		C215.4,149.1,213,152.1,212.9,154.9z"/>
	<path class="st3" d="M240.6,162.6h-1.5v-8.8c0-3.1-1.9-4.6-4.2-4.6c-3.5,0-5.3,3.4-5.3,3.4v10h-1.5v-14.3h1.4l0.1,2.4
		c0,0,1.8-2.7,5.4-2.7c3,0,5.6,1.9,5.6,5.5V162.6z"/>
	<path class="st3" d="M257.2,162.6h-1.4l-0.1-2.4c0,0-1.5,2.7-5.2,2.7c-3.9,0-6.7-3.4-6.7-7.5s2.8-7.5,6.7-7.5
		c3.7,0,5.3,2.7,5.3,2.7V141h1.5L257.2,162.6L257.2,162.6z M245.3,155.4c0,3.4,2.3,6.2,5.3,6.2c3.2,0,4.9-3,5.1-3.6v-5.2
		c-0.1-0.7-1.9-3.7-5.1-3.7C247.5,149.2,245.3,152,245.3,155.4z"/>
	<path class="st3" d="M274.2,154.9c0,0.6,0,1.2,0,1.2h-12.1c0.2,3,2.6,5.6,6,5.6c2.2,0,4.5-1.4,4.5-1.4v1.4c0,0-2,1.2-4.6,1.2
		c-4.3,0-7.3-3.3-7.3-7.5c0-4.1,3.2-7.4,7.2-7.4C272.3,147.9,274.2,151.9,274.2,154.9z M262.1,154.9h10.7c0-3-1.9-5.8-5-5.8
		S262.2,152.1,262.1,154.9z"/>
	<path class="st3" d="M289.9,162.6h-1.5v-8.8c0-3.1-1.9-4.6-4.2-4.6c-3.5,0-5.3,3.4-5.3,3.4v10h-1.5v-14.3h1.4l0.1,2.4
		c0,0,1.8-2.7,5.4-2.7c3,0,5.6,1.9,5.6,5.5V162.6z"/>
	<path class="st3" d="M294.5,149.4h-2.1v-1.2h2.1v-3h1.5v3h3.1v1.2H296v13.1h-1.5V149.4z"/>
	<path class="st3" d="M314.4,162.6H313l-0.1-2.2c0,0-1.6,2.5-5.2,2.5c-4.1,0-7.2-3.2-7.2-7.5c0-4.2,3.1-7.5,7.2-7.5
		c3.6,0,5.2,2.5,5.2,2.5l0.1-2.2h1.4V162.6z M302.1,155.4c0,3.5,2.6,6.2,5.8,6.2c3.7,0,5.1-3.3,5.1-3.3v-5.9c0,0-1.4-3.3-5.1-3.3
		C304.7,149.2,302.1,151.9,302.1,155.4z"/>
	<path class="st3" d="M320.5,141v21.6H319V141H320.5z"/>
	<path class="st3" d="M202.6,189.9c0,0.6,0,1.2,0,1.2h-12.1c0.2,3,2.6,5.6,6,5.6c2.2,0,4.5-1.4,4.5-1.4v1.4c0,0-2,1.2-4.6,1.2
		c-4.3,0-7.3-3.3-7.3-7.5c0-4.1,3.2-7.4,7.2-7.4C200.7,182.9,202.6,186.9,202.6,189.9z M190.5,189.9h10.7c0-3-1.9-5.8-5-5.8
		C193.1,184.1,190.7,187.1,190.5,189.9z"/>
	<path class="st3" d="M218.3,197.6h-1.5v-8.8c0-3.1-1.9-4.6-4.2-4.6c-3.5,0-5.3,3.4-5.3,3.4v10h-1.5v-14.3h1.4l0.1,2.4
		c0,0,1.8-2.7,5.4-2.7c3,0,5.6,1.9,5.6,5.5V197.6z"/>
	<path class="st3" d="M231.3,176v21.6h-1.5V176H231.3z"/>
	<path class="st3" d="M248.6,197.6h-1.4l-0.1-2.2c0,0-1.6,2.5-5.2,2.5c-4.1,0-7.2-3.2-7.2-7.5c0-4.2,3.1-7.5,7.2-7.5
		c3.6,0,5.2,2.5,5.2,2.5l0.1-2.2h1.4V197.6z M236.3,190.4c0,3.5,2.6,6.2,5.8,6.2c3.7,0,5.1-3.3,5.1-3.3v-5.9c0,0-1.4-3.3-5.1-3.3
		C238.8,184.2,236.3,186.9,236.3,190.4z"/>
	<g>
		<rect x="945" y="142" class="st1" width="302" height="64"/>
	</g>
	<path class="st3" d="M1017.6,163.6h-1.4l-0.1-2.2c0,0-1.6,2.5-5.2,2.5c-4.1,0-7.2-3.2-7.2-7.5c0-4.2,3.1-7.5,7.2-7.5
		c3.6,0,5.2,2.5,5.2,2.5l0.1-2.2h1.4V163.6z M1005.3,156.4c0,3.5,2.6,6.2,5.8,6.2c3.7,0,5.1-3.3,5.1-3.3v-5.9c0,0-1.4-3.3-5.1-3.3
		C1007.8,150.2,1005.3,152.9,1005.3,156.4z"/>
	<path class="st3" d="M1028.9,150.3c0,0-0.3-0.1-0.8-0.1c-2.4,0-4.6,2.7-4.6,5.5v7.8h-1.5v-14.3h1.4l0.1,2.9c0,0,1.2-3.2,4.6-3.2
		c0.4,0,0.7,0.1,0.7,0.1v1.3H1028.9z"/>
	<path class="st3" d="M1040.2,150.9c0,0-1.2-0.7-3-0.7c-3.2,0-5.8,2.8-5.8,6.2c0,3.5,2.6,6.2,5.8,6.2c2,0,3.4-0.8,3.4-0.8v1.4
		c0,0-1.3,0.7-3.5,0.7c-4.1,0-7.2-3.2-7.2-7.5c0-4.1,3.3-7.5,7.4-7.5c2,0,3.1,0.5,3.1,0.5L1040.2,150.9z"/>
	<path class="st3" d="M1056.5,163.6h-1.4l-0.1-2.2c0,0-1.6,2.5-5.2,2.5c-4.1,0-7.2-3.2-7.2-7.5c0-4.2,3.1-7.5,7.2-7.5
		c3.6,0,5.2,2.5,5.2,2.5l0.1-2.2h1.4V163.6z M1044.2,156.4c0,3.5,2.6,6.2,5.8,6.2c3.7,0,5.1-3.3,5.1-3.3v-5.9c0,0-1.4-3.3-5.1-3.3
		C1046.7,150.2,1044.2,152.9,1044.2,156.4z"/>
	<path class="st3" d="M1069.8,142v21.6h-1.5V142H1069.8z"/>
	<path class="st3" d="M1087.1,163.6h-1.4l-0.1-2.2c0,0-1.6,2.5-5.2,2.5c-4.1,0-7.2-3.2-7.2-7.5c0-4.2,3.1-7.5,7.2-7.5
		c3.6,0,5.2,2.5,5.2,2.5l0.1-2.2h1.4V163.6z M1074.8,156.4c0,3.5,2.6,6.2,5.8,6.2c3.7,0,5.1-3.3,5.1-3.3v-5.9c0,0-1.4-3.3-5.1-3.3
		C1077.3,150.2,1074.8,152.9,1074.8,156.4z"/>
	<path class="st3" d="M1098.8,149.2h1.4l0.1,2.4c0,0,1.5-2.7,5.2-2.7c3.9,0,6.7,3.4,6.7,7.5s-2.8,7.5-6.7,7.5
		c-3.7,0-5.3-2.7-5.3-2.7v8.4h-1.5v-20.4H1098.8z M1110.7,156.4c0-3.4-2.3-6.2-5.3-6.2c-3.2,0-4.9,3-5.1,3.6v5.2
		c0.2,0.7,1.9,3.7,5.1,3.7C1108.4,162.7,1110.7,159.8,1110.7,156.4z"/>
	<path class="st3" d="M1128.4,163.6h-1.4l-0.1-2.2c0,0-1.6,2.5-5.2,2.5c-4.1,0-7.2-3.2-7.2-7.5c0-4.2,3.1-7.5,7.2-7.5
		c3.6,0,5.2,2.5,5.2,2.5l0.1-2.2h1.4V163.6z M1116.1,156.4c0,3.5,2.6,6.2,5.8,6.2c3.7,0,5.1-3.3,5.1-3.3v-5.9c0,0-1.4-3.3-5.1-3.3
		C1118.7,150.2,1116.1,152.9,1116.1,156.4z"/>
	<path class="st3" d="M1132.6,149.2h1.5v8.8c0,3.1,1.7,4.6,4,4.6c3.5,0,5.5-3.4,5.5-3.4v-10h1.5v14.3h-1.4l-0.1-2.5
		c0,0-2,2.8-5.6,2.8c-3,0-5.5-1.9-5.5-5.5L1132.6,149.2L1132.6,149.2z"/>
	<path class="st3" d="M1150.1,150.4h-2.1v-1.2h2.1v-3h1.5v3h3.1v1.2h-3.1v13.1h-1.5V150.4z"/>
	<path class="st3" d="M1170,163.6h-1.4l-0.1-2.2c0,0-1.6,2.5-5.2,2.5c-4.1,0-7.2-3.2-7.2-7.5c0-4.2,3.1-7.5,7.2-7.5
		c3.6,0,5.2,2.5,5.2,2.5l0.1-2.2h1.4V163.6z M1157.7,156.4c0,3.5,2.6,6.2,5.8,6.2c3.7,0,5.1-3.3,5.1-3.3v-5.9c0,0-1.4-3.3-5.1-3.3
		C1160.3,150.2,1157.7,152.9,1157.7,156.4z"/>
	<path class="st3" d="M1194,163.6h-1.4l-0.1-2.4c0,0-1.5,2.7-5.2,2.7c-3.9,0-6.7-3.4-6.7-7.5s2.8-7.5,6.7-7.5c3.7,0,5.3,2.7,5.3,2.7
		V142h1.5v21.6H1194z M1182.1,156.4c0,3.4,2.3,6.2,5.3,6.2c3.2,0,5-3,5.1-3.6v-5.2c-0.1-0.7-1.9-3.7-5.1-3.7
		C1184.4,150.2,1182.1,153,1182.1,156.4z"/>
	<path class="st3" d="M1211.1,155.9c0,0.6,0,1.2,0,1.2H1199c0.2,3,2.6,5.6,6,5.6c2.2,0,4.5-1.4,4.5-1.4v1.4c0,0-2,1.2-4.7,1.2
		c-4.3,0-7.3-3.3-7.3-7.5c0-4.1,3.2-7.4,7.2-7.4C1209.2,148.9,1211.1,152.9,1211.1,155.9z M1199,155.9h10.7c0-3-1.9-5.8-5-5.8
		C1201.5,150.1,1199.1,153.1,1199,155.9z"/>
	<path class="st3" d="M959.7,185.4h-2.1v-1.2h2.1v-3h1.5v3h3.1v1.2h-3.1v13.1h-1.5V185.4z"/>
	<path class="st3" d="M973.7,185.3c0,0-0.3-0.1-0.8-0.1c-2.4,0-4.6,2.7-4.6,5.5v7.8h-1.5v-14.3h1.4l0.1,2.9c0,0,1.2-3.2,4.6-3.2
		c0.4,0,0.7,0.1,0.7,0.1L973.7,185.3L973.7,185.3z"/>
	<path class="st3" d="M988.4,198.6H987l-0.1-2.2c0,0-1.6,2.5-5.2,2.5c-4.1,0-7.2-3.2-7.2-7.5c0-4.2,3.1-7.5,7.2-7.5
		c3.6,0,5.2,2.5,5.2,2.5l0.1-2.2h1.4V198.6z M976.1,191.4c0,3.5,2.6,6.2,5.8,6.2c3.7,0,5.1-3.3,5.1-3.3v-5.9c0,0-1.4-3.3-5.1-3.3
		C978.7,185.2,976.1,187.9,976.1,191.4z"/>
	<path class="st3" d="M992.9,177h1.5v9.6c0,0,1.6-2.7,5.3-2.7c3.9,0,6.7,3.4,6.7,7.5s-2.8,7.5-6.7,7.5c-3.7,0-5.2-2.7-5.2-2.7
		l-0.1,2.4H993L992.9,177L992.9,177z M994.4,188.9v5.2c0.1,0.6,1.9,3.6,5.1,3.6c3.1,0,5.3-2.9,5.3-6.2c0-3.4-2.3-6.2-5.3-6.2
		C996.3,185.2,994.6,188.2,994.4,188.9z"/>
	<path class="st3" d="M1022.6,198.6h-1.4l-0.1-2.2c0,0-1.6,2.5-5.2,2.5c-4.1,0-7.2-3.2-7.2-7.5c0-4.2,3.1-7.5,7.2-7.5
		c3.6,0,5.2,2.5,5.2,2.5l0.1-2.2h1.4V198.6z M1010.2,191.4c0,3.5,2.6,6.2,5.8,6.2c3.7,0,5.1-3.3,5.1-3.3v-5.9c0,0-1.4-3.3-5.1-3.3
		C1012.8,185.2,1010.2,187.9,1010.2,191.4z"/>
	<path class="st3" d="M1028.8,200.2c0,2.5-0.5,4.7-4.3,4.7v-1.2c2.4,0,2.8-1.4,2.8-3.1v-16.3h1.5V200.2z M1027.2,178.8h1.6v2.6h-1.6
		V178.8z"/>
	<path class="st3" d="M1039.6,183.9c4.1,0,7.4,3.4,7.4,7.5s-3.3,7.5-7.4,7.5s-7.4-3.4-7.4-7.5
		C1032.3,187.3,1035.5,183.9,1039.6,183.9z M1039.6,197.7c3.3,0,5.9-2.8,5.9-6.3c0-3.4-2.6-6.3-5.9-6.3s-5.9,2.8-5.9,6.3
		S1036.4,197.7,1039.6,197.7z"/>
	<path class="st3" d="M1068.8,198.6h-1.5v-9.1c0-2.8-1.2-4.3-3.4-4.3c-2.5,0-4.4,2.4-4.8,3.2v10.2h-1.5v-14.3h1.4l0.1,2.3
		c0,0,2-2.6,4.9-2.6c3.2,0,4.3,2.5,4.3,2.5s2-2.5,5-2.5c3.4,0,4.9,2.5,4.9,5.4v9.2h-1.5v-8.8c0-3.1-1.3-4.6-3.6-4.6
		c-2.3,0-4,1.9-4.4,2.7L1068.8,198.6L1068.8,198.6z"/>
	<path class="st3" d="M1095,190.9c0,0.6,0,1.2,0,1.2h-12.1c0.2,3,2.6,5.6,6,5.6c2.2,0,4.5-1.4,4.5-1.4v1.4c0,0-2,1.2-4.6,1.2
		c-4.3,0-7.3-3.3-7.3-7.5c0-4.1,3.2-7.4,7.2-7.4C1093.1,183.9,1095,187.9,1095,190.9z M1082.9,190.9h10.7c0-3-1.9-5.8-5-5.8
		S1083,188.1,1082.9,190.9z"/>
	<path class="st3" d="M1110.5,198.6h-1.4l-0.1-2.4c0,0-1.5,2.7-5.2,2.7c-3.9,0-6.7-3.4-6.7-7.5s2.8-7.5,6.7-7.5
		c3.7,0,5.3,2.7,5.3,2.7V177h1.5v21.6H1110.5z M1098.6,191.4c0,3.4,2.3,6.2,5.3,6.2c3.2,0,4.9-3,5.1-3.6v-5.2
		c-0.2-0.7-1.9-3.7-5.1-3.7C1100.9,185.2,1098.6,188,1098.6,191.4z"/>
	<path class="st3" d="M1115,178.8h1.6v2.6h-1.6V178.8z M1116.5,184.2v14.3h-1.5v-14.3H1116.5z"/>
	<path class="st3" d="M1133.9,198.6h-1.4l-0.1-2.2c0,0-1.6,2.5-5.2,2.5c-4.1,0-7.2-3.2-7.2-7.5c0-4.2,3.1-7.5,7.2-7.5
		c3.6,0,5.2,2.5,5.2,2.5l0.1-2.2h1.4V198.6z M1121.5,191.4c0,3.5,2.6,6.2,5.8,6.2c3.7,0,5.1-3.3,5.1-3.3v-5.9c0,0-1.4-3.3-5.1-3.3
		C1124.1,185.2,1121.5,187.9,1121.5,191.4z"/>
	<path class="st3" d="M1150.9,198.6h-1.5v-8.8c0-3.1-1.9-4.6-4.2-4.6c-3.5,0-5.3,3.4-5.3,3.4v10h-1.5v-14.3h1.4l0.1,2.4
		c0,0,1.8-2.7,5.4-2.7c3,0,5.6,1.9,5.6,5.5V198.6z"/>
	<path class="st3" d="M1155.5,185.4h-2.1v-1.2h2.1v-3h1.5v3h3.1v1.2h-3.1v13.1h-1.5V185.4z"/>
	<path class="st3" d="M1175.2,190.9c0,0.6,0,1.2,0,1.2h-12.1c0.2,3,2.6,5.6,6,5.6c2.2,0,4.5-1.4,4.5-1.4v1.4c0,0-2,1.2-4.6,1.2
		c-4.3,0-7.3-3.3-7.3-7.5c0-4.1,3.2-7.4,7.2-7.4C1173.3,183.9,1175.2,187.9,1175.2,190.9z M1163.1,190.9h10.7c0-3-1.9-5.8-5-5.8
		S1163.3,188.1,1163.1,190.9z"/>
	<path class="st3" d="M1185.3,184.2h1.5v8.8c0,3.1,1.7,4.6,4,4.6c3.5,0,5.5-3.4,5.5-3.4v-10h1.5v14.3h-1.4l-0.1-2.5
		c0,0-2,2.8-5.6,2.8c-3,0-5.5-1.9-5.5-5.5L1185.3,184.2L1185.3,184.2z"/>
	<path class="st3" d="M1214.8,198.6h-1.5v-8.8c0-3.1-1.9-4.6-4.2-4.6c-3.5,0-5.3,3.4-5.3,3.4v10h-1.5v-14.3h1.4l0.1,2.4
		c0,0,1.8-2.7,5.4-2.7c3,0,5.6,1.9,5.6,5.5V198.6z"/>
	<path class="st3" d="M1231.8,198.6h-1.4l-0.1-2.2c0,0-1.6,2.5-5.2,2.5c-4.1,0-7.2-3.2-7.2-7.5c0-4.2,3.1-7.5,7.2-7.5
		c3.6,0,5.2,2.5,5.2,2.5l0.1-2.2h1.4V198.6z M1219.5,191.4c0,3.5,2.6,6.2,5.8,6.2c3.7,0,5.1-3.3,5.1-3.3v-5.9c0,0-1.4-3.3-5.1-3.3
		C1222,185.2,1219.5,187.9,1219.5,191.4z"/>
	<g>
		<rect x="110.6" y="433" class="st1" width="217.4" height="32"/>
	</g>
	<path class="st3" d="M176.1,441.4H174v-1.2h2.1v-3h1.5v3h3.1v1.2h-3.1v13.1h-1.5V441.4z"/>
	<path class="st3" d="M190.1,441.3c0,0-0.3-0.1-0.8-0.1c-2.4,0-4.6,2.7-4.6,5.5v7.8h-1.5v-14.3h1.4l0.1,2.9c0,0,1.2-3.2,4.6-3.2
		c0.4,0,0.7,0.1,0.7,0.1v1.3L190.1,441.3L190.1,441.3z"/>
	<path class="st3" d="M204.8,454.6h-1.4l-0.1-2.2c0,0-1.6,2.5-5.2,2.5c-4.1,0-7.2-3.2-7.2-7.5c0-4.2,3.1-7.5,7.2-7.5
		c3.6,0,5.2,2.5,5.2,2.5l0.1-2.2h1.4V454.6z M192.5,447.4c0,3.5,2.6,6.2,5.8,6.2c3.7,0,5.1-3.3,5.1-3.3v-5.9c0,0-1.4-3.3-5.1-3.3
		C195.1,441.2,192.5,443.9,192.5,447.4z"/>
	<path class="st3" d="M207.4,440.2h1.6l4.9,11.8l4.9-11.8h1.6l-6.5,14.9L207.4,440.2z"/>
	<path class="st3" d="M235.5,446.9c0,0.6,0,1.2,0,1.2h-12.1c0.2,3,2.6,5.6,6,5.6c2.2,0,4.5-1.4,4.5-1.4v1.4c0,0-2,1.2-4.6,1.2
		c-4.3,0-7.3-3.3-7.3-7.5c0-4.1,3.2-7.4,7.2-7.4C233.6,439.9,235.5,443.9,235.5,446.9z M223.4,446.9h10.7c0-3-1.9-5.8-5-5.8
		C226,441.1,223.6,444.1,223.4,446.9z M231.8,435.7l-4.8,2.2l-0.5-1l4.6-2.6L231.8,435.7z"/>
	<path class="st3" d="M246.7,442.1c0,0-1.7-0.9-3.8-0.9c-1.6,0-3.3,0.8-3.3,2.4c0,3.6,8.4,2.4,8.4,7.2c0,2-1.7,4-5.6,4
		c-2.6,0-4.5-1.1-4.5-1.1v-1.5c0,0,1.9,1.4,4.5,1.4c1.6,0,4-0.6,4-2.7c0-3.7-8.4-2.6-8.4-7.2c0-2.5,2.2-3.8,5-3.8
		c2,0,3.6,0.7,3.6,0.7L246.7,442.1z"/>
	<path class="st3" d="M271,454.6h-1.4l-0.1-2.4c0,0-1.5,2.7-5.2,2.7c-3.9,0-6.7-3.4-6.7-7.5s2.8-7.5,6.7-7.5c3.7,0,5.3,2.7,5.3,2.7
		V433h1.5L271,454.6L271,454.6z M259.1,447.4c0,3.4,2.3,6.2,5.3,6.2c3.2,0,4.9-3,5.1-3.6v-5.2c-0.1-0.7-1.9-3.7-5.1-3.7
		C261.4,441.2,259.1,444,259.1,447.4z"/>
	<path class="st3" d="M288.1,446.9c0,0.6,0,1.2,0,1.2H276c0.2,3,2.6,5.6,6,5.6c2.2,0,4.5-1.4,4.5-1.4v1.4c0,0-2,1.2-4.6,1.2
		c-4.3,0-7.3-3.3-7.3-7.5c0-4.1,3.2-7.4,7.2-7.4C286.1,439.9,288.1,443.9,288.1,446.9z M276,446.9h10.7c0-3-1.9-5.8-5-5.8
		C278.5,441.1,276.1,444.1,276,446.9z"/>
	<g>
		<rect x="987.6" y="433" class="st1" width="217.4" height="32"/>
	</g>
	<path class="st3" d="M1034.9,439.9c4.1,0,7.4,3.4,7.4,7.5s-3.3,7.5-7.4,7.5s-7.4-3.4-7.4-7.5
		C1027.6,443.3,1030.8,439.9,1034.9,439.9z M1034.9,453.7c3.3,0,5.9-2.8,5.9-6.3c0-3.4-2.6-6.3-5.9-6.3s-5.9,2.8-5.9,6.3
		S1031.7,453.7,1034.9,453.7z"/>
	<path class="st3" d="M1052.6,441.3c0,0-0.3-0.1-0.8-0.1c-2.4,0-4.6,2.7-4.6,5.5v7.8h-1.5v-14.3h1.4l0.1,2.9c0,0,1.2-3.2,4.6-3.2
		c0.4,0,0.7,0.1,0.7,0.1v1.3L1052.6,441.3L1052.6,441.3z"/>
	<path class="st3" d="M1073.8,454.6h-1.5v-9.1c0-2.8-1.2-4.3-3.4-4.3c-2.5,0-4.4,2.4-4.8,3.2v10.2h-1.5v-14.3h1.3l0.1,2.3
		c0,0,2-2.6,4.9-2.6c3.2,0,4.3,2.5,4.3,2.5s2-2.5,5-2.5c3.4,0,4.9,2.5,4.9,5.4v9.2h-1.5v-8.8c0-3.1-1.3-4.6-3.6-4.6
		c-2.3,0-4,1.9-4.4,2.7v10.7L1073.8,454.6L1073.8,454.6z"/>
	<path class="st3" d="M1100,446.9c0,0.6,0,1.2,0,1.2h-12.1c0.2,3,2.6,5.6,6,5.6c2.2,0,4.5-1.4,4.5-1.4v1.4c0,0-2,1.2-4.7,1.2
		c-4.3,0-7.3-3.3-7.3-7.5c0-4.1,3.2-7.4,7.2-7.4C1098.1,439.9,1100,443.9,1100,446.9z M1087.9,446.9h10.7c0-3-1.9-5.8-5-5.8
		S1088,444.1,1087.9,446.9z"/>
	<path class="st3" d="M1115.5,454.6h-1.4l-0.1-2.4c0,0-1.5,2.7-5.2,2.7c-3.9,0-6.7-3.4-6.7-7.5s2.8-7.5,6.7-7.5
		c3.7,0,5.3,2.7,5.3,2.7V433h1.5v21.6H1115.5z M1103.6,447.4c0,3.4,2.3,6.2,5.3,6.2c3.2,0,4.9-3,5.1-3.6v-5.2
		c-0.2-0.7-1.9-3.7-5.1-3.7C1105.9,441.2,1103.6,444,1103.6,447.4z"/>
	<path class="st3" d="M1120,434.8h1.6v2.6h-1.6V434.8z M1121.5,440.2v14.3h-1.5v-14.3H1121.5z"/>
	<path class="st3" d="M1132.4,439.9c4.1,0,7.4,3.4,7.4,7.5s-3.3,7.5-7.4,7.5s-7.4-3.4-7.4-7.5S1128.3,439.9,1132.4,439.9z
		 M1132.4,453.7c3.3,0,5.9-2.8,5.9-6.3c0-3.4-2.6-6.3-5.9-6.3s-5.9,2.8-5.9,6.3S1129.1,453.7,1132.4,453.7z"/>
	<path class="st3" d="M1162.8,454.6h-1.4l-0.1-2.4c0,0-1.5,2.7-5.2,2.7c-3.9,0-6.7-3.4-6.7-7.5s2.8-7.5,6.7-7.5
		c3.7,0,5.3,2.7,5.3,2.7V433h1.5v21.6H1162.8z M1150.9,447.4c0,3.4,2.3,6.2,5.3,6.2c3.2,0,4.9-3,5.1-3.6v-5.2
		c-0.2-0.7-1.9-3.7-5.1-3.7C1153.1,441.2,1150.9,444,1150.9,447.4z"/>
	<path class="st3" d="M1179.8,446.9c0,0.6,0,1.2,0,1.2h-12.1c0.2,3,2.6,5.6,6,5.6c2.2,0,4.5-1.4,4.5-1.4v1.4c0,0-2,1.2-4.7,1.2
		c-4.3,0-7.3-3.3-7.3-7.5c0-4.1,3.2-7.4,7.2-7.4C1177.9,439.9,1179.8,443.9,1179.8,446.9z M1167.7,446.9h10.7c0-3-1.9-5.8-5-5.8
		C1170.3,441.1,1167.8,444.1,1167.7,446.9z"/>
	<path class="st3" d="M163.2,454.9h-1.4l-0.1-2.2c0,0-1.6,2.5-5.2,2.5c-4.1,0-7.2-3.2-7.2-7.5c0-4.2,3.1-7.5,7.2-7.5
		c3.6,0,5.2,2.5,5.2,2.5l0.1-2.2h1.4V454.9z M150.9,447.6c0,3.5,2.6,6.2,5.8,6.2c3.7,0,5.1-3.3,5.1-3.3v-5.9c0,0-1.4-3.3-5.1-3.3
		C153.4,441.5,150.9,444.1,150.9,447.6z"/>
	<path class="st3" d="M129.8,154.4c0,0.6,0,1.2,0,1.2h-12.1c0.2,3,2.6,5.6,6,5.6c2.2,0,4.5-1.4,4.5-1.4v1.4c0,0-2,1.2-4.6,1.2
		c-4.3,0-7.3-3.3-7.3-7.5c0-4.1,3.2-7.4,7.2-7.4C127.8,147.4,129.8,151.4,129.8,154.4z M117.7,154.4h10.7c0-3-1.9-5.8-5-5.8
		C120.3,148.6,117.8,151.6,117.7,154.4z"/>
	<path class="st3" d="M990.5,163.2H989v-9.1c0-2.8-1.2-4.3-3.4-4.3c-2.5,0-4.4,2.4-4.8,3.2v10.2h-1.5v-14.3h1.4l0.1,2.3
		c0,0,2-2.6,4.9-2.6c3.2,0,4.3,2.5,4.3,2.5s2-2.5,5-2.5c3.4,0,4.9,2.5,4.9,5.4v9.2h-1.5v-8.8c0-3.1-1.3-4.6-3.6-4.6
		c-2.3,0-4,1.9-4.4,2.7L990.5,163.2L990.5,163.2z"/>
	<path class="st3" d="M1011.1,440.6h1.4l0.1,2.4c0,0,1.5-2.7,5.2-2.7c3.9,0,6.7,3.4,6.7,7.5s-2.8,7.5-6.7,7.5
		c-3.7,0-5.3-2.7-5.3-2.7v8.4h-1.5v-20.4H1011.1z M1023,447.8c0-3.4-2.3-6.2-5.3-6.2c-3.2,0-4.9,3-5.1,3.6v5.2
		c0.2,0.7,1.9,3.7,5.1,3.7C1020.7,454.1,1023,451.2,1023,447.8z"/>
</g>
</svg>
