<?xml version="1.0" encoding="utf-8"?>
<!-- Generator: Adobe Illustrator 25.0.0, SVG Export Plug-In . SVG Version: 6.00 Build 0)  -->
<svg version="1.1" id="Capa_1" xmlns="http://www.w3.org/2000/svg" xmlns:xlink="http://www.w3.org/1999/xlink" x="0px" y="0px"
	 viewBox="0 0 904 770.3" style="enable-background:new 0 0 904 770.3;" xml:space="preserve">
<style type="text/css">
	.st0{fill:#DA291C;}
	.st1{fill:#FFFFFF;}
</style>
<g>
	<path class="st0" d="M752.4,122.3H127.6c-11.1,0-20.1-9-20.1-20.1V32.5c0-11.1,9-20.1,20.1-20.1h624.7c11.1,0,20.1,9,20.1,20.1
		v69.7C772.5,113.3,763.5,122.3,752.4,122.3z M127.6,17.3c-8.3,0-15.1,6.8-15.1,15.1v69.7c0,8.3,6.8,15.1,15.1,15.1h624.7
		c8.3,0,15.1-6.8,15.1-15.1V32.4c0-8.3-6.8-15.1-15.1-15.1C752.3,17.3,127.6,17.3,127.6,17.3z"/>
</g>
<g>
	<path class="st0" d="M404.4,394.8H32.6c-11.1,0-20.1-9-20.1-20.1V305c0-11.1,9-20.1,20.1-20.1h371.7c11.1,0,20.1,9,20.1,20.1v69.7
		C424.5,385.8,415.5,394.8,404.4,394.8z M32.6,289.8c-8.3,0-15.1,6.8-15.1,15.1v69.7c0,8.3,6.8,15.1,15.1,15.1h371.7
		c8.3,0,15.1-6.8,15.1-15.1v-69.7c0-8.3-6.8-15.1-15.1-15.1L32.6,289.8L32.6,289.8z"/>
</g>
<g>
	<path class="st0" d="M873.4,394.8H501.6c-11.1,0-20.1-9-20.1-20.1V305c0-11.1,9-20.1,20.1-20.1h371.7c11.1,0,20.1,9,20.1,20.1v69.7
		C893.5,385.8,884.5,394.8,873.4,394.8z M501.6,289.8c-8.3,0-15.1,6.8-15.1,15.1v69.7c0,8.3,6.8,15.1,15.1,15.1h371.7
		c8.3,0,15.1-6.8,15.1-15.1v-69.7c0-8.3-6.8-15.1-15.1-15.1L501.6,289.8L501.6,289.8z"/>
</g>
<g>
	<rect x="216" y="234.8" class="st0" width="5" height="52.5"/>
</g>
<g>
	<rect x="216" y="392.8" class="st0" width="5" height="52.5"/>
</g>
<g>
	<rect x="216" y="497.8" class="st0" width="5" height="52.5"/>
</g>
<g>
	<rect x="685" y="392.8" class="st0" width="5" height="52.5"/>
</g>
<g>
	<rect x="685" y="497.8" class="st0" width="5" height="52.5"/>
</g>
<g>
	<rect x="685" y="234.8" class="st0" width="5" height="52.5"/>
</g>
<g>
	<path class="st1" d="M172.4,78.4h-15V55.2h14.7v2.7h-11.7v7.3h9.9V68h-9.9v7.6h12V78.4z"/>
	<path class="st1" d="M190.3,75.6v2.8h-14V55.2h3v20.4H190.3z"/>
	<path class="st1" d="M214,58.7c0,0-2.5-1-5.5-1c-2.3,0-4.6,0.8-4.6,3.2c0,4.9,11.9,3.4,11.9,11.2c0,3.5-2.8,6.8-8.3,6.8
		c-3.8,0-6.6-1.7-6.6-1.7v-3.1c0,0,3.2,2.1,6.6,2.1c2.3,0,5.3-0.9,5.3-3.9c0-5.2-11.9-3.7-11.9-11.1c0-4.1,3.5-6.1,7.5-6.1
		c3.6,0,5.5,1,5.5,1L214,58.7z"/>
	<path class="st1" d="M222.7,70c0,3.7,2.8,6,6,6s6-2.3,6-6V55.2h3v14.9c0,5.2-4.2,8.6-8.9,8.6s-8.9-3.4-8.9-8.6V55.2h3V70H222.7z"/>
	<path class="st1" d="M251.2,69.3H246v9.1h-3V55.2h8.1c4.8,0,7.4,3.2,7.4,7C258.6,66.1,255.9,69.3,251.2,69.3z M246,66.6h5.1
		c2.8,0,4.6-1.7,4.6-4.4s-1.8-4.4-4.6-4.4H246V66.6z"/>
	<path class="st1" d="M277.5,78.4h-15V55.2h14.7v2.7h-11.7v7.3h9.9V68h-9.9v7.6h12V78.4z"/>
	<path class="st1" d="M284.7,66.4h4.5c2.9,0,4.7-2,4.7-4.3s-1.8-4.2-4.3-4.2h-5.1v20.5h-3V55.2h8c4.3,0,7.2,3.1,7.2,6.9
		c0,3.5-2.9,6.5-6.6,6.5l8.5,9.8h-3.9L284.7,66.4z"/>
	<path class="st1" d="M298.6,55.2h3.2l6.8,17.5l6.7-17.5h3.2l-10,24.2L298.6,55.2z"/>
	<path class="st1" d="M325.1,55.2v23.2h-3V55.2H325.1z"/>
	<path class="st1" d="M342.9,58.7c0,0-2.5-1-5.5-1c-2.3,0-4.6,0.8-4.6,3.2c0,4.9,11.9,3.4,11.9,11.2c0,3.5-2.8,6.8-8.3,6.8
		c-3.8,0-6.6-1.7-6.6-1.7v-3.1c0,0,3.2,2.1,6.6,2.1c2.3,0,5.3-0.9,5.3-3.9c0-5.2-11.9-3.7-11.9-11.1c0-4.1,3.5-6.1,7.5-6.1
		c3.6,0,5.5,1,5.5,1L342.9,58.7z"/>
	<path class="st1" d="M359.7,54.8c6.7,0,12.1,5.3,12.1,11.9s-5.4,11.9-12.1,11.9s-12.1-5.3-12.1-11.9S353,54.8,359.7,54.8z
		 M359.7,76c5.1,0,9.2-4.2,9.2-9.2s-4.1-9.2-9.2-9.2c-5,0-9.1,4.2-9.1,9.2S354.6,76,359.7,76z"/>
	<path class="st1" d="M379.4,66.4h4.5c2.9,0,4.7-2,4.7-4.3s-1.8-4.2-4.3-4.2h-5.1v20.5h-3V55.2h8c4.3,0,7.2,3.1,7.2,6.9
		c0,3.5-2.9,6.5-6.6,6.5l8.5,9.8h-3.9L379.4,66.4z"/>
	<path class="st1" d="M404.8,78.4V55.2h5.8c7.8,0,12.2,4.8,12.2,11.6c0,6.7-4.5,11.6-12.2,11.6H404.8L404.8,78.4z M407.9,75.6h3
		c5.9,0,9.1-3.7,9.1-8.8c0-5.2-3.2-8.8-9.1-8.8h-3V75.6z"/>
	<path class="st1" d="M442.3,78.4h-15V55.2H442v2.7h-11.7v7.3h9.9V68h-9.9v7.6h12V78.4z"/>
	<path class="st1" d="M457.6,66.4h4.5c2.9,0,4.7-2,4.7-4.3s-1.8-4.2-4.3-4.2h-5.1v20.5h-3V55.2h8c4.3,0,7.2,3.1,7.2,6.9
		c0,3.5-2.9,6.5-6.6,6.5l8.5,9.8h-3.9L457.6,66.4z"/>
	<path class="st1" d="M477,70c0,3.7,2.8,6,6,6s6-2.3,6-6V55.2h3v14.9c0,5.2-4.2,8.6-8.9,8.6s-8.9-3.4-8.9-8.6V55.2h3V70H477z"/>
	<path class="st1" d="M504.5,58v20.4h-3V58H495v-2.8h16V58H504.5z"/>
	<path class="st1" d="M529.2,78.4h-3.3l-1.9-5h-9.6l-1.9,5h-3.2l10-24.2L529.2,78.4z M519.3,61l-3.8,9.8h7.5L519.3,61z"/>
	<path class="st1" d="M546.2,69.1l-8-13.9h3.2l6.3,11.4l6.3-11.4h3.2l-8,13.9v9.3h-3V69.1z"/>
	<path class="st1" d="M568.5,54.6l11.1,11.6l11.1-11.6v23.8h-3V61.6l-8.2,8.5l-8.1-8.5v16.8h-3V54.6H568.5z"/>
	<path class="st1" d="M611.5,78.4h-15V55.2h14.7v2.7h-11.7v7.3h9.9V68h-9.9v7.6h12V78.4z"/>
	<path class="st1" d="M618.7,66.4h4.5c2.9,0,4.7-2,4.7-4.3s-1.8-4.2-4.3-4.2h-5.1v20.5h-3V55.2h8c4.3,0,7.2,3.1,7.2,6.9
		c0,3.5-2.9,6.5-6.6,6.5l8.5,9.8h-3.9L618.7,66.4z"/>
	<path class="st1" d="M651.6,58.9c0,0-2.3-1.3-5.2-1.3c-4.8,0-8.8,4-8.8,9.1c0,5.6,4.2,9.2,8.7,9.2c3.4,0,5.8-1.7,5.8-1.7v3.2
		c0,0-2.4,1.3-5.9,1.3c-6.5,0-11.6-5.2-11.6-12c0-6.7,5.3-11.9,11.7-11.9c3.2,0,5.3,0.9,5.3,0.9V58.9z"/>
	<path class="st1" d="M673.6,78.4h-3.3l-1.9-5h-9.6l-1.9,5h-3.2l10-24.2L673.6,78.4z M663.7,61l-3.8,9.8h7.5L663.7,61z"/>
	<path class="st1" d="M677,78.4V55.2h5.8c7.8,0,12.2,4.8,12.2,11.6c0,6.7-4.5,11.6-12.2,11.6H677L677,78.4z M680.1,75.6h3
		c5.9,0,9.1-3.7,9.1-8.8c0-5.2-3.2-8.8-9.1-8.8h-3V75.6z"/>
	<path class="st1" d="M710.3,54.8c6.7,0,12.1,5.3,12.1,11.9s-5.4,11.9-12.1,11.9c-6.7,0-12.1-5.3-12.1-11.9S703.6,54.8,710.3,54.8z
		 M710.3,76c5.1,0,9.2-4.2,9.2-9.2s-4.1-9.2-9.2-9.2c-5,0-9.1,4.2-9.1,9.2S705.2,76,710.3,76z"/>
</g>
<g>
	<path class="st1" d="M77.2,312.9v18h-2.6v-18h-5.7v-2.4h14v2.4H77.2z"/>
	<path class="st1" d="M90.2,331.2c-4.2,0-7.5-3.3-7.5-7.5s3.3-7.4,7.5-7.4c4.1,0,7.5,3.3,7.5,7.4C97.7,327.9,94.4,331.2,90.2,331.2z
		 M90.2,318.6c-2.8,0-5,2.4-5,5.2c0,2.8,2.2,5.2,5,5.2c2.9,0,5-2.4,5-5.2C95.3,320.9,93.1,318.6,90.2,318.6z"/>
	<path class="st1" d="M113.1,330.9h-2.7V322c0-2.1-0.7-3.4-2.7-3.4s-3.8,1.9-3.8,1.9v10.3h-2.7v-14.3h2.5l0.1,1.5c0,0,2-1.8,4.4-1.8
		c2.8,0,4,1.9,4,1.9s2.2-1.9,5.1-1.9c3.5,0,5.1,2.5,5.1,5.6v9h-2.7v-8.5c0-2.4-0.9-3.7-2.9-3.7s-3.7,1.7-3.7,1.7L113.1,330.9z"/>
	<path class="st1" d="M139.7,330.9h-2.5l-0.1-1.8c0,0-1.5,2.1-4.6,2.1c-3.8,0-7-3.3-7-7.5s3.1-7.5,7-7.5c3.1,0,4.6,2,4.6,2l0.1-1.7
		h2.5V330.9z M128,323.7c0,2.8,2.1,5.2,4.9,5.2c2.9,0,4.1-2.3,4.1-2.3V321c0,0-1.4-2.3-4.1-2.3C130,318.6,128,320.9,128,323.7z"/>
	<path class="st1" d="M164.3,330.9h-2.5l-0.1-1.8c0,0-1.5,2.1-4.6,2.1c-3.8,0-6.7-3.3-6.7-7.5s2.9-7.5,6.7-7.5c3.1,0,4.6,2,4.6,2v-9
		h2.7L164.3,330.9L164.3,330.9z M152.8,323.7c0,2.8,1.8,5.2,4.6,5.2s4.1-2.3,4.1-2.3V321c0,0-1.4-2.3-4.1-2.3
		C154.6,318.6,152.8,320.9,152.8,323.7z"/>
	<path class="st1" d="M181.4,323.1c0,1.2-0.2,1.7-0.2,1.7h-10.9c0.1,2.2,2.2,4,4.8,4s4.8-1.4,4.8-1.4v2.5c0,0-1.8,1.1-4.9,1.1
		c-4.4,0-7.3-3.3-7.3-7.5s3.2-7.4,7.3-7.4C179.4,316.3,181.4,320.1,181.4,323.1z M170.3,322.7h8.7c0-2-1.7-4.2-4.1-4.2
		C172.4,318.5,170.6,320.6,170.3,322.7z"/>
	<path class="st1" d="M204.7,330.9h-2.5l-0.1-1.8c0,0-1.5,2.1-4.6,2.1c-3.8,0-6.7-3.3-6.7-7.5s2.9-7.5,6.7-7.5c3.1,0,4.6,2,4.6,2v-9
		h2.7L204.7,330.9L204.7,330.9z M193.2,323.7c0,2.8,1.8,5.2,4.6,5.2s4.1-2.3,4.1-2.3V321c0,0-1.4-2.3-4.1-2.3
		C195,318.6,193.2,320.9,193.2,323.7z"/>
	<path class="st1" d="M221.8,323.1c0,1.2-0.2,1.7-0.2,1.7h-10.9c0.1,2.2,2.2,4,4.8,4s4.8-1.4,4.8-1.4v2.5c0,0-1.8,1.1-4.9,1.1
		c-4.4,0-7.3-3.3-7.3-7.5s3.2-7.4,7.3-7.4C219.8,316.3,221.8,320.1,221.8,323.1z M210.7,322.7h8.7c0-2-1.7-4.2-4.1-4.2
		C212.8,318.5,211.1,320.6,210.7,322.7z"/>
	<path class="st1" d="M234.5,319.5c0,0-1.3-0.9-3.4-0.9c-2.7,0-4.8,2.3-4.8,5.1c0,2.8,2,5.2,4.7,5.2c2.2,0,3.6-1,3.6-1v2.5
		c0,0-0.9,0.8-3.8,0.8c-4.1,0-7-3.3-7-7.5s3.1-7.4,7.2-7.4c2.4,0,3.4,0.6,3.4,0.6L234.5,319.5z"/>
	<path class="st1" d="M238.4,310.9h2.9v2.9h-2.9V310.9z M241.2,316.6v14.3h-2.8v-14.3H241.2z"/>
	<path class="st1" d="M254.6,319.4c0,0-1.9-0.9-4.2-0.9c-1.2,0-2.5,0.7-2.5,1.8c0,2.5,7.9,1.7,7.9,6.5c0,2.2-2,4.4-5.9,4.4
		c-2.6,0-4.8-1.2-4.8-1.2v-2.6c0,0,2,1.5,4.8,1.5c1.3,0,3.2-0.5,3.2-2c0-2.7-7.9-1.9-7.9-6.5c0-2.7,2.5-4.2,5.3-4.2s4.1,0.8,4.1,0.8
		L254.6,319.4z"/>
	<path class="st1" d="M259.4,310.9h2.9v2.9h-2.9V310.9z M262.2,316.6v14.3h-2.8v-14.3H262.2z"/>
	<path class="st1" d="M273.4,331.2c-4.2,0-7.5-3.3-7.5-7.5s3.3-7.4,7.5-7.4c4.1,0,7.5,3.3,7.5,7.4
		C280.9,327.9,277.5,331.2,273.4,331.2z M273.4,318.6c-2.8,0-5,2.4-5,5.2c0,2.8,2.2,5.2,5,5.2c2.9,0,5-2.4,5-5.2
		C278.4,320.9,276.2,318.6,273.4,318.6z"/>
	<path class="st1" d="M297.3,330.9h-2.7v-8.6c0-2.4-1.4-3.7-3.3-3.7c-2.7,0-4.4,2-4.4,2v10.3h-2.7v-14.3h2.5l0.1,1.6
		c0,0,1.9-1.8,4.9-1.8c3.5,0,5.5,2.6,5.5,5.7v8.8H297.3z"/>
	<path class="st1" d="M314.2,323.1c0,1.2-0.2,1.7-0.2,1.7h-10.9c0.1,2.2,2.2,4,4.8,4s4.8-1.4,4.8-1.4v2.5c0,0-1.8,1.1-4.9,1.1
		c-4.4,0-7.3-3.3-7.3-7.5s3.2-7.4,7.3-7.4C312.2,316.3,314.2,320.1,314.2,323.1z M303.1,322.7h8.7c0-2-1.7-4.2-4.1-4.2
		C305.2,318.5,303.4,320.6,303.1,322.7z"/>
	<path class="st1" d="M326.1,319.4c0,0-1.9-0.9-4.2-0.9c-1.2,0-2.5,0.7-2.5,1.8c0,2.5,7.9,1.7,7.9,6.5c0,2.2-2,4.4-5.9,4.4
		c-2.6,0-4.8-1.2-4.8-1.2v-2.6c0,0,2,1.5,4.8,1.5c1.3,0,3.2-0.5,3.2-2c0-2.7-7.9-1.9-7.9-6.5c0-2.7,2.5-4.2,5.3-4.2s4.1,0.8,4.1,0.8
		V319.4z"/>
	<path class="st1" d="M350.6,323.1c0,1.2-0.2,1.7-0.2,1.7h-10.9c0.1,2.2,2.2,4,4.8,4s4.8-1.4,4.8-1.4v2.5c0,0-1.8,1.1-4.9,1.1
		c-4.4,0-7.3-3.3-7.3-7.5s3.2-7.4,7.3-7.4C348.6,316.3,350.6,320.1,350.6,323.1z M339.5,322.7h8.7c0-2-1.7-4.2-4.1-4.2
		C341.6,318.5,339.8,320.6,339.5,322.7z"/>
	<path class="st1" d="M366.8,330.9h-2.7v-8.6c0-2.4-1.4-3.7-3.3-3.7c-2.7,0-4.4,2-4.4,2v10.3h-2.7v-14.3h2.5l0.1,1.6
		c0,0,1.9-1.8,4.9-1.8c3.5,0,5.5,2.6,5.5,5.7v8.8H366.8z"/>
	<path class="st1" d="M113.3,365.9h-2.7V357c0-2.1-0.7-3.4-2.7-3.4s-3.8,1.9-3.8,1.9v10.3h-2.7v-14.3h2.5l0.1,1.5c0,0,2-1.8,4.4-1.8
		c2.8,0,4,1.9,4,1.9s2.2-1.9,5.1-1.9c3.5,0,5.1,2.5,5.1,5.6v9h-2.7v-8.5c0-2.4-0.9-3.7-2.9-3.7s-3.7,1.7-3.7,1.7L113.3,365.9z"/>
	<path class="st1" d="M139.8,365.9h-2.5l-0.1-1.8c0,0-1.5,2.1-4.6,2.1c-3.8,0-7-3.3-7-7.5s3.1-7.5,7-7.5c3.1,0,4.6,2,4.6,2l0.1-1.7
		h2.5V365.9z M128.1,358.7c0,2.8,2.1,5.2,4.9,5.2c2.9,0,4.1-2.3,4.1-2.3V356c0,0-1.4-2.3-4.1-2.3
		C130.2,353.6,128.1,355.9,128.1,358.7z"/>
	<path class="st1" d="M144.9,353.9h-2.1v-2.3h2.1v-3h2.7v3h3.1v2.3h-3.1v12h-2.7V353.9z"/>
	<path class="st1" d="M165.9,358.1c0,1.2-0.2,1.7-0.2,1.7h-10.9c0.1,2.2,2.2,4,4.8,4s4.8-1.4,4.8-1.4v2.5c0,0-1.8,1.1-4.9,1.1
		c-4.4,0-7.3-3.3-7.3-7.5s3.2-7.4,7.3-7.4C163.8,351.3,165.9,355.1,165.9,358.1z M154.8,357.7h8.7c0-2-1.7-4.2-4.1-4.2
		C156.8,353.5,155.1,355.6,154.8,357.7z"/>
	<path class="st1" d="M177.1,353.7c0,0-0.4-0.1-1.1-0.1c-2.9,0-4.3,2.7-4.3,4.4v7.9H169v-14.3h2.4l0.2,2.2c0,0,1.3-2.5,4.4-2.5
		c0.7,0,1,0.1,1,0.1L177.1,353.7z"/>
	<path class="st1" d="M180.1,345.9h2.9v2.9h-2.9V345.9z M182.9,351.6v14.3h-2.8v-14.3H182.9z"/>
	<path class="st1" d="M200.8,365.9h-2.5l-0.1-1.8c0,0-1.5,2.1-4.6,2.1c-3.8,0-7-3.3-7-7.5s3.1-7.5,7-7.5c3.1,0,4.6,2,4.6,2l0.1-1.7
		h2.5V365.9z M189.1,358.7c0,2.8,2.1,5.2,4.9,5.2c2.9,0,4.1-2.3,4.1-2.3V356c0,0-1.4-2.3-4.1-2.3
		C191.1,353.6,189.1,355.9,189.1,358.7z"/>
	<path class="st1" d="M222,354.5c0,0-1.3-0.9-3.4-0.9c-2.7,0-4.8,2.3-4.8,5.1c0,2.8,2,5.2,4.7,5.2c2.2,0,3.6-1,3.6-1v2.5
		c0,0-0.9,0.8-3.8,0.8c-4.1,0-7-3.3-7-7.5s3.1-7.4,7.2-7.4c2.4,0,3.4,0.6,3.4,0.6L222,354.5z"/>
	<path class="st1" d="M232.1,366.2c-4.2,0-7.5-3.3-7.5-7.5s3.3-7.4,7.5-7.4c4.1,0,7.5,3.3,7.5,7.4
		C239.6,362.9,236.3,366.2,232.1,366.2z M232.1,353.6c-2.8,0-5,2.4-5,5.2c0,2.8,2.2,5.2,5,5.2c2.9,0,5-2.4,5-5.2
		C237.2,355.9,235,353.6,232.1,353.6z"/>
	<path class="st1" d="M255,365.9h-2.7V357c0-2.1-0.7-3.4-2.7-3.4s-3.8,1.9-3.8,1.9v10.3h-2.7v-14.3h2.5l0.1,1.5c0,0,2-1.8,4.4-1.8
		c2.8,0,4,1.9,4,1.9s2.2-1.9,5.1-1.9c3.5,0,5.1,2.5,5.1,5.6v9h-2.7v-8.5c0-2.4-0.9-3.7-2.9-3.7s-3.7,1.7-3.7,1.7L255,365.9
		L255,365.9z"/>
	<path class="st1" d="M281.1,358.1c0,1.2-0.2,1.7-0.2,1.7H270c0.1,2.2,2.2,4,4.8,4s4.8-1.4,4.8-1.4v2.5c0,0-1.8,1.1-4.9,1.1
		c-4.4,0-7.3-3.3-7.3-7.5s3.2-7.4,7.3-7.4C279.1,351.3,281.1,355.1,281.1,358.1z M270,357.7h8.7c0-2-1.7-4.2-4.1-4.2
		C272,353.5,270.3,355.6,270,357.7z"/>
	<path class="st1" d="M292.3,353.7c0,0-0.4-0.1-1.1-0.1c-2.9,0-4.3,2.7-4.3,4.4v7.9h-2.7v-14.3h2.4l0.2,2.2c0,0,1.3-2.5,4.4-2.5
		c0.7,0,1,0.1,1,0.1L292.3,353.7z"/>
	<path class="st1" d="M303.8,354.5c0,0-1.3-0.9-3.4-0.9c-2.7,0-4.8,2.3-4.8,5.1c0,2.8,2,5.2,4.7,5.2c2.2,0,3.6-1,3.6-1v2.5
		c0,0-0.9,0.8-3.8,0.8c-4.1,0-7-3.3-7-7.5s3.1-7.4,7.2-7.4c2.4,0,3.4,0.6,3.4,0.6L303.8,354.5z"/>
	<path class="st1" d="M307.7,345.9h2.9v2.9h-2.9V345.9z M310.5,351.6v14.3h-2.8v-14.3H310.5z"/>
	<path class="st1" d="M328.3,365.9h-2.5l-0.1-1.8c0,0-1.5,2.1-4.6,2.1c-3.8,0-7-3.3-7-7.5s3.1-7.5,7-7.5c3.1,0,4.6,2,4.6,2l0.1-1.7
		h2.5V365.9z M316.6,358.7c0,2.8,2.1,5.2,4.9,5.2c2.9,0,4.1-2.3,4.1-2.3V356c0,0-1.4-2.3-4.1-2.3
		C318.7,353.6,316.6,355.9,316.6,358.7z"/>
	<path class="st1" d="M332.8,344.3h2.7v21.6h-2.7V344.3z"/>
</g>
<g>
	<path class="st0" d="M404.9,731.5H33.1c-11.5,0-20.9-9.4-20.9-20.9V568.4c0-11.5,9.4-20.9,20.9-20.9h371.7
		c11.5,0,20.9,9.4,20.9,20.9v142.2C425.8,722.2,416.4,731.5,404.9,731.5z M33.1,554.1c-7.9,0-14.4,6.5-14.4,14.4v142.2
		c0,7.9,6.5,14.4,14.4,14.4h371.7c7.9,0,14.4-6.5,14.4-14.4V568.4c0-7.9-6.5-14.4-14.4-14.4L33.1,554.1L33.1,554.1z"/>
</g>
<g>
	<path class="st1" d="M56.9,592v2.4H44.5v-20.5h2.6v18L56.9,592L56.9,592z"/>
	<path class="st1" d="M72.9,594.4h-2.5l-0.1-1.8c0,0-1.5,2.1-4.6,2.1c-3.8,0-7-3.3-7-7.5s3.1-7.5,7-7.5c3.1,0,4.6,2,4.6,2l0.1-1.7
		h2.5V594.4z M61.2,587.2c0,2.8,2.1,5.2,4.9,5.2c2.9,0,4.1-2.3,4.1-2.3v-5.6c0,0-1.4-2.3-4.1-2.3C63.3,582.1,61.2,584.4,61.2,587.2z
		"/>
	<path class="st1" d="M91,594.7c-4.2,0-7.5-3.3-7.5-7.5s3.3-7.4,7.5-7.4c4.1,0,7.5,3.3,7.5,7.4C98.5,591.4,95.2,594.7,91,594.7z
		 M91,582.1c-2.8,0-5,2.4-5,5.2s2.2,5.2,5,5.2c2.9,0,5-2.4,5-5.2C96.1,584.4,93.9,582.1,91,582.1z"/>
	<path class="st1" d="M100.1,580.1h2.1v-2.5c0-1.9,1.2-5.1,5.4-5.1v2.3c-2.2,0-2.8,1.4-2.8,2.7v2.5h2.8v2.3h-2.8v12h-2.7v-12H100
		L100.1,580.1L100.1,580.1z"/>
	<path class="st1" d="M122.8,586.6c0,1.2-0.2,1.7-0.2,1.7h-10.9c0.1,2.2,2.2,4,4.8,4s4.8-1.3,4.8-1.3v2.5c0,0-1.8,1.1-4.9,1.1
		c-4.4,0-7.3-3.3-7.3-7.5s3.2-7.4,7.3-7.4C120.8,579.8,122.8,583.6,122.8,586.6z M111.7,586.2h8.7c0-2-1.7-4.2-4.1-4.2
		C113.8,582,112,584.1,111.7,586.2z"/>
	<path class="st1" d="M134,582.2c0,0-0.4-0.1-1.1-0.1c-2.9,0-4.3,2.7-4.3,4.4v7.9H126v-14.3h2.4l0.2,2.2c0,0,1.3-2.5,4.4-2.5
		c0.7,0,1,0.1,1,0.1L134,582.2z"/>
	<path class="st1" d="M137.5,582.4h-2.1v-2.3h2.1v-3h2.7v3h3.1v2.3h-3.1v12h-2.7V582.4z"/>
	<path class="st1" d="M158.9,594.4h-2.5l-0.1-1.8c0,0-1.5,2.1-4.6,2.1c-3.8,0-7-3.3-7-7.5s3.1-7.5,7-7.5c3.1,0,4.6,2,4.6,2l0.1-1.7
		h2.5V594.4z M147.2,587.2c0,2.8,2.1,5.2,4.9,5.2c2.9,0,4.1-2.3,4.1-2.3v-5.6c0,0-1.4-2.3-4.1-2.3
		C149.3,582.1,147.2,584.4,147.2,587.2z"/>
	<path class="st1" d="M183.5,594.4H181l-0.1-1.8c0,0-1.5,2.1-4.6,2.1c-3.8,0-6.7-3.3-6.7-7.5s2.9-7.5,6.7-7.5c3.1,0,4.6,2,4.6,2v-9
		h2.7L183.5,594.4L183.5,594.4z M172.1,587.2c0,2.8,1.8,5.2,4.6,5.2s4.1-2.3,4.1-2.3v-5.6c0,0-1.4-2.3-4.1-2.3
		C173.9,582.1,172.1,584.4,172.1,587.2z"/>
	<path class="st1" d="M200.7,586.6c0,1.2-0.2,1.7-0.2,1.7h-10.9c0.1,2.2,2.2,4,4.8,4s4.8-1.3,4.8-1.3v2.5c0,0-1.8,1.1-4.9,1.1
		c-4.4,0-7.3-3.3-7.3-7.5s3.2-7.4,7.3-7.4C198.7,579.8,200.7,583.6,200.7,586.6z M189.6,586.2h8.7c0-2-1.7-4.2-4.1-4.2
		C191.6,582,189.9,584.1,189.6,586.2z"/>
	<path class="st1" d="M219.8,582.9c0,0-1.9-0.9-4.2-0.9c-1.2,0-2.5,0.7-2.5,1.8c0,2.5,7.9,1.7,7.9,6.5c0,2.2-2,4.4-5.9,4.4
		c-2.6,0-4.8-1.2-4.8-1.2v-2.6c0,0,2,1.5,4.8,1.5c1.3,0,3.2-0.5,3.2-2c0-2.7-7.9-1.9-7.9-6.5c0-2.7,2.5-4.2,5.3-4.2s4.1,0.8,4.1,0.8
		L219.8,582.9z"/>
	<path class="st1" d="M237.1,586.6c0,1.2-0.2,1.7-0.2,1.7H226c0.1,2.2,2.2,4,4.8,4s4.8-1.3,4.8-1.3v2.5c0,0-1.8,1.1-4.9,1.1
		c-4.4,0-7.3-3.3-7.3-7.5s3.2-7.4,7.3-7.4C235,579.8,237.1,583.6,237.1,586.6z M226,586.2h8.7c0-2-1.7-4.2-4.1-4.2
		C228,582,226.3,584.1,226,586.2z"/>
	<path class="st1" d="M248.3,582.2c0,0-0.4-0.1-1.1-0.1c-2.9,0-4.3,2.7-4.3,4.4v7.9h-2.7v-14.3h2.4l0.2,2.2c0,0,1.3-2.5,4.4-2.5
		c0.7,0,1,0.1,1,0.1L248.3,582.2z"/>
	<path class="st1" d="M249.2,580.1h2.7l4.2,9.6l4.2-9.6h2.7l-6.9,15.3L249.2,580.1z"/>
	<path class="st1" d="M265.7,574.4h2.9v2.9h-2.9V574.4z M268.5,580.1v14.3h-2.8v-14.3H268.5z"/>
	<path class="st1" d="M282.8,583c0,0-1.3-0.9-3.4-0.9c-2.7,0-4.8,2.3-4.8,5.1s2,5.2,4.7,5.2c2.2,0,3.6-1,3.6-1v2.5
		c0,0-0.9,0.8-3.8,0.8c-4.1,0-7-3.3-7-7.5s3.1-7.4,7.2-7.4c2.4,0,3.4,0.6,3.4,0.6L282.8,583z"/>
	<path class="st1" d="M286.6,574.4h2.9v2.9h-2.9V574.4z M289.4,580.1v14.3h-2.8v-14.3H289.4z"/>
	<path class="st1" d="M300.5,594.7c-4.2,0-7.5-3.3-7.5-7.5s3.3-7.4,7.5-7.4c4.1,0,7.5,3.3,7.5,7.4
		C308,591.4,304.7,594.7,300.5,594.7z M300.5,582.1c-2.8,0-5,2.4-5,5.2s2.2,5.2,5,5.2c2.9,0,5-2.4,5-5.2
		C305.6,584.4,303.4,582.1,300.5,582.1z"/>
	<path class="st1" d="M331.3,580.1l-9,20.3h-2.6l3.1-7l-6.1-13.3h2.7l4.7,10.5l4.6-10.5H331.3z"/>
	<path class="st1" d="M54.5,627.4c0,0-1.4,2-4.4,2c-3.9,0-6.8-3.1-6.8-7.3c0-4.1,2.9-7.3,6.8-7.3c3,0,4.5,2,4.5,2l0.1-1.7h2.5v13.5
		c0,4.2-2.2,7.1-7,7.1c-4,0-5.8-1.8-5.8-1.8l1.2-2c0,0,1.5,1.6,4.4,1.6c2.4,0,4.6-1.5,4.6-4.2L54.5,627.4L54.5,627.4z M54.5,624.9
		v-5.6c0,0-1.3-2.3-4.1-2.3s-4.6,2.3-4.6,5.1s1.8,5.1,4.6,5.1C53.1,627.1,54.5,624.9,54.5,624.9z"/>
	<path class="st1" d="M74.3,621.6c0,1.2-0.2,1.7-0.2,1.7H63.2c0.1,2.2,2.2,4,4.8,4s4.8-1.3,4.8-1.3v2.5c0,0-1.8,1.1-4.9,1.1
		c-4.4,0-7.3-3.3-7.3-7.5s3.2-7.4,7.3-7.4C72.3,614.8,74.3,618.6,74.3,621.6z M63.2,621.2h8.7c0-2-1.7-4.2-4.1-4.2
		C65.3,617,63.5,619.1,63.2,621.2z"/>
	<path class="st1" d="M86.2,617.9c0,0-1.9-0.9-4.2-0.9c-1.2,0-2.5,0.7-2.5,1.8c0,2.5,7.9,1.7,7.9,6.5c0,2.2-2,4.4-5.9,4.4
		c-2.6,0-4.8-1.2-4.8-1.2v-2.6c0,0,2,1.5,4.8,1.5c1.3,0,3.2-0.5,3.2-2c0-2.7-7.9-1.9-7.9-6.5c0-2.7,2.5-4.2,5.3-4.2s4.1,0.8,4.1,0.8
		V617.9z"/>
	<path class="st1" d="M91.1,617.4H89v-2.3h2.1v-3h2.7v3h3.1v2.3h-3.1v12h-2.7V617.4z"/>
	<path class="st1" d="M99.5,609.4h2.9v2.9h-2.9V609.4z M102.4,615.1v14.3h-2.8v-14.3H102.4z"/>
	<path class="st1" d="M113.5,629.7c-4.2,0-7.5-3.3-7.5-7.5s3.3-7.4,7.5-7.4c4.1,0,7.5,3.3,7.5,7.4
		C121,626.4,117.7,629.7,113.5,629.7z M113.5,617.1c-2.8,0-5,2.4-5,5.2s2.2,5.2,5,5.2c2.9,0,5-2.4,5-5.2
		C118.5,619.4,116.3,617.1,113.5,617.1z M116.5,610.7l-5.6,2.3l-0.7-1.5l5.1-3.1L116.5,610.7z"/>
	<path class="st1" d="M137.5,629.4h-2.7v-8.6c0-2.4-1.4-3.7-3.3-3.7c-2.7,0-4.4,2-4.4,2v10.3h-2.7v-14.3h2.5l0.1,1.6
		c0,0,1.9-1.8,4.9-1.8c3.5,0,5.5,2.6,5.5,5.7v8.8H137.5z"/>
	<path class="st1" d="M161.8,629.4h-2.5l-0.1-1.8c0,0-1.5,2.1-4.6,2.1c-3.8,0-6.7-3.3-6.7-7.5s2.9-7.5,6.7-7.5c3.1,0,4.6,2,4.6,2v-9
		h2.7L161.8,629.4L161.8,629.4z M150.3,622.2c0,2.8,1.8,5.2,4.6,5.2s4.1-2.3,4.1-2.3v-5.6c0,0-1.4-2.3-4.1-2.3
		C152.1,617.1,150.3,619.4,150.3,622.2z"/>
	<path class="st1" d="M178.9,621.6c0,1.2-0.2,1.7-0.2,1.7h-10.9c0.1,2.2,2.2,4,4.8,4s4.8-1.3,4.8-1.3v2.5c0,0-1.8,1.1-4.9,1.1
		c-4.4,0-7.3-3.3-7.3-7.5s3.2-7.4,7.3-7.4C176.9,614.8,178.9,618.6,178.9,621.6z M167.8,621.2h8.7c0-2-1.7-4.2-4.1-4.2
		C169.9,617,168.1,619.1,167.8,621.2z"/>
	<path class="st1" d="M201.2,629.4h-2.7v-8.9c0-2.1-0.7-3.4-2.7-3.4S192,619,192,619v10.3h-2.7V615h2.5l0.1,1.5c0,0,2-1.8,4.4-1.8
		c2.8,0,4,1.9,4,1.9s2.2-1.9,5.1-1.9c3.5,0,5.1,2.5,5.1,5.6v9h-2.7v-8.6c0-2.4-0.9-3.7-2.9-3.7s-3.7,1.7-3.7,1.7L201.2,629.4
		L201.2,629.4z"/>
	<path class="st1" d="M227.3,621.6c0,1.2-0.2,1.7-0.2,1.7h-10.9c0.1,2.2,2.2,4,4.8,4s4.8-1.3,4.8-1.3v2.5c0,0-1.8,1.1-4.9,1.1
		c-4.4,0-7.3-3.3-7.3-7.5s3.2-7.4,7.3-7.4C225.3,614.8,227.3,618.6,227.3,621.6z M216.2,621.2h8.7c0-2-1.7-4.2-4.1-4.2
		C218.2,617,216.5,619.1,216.2,621.2z"/>
	<path class="st1" d="M238.5,617.2c0,0-0.4-0.1-1.1-0.1c-2.9,0-4.3,2.7-4.3,4.4v7.9h-2.7v-14.3h2.4l0.2,2.2c0,0,1.3-2.5,4.4-2.5
		c0.7,0,1,0.1,1,0.1L238.5,617.2z"/>
	<path class="st1" d="M250,618c0,0-1.3-0.9-3.4-0.9c-2.7,0-4.8,2.3-4.8,5.1s2,5.2,4.7,5.2c2.2,0,3.6-1,3.6-1v2.5
		c0,0-0.9,0.8-3.8,0.8c-4.1,0-7-3.3-7-7.5s3.1-7.4,7.2-7.4c2.4,0,3.4,0.6,3.4,0.6L250,618z"/>
	<path class="st1" d="M266.5,629.4H264l-0.1-1.8c0,0-1.5,2.1-4.6,2.1c-3.8,0-7-3.3-7-7.5s3.1-7.5,7-7.5c3.1,0,4.6,2,4.6,2l0.1-1.7
		h2.5V629.4z M254.8,622.2c0,2.8,2.1,5.2,4.9,5.2c2.9,0,4.1-2.3,4.1-2.3v-5.6c0,0-1.4-2.3-4.1-2.3
		C256.9,617.1,254.8,619.4,254.8,622.2z"/>
	<path class="st1" d="M283.9,629.4h-2.5l-0.1-1.8c0,0-1.5,2.1-4.6,2.1c-3.8,0-6.7-3.3-6.7-7.5s2.9-7.5,6.7-7.5c3.1,0,4.6,2,4.6,2v-9
		h2.7v21.7H283.9z M272.5,622.2c0,2.8,1.8,5.2,4.6,5.2c2.8,0,4.1-2.3,4.1-2.3v-5.6c0,0-1.4-2.3-4.1-2.3
		C274.3,617.1,272.5,619.4,272.5,622.2z"/>
	<path class="st1" d="M294.9,629.7c-4.2,0-7.5-3.3-7.5-7.5s3.3-7.4,7.5-7.4c4.1,0,7.5,3.3,7.5,7.4
		C302.4,626.4,299,629.7,294.9,629.7z M294.9,617.1c-2.8,0-5,2.4-5,5.2s2.2,5.2,5,5.2c2.9,0,5-2.4,5-5.2
		C299.9,619.4,297.7,617.1,294.9,617.1z"/>
	<path class="st1" d="M314.6,617.9c0,0-1.9-0.9-4.2-0.9c-1.2,0-2.5,0.7-2.5,1.8c0,2.5,7.9,1.7,7.9,6.5c0,2.2-2,4.4-5.9,4.4
		c-2.6,0-4.8-1.2-4.8-1.2v-2.6c0,0,2,1.5,4.8,1.5c1.3,0,3.2-0.5,3.2-2c0-2.7-7.9-1.9-7.9-6.5c0-2.7,2.5-4.2,5.3-4.2s4.1,0.8,4.1,0.8
		V617.9z"/>
	<path class="st1" d="M339.3,635.4h-2.7v-7.7c0,0-1.4,2-4.6,2c-3.8,0-6.7-3.3-6.7-7.5s2.9-7.5,6.7-7.5c3.1,0,4.6,2.1,4.6,2.1
		l0.1-1.8h2.5v20.4H339.3z M336.7,625.1v-5.6c0,0-1.3-2.3-4.1-2.3c-2.8,0-4.6,2.4-4.6,5.2s1.8,5.2,4.6,5.2
		C335.2,627.4,336.7,625.1,336.7,625.1z"/>
	<path class="st1" d="M343.5,615.1h2.7v8.6c0,2.5,1.1,3.7,3.3,3.7c2.8,0,4.4-2.2,4.4-2.2v-10.1h2.7v14.3H354l-0.1-1.7
		c0,0-1.9,2-4.9,2c-3.7,0-5.5-2.4-5.5-5.8V615.1z"/>
	<path class="st1" d="M373.7,621.6c0,1.2-0.2,1.7-0.2,1.7h-10.9c0.1,2.2,2.2,4,4.8,4s4.8-1.3,4.8-1.3v2.5c0,0-1.8,1.1-4.9,1.1
		c-4.4,0-7.3-3.3-7.3-7.5s3.2-7.4,7.3-7.4C371.7,614.8,373.7,618.6,373.7,621.6z M362.6,621.2h8.7c0-2-1.7-4.2-4.1-4.2
		C364.6,617,362.9,619.1,362.6,621.2z"/>
	<path class="st1" d="M52.3,652.2c0,0-0.4-0.1-1.1-0.1c-2.9,0-4.3,2.7-4.3,4.4v7.9h-2.7v-14.3h2.4l0.2,2.2c0,0,1.3-2.5,4.4-2.5
		c0.7,0,1,0.1,1,0.1L52.3,652.2z"/>
	<path class="st1" d="M67.1,656.6c0,1.2-0.2,1.7-0.2,1.7H56c0.1,2.2,2.2,4,4.8,4s4.8-1.3,4.8-1.3v2.5c0,0-1.8,1.1-4.9,1.1
		c-4.4,0-7.3-3.3-7.3-7.5s3.2-7.4,7.3-7.4C65.1,649.8,67.1,653.6,67.1,656.6z M56,656.2h8.7c0-2-1.7-4.2-4.1-4.2
		C58.1,652,56.3,654.1,56,656.2z"/>
	<path class="st1" d="M83.4,664.4h-2.5l-0.1-1.8c0,0-1.5,2.1-4.6,2.1c-3.8,0-7-3.3-7-7.5s3.1-7.5,7-7.5c3.1,0,4.6,2,4.6,2l0.1-1.7
		h2.5V664.4z M71.7,657.2c0,2.8,2.1,5.2,4.9,5.2c2.9,0,4.1-2.3,4.1-2.3v-5.6c0,0-1.4-2.3-4.1-2.3C73.8,652.1,71.7,654.4,71.7,657.2z
		"/>
	<path class="st1" d="M87.9,642.8h2.7v21.6h-2.7V642.8z"/>
	<path class="st1" d="M95.4,644.4h2.9v2.9h-2.9V644.4z M98.2,650.1v14.3h-2.8v-14.3H98.2z"/>
	<path class="st1" d="M113.8,664.4h-12.3l8.5-12.1h-7.5V650h11.9l-8.5,12.1h7.8L113.8,664.4L113.8,664.4z"/>
	<path class="st1" d="M130.8,664.4h-2.5l-0.1-1.8c0,0-1.5,2.1-4.6,2.1c-3.8,0-7-3.3-7-7.5s3.1-7.5,7-7.5c3.1,0,4.6,2,4.6,2l0.1-1.7
		h2.5V664.4z M119.1,657.2c0,2.8,2.1,5.2,4.9,5.2c2.9,0,4.1-2.3,4.1-2.3v-5.6c0,0-1.4-2.3-4.1-2.3
		C121.2,652.1,119.1,654.4,119.1,657.2z"/>
	<path class="st1" d="M148.3,664.4h-2.7v-8.6c0-2.4-1.4-3.7-3.3-3.7c-2.7,0-4.4,2-4.4,2v10.3h-2.7v-14.3h2.5l0.1,1.6
		c0,0,1.9-1.8,4.9-1.8c3.5,0,5.5,2.6,5.5,5.7L148.3,664.4L148.3,664.4z"/>
	<path class="st1" d="M172.6,664.4h-2.5l-0.1-1.8c0,0-1.5,2.1-4.6,2.1c-3.8,0-6.7-3.3-6.7-7.5s2.9-7.5,6.7-7.5c3.1,0,4.6,2,4.6,2v-9
		h2.7L172.6,664.4L172.6,664.4z M161.2,657.2c0,2.8,1.8,5.2,4.6,5.2s4.1-2.3,4.1-2.3v-5.6c0,0-1.4-2.3-4.1-2.3
		C163,652.1,161.2,654.4,161.2,657.2z"/>
	<path class="st1" d="M189.8,656.6c0,1.2-0.2,1.7-0.2,1.7h-10.9c0.1,2.2,2.2,4,4.8,4s4.8-1.3,4.8-1.3v2.5c0,0-1.8,1.1-4.9,1.1
		c-4.4,0-7.3-3.3-7.3-7.5s3.2-7.4,7.3-7.4C187.8,649.8,189.8,653.6,189.8,656.6z M178.7,656.2h8.7c0-2-1.7-4.2-4.1-4.2
		C180.7,652,179,654.1,178.7,656.2z"/>
	<path class="st1" d="M213.3,664.4h-2.5l-0.1-1.8c0,0-1.5,2.1-4.6,2.1c-3.8,0-7-3.3-7-7.5s3.1-7.5,7-7.5c3.1,0,4.6,2,4.6,2l0.1-1.7
		h2.5V664.4z M201.6,657.2c0,2.8,2.1,5.2,4.9,5.2c2.9,0,4.1-2.3,4.1-2.3v-5.6c0,0-1.4-2.3-4.1-2.3
		C203.6,652.1,201.6,654.4,201.6,657.2z"/>
	<path class="st1" d="M227.3,653c0,0-1.3-0.9-3.4-0.9c-2.7,0-4.8,2.3-4.8,5.1s2,5.2,4.7,5.2c2.2,0,3.6-1,3.6-1v2.5
		c0,0-0.9,0.8-3.8,0.8c-4.1,0-7-3.3-7-7.5s3.1-7.4,7.2-7.4c2.4,0,3.4,0.6,3.4,0.6L227.3,653z"/>
	<path class="st1" d="M230.7,650.1h2.7v8.6c0,2.5,1.1,3.7,3.3,3.7c2.8,0,4.4-2.2,4.4-2.2v-10.1h2.7v14.3h-2.5l-0.1-1.7
		c0,0-1.9,2-4.9,2c-3.7,0-5.5-2.4-5.5-5.8L230.7,650.1L230.7,650.1z"/>
	<path class="st1" d="M260.9,656.6c0,1.2-0.2,1.7-0.2,1.7h-10.9c0.1,2.2,2.2,4,4.8,4c2.6,0,4.8-1.3,4.8-1.3v2.5c0,0-1.8,1.1-4.9,1.1
		c-4.4,0-7.3-3.3-7.3-7.5s3.2-7.4,7.3-7.4C258.9,649.8,260.9,653.6,260.9,656.6z M249.8,656.2h8.7c0-2-1.7-4.2-4.1-4.2
		C251.8,652,250.1,654.1,249.8,656.2z"/>
	<path class="st1" d="M272.1,652.2c0,0-0.4-0.1-1.1-0.1c-2.9,0-4.3,2.7-4.3,4.4v7.9H264v-14.3h2.4l0.2,2.2c0,0,1.3-2.5,4.4-2.5
		c0.7,0,1,0.1,1,0.1L272.1,652.2z"/>
	<path class="st1" d="M287.4,664.4h-2.5l-0.1-1.8c0,0-1.5,2.1-4.6,2.1c-3.8,0-6.7-3.3-6.7-7.5s2.9-7.5,6.7-7.5c3.1,0,4.6,2,4.6,2v-9
		h2.7v21.7H287.4z M276,657.2c0,2.8,1.8,5.2,4.6,5.2c2.8,0,4.1-2.3,4.1-2.3v-5.6c0,0-1.4-2.3-4.1-2.3
		C277.8,652.1,276,654.4,276,657.2z"/>
	<path class="st1" d="M298.3,664.7c-4.2,0-7.5-3.3-7.5-7.5s3.3-7.4,7.5-7.4c4.1,0,7.5,3.3,7.5,7.4
		C305.8,661.4,302.5,664.7,298.3,664.7z M298.3,652.1c-2.8,0-5,2.4-5,5.2s2.2,5.2,5,5.2c2.9,0,5-2.4,5-5.2
		C303.4,654.4,301.2,652.1,298.3,652.1z"/>
	<path class="st1" d="M329.6,664.4h-2.5l-0.1-1.8c0,0-1.5,2.1-4.6,2.1c-3.8,0-7-3.3-7-7.5s3.1-7.5,7-7.5c3.1,0,4.6,2,4.6,2l0.1-1.7
		h2.5V664.4z M317.9,657.2c0,2.8,2.1,5.2,4.9,5.2c2.9,0,4.1-2.3,4.1-2.3v-5.6c0,0-1.4-2.3-4.1-2.3
		C320,652.1,317.9,654.4,317.9,657.2z"/>
	<path class="st1" d="M341.3,642.8h2.7v21.6h-2.7V642.8z"/>
	<path class="st1" d="M361.8,664.4h-2.5l-0.1-1.8c0,0-1.5,2.1-4.6,2.1c-3.8,0-7-3.3-7-7.5s3.1-7.5,7-7.5c3.1,0,4.6,2,4.6,2l0.1-1.7
		h2.5V664.4z M350.1,657.2c0,2.8,2.1,5.2,4.9,5.2c2.9,0,4.1-2.3,4.1-2.3v-5.6c0,0-1.4-2.3-4.1-2.3
		C352.2,652.1,350.1,654.4,350.1,657.2z"/>
	<path class="st1" d="M375.1,652.9c0,0-1.9-0.9-4.2-0.9c-1.2,0-2.5,0.7-2.5,1.8c0,2.5,7.9,1.7,7.9,6.5c0,2.2-2,4.4-5.9,4.4
		c-2.6,0-4.8-1.2-4.8-1.2v-2.6c0,0,2,1.5,4.8,1.5c1.3,0,3.2-0.5,3.2-2c0-2.7-7.9-1.9-7.9-6.5c0-2.7,2.5-4.2,5.3-4.2s4.1,0.8,4.1,0.8
		V652.9z"/>
	<path class="st1" d="M57.3,699.4h-2.7v-8.6c0-2.4-1.4-3.7-3.3-3.7c-2.7,0-4.4,2-4.4,2v10.3h-2.7v-14.3h2.5l0.1,1.6
		c0,0,1.9-1.8,4.9-1.8c3.5,0,5.5,2.6,5.5,5.7v8.8H57.3z"/>
	<path class="st1" d="M74.1,691.6c0,1.2-0.2,1.7-0.2,1.7H63c0.1,2.2,2.2,4,4.8,4s4.8-1.3,4.8-1.3v2.5c0,0-1.8,1.1-4.9,1.1
		c-4.4,0-7.3-3.3-7.3-7.5s3.2-7.4,7.3-7.4C72.1,684.8,74.1,688.6,74.1,691.6z M63,691.2h8.7c0-2-1.7-4.2-4.1-4.2
		C65.1,687,63.4,689.1,63,691.2z"/>
	<path class="st1" d="M86.8,688c0,0-1.3-0.9-3.4-0.9c-2.7,0-4.8,2.3-4.8,5.1s2,5.2,4.7,5.2c2.2,0,3.6-1,3.6-1v2.5
		c0,0-0.9,0.8-3.8,0.8c-4.1,0-7-3.3-7-7.5s3.1-7.4,7.2-7.4c2.4,0,3.4,0.6,3.4,0.6L86.8,688z"/>
	<path class="st1" d="M103.2,691.6c0,1.2-0.2,1.7-0.2,1.7H92.1c0.1,2.2,2.2,4,4.8,4s4.8-1.3,4.8-1.3v2.5c0,0-1.8,1.1-4.9,1.1
		c-4.4,0-7.3-3.3-7.3-7.5s3.2-7.4,7.3-7.4C101.2,684.8,103.2,688.6,103.2,691.6z M92.1,691.2h8.7c0-2-1.7-4.2-4.1-4.2
		C94.1,687,92.4,689.1,92.1,691.2z"/>
	<path class="st1" d="M115.1,687.9c0,0-1.9-0.9-4.2-0.9c-1.2,0-2.5,0.7-2.5,1.8c0,2.5,7.9,1.7,7.9,6.5c0,2.2-2,4.4-5.9,4.4
		c-2.6,0-4.8-1.2-4.8-1.2v-2.6c0,0,2,1.5,4.8,1.5c1.3,0,3.2-0.5,3.2-2c0-2.7-7.9-1.9-7.9-6.5c0-2.7,2.5-4.2,5.3-4.2s4.1,0.8,4.1,0.8
		V687.9z"/>
	<path class="st1" d="M119.8,679.4h2.9v2.9h-2.9V679.4z M122.7,685.1v14.3h-2.8v-14.3H122.7z"/>
	<path class="st1" d="M140.3,699.4h-2.5l-0.1-1.8c0,0-1.5,2.1-4.6,2.1c-3.8,0-6.7-3.3-6.7-7.5s2.9-7.5,6.7-7.5c3.1,0,4.6,2,4.6,2v-9
		h2.7L140.3,699.4L140.3,699.4z M128.8,692.2c0,2.8,1.8,5.2,4.6,5.2s4.1-2.3,4.1-2.3v-5.6c0,0-1.4-2.3-4.1-2.3
		C130.6,687.1,128.8,689.4,128.8,692.2z"/>
	<path class="st1" d="M157.9,699.4h-2.5l-0.1-1.8c0,0-1.5,2.1-4.6,2.1c-3.8,0-7-3.3-7-7.5s3.1-7.5,7-7.5c3.1,0,4.6,2,4.6,2l0.1-1.7
		h2.5V699.4z M146.2,692.2c0,2.8,2.1,5.2,4.9,5.2c2.9,0,4.1-2.3,4.1-2.3v-5.6c0,0-1.4-2.3-4.1-2.3
		C148.3,687.1,146.2,689.4,146.2,692.2z"/>
	<path class="st1" d="M175.3,699.4h-2.5l-0.1-1.8c0,0-1.5,2.1-4.6,2.1c-3.8,0-6.7-3.3-6.7-7.5s2.9-7.5,6.7-7.5c3.1,0,4.6,2,4.6,2v-9
		h2.7L175.3,699.4L175.3,699.4z M163.9,692.2c0,2.8,1.8,5.2,4.6,5.2s4.1-2.3,4.1-2.3v-5.6c0,0-1.4-2.3-4.1-2.3
		C165.7,687.1,163.9,689.4,163.9,692.2z"/>
	<path class="st1" d="M192.5,691.6c0,1.2-0.2,1.7-0.2,1.7h-10.9c0.1,2.2,2.2,4,4.8,4s4.8-1.3,4.8-1.3v2.5c0,0-1.8,1.1-4.9,1.1
		c-4.4,0-7.3-3.3-7.3-7.5s3.2-7.4,7.3-7.4C190.5,684.8,192.5,688.6,192.5,691.6z M181.4,691.2h8.7c0-2-1.7-4.2-4.1-4.2
		C183.4,687,181.7,689.1,181.4,691.2z"/>
	<path class="st1" d="M204.4,687.9c0,0-1.9-0.9-4.2-0.9c-1.2,0-2.5,0.7-2.5,1.8c0,2.5,7.9,1.7,7.9,6.5c0,2.2-2,4.4-5.9,4.4
		c-2.6,0-4.8-1.2-4.8-1.2v-2.6c0,0,2,1.5,4.8,1.5c1.3,0,3.2-0.5,3.2-2c0-2.7-7.9-1.9-7.9-6.5c0-2.7,2.5-4.2,5.3-4.2s4.1,0.8,4.1,0.8
		L204.4,687.9z"/>
	<path class="st1" d="M229.1,699.4h-2.5l-0.1-1.8c0,0-1.5,2.1-4.6,2.1c-3.8,0-6.7-3.3-6.7-7.5s2.9-7.5,6.7-7.5c3.1,0,4.6,2,4.6,2v-9
		h2.7L229.1,699.4L229.1,699.4z M217.7,692.2c0,2.8,1.8,5.2,4.6,5.2s4.1-2.3,4.1-2.3v-5.6c0,0-1.4-2.3-4.1-2.3
		C219.5,687.1,217.7,689.4,217.7,692.2z"/>
	<path class="st1" d="M246.3,691.6c0,1.2-0.2,1.7-0.2,1.7h-10.9c0.1,2.2,2.2,4,4.8,4s4.8-1.3,4.8-1.3v2.5c0,0-1.8,1.1-4.9,1.1
		c-4.4,0-7.3-3.3-7.3-7.5s3.2-7.4,7.3-7.4C244.3,684.8,246.3,688.6,246.3,691.6z M235.2,691.2h8.7c0-2-1.7-4.2-4.1-4.2
		C237.2,687,235.5,689.1,235.2,691.2z"/>
	<path class="st1" d="M249.4,677.8h2.7v21.6h-2.7V677.8z"/>
	<path class="st1" d="M263.9,685.1h2.5l0.1,1.8c0,0,1.5-2.1,4.6-2.1c3.8,0,6.7,3.3,6.7,7.5s-2.9,7.5-6.7,7.5c-3.1,0-4.6-2-4.6-2v7.7
		h-2.7v-20.4H263.9z M275.4,692.2c0-2.8-1.8-5.2-4.6-5.2c-2.8,0-4.1,2.3-4.1,2.3v5.6c0,0,1.4,2.3,4.1,2.3
		C273.6,697.4,275.4,695,275.4,692.2z"/>
	<path class="st1" d="M294.5,699.4H292l-0.1-1.8c0,0-1.5,2.1-4.6,2.1c-3.8,0-7-3.3-7-7.5s3.1-7.5,7-7.5c3.1,0,4.6,2,4.6,2l0.1-1.7
		h2.5V699.4z M282.8,692.2c0,2.8,2.1,5.2,4.9,5.2c2.9,0,4.1-2.3,4.1-2.3v-5.6c0,0-1.4-2.3-4.1-2.3
		C284.8,687.1,282.8,689.4,282.8,692.2z"/>
	<path class="st1" d="M307.7,687.9c0,0-1.9-0.9-4.2-0.9c-1.2,0-2.5,0.7-2.5,1.8c0,2.5,7.9,1.7,7.9,6.5c0,2.2-2,4.4-5.9,4.4
		c-2.6,0-4.8-1.2-4.8-1.2v-2.6c0,0,2,1.5,4.8,1.5c1.3,0,3.2-0.5,3.2-2c0-2.7-7.9-1.9-7.9-6.5c0-2.7,2.5-4.2,5.3-4.2s4.1,0.8,4.1,0.8
		V687.9z"/>
	<path class="st1" d="M325.5,699.4H323l-0.1-1.8c0,0-1.5,2.1-4.6,2.1c-3.8,0-7-3.3-7-7.5s3.1-7.5,7-7.5c3.1,0,4.6,2,4.6,2l0.1-1.7
		h2.5V699.4z M313.8,692.2c0,2.8,2.1,5.2,4.9,5.2c2.9,0,4.1-2.3,4.1-2.3v-5.6c0,0-1.4-2.3-4.1-2.3
		C315.9,687.1,313.8,689.4,313.8,692.2z"/>
	<path class="st1" d="M332.9,700.6c0,1.9-1.2,5.1-5.4,5.1v-2.4c2.2,0,2.8-1.4,2.8-2.7V685h2.7v15.6H332.9z M330.1,679.4h2.9v2.9
		h-2.9V679.4z"/>
	<path class="st1" d="M350.3,691.6c0,1.2-0.2,1.7-0.2,1.7h-10.9c0.1,2.2,2.2,4,4.8,4s4.8-1.3,4.8-1.3v2.5c0,0-1.8,1.1-4.9,1.1
		c-4.4,0-7.3-3.3-7.3-7.5s3.2-7.4,7.3-7.4C348.3,684.8,350.3,688.6,350.3,691.6z M339.2,691.2h8.7c0-2-1.7-4.2-4.1-4.2
		C341.2,687,339.5,689.1,339.2,691.2z"/>
	<path class="st1" d="M361.5,687.2c0,0-0.4-0.1-1.1-0.1c-2.9,0-4.3,2.7-4.3,4.4v7.9h-2.7v-14.3h2.4l0.2,2.2c0,0,1.3-2.5,4.4-2.5
		c0.7,0,1,0.1,1,0.1L361.5,687.2z"/>
	<path class="st1" d="M369.9,699.7c-4.2,0-7.5-3.3-7.5-7.5s3.3-7.4,7.5-7.4c4.1,0,7.5,3.3,7.5,7.4
		C377.4,696.4,374.1,699.7,369.9,699.7z M369.9,687.1c-2.8,0-5,2.4-5,5.2s2.2,5.2,5,5.2c2.9,0,5-2.4,5-5.2
		C374.9,689.4,372.7,687.1,369.9,687.1z"/>
</g>
<g>
	<path class="st0" d="M872.9,763.3H501.1c-11.7,0-21.2-9.5-21.2-21.2V567.4c0-11.7,9.5-21.2,21.2-21.2h371.7
		c11.7,0,21.2,9.5,21.2,21.2v174.7C894,753.8,884.5,763.3,872.9,763.3z M501.1,553.3c-7.8,0-14.1,6.3-14.1,14.1v174.7
		c0,7.8,6.3,14.1,14.1,14.1h371.7c7.8,0,14.1-6.3,14.1-14.1V567.4c0-7.8-6.3-14.1-14.1-14.1L501.1,553.3L501.1,553.3z"/>
</g>
<g>
	<path class="st1" d="M551.6,587.7c-2.5,0-4.5-2-4.5-4.5s2-4.5,4.5-4.5s4.5,2,4.5,4.5S554.1,587.7,551.6,587.7z"/>
	<path class="st1" d="M574.8,585.4h-4.6v8h-2.6v-20.5h7.2c4.2,0,6.6,2.8,6.6,6.2S579,585.4,574.8,585.4z M570.3,583h4.5
		c2.5,0,4.1-1.5,4.1-3.8s-1.6-3.9-4.1-3.9h-4.5V583z"/>
	<path class="st1" d="M584.5,571.8h2.7v21.6h-2.7V571.8z"/>
	<path class="st1" d="M605,593.4h-2.5l-0.1-1.8c0,0-1.5,2.1-4.6,2.1c-3.8,0-7-3.3-7-7.5s3.1-7.5,7-7.5c3.1,0,4.6,2,4.6,2l0.1-1.7
		h2.6L605,593.4L605,593.4z M593.3,586.2c0,2.8,2.1,5.2,4.9,5.2c2.9,0,4.1-2.3,4.1-2.3v-5.6c0,0-1.4-2.3-4.1-2.3
		C595.4,581.1,593.3,583.4,593.3,586.2z"/>
	<path class="st1" d="M622.5,593.4h-2.7v-8.6c0-2.4-1.3-3.7-3.3-3.7c-2.7,0-4.4,2-4.4,2v10.3h-2.7v-14.3h2.5l0.1,1.6
		c0,0,1.9-1.8,4.9-1.8c3.5,0,5.5,2.6,5.5,5.7v8.8H622.5z"/>
	<path class="st1" d="M639.4,585.6c0,1.2-0.2,1.7-0.2,1.7h-10.9c0.1,2.2,2.2,4,4.8,4s4.8-1.3,4.8-1.3v2.5c0,0-1.8,1.1-4.9,1.1
		c-4.4,0-7.3-3.3-7.3-7.5s3.2-7.4,7.3-7.4C637.4,578.8,639.4,582.6,639.4,585.6z M628.3,585.2h8.7c0-2-1.7-4.2-4.1-4.2
		C630.3,581,628.6,583.1,628.3,585.2z"/>
	<path class="st1" d="M655.7,593.4h-2.5l-0.1-1.8c0,0-1.5,2.1-4.6,2.1c-3.8,0-7-3.3-7-7.5s3.1-7.5,7-7.5c3.1,0,4.6,2,4.6,2l0.1-1.7
		h2.5V593.4z M644,586.2c0,2.8,2.1,5.2,4.9,5.2c2.8,0,4.1-2.3,4.1-2.3v-5.6c0,0-1.4-2.3-4.1-2.3C646,581.1,644,583.4,644,586.2z"/>
	<path class="st1" d="M669.7,582c0,0-1.3-0.9-3.4-0.9c-2.7,0-4.8,2.3-4.8,5.1s1.9,5.2,4.7,5.2c2.2,0,3.6-1,3.6-1v2.5
		c0,0-0.9,0.8-3.8,0.8c-4.1,0-7-3.3-7-7.5s3.1-7.4,7.2-7.4c2.4,0,3.4,0.6,3.4,0.6L669.7,582z"/>
	<path class="st1" d="M673.5,573.4h2.9v2.9h-2.9V573.4z M676.4,579.1v14.3h-2.8v-14.3H676.4z"/>
	<path class="st1" d="M687.5,593.7c-4.2,0-7.5-3.3-7.5-7.5s3.3-7.4,7.5-7.4s7.5,3.3,7.5,7.4C695,590.4,691.7,593.7,687.5,593.7z
		 M687.5,581.1c-2.8,0-5,2.4-5,5.2s2.2,5.2,5,5.2c2.9,0,5-2.4,5-5.2C692.5,583.4,690.3,581.1,687.5,581.1z M690.5,574.7l-5.6,2.3
		l-0.7-1.5l5.1-3.1L690.5,574.7z"/>
	<path class="st1" d="M711.5,593.4h-2.7v-8.6c0-2.4-1.3-3.7-3.3-3.7c-2.7,0-4.4,2-4.4,2v10.3h-2.7v-14.3h2.5l0.1,1.6
		c0,0,1.9-1.8,4.9-1.8c3.5,0,5.5,2.6,5.5,5.7v8.8H711.5z"/>
	<path class="st1" d="M551.6,622.7c-2.5,0-4.5-2-4.5-4.5s2-4.5,4.5-4.5s4.5,2,4.5,4.5S554.1,622.7,551.6,622.7z"/>
	<path class="st1" d="M577.1,607.6c5.9,0,10.7,4.7,10.7,10.5s-4.8,10.5-10.7,10.5s-10.6-4.7-10.6-10.5
		C566.4,612.3,571.2,607.6,577.1,607.6z M577.1,626.3c4.5,0,8.1-3.7,8.1-8.2s-3.6-8.2-8.1-8.2c-4.4,0-8.1,3.7-8.1,8.2
		S572.7,626.3,577.1,626.3z"/>
	<path class="st1" d="M599.4,616.2c0,0-0.4-0.1-1.1-0.1c-2.9,0-4.3,2.7-4.3,4.4v7.9h-2.7v-14.3h2.4l0.2,2.2c0,0,1.3-2.5,4.4-2.5
		c0.7,0,1.1,0.1,1.1,0.1L599.4,616.2z"/>
	<path class="st1" d="M611.7,626.4c0,0-1.4,2-4.4,2c-3.9,0-6.8-3.1-6.8-7.3c0-4.1,2.9-7.3,6.8-7.3c3,0,4.5,2,4.5,2l0.1-1.7h2.5v13.5
		c0,4.2-2.2,7.1-7,7.1c-4,0-5.8-1.8-5.8-1.8l1.2-2c0,0,1.5,1.6,4.4,1.6c2.4,0,4.6-1.5,4.6-4.2L611.7,626.4L611.7,626.4z
		 M611.7,623.9v-5.6c0,0-1.3-2.3-4.1-2.3s-4.6,2.3-4.6,5.1s1.8,5.1,4.6,5.1C610.2,626.1,611.7,623.9,611.7,623.9z"/>
	<path class="st1" d="M632,628.4h-2.5l-0.1-1.8c0,0-1.5,2.1-4.6,2.1c-3.8,0-7-3.3-7-7.5s3.2-7.5,7-7.5c3.1,0,4.6,2,4.6,2l0.1-1.7
		h2.5V628.4z M620.3,621.2c0,2.8,2.1,5.2,4.9,5.2c2.9,0,4.1-2.3,4.1-2.3v-5.6c0,0-1.4-2.3-4.1-2.3
		C622.3,616.1,620.3,618.4,620.3,621.2z"/>
	<path class="st1" d="M649.5,628.4h-2.7v-8.6c0-2.4-1.4-3.7-3.3-3.7c-2.7,0-4.4,2-4.4,2v10.3h-2.7v-14.3h2.5l0.1,1.6
		c0,0,1.9-1.8,4.9-1.8c3.5,0,5.5,2.6,5.5,5.7v8.8H649.5z"/>
	<path class="st1" d="M653.8,608.4h2.9v2.9h-2.9V608.4z M656.7,614.1v14.3h-2.8v-14.3H656.7z"/>
	<path class="st1" d="M672.3,628.4H660l8.5-12.1H661V614h12l-8.5,12.1h7.8V628.4z"/>
	<path class="st1" d="M689.3,628.4h-2.5l-0.1-1.8c0,0-1.5,2.1-4.6,2.1c-3.8,0-7-3.3-7-7.5s3.1-7.5,7-7.5c3.1,0,4.6,2,4.6,2l0.1-1.7
		h2.5V628.4z M677.6,621.2c0,2.8,2.1,5.2,4.9,5.2c2.8,0,4.1-2.3,4.1-2.3v-5.6c0,0-1.4-2.3-4.1-2.3
		C679.6,616.1,677.6,618.4,677.6,621.2z"/>
	<path class="st1" d="M703.3,617c0,0-1.3-0.9-3.4-0.9c-2.7,0-4.8,2.3-4.8,5.1s2,5.2,4.7,5.2c2.2,0,3.6-1,3.6-1v2.5
		c0,0-0.9,0.8-3.8,0.8c-4.1,0-7-3.3-7-7.5s3.1-7.4,7.2-7.4c2.4,0,3.4,0.6,3.4,0.6L703.3,617z"/>
	<path class="st1" d="M707.1,608.4h2.9v2.9h-2.9V608.4z M710,614.1v14.3h-2.8v-14.3H710z"/>
	<path class="st1" d="M721.1,628.7c-4.2,0-7.5-3.3-7.5-7.5s3.3-7.4,7.5-7.4c4.1,0,7.5,3.3,7.5,7.4
		C728.6,625.4,725.3,628.7,721.1,628.7z M721.1,616.1c-2.8,0-5,2.4-5,5.2s2.2,5.2,5,5.2c2.9,0,5-2.4,5-5.2
		C726.1,618.4,723.9,616.1,721.1,616.1z M724.1,609.7l-5.6,2.3l-0.7-1.5l5.1-3.1L724.1,609.7z"/>
	<path class="st1" d="M745.1,628.4h-2.7v-8.6c0-2.4-1.4-3.7-3.3-3.7c-2.7,0-4.4,2-4.4,2v10.3H732v-14.3h2.5l0.1,1.6
		c0,0,1.9-1.8,4.9-1.8c3.5,0,5.5,2.6,5.5,5.7L745.1,628.4L745.1,628.4z"/>
	<path class="st1" d="M551.6,657.7c-2.5,0-4.5-2-4.5-4.5s2-4.5,4.5-4.5s4.5,2,4.5,4.5S554.1,657.7,551.6,657.7z"/>
	<path class="st1" d="M581.5,646.1c0,0-2-1.1-4.6-1.1c-4.2,0-7.8,3.5-7.8,8.1c0,4.9,3.7,8.2,7.7,8.2c3,0,5.1-1.5,5.1-1.5v2.8
		c0,0-2.1,1.1-5.2,1.1c-5.8,0-10.2-4.6-10.2-10.6c0-5.9,4.6-10.5,10.3-10.5c2.8,0,4.7,0.8,4.7,0.8V646.1z"/>
	<path class="st1" d="M591.1,663.7c-4.2,0-7.5-3.3-7.5-7.5s3.3-7.4,7.5-7.4c4.1,0,7.5,3.3,7.5,7.4
		C598.6,660.4,595.2,663.7,591.1,663.7z M591.1,651.1c-2.8,0-5,2.4-5,5.2s2.2,5.2,5,5.2c2.9,0,5-2.4,5-5.2
		C596.1,653.4,593.9,651.1,591.1,651.1z"/>
	<path class="st1" d="M615,663.4h-2.7v-8.6c0-2.4-1.4-3.7-3.3-3.7c-2.7,0-4.4,2-4.4,2v10.3H602v-14.3h2.5l0.1,1.6
		c0,0,1.9-1.8,4.9-1.8c3.5,0,5.5,2.6,5.5,5.7V663.4z"/>
	<path class="st1" d="M619.8,651.4h-2.1v-2.3h2.1v-3h2.7v3h3.1v2.3h-3.1v12h-2.7V651.4z"/>
	<path class="st1" d="M636.2,651.2c0,0-0.4-0.1-1.1-0.1c-2.9,0-4.3,2.7-4.3,4.4v7.9h-2.7v-14.3h2.4l0.2,2.2c0,0,1.3-2.5,4.4-2.5
		c0.7,0,1,0.1,1,0.1L636.2,651.2z"/>
	<path class="st1" d="M644.6,663.7c-4.2,0-7.5-3.3-7.5-7.5s3.3-7.4,7.5-7.4c4.1,0,7.5,3.3,7.5,7.4
		C652.1,660.4,648.7,663.7,644.6,663.7z M644.6,651.1c-2.8,0-5,2.4-5,5.2s2.2,5.2,5,5.2c2.9,0,5-2.4,5-5.2
		C649.6,653.4,647.4,651.1,644.6,651.1z"/>
	<path class="st1" d="M655.5,641.8h2.7v21.6h-2.7V641.8z"/>
	<path class="st1" d="M551.6,692.7c-2.5,0-4.5-2-4.5-4.5s2-4.5,4.5-4.5s4.5,2,4.5,4.5S554.1,692.7,551.6,692.7z"/>
	<path class="st1" d="M578.2,681c0,0-2.2-0.9-4.9-0.9c-2,0-4,0.7-4,2.8c0,4.3,10.5,3,10.5,9.8c0,3.1-2.5,6-7.3,6
		c-3.4,0-5.8-1.5-5.8-1.5v-2.7c0,0,2.8,1.8,5.8,1.8c2,0,4.7-0.8,4.7-3.5c0-4.6-10.5-3.3-10.5-9.8c0-3.6,3.1-5.4,6.7-5.4
		c3.2,0,4.9,0.9,4.9,0.9L578.2,681z"/>
	<path class="st1" d="M595.9,690.6c0,1.2-0.2,1.7-0.2,1.7h-10.9c0.1,2.2,2.2,4,4.8,4s4.8-1.3,4.8-1.3v2.5c0,0-1.8,1.1-4.9,1.1
		c-4.4,0-7.3-3.3-7.3-7.5s3.2-7.4,7.3-7.4C593.9,683.8,595.9,687.6,595.9,690.6z M584.8,690.2h8.7c0-2-1.7-4.2-4.1-4.2
		C586.9,686,585.1,688.1,584.8,690.2z"/>
	<path class="st1" d="M609.3,696.4c0,0-1.4,2-4.4,2c-3.9,0-6.8-3.1-6.8-7.3c0-4.1,2.9-7.3,6.8-7.3c3,0,4.5,2,4.5,2l0.1-1.7h2.5v13.5
		c0,4.2-2.2,7.1-7,7.1c-4,0-5.8-1.8-5.8-1.8l1.2-2c0,0,1.5,1.6,4.4,1.6c2.4,0,4.6-1.5,4.6-4.2L609.3,696.4L609.3,696.4z
		 M609.3,693.9v-5.6c0,0-1.3-2.3-4.1-2.3s-4.6,2.3-4.6,5.1s1.8,5.1,4.6,5.1C607.9,696.1,609.3,693.9,609.3,693.9z"/>
	<path class="st1" d="M616.2,684.1h2.7v8.6c0,2.5,1.1,3.7,3.3,3.7c2.8,0,4.4-2.2,4.4-2.2v-10.1h2.7v14.3h-2.5l-0.1-1.7
		c0,0-1.9,2-4.9,2c-3.7,0-5.5-2.4-5.5-5.8v-8.8H616.2z"/>
	<path class="st1" d="M633.8,678.4h2.9v2.9h-2.9V678.4z M636.6,684.1v14.3h-2.8v-14.3H636.6z"/>
	<path class="st1" d="M653.3,698.4h-2.7v-8.9c0-2.1-0.7-3.4-2.7-3.4s-3.8,1.9-3.8,1.9v10.3h-2.7V684h2.5l0.1,1.5c0,0,2-1.8,4.4-1.8
		c2.8,0,4,1.9,4,1.9s2.2-1.9,5.1-1.9c3.5,0,5.1,2.5,5.1,5.6v9h-2.7v-8.6c0-2.4-0.9-3.7-2.9-3.7s-3.7,1.7-3.7,1.7L653.3,698.4
		L653.3,698.4z"/>
	<path class="st1" d="M666.9,678.4h2.9v2.9h-2.9V678.4z M669.7,684.1v14.3h-2.8v-14.3H669.7z"/>
	<path class="st1" d="M687,690.6c0,1.2-0.2,1.7-0.2,1.7h-10.9c0.1,2.2,2.2,4,4.8,4s4.8-1.3,4.8-1.3v2.5c0,0-1.8,1.1-4.9,1.1
		c-4.4,0-7.3-3.3-7.3-7.5s3.2-7.4,7.3-7.4C685,683.8,687,687.6,687,690.6z M675.9,690.2h8.7c0-2-1.7-4.2-4.1-4.2
		C678,686,676.3,688.1,675.9,690.2z"/>
	<path class="st1" d="M703.2,698.4h-2.7v-8.6c0-2.4-1.3-3.7-3.3-3.7c-2.7,0-4.4,2-4.4,2v10.3h-2.7v-14.3h2.5l0.1,1.6
		c0,0,1.9-1.8,4.9-1.8c3.5,0,5.5,2.6,5.5,5.7v8.8H703.2z"/>
	<path class="st1" d="M708,686.4h-2.1v-2.3h2.1v-3h2.7v3h3.1v2.3h-3.1v12H708V686.4z"/>
	<path class="st1" d="M722.7,698.7c-4.2,0-7.5-3.3-7.5-7.5s3.3-7.4,7.5-7.4c4.1,0,7.5,3.3,7.5,7.4
		C730.2,695.4,726.9,698.7,722.7,698.7z M722.7,686.1c-2.8,0-5,2.4-5,5.2s2.2,5.2,5,5.2c2.9,0,5-2.4,5-5.2
		C727.7,688.4,725.5,686.1,722.7,686.1z"/>
	<path class="st1" d="M753.7,698.4h-2.5l-0.1-1.8c0,0-1.5,2.1-4.6,2.1c-3.8,0-6.7-3.3-6.7-7.5s2.9-7.5,6.7-7.5c3.1,0,4.6,2,4.6,2v-9
		h2.7v21.7H753.7z M742.3,691.2c0,2.8,1.8,5.2,4.6,5.2s4.1-2.3,4.1-2.3v-5.6c0,0-1.4-2.3-4.1-2.3
		C744.1,686.1,742.3,688.4,742.3,691.2z"/>
	<path class="st1" d="M770.9,690.6c0,1.2-0.2,1.7-0.2,1.7h-10.9c0.1,2.2,2.2,4,4.8,4s4.8-1.3,4.8-1.3v2.5c0,0-1.8,1.1-4.9,1.1
		c-4.4,0-7.3-3.3-7.3-7.5s3.2-7.4,7.3-7.4C768.9,683.8,770.9,687.6,770.9,690.6z M759.8,690.2h8.7c0-2-1.7-4.2-4.1-4.2
		C761.9,686,760.1,688.1,759.8,690.2z"/>
	<path class="st1" d="M790,686.9c0,0-1.9-0.9-4.2-0.9c-1.2,0-2.5,0.7-2.5,1.8c0,2.5,7.9,1.7,7.9,6.5c0,2.2-2,4.4-5.9,4.4
		c-2.6,0-4.8-1.2-4.8-1.2v-2.6c0,0,2,1.5,4.8,1.5c1.3,0,3.2-0.5,3.2-2c0-2.7-7.9-1.9-7.9-6.5c0-2.7,2.5-4.2,5.3-4.2s4.1,0.8,4.1,0.8
		L790,686.9z"/>
	<path class="st1" d="M794.3,684.1h2.7v8.6c0,2.5,1.1,3.7,3.3,3.7c2.8,0,4.4-2.2,4.4-2.2v-10.1h2.7v14.3h-2.5l-0.1-1.7
		c0,0-1.9,2-4.9,2c-3.7,0-5.5-2.4-5.5-5.8v-8.8H794.3z"/>
	<path class="st1" d="M820.6,686.9c0,0-1.9-0.9-4.2-0.9c-1.2,0-2.5,0.7-2.5,1.8c0,2.5,7.9,1.7,7.9,6.5c0,2.2-2,4.4-5.9,4.4
		c-2.6,0-4.8-1.2-4.8-1.2v-2.6c0,0,2,1.5,4.8,1.5c1.3,0,3.2-0.5,3.2-2c0-2.7-7.9-1.9-7.9-6.5c0-2.7,2.5-4.2,5.3-4.2s4.1,0.8,4.1,0.8
		L820.6,686.9z"/>
	<path class="st1" d="M580.2,733.4h-2.5l-0.1-1.8c0,0-1.5,2.1-4.6,2.1c-3.8,0-7-3.3-7-7.5s3.1-7.5,7-7.5c3.1,0,4.6,2,4.6,2l0.1-1.7
		h2.5V733.4z M568.5,726.2c0,2.8,2.1,5.2,4.9,5.2c2.8,0,4.1-2.3,4.1-2.3v-5.6c0,0-1.4-2.3-4.1-2.3
		C570.5,721.1,568.5,723.4,568.5,726.2z"/>
	<path class="st1" d="M594.2,722c0,0-1.3-0.9-3.4-0.9c-2.7,0-4.8,2.3-4.8,5.1s2,5.2,4.7,5.2c2.2,0,3.6-1,3.6-1v2.5
		c0,0-0.9,0.8-3.8,0.8c-4.1,0-7-3.3-7-7.5s3.1-7.4,7.2-7.4c2.4,0,3.4,0.6,3.4,0.6L594.2,722z"/>
	<path class="st1" d="M598.5,721.4h-2.1v-2.3h2.1v-3h2.7v3h3.1v2.3h-3.1v12h-2.7V721.4z"/>
	<path class="st1" d="M606.9,713.4h2.9v2.9h-2.9V713.4z M609.7,719.1v14.3H607v-14.3H609.7z"/>
	<path class="st1" d="M612.5,719.1h2.7l4.2,9.6l4.2-9.6h2.7l-6.9,15.3L612.5,719.1z"/>
	<path class="st1" d="M628.9,713.4h2.9v2.9h-2.9V713.4z M631.8,719.1v14.3H629v-14.3H631.8z"/>
	<path class="st1" d="M649.4,733.4h-2.5l-0.1-1.8c0,0-1.5,2.1-4.6,2.1c-3.8,0-6.7-3.3-6.7-7.5s2.9-7.5,6.7-7.5c3.1,0,4.6,2,4.6,2v-9
		h2.7v21.7H649.4z M637.9,726.2c0,2.8,1.8,5.2,4.6,5.2s4.1-2.3,4.1-2.3v-5.6c0,0-1.4-2.3-4.1-2.3
		C639.7,721.1,637.9,723.4,637.9,726.2z"/>
	<path class="st1" d="M667,733.4h-2.5l-0.1-1.8c0,0-1.5,2.1-4.6,2.1c-3.8,0-7-3.3-7-7.5s3.1-7.5,7-7.5c3.1,0,4.6,2,4.6,2l0.1-1.7
		h2.6L667,733.4L667,733.4z M655.3,726.2c0,2.8,2.1,5.2,4.9,5.2c2.9,0,4.1-2.3,4.1-2.3v-5.6c0,0-1.4-2.3-4.1-2.3
		C657.4,721.1,655.3,723.4,655.3,726.2z"/>
	<path class="st1" d="M684.4,733.4h-2.5l-0.1-1.8c0,0-1.5,2.1-4.6,2.1c-3.8,0-6.7-3.3-6.7-7.5s2.9-7.5,6.7-7.5c3.1,0,4.6,2,4.6,2v-9
		h2.7v21.7H684.4z M673,726.2c0,2.8,1.8,5.2,4.6,5.2s4.1-2.3,4.1-2.3v-5.6c0,0-1.4-2.3-4.1-2.3C674.8,721.1,673,723.4,673,726.2z"/>
	<path class="st1" d="M701.6,725.6c0,1.2-0.2,1.7-0.2,1.7h-10.9c0.1,2.2,2.2,4,4.8,4s4.8-1.3,4.8-1.3v2.5c0,0-1.8,1.1-4.9,1.1
		c-4.4,0-7.3-3.3-7.3-7.5s3.2-7.4,7.3-7.4C699.6,718.8,701.6,722.6,701.6,725.6z M690.5,725.2h8.7c0-2-1.7-4.2-4.1-4.2
		C692.5,721,690.8,723.1,690.5,725.2z"/>
	<path class="st1" d="M713.5,721.9c0,0-1.9-0.9-4.2-0.9c-1.2,0-2.5,0.7-2.5,1.8c0,2.5,7.9,1.7,7.9,6.5c0,2.2-1.9,4.4-5.9,4.4
		c-2.6,0-4.8-1.2-4.8-1.2v-2.6c0,0,2,1.5,4.8,1.5c1.3,0,3.2-0.5,3.2-2c0-2.7-7.9-1.9-7.9-6.5c0-2.7,2.5-4.2,5.3-4.2s4.1,0.8,4.1,0.8
		L713.5,721.9z"/>
</g>
<g>
	<path class="st1" d="M588,334.8h8.9v7.4c0,0-2.8,3-7.9,3c-5.4,0-10.3-4.2-10.3-10.5c0-5.9,4.6-10.5,10.9-10.5
		c3.6,0,5.8,1.2,5.8,1.2v2.6c0,0-2.7-1.4-5.8-1.4c-4.6,0-8.3,3.4-8.3,8.1c0,5,3.9,8.1,7.8,8.1c3.4,0,5.1-1.6,5.1-1.6v-4H588V334.8z"
		/>
	<path class="st1" d="M613.7,337.1c0,1.2-0.2,1.7-0.2,1.7h-10.9c0.1,2.2,2.2,4,4.8,4s4.8-1.4,4.8-1.4v2.5c0,0-1.8,1.1-4.9,1.1
		c-4.4,0-7.3-3.3-7.3-7.5s3.2-7.4,7.3-7.4C611.6,330.3,613.7,334.1,613.7,337.1z M602.6,336.7h8.7c0-2-1.7-4.2-4.1-4.2
		C604.6,332.5,602.9,334.6,602.6,336.7z"/>
	<path class="st1" d="M625.6,333.4c0,0-1.9-0.9-4.2-0.9c-1.2,0-2.5,0.7-2.5,1.8c0,2.5,7.9,1.7,7.9,6.5c0,2.2-2,4.4-5.9,4.4
		c-2.6,0-4.8-1.2-4.8-1.2v-2.6c0,0,2,1.5,4.8,1.5c1.3,0,3.2-0.5,3.2-2c0-2.7-7.9-1.9-7.9-6.5c0-2.7,2.5-4.2,5.3-4.2s4.1,0.8,4.1,0.8
		L625.6,333.4z"/>
	<path class="st1" d="M630.5,332.9h-2.1v-2.3h2.1v-3h2.7v3h3.1v2.3h-3.1v12h-2.7V332.9z"/>
	<path class="st1" d="M638.9,324.9h2.9v2.9h-2.9V324.9z M641.7,330.6v14.3h-2.8v-14.3H641.7z"/>
	<path class="st1" d="M652.8,345.2c-4.2,0-7.5-3.3-7.5-7.5s3.3-7.4,7.5-7.4s7.5,3.3,7.5,7.4C660.3,341.9,657,345.2,652.8,345.2z
		 M652.8,332.6c-2.8,0-5,2.4-5,5.2c0,2.8,2.2,5.2,5,5.2c2.9,0,5-2.4,5-5.2C657.9,334.9,655.7,332.6,652.8,332.6z M655.9,326.2
		l-5.6,2.3l-0.7-1.5l5.1-3.1L655.9,326.2z"/>
	<path class="st1" d="M676.8,344.9h-2.7v-8.6c0-2.4-1.3-3.7-3.3-3.7c-2.7,0-4.4,2-4.4,2v10.3h-2.7v-14.3h2.5l0.1,1.6
		c0,0,1.9-1.8,4.9-1.8c3.5,0,5.5,2.6,5.5,5.7v8.8H676.8z"/>
	<path class="st1" d="M701.7,344.9h-13.2v-20.5h13v2.4h-10.3v6.5h8.7v2.4h-8.7v6.7h10.6L701.7,344.9L701.7,344.9z"/>
	<path class="st1" d="M703.5,330.6h2.1v-2.5c0-1.9,1.2-5.1,5.4-5.1v2.3c-2.2,0-2.8,1.4-2.8,2.7v2.5h8.3v14.3h-2.8v-12h-5.5v12h-2.7
		v-12h-2.1L703.5,330.6L703.5,330.6z M713.7,324.9h2.9v2.9h-2.9V324.9z"/>
	<path class="st1" d="M730.8,333.5c0,0-1.3-0.9-3.4-0.9c-2.7,0-4.8,2.3-4.8,5.1c0,2.8,2,5.2,4.7,5.2c2.2,0,3.6-1,3.6-1v2.5
		c0,0-0.9,0.8-3.8,0.8c-4.1,0-7-3.3-7-7.5s3.1-7.4,7.2-7.4c2.4,0,3.4,0.6,3.4,0.6L730.8,333.5z"/>
	<path class="st1" d="M734.6,324.9h2.9v2.9h-2.9V324.9z M737.5,330.6v14.3h-2.8v-14.3H737.5z"/>
	<path class="st1" d="M754.8,337.1c0,1.2-0.2,1.7-0.2,1.7h-10.9c0.1,2.2,2.2,4,4.8,4s4.8-1.4,4.8-1.4v2.5c0,0-1.8,1.1-4.9,1.1
		c-4.4,0-7.3-3.3-7.3-7.5s3.2-7.4,7.3-7.4C752.8,330.3,754.8,334.1,754.8,337.1z M743.7,336.7h8.7c0-2-1.7-4.2-4.1-4.2
		C745.8,332.5,744.1,334.6,743.7,336.7z"/>
	<path class="st1" d="M771,344.9h-2.7v-8.6c0-2.4-1.4-3.7-3.3-3.7c-2.7,0-4.4,2-4.4,2v10.3H758v-14.3h2.5l0.1,1.6
		c0,0,1.9-1.8,4.9-1.8c3.5,0,5.5,2.6,5.5,5.7V344.9z"/>
	<path class="st1" d="M775.8,332.9h-2.1v-2.3h2.1v-3h2.7v3h3.1v2.3h-3.1v12h-2.7V332.9z"/>
	<path class="st1" d="M796.7,337.1c0,1.2-0.2,1.7-0.2,1.7h-10.9c0.1,2.2,2.2,4,4.8,4s4.8-1.4,4.8-1.4v2.5c0,0-1.8,1.1-4.9,1.1
		c-4.4,0-7.3-3.3-7.3-7.5s3.2-7.4,7.3-7.4C794.7,330.3,796.7,334.1,796.7,337.1z M785.6,336.7h8.7c0-2-1.7-4.2-4.1-4.2
		C787.7,332.5,785.9,334.6,785.6,336.7z"/>
</g>
<path class="st1" d="M140.3,172.4c0,0-1.7-0.9-3.8-0.9c-1.6,0-3.3,0.8-3.3,2.4c0,3.6,8.4,2.4,8.4,7.2c0,2-1.7,4-5.6,4
	c-2.6,0-4.5-1.1-4.5-1.1v-1.5c0,0,1.9,1.4,4.5,1.4c1.6,0,4-0.6,4-2.7c0-3.7-8.4-2.6-8.4-7.2c0-2.5,2.2-3.8,5-3.8
	c2,0,3.6,0.7,3.6,0.7L140.3,172.4z"/>
<path class="st1" d="M152.7,171.7h-2.1v-1.2h2.1v-3h1.5v3h3.1v1.2h-3.1v13.1h-1.5V171.7z"/>
<path class="st1" d="M166.7,171.6c0,0-0.3-0.1-0.8-0.1c-2.4,0-4.6,2.7-4.6,5.5v7.8h-1.5v-14.3h1.4l0.1,2.9c0,0,1.2-3.2,4.6-3.2
	c0.4,0,0.7,0.1,0.7,0.1v1.3H166.7z"/>
<path class="st1" d="M181.4,184.9H180l-0.1-2.2c0,0-1.6,2.5-5.2,2.5c-4.1,0-7.2-3.2-7.2-7.5c0-4.2,3.1-7.5,7.2-7.5
	c3.6,0,5.2,2.5,5.2,2.5l0.1-2.2h1.4V184.9z M169.1,177.7c0,3.5,2.6,6.2,5.8,6.2c3.7,0,5.1-3.3,5.1-3.3v-5.9c0,0-1.4-3.3-5.1-3.3
	C171.7,171.5,169.1,174.2,169.1,177.7z"/>
<path class="st1" d="M193.9,172.4c0,0-1.7-0.9-3.8-0.9c-1.6,0-3.3,0.8-3.3,2.4c0,3.6,8.4,2.4,8.4,7.2c0,2-1.7,4-5.6,4
	c-2.6,0-4.5-1.1-4.5-1.1v-1.5c0,0,1.9,1.4,4.5,1.4c1.6,0,4-0.6,4-2.7c0-3.7-8.4-2.6-8.4-7.2c0-2.5,2.2-3.8,5-3.8
	c2,0,3.6,0.7,3.6,0.7L193.9,172.4z"/>
<path class="st1" d="M208.1,172.2c0,0-1.2-0.7-3-0.7c-3.2,0-5.8,2.8-5.8,6.2c0,3.5,2.6,6.2,5.8,6.2c2,0,3.4-0.8,3.4-0.8v1.4
	c0,0-1.3,0.7-3.5,0.7c-4.1,0-7.2-3.2-7.2-7.5c0-4.1,3.3-7.5,7.4-7.5c2,0,3.1,0.5,3.1,0.5L208.1,172.2z"/>
<path class="st1" d="M224.4,177.2c0,0.6,0,1.2,0,1.2h-12.1c0.2,3,2.6,5.6,6,5.6c2.2,0,4.5-1.4,4.5-1.4v1.4c0,0-2,1.2-4.6,1.2
	c-4.3,0-7.3-3.3-7.3-7.5c0-4.1,3.2-7.4,7.2-7.4C222.5,170.2,224.4,174.2,224.4,177.2z M212.3,177.2H223c0-3-1.9-5.8-5-5.8
	S212.5,174.4,212.3,177.2z"/>
<path class="st1" d="M240.1,184.9h-1.5v-8.8c0-3.1-1.9-4.6-4.2-4.6c-3.5,0-5.3,3.4-5.3,3.4v10h-1.5v-14.3h1.4l0.1,2.4
	c0,0,1.8-2.7,5.4-2.7c3,0,5.6,1.9,5.6,5.5V184.9z"/>
<path class="st1" d="M256.6,184.9h-1.4l-0.1-2.4c0,0-1.5,2.7-5.2,2.7c-3.9,0-6.7-3.4-6.7-7.5s2.8-7.5,6.7-7.5c3.7,0,5.3,2.7,5.3,2.7
	v-9.6h1.5v21.6H256.6z M244.7,177.7c0,3.4,2.3,6.2,5.3,6.2c3.2,0,4.9-3,5.1-3.6v-5.2c-0.1-0.7-1.9-3.7-5.1-3.7
	C247,171.5,244.7,174.3,244.7,177.7z"/>
<path class="st1" d="M273.7,177.2c0,0.6,0,1.2,0,1.2h-12.1c0.2,3,2.6,5.6,6,5.6c2.2,0,4.5-1.4,4.5-1.4v1.4c0,0-2,1.2-4.6,1.2
	c-4.3,0-7.3-3.3-7.3-7.5c0-4.1,3.2-7.4,7.2-7.4C271.7,170.2,273.7,174.2,273.7,177.2z M261.6,177.2h10.7c0-3-1.9-5.8-5-5.8
	C264.1,171.4,261.7,174.4,261.6,177.2z"/>
<path class="st1" d="M289.3,184.9h-1.5v-8.8c0-3.1-1.9-4.6-4.2-4.6c-3.5,0-5.3,3.4-5.3,3.4v10h-1.5v-14.3h1.4l0.1,2.4
	c0,0,1.8-2.7,5.4-2.7c3,0,5.6,1.9,5.6,5.5V184.9z"/>
<path class="st1" d="M294,171.7h-2.1v-1.2h2.1v-3h1.5v3h3.1v1.2h-3.1v13.1H294V171.7z"/>
<path class="st1" d="M313.9,184.9h-1.4l-0.1-2.2c0,0-1.6,2.5-5.2,2.5c-4.1,0-7.2-3.2-7.2-7.5c0-4.2,3.1-7.5,7.2-7.5
	c3.6,0,5.2,2.5,5.2,2.5l0.1-2.2h1.4V184.9z M301.6,177.7c0,3.5,2.6,6.2,5.8,6.2c3.7,0,5.1-3.3,5.1-3.3v-5.9c0,0-1.4-3.3-5.1-3.3
	C304.1,171.5,301.6,174.2,301.6,177.7z"/>
<path class="st1" d="M320,163.3v21.6h-1.5v-21.6H320z"/>
<path class="st1" d="M201.6,212.2c0,0.6,0,1.2,0,1.2h-12.1c0.2,3,2.6,5.6,6,5.6c2.2,0,4.5-1.4,4.5-1.4v1.4c0,0-2,1.2-4.6,1.2
	c-4.3,0-7.3-3.3-7.3-7.5c0-4.1,3.2-7.4,7.2-7.4C199.7,205.2,201.6,209.2,201.6,212.2z M189.5,212.2h10.7c0-3-1.9-5.8-5-5.8
	C192.1,206.4,189.6,209.4,189.5,212.2z"/>
<path class="st1" d="M217.3,219.9h-1.5v-8.8c0-3.1-1.9-4.6-4.2-4.6c-3.5,0-5.3,3.4-5.3,3.4v10h-1.5v-14.3h1.4l0.1,2.4
	c0,0,1.8-2.7,5.4-2.7c3,0,5.6,1.9,5.6,5.5V219.9z"/>
<path class="st1" d="M230.2,198.3v21.6h-1.5v-21.6H230.2z"/>
<path class="st1" d="M247.6,219.9h-1.4l-0.1-2.2c0,0-1.6,2.5-5.2,2.5c-4.1,0-7.2-3.2-7.2-7.5c0-4.2,3.1-7.5,7.2-7.5
	c3.6,0,5.2,2.5,5.2,2.5l0.1-2.2h1.4V219.9z M235.2,212.7c0,3.5,2.6,6.2,5.8,6.2c3.7,0,5.1-3.3,5.1-3.3v-5.9c0,0-1.4-3.3-5.1-3.3
	C237.8,206.5,235.2,209.2,235.2,212.7z"/>
<path class="st1" d="M609.2,185.9h-1.4l-0.1-2.2c0,0-1.6,2.5-5.2,2.5c-4.1,0-7.2-3.2-7.2-7.5c0-4.2,3.1-7.5,7.2-7.5
	c3.6,0,5.2,2.5,5.2,2.5l0.1-2.2h1.4V185.9z M596.9,178.7c0,3.5,2.6,6.2,5.8,6.2c3.7,0,5.1-3.3,5.1-3.3v-5.9c0,0-1.4-3.3-5.1-3.3
	C599.4,172.5,596.9,175.2,596.9,178.7z"/>
<path class="st1" d="M620.5,172.6c0,0-0.3-0.1-0.8-0.1c-2.4,0-4.6,2.7-4.6,5.5v7.8h-1.5v-14.3h1.4l0.1,2.9c0,0,1.2-3.2,4.6-3.2
	c0.4,0,0.7,0.1,0.7,0.1L620.5,172.6L620.5,172.6z"/>
<path class="st1" d="M631.8,173.2c0,0-1.2-0.7-3-0.7c-3.2,0-5.8,2.8-5.8,6.2c0,3.5,2.6,6.2,5.8,6.2c2,0,3.4-0.8,3.4-0.8v1.4
	c0,0-1.3,0.7-3.5,0.7c-4.1,0-7.2-3.2-7.2-7.5c0-4.1,3.3-7.5,7.4-7.5c2,0,3.1,0.5,3.1,0.5L631.8,173.2z"/>
<path class="st1" d="M648.1,185.9h-1.4l-0.1-2.2c0,0-1.6,2.5-5.2,2.5c-4.1,0-7.2-3.2-7.2-7.5c0-4.2,3.1-7.5,7.2-7.5
	c3.6,0,5.2,2.5,5.2,2.5l0.1-2.2h1.4V185.9z M635.8,178.7c0,3.5,2.6,6.2,5.8,6.2c3.7,0,5.1-3.3,5.1-3.3v-5.9c0,0-1.4-3.3-5.1-3.3
	C638.3,172.5,635.8,175.2,635.8,178.7z"/>
<path class="st1" d="M661.4,164.3v21.6h-1.5v-21.6H661.4z"/>
<path class="st1" d="M678.7,185.9h-1.4l-0.1-2.2c0,0-1.6,2.5-5.2,2.5c-4.1,0-7.2-3.2-7.2-7.5c0-4.2,3.1-7.5,7.2-7.5
	c3.6,0,5.2,2.5,5.2,2.5l0.1-2.2h1.4V185.9z M666.4,178.7c0,3.5,2.6,6.2,5.8,6.2c3.7,0,5.1-3.3,5.1-3.3v-5.9c0,0-1.4-3.3-5.1-3.3
	C668.9,172.5,666.4,175.2,666.4,178.7z"/>
<path class="st1" d="M690.4,171.5h1.4l0.1,2.4c0,0,1.5-2.7,5.2-2.7c3.9,0,6.7,3.4,6.7,7.5s-2.8,7.5-6.7,7.5c-3.7,0-5.3-2.7-5.3-2.7
	v8.4h-1.5L690.4,171.5L690.4,171.5z M702.3,178.7c0-3.4-2.3-6.2-5.3-6.2c-3.2,0-5,3-5.1,3.6v5.2c0.2,0.7,1.9,3.7,5.1,3.7
	C700,185,702.3,182.1,702.3,178.7z"/>
<path class="st1" d="M720,185.9h-1.4l-0.1-2.2c0,0-1.6,2.5-5.2,2.5c-4.1,0-7.2-3.2-7.2-7.5c0-4.2,3.1-7.5,7.2-7.5
	c3.6,0,5.2,2.5,5.2,2.5l0.1-2.2h1.4V185.9z M707.7,178.7c0,3.5,2.6,6.2,5.8,6.2c3.7,0,5.1-3.3,5.1-3.3v-5.9c0,0-1.4-3.3-5.1-3.3
	C710.3,172.5,707.7,175.2,707.7,178.7z"/>
<path class="st1" d="M724.2,171.5h1.5v8.8c0,3.1,1.7,4.6,4.1,4.6c3.5,0,5.5-3.4,5.5-3.4v-10h1.5v14.3h-1.4l-0.1-2.5
	c0,0-2,2.8-5.6,2.8c-3,0-5.5-1.9-5.5-5.5V171.5z"/>
<path class="st1" d="M741.7,172.7h-2.1v-1.2h2.1v-3h1.5v3h3.1v1.2h-3.1v13.1h-1.5V172.7z"/>
<path class="st1" d="M761.6,185.9h-1.4l-0.1-2.2c0,0-1.6,2.5-5.2,2.5c-4.1,0-7.2-3.2-7.2-7.5c0-4.2,3.1-7.5,7.2-7.5
	c3.6,0,5.2,2.5,5.2,2.5l0.1-2.2h1.4V185.9z M749.3,178.7c0,3.5,2.6,6.2,5.8,6.2c3.7,0,5.1-3.3,5.1-3.3v-5.9c0,0-1.4-3.3-5.1-3.3
	C751.9,172.5,749.3,175.2,749.3,178.7z"/>
<path class="st1" d="M785.6,185.9h-1.4l-0.1-2.4c0,0-1.5,2.7-5.2,2.7c-3.9,0-6.7-3.4-6.7-7.5s2.8-7.5,6.7-7.5c3.7,0,5.3,2.7,5.3,2.7
	v-9.6h1.5L785.6,185.9L785.6,185.9z M773.7,178.7c0,3.4,2.3,6.2,5.3,6.2c3.2,0,5-3,5.1-3.6v-5.2c-0.1-0.7-1.9-3.7-5.1-3.7
	C776,172.5,773.7,175.3,773.7,178.7z"/>
<path class="st1" d="M802.7,178.2c0,0.6,0,1.2,0,1.2h-12.1c0.2,3,2.6,5.6,6,5.6c2.2,0,4.5-1.4,4.5-1.4v1.4c0,0-2,1.2-4.6,1.2
	c-4.3,0-7.3-3.3-7.3-7.5c0-4.1,3.2-7.4,7.2-7.4C800.8,171.2,802.7,175.2,802.7,178.2z M790.6,178.2h10.7c0-3-1.9-5.8-5-5.8
	C793.1,172.4,790.7,175.4,790.6,178.2z"/>
<path class="st1" d="M551.2,207.7h-2.1v-1.2h2.1v-3h1.5v3h3.1v1.2h-3.1v13.1h-1.5V207.7z"/>
<path class="st1" d="M565.2,207.6c0,0-0.3-0.1-0.8-0.1c-2.4,0-4.6,2.7-4.6,5.5v7.8h-1.5v-14.3h1.4l0.1,2.9c0,0,1.2-3.2,4.7-3.2
	c0.4,0,0.7,0.1,0.7,0.1L565.2,207.6L565.2,207.6z"/>
<path class="st1" d="M579.9,220.9h-1.4l-0.1-2.2c0,0-1.6,2.5-5.2,2.5c-4.1,0-7.2-3.2-7.2-7.5c0-4.2,3.1-7.5,7.2-7.5
	c3.6,0,5.2,2.5,5.2,2.5l0.1-2.2h1.4V220.9z M567.6,213.7c0,3.5,2.6,6.2,5.8,6.2c3.7,0,5.1-3.3,5.1-3.3v-5.9c0,0-1.4-3.3-5.1-3.3
	C570.2,207.5,567.6,210.2,567.6,213.7z"/>
<path class="st1" d="M584.4,199.3h1.5v9.6c0,0,1.6-2.7,5.3-2.7c3.9,0,6.7,3.4,6.7,7.5s-2.8,7.5-6.7,7.5c-3.7,0-5.2-2.7-5.2-2.7
	l-0.1,2.4h-1.4L584.4,199.3L584.4,199.3z M585.9,211.2v5.2c0.1,0.6,1.9,3.6,5.1,3.6c3.1,0,5.3-2.9,5.3-6.2c0-3.4-2.3-6.2-5.3-6.2
	C587.8,207.5,586,210.5,585.9,211.2z"/>
<path class="st1" d="M614,220.9h-1.4l-0.1-2.2c0,0-1.6,2.5-5.2,2.5c-4.1,0-7.2-3.2-7.2-7.5c0-4.2,3.1-7.5,7.2-7.5
	c3.6,0,5.2,2.5,5.2,2.5l0.1-2.2h1.4V220.9z M601.7,213.7c0,3.5,2.6,6.2,5.8,6.2c3.7,0,5.1-3.3,5.1-3.3v-5.9c0,0-1.4-3.3-5.1-3.3
	C604.3,207.5,601.7,210.2,601.7,213.7z"/>
<path class="st1" d="M620.2,222.5c0,2.5-0.5,4.7-4.3,4.7V226c2.4,0,2.8-1.4,2.8-3.1v-16.3h1.5V222.5z M618.7,201.1h1.6v2.6h-1.6
	V201.1z"/>
<path class="st1" d="M631.1,206.2c4.1,0,7.4,3.4,7.4,7.5s-3.3,7.5-7.4,7.5s-7.4-3.4-7.4-7.5S627,206.2,631.1,206.2z M631.1,220
	c3.3,0,5.9-2.8,5.9-6.3c0-3.4-2.6-6.3-5.9-6.3s-5.9,2.8-5.9,6.3C625.2,217.2,627.8,220,631.1,220z"/>
<path class="st1" d="M660.2,220.9h-1.5v-9.1c0-2.8-1.2-4.3-3.4-4.3c-2.5,0-4.4,2.4-4.8,3.2v10.2H649v-14.3h1.4l0.1,2.3
	c0,0,2-2.6,4.9-2.6c3.2,0,4.3,2.5,4.3,2.5s2-2.5,5-2.5c3.4,0,4.9,2.5,4.9,5.4v9.2h-1.5v-8.8c0-3.1-1.3-4.6-3.6-4.6s-4,1.9-4.4,2.7
	L660.2,220.9L660.2,220.9z"/>
<path class="st1" d="M582.1,186.1h-1.5V177c0-2.8-1.2-4.3-3.4-4.3c-2.5,0-4.4,2.4-4.8,3.2v10.2h-1.5v-14.3h1.4l0.1,2.3
	c0,0,2-2.6,4.9-2.6c3.2,0,4.3,2.5,4.3,2.5s2-2.5,5-2.5c3.4,0,4.9,2.5,4.9,5.4v9.2H590v-8.8c0-3.1-1.3-4.6-3.6-4.6
	c-2.3,0-4,1.9-4.4,2.7L582.1,186.1L582.1,186.1z"/>
<path class="st1" d="M686.5,213.2c0,0.6,0,1.2,0,1.2h-12.1c0.2,3,2.6,5.6,6,5.6c2.2,0,4.5-1.4,4.5-1.4v1.4c0,0-2,1.2-4.6,1.2
	c-4.3,0-7.3-3.3-7.3-7.5c0-4.1,3.2-7.4,7.2-7.4C684.6,206.2,686.5,210.2,686.5,213.2z M674.4,213.2h10.7c0-3-1.9-5.8-5-5.8
	C677,207.4,674.5,210.4,674.4,213.2z"/>
<path class="st1" d="M702,220.9h-1.4l-0.1-2.4c0,0-1.5,2.7-5.2,2.7c-3.9,0-6.7-3.4-6.7-7.5s2.8-7.5,6.7-7.5c3.7,0,5.3,2.7,5.3,2.7
	v-9.6h1.5L702,220.9L702,220.9z M690.1,213.7c0,3.4,2.3,6.2,5.3,6.2c3.2,0,4.9-3,5.1-3.6v-5.2c-0.2-0.7-1.9-3.7-5.1-3.7
	C692.3,207.5,690.1,210.3,690.1,213.7z"/>
<path class="st1" d="M706.4,201.1h1.6v2.6h-1.6V201.1z M708,206.5v14.3h-1.5v-14.3H708z"/>
<path class="st1" d="M725.3,220.9H724l-0.1-2.2c0,0-1.6,2.5-5.2,2.5c-4.1,0-7.2-3.2-7.2-7.5c0-4.2,3.1-7.5,7.2-7.5
	c3.6,0,5.2,2.5,5.2,2.5l0.1-2.2h1.4v14.4H725.3z M713,213.7c0,3.5,2.6,6.2,5.8,6.2c3.7,0,5.1-3.3,5.1-3.3v-5.9c0,0-1.4-3.3-5.1-3.3
	C715.6,207.5,713,210.2,713,213.7z"/>
<path class="st1" d="M742.3,220.9h-1.5v-8.8c0-3.1-1.9-4.6-4.2-4.6c-3.5,0-5.3,3.4-5.3,3.4v10h-1.5v-14.3h1.4l0.1,2.4
	c0,0,1.8-2.7,5.4-2.7c3,0,5.6,1.9,5.6,5.5V220.9z"/>
<path class="st1" d="M747,207.7h-2.1v-1.2h2.1v-3h1.5v3h3.1v1.2h-3.1v13.1H747V207.7z"/>
<path class="st1" d="M766.7,213.2c0,0.6,0,1.2,0,1.2h-12.1c0.2,3,2.6,5.6,6,5.6c2.2,0,4.5-1.4,4.5-1.4v1.4c0,0-2,1.2-4.6,1.2
	c-4.3,0-7.3-3.3-7.3-7.5c0-4.1,3.2-7.4,7.2-7.4C764.8,206.2,766.7,210.2,766.7,213.2z M754.6,213.2h10.7c0-3-1.9-5.8-5-5.8
	S754.7,210.4,754.6,213.2z"/>
<path class="st1" d="M776.8,206.5h1.5v8.8c0,3.1,1.7,4.6,4.1,4.6c3.5,0,5.5-3.4,5.5-3.4v-10h1.5v14.3H788l-0.1-2.5
	c0,0-2,2.8-5.6,2.8c-3,0-5.5-1.9-5.5-5.5L776.8,206.5L776.8,206.5z"/>
<path class="st1" d="M806.3,220.9h-1.5v-8.8c0-3.1-1.9-4.6-4.2-4.6c-3.5,0-5.3,3.4-5.3,3.4v10h-1.5v-14.3h1.4l0.1,2.4
	c0,0,1.8-2.7,5.4-2.7c3,0,5.6,1.9,5.6,5.5V220.9z"/>
<path class="st1" d="M823.3,220.9h-1.4l-0.1-2.2c0,0-1.6,2.5-5.2,2.5c-4.1,0-7.2-3.2-7.2-7.5c0-4.2,3.1-7.5,7.2-7.5
	c3.6,0,5.2,2.5,5.2,2.5l0.1-2.2h1.4V220.9z M810.9,213.7c0,3.5,2.6,6.2,5.8,6.2c3.7,0,5.1-3.3,5.1-3.3v-5.9c0,0-1.4-3.3-5.1-3.3
	C813.5,207.5,810.9,210.2,810.9,213.7z"/>
<path class="st1" d="M175.6,463.7h-2.1v-1.2h2.1v-3h1.5v3h3.1v1.2h-3.1v13.1h-1.5V463.7z"/>
<path class="st1" d="M189.6,463.6c0,0-0.3-0.1-0.8-0.1c-2.4,0-4.6,2.7-4.6,5.5v7.8h-1.5v-14.3h1.4l0.1,2.9c0,0,1.2-3.2,4.6-3.2
	c0.4,0,0.7,0.1,0.7,0.1v1.3L189.6,463.6L189.6,463.6z"/>
<path class="st1" d="M204.3,476.9h-1.4l-0.1-2.2c0,0-1.6,2.5-5.2,2.5c-4.1,0-7.2-3.2-7.2-7.5c0-4.2,3.1-7.5,7.2-7.5
	c3.6,0,5.2,2.5,5.2,2.5l0.1-2.2h1.4V476.9z M192,469.7c0,3.5,2.6,6.2,5.8,6.2c3.7,0,5.1-3.3,5.1-3.3v-5.9c0,0-1.4-3.3-5.1-3.3
	C194.5,463.5,192,466.2,192,469.7z"/>
<path class="st1" d="M206.8,462.5h1.6l4.9,11.8l4.9-11.8h1.6l-6.5,14.9L206.8,462.5z"/>
<path class="st1" d="M235,469.2c0,0.6,0,1.2,0,1.2h-12.1c0.2,3,2.6,5.6,6,5.6c2.2,0,4.5-1.4,4.5-1.4v1.4c0,0-2,1.2-4.6,1.2
	c-4.3,0-7.3-3.3-7.3-7.5c0-4.1,3.2-7.4,7.2-7.4C233.1,462.2,235,466.2,235,469.2z M222.9,469.2h10.7c0-3-1.9-5.8-5-5.8
	C225.4,463.4,223,466.4,222.9,469.2z M231.2,458l-4.8,2.2l-0.5-1l4.6-2.6L231.2,458z"/>
<path class="st1" d="M246.1,464.4c0,0-1.7-0.9-3.8-0.9c-1.6,0-3.3,0.8-3.3,2.4c0,3.6,8.4,2.4,8.4,7.2c0,2-1.7,4-5.6,4
	c-2.6,0-4.5-1.1-4.5-1.1v-1.5c0,0,1.9,1.4,4.5,1.4c1.6,0,4-0.6,4-2.7c0-3.7-8.4-2.6-8.4-7.2c0-2.5,2.2-3.8,5-3.8
	c2,0,3.6,0.7,3.6,0.7L246.1,464.4z"/>
<path class="st1" d="M270.5,476.9h-1.4l-0.1-2.4c0,0-1.5,2.7-5.2,2.7c-3.9,0-6.7-3.4-6.7-7.5s2.8-7.5,6.7-7.5c3.7,0,5.3,2.7,5.3,2.7
	v-9.6h1.5L270.5,476.9L270.5,476.9z M258.6,469.7c0,3.4,2.3,6.2,5.3,6.2c3.2,0,4.9-3,5.1-3.6v-5.2c-0.1-0.7-1.9-3.7-5.1-3.7
	C260.8,463.5,258.6,466.3,258.6,469.7z"/>
<path class="st1" d="M287.5,469.2c0,0.6,0,1.2,0,1.2h-12.1c0.2,3,2.6,5.6,6,5.6c2.2,0,4.5-1.4,4.5-1.4v1.4c0,0-2,1.2-4.6,1.2
	c-4.3,0-7.3-3.3-7.3-7.5c0-4.1,3.2-7.4,7.2-7.4C285.6,462.2,287.5,466.2,287.5,469.2z M275.4,469.2h10.7c0-3-1.9-5.8-5-5.8
	C278,463.4,275.5,466.4,275.4,469.2z"/>
<path class="st1" d="M626.4,462.2c4.1,0,7.4,3.4,7.4,7.5s-3.3,7.5-7.4,7.5s-7.4-3.4-7.4-7.5S622.3,462.2,626.4,462.2z M626.4,476
	c3.3,0,5.9-2.8,5.9-6.3s-2.6-6.3-5.9-6.3s-5.9,2.8-5.9,6.3S623.2,476,626.4,476z"/>
<path class="st1" d="M644.1,463.6c0,0-0.3-0.1-0.8-0.1c-2.4,0-4.6,2.7-4.6,5.5v7.8h-1.5v-14.3h1.4l0.1,2.9c0,0,1.2-3.2,4.6-3.2
	c0.4,0,0.7,0.1,0.7,0.1L644.1,463.6L644.1,463.6z"/>
<path class="st1" d="M665.2,476.9h-1.5v-9.1c0-2.8-1.2-4.3-3.4-4.3c-2.5,0-4.4,2.4-4.8,3.2v10.2H654v-14.3h1.3l0.1,2.3
	c0,0,2-2.6,4.9-2.6c3.2,0,4.3,2.5,4.3,2.5s2-2.5,5-2.5c3.4,0,4.9,2.5,4.9,5.4v9.2H673v-8.8c0-3.1-1.3-4.6-3.6-4.6s-4,1.9-4.4,2.7
	v10.7L665.2,476.9L665.2,476.9z"/>
<path class="st1" d="M691.5,469.2c0,0.6,0,1.2,0,1.2h-12.1c0.2,3,2.6,5.6,6,5.6c2.2,0,4.5-1.4,4.5-1.4v1.4c0,0-2,1.2-4.6,1.2
	c-4.3,0-7.3-3.3-7.3-7.5c0-4.1,3.2-7.4,7.2-7.4C689.6,462.2,691.5,466.2,691.5,469.2z M679.4,469.2h10.7c0-3-1.9-5.8-5-5.8
	C682,463.4,679.5,466.4,679.4,469.2z"/>
<path class="st1" d="M707,476.9h-1.4l-0.1-2.4c0,0-1.5,2.7-5.2,2.7c-3.9,0-6.7-3.4-6.7-7.5s2.8-7.5,6.7-7.5c3.7,0,5.3,2.7,5.3,2.7
	v-9.6h1.5L707,476.9L707,476.9z M695.1,469.7c0,3.4,2.3,6.2,5.3,6.2c3.2,0,5-3,5.1-3.6v-5.2c-0.1-0.7-1.9-3.7-5.1-3.7
	C697.3,463.5,695.1,466.3,695.1,469.7z"/>
<path class="st1" d="M711.4,457.1h1.6v2.6h-1.6V457.1z M713,462.5v14.3h-1.5v-14.3H713z"/>
<path class="st1" d="M723.9,462.2c4.1,0,7.4,3.4,7.4,7.5s-3.3,7.5-7.4,7.5c-4.1,0-7.4-3.4-7.4-7.5S719.8,462.2,723.9,462.2z
	 M723.9,476c3.3,0,5.9-2.8,5.9-6.3s-2.6-6.3-5.9-6.3c-3.3,0-5.9,2.8-5.9,6.3S720.6,476,723.9,476z"/>
<path class="st1" d="M754.3,476.9h-1.4l-0.1-2.4c0,0-1.5,2.7-5.2,2.7c-3.9,0-6.7-3.4-6.7-7.5s2.8-7.5,6.7-7.5c3.7,0,5.3,2.7,5.3,2.7
	v-9.6h1.5L754.3,476.9L754.3,476.9z M742.3,469.7c0,3.4,2.3,6.2,5.3,6.2c3.2,0,4.9-3,5.1-3.6v-5.2c-0.2-0.7-1.9-3.7-5.1-3.7
	C744.6,463.5,742.3,466.3,742.3,469.7z"/>
<path class="st1" d="M771.3,469.2c0,0.6,0,1.2,0,1.2h-12.1c0.2,3,2.6,5.6,6,5.6c2.2,0,4.5-1.4,4.5-1.4v1.4c0,0-2,1.2-4.6,1.2
	c-4.3,0-7.3-3.3-7.3-7.5c0-4.1,3.2-7.4,7.2-7.4C769.4,462.2,771.3,466.2,771.3,469.2z M759.2,469.2h10.7c0-3-1.9-5.8-5-5.8
	C761.8,463.4,759.3,466.4,759.2,469.2z"/>
<g>
	<rect x="215" y="119.8" class="st0" width="4" height="43.5"/>
</g>
<g>
	<rect x="685" y="119.8" class="st0" width="4" height="43.5"/>
</g>
<path class="st1" d="M129.4,176.7c0,0.6,0,1.2,0,1.2h-12.1c0.2,3,2.6,5.6,6,5.6c2.2,0,4.5-1.4,4.5-1.4v1.4c0,0-2,1.2-4.6,1.2
	c-4.3,0-7.3-3.3-7.3-7.5c0-4.1,3.2-7.4,7.2-7.4C127.4,169.7,129.4,173.7,129.4,176.7z M117.2,176.7h10.7c0-3-1.9-5.8-5-5.8
	C119.9,170.9,117.4,173.9,117.2,176.7z"/>
<path class="st1" d="M160.8,475.9h-1.4l-0.1-2.2c0,0-1.6,2.5-5.2,2.5c-4.1,0-7.2-3.2-7.2-7.5c0-4.2,3.1-7.5,7.2-7.5
	c3.6,0,5.2,2.5,5.2,2.5l0.1-2.2h1.4V475.9z M148.5,468.7c0,3.5,2.6,6.2,5.8,6.2c3.7,0,5.1-3.3,5.1-3.3v-5.9c0,0-1.4-3.3-5.1-3.3
	C151,462.5,148.5,465.2,148.5,468.7z"/>
<path class="st1" d="M602.2,462.9h1.4l0.1,2.4c0,0,1.5-2.7,5.2-2.7c3.9,0,6.7,3.4,6.7,7.5s-2.8,7.5-6.7,7.5c-3.7,0-5.3-2.7-5.3-2.7
	v8.4h-1.5L602.2,462.9L602.2,462.9z M614.1,470.1c0-3.4-2.3-6.2-5.3-6.2c-3.2,0-5,3-5.1,3.6v5.2c0.2,0.7,1.9,3.7,5.1,3.7
	C611.8,476.4,614.1,473.5,614.1,470.1z"/>
</svg>
