<?xml version="1.0" encoding="utf-8"?>
<!-- Generator: Adobe Illustrator 25.0.0, SVG Export Plug-In . SVG Version: 6.00 Build 0)  -->
<svg version="1.1" id="Capa_1" xmlns="http://www.w3.org/2000/svg" xmlns:xlink="http://www.w3.org/1999/xlink" x="0px" y="0px"
	 viewBox="0 0 101.6 101.6" style="enable-background:new 0 0 101.6 101.6;" xml:space="preserve">
<style type="text/css">
	.st0{fill:#CAE2F8;}
	.st1{fill:#FFF5E1;}
	.st2{fill:#95CDB3;}
	.st3{fill:#7CC5D8;}
	.st4{fill:#5F6060;}
	.st5{fill:#565656;}
	.st6{fill:#30193B;}
	.st7{fill:#3B2B5B;}
	.st8{fill:#FFB593;}
	.st9{fill:#F7AA8B;}
	.st10{fill:#FFFFFF;}
	.st11{fill:#3DAE2B;}
	.st12{fill:#358E25;}
	.st13{fill:#5F2167;}
	.st14{opacity:0.4;fill:#5F2167;}
	.st15{fill:#EFEFEF;}
</style>
<g>
	<circle class="st0" cx="50.8" cy="50.8" r="50.8"/>
	<g>
		<g>
			<rect x="47.6" y="12.3" class="st1" width="47.3" height="46.9"/>
			<g>
				<rect x="59.2" y="35.5" class="st2" width="6.1" height="16.2"/>
				<rect x="67.3" y="39.2" class="st3" width="6.1" height="12.6"/>
				<rect x="75.3" y="26.7" class="st3" width="6.1" height="25.1"/>
				<rect x="83.4" y="19.9" class="st2" width="6.1" height="31.8"/>
			</g>
		</g>
		<path class="st4" d="M56.3,67.3C49.5,67.7,33,71,28.8,72.5c-0.6,1.4-3.5,7.5-5.9,14.7c-0.5,1.6-1,3.3-1.5,5
			c8.3,5.9,18.4,9.4,29.4,9.4c7.3,0,14.2-1.5,20.4-4.3c-1.1-6.4-2.8-12-5-16.1C61.8,73.2,57.7,68.3,56.3,67.3z"/>
		<path class="st5" d="M55.4,67.3c-2.9,0.1-15.9,3.1-20.6,3.9c-2.1,0.4,1,10.8,0.5,28c4.9,1.6,10.1,2.4,15.5,2.4
			c6.2,0,12.2-1.1,17.7-3.2c-0.8-7-1.8-12.9-3.1-17.2C62.6,72.5,56.9,68.3,55.4,67.3z"/>
		<path class="st6" d="M40.9,27.6c0-0.1-1.2-6.3-2.6-7.4c-0.5-0.4-4-2.1-7.2,0.7c-1.2,1.1-4.4,1.6-2.2,5.8c0.8,1.5,4.4,5.8,4.9,6
			C34,32.8,41.7,29.7,40.9,27.6z"/>
		<path class="st7" d="M35,21.1c0,0-0.4-1.5-2-1.6c-1.4-0.1-3.4,0.9-4.8,3.3c-1,1.7-3,1.3-3,1.3s2.2,2.3,5.4,1.2
			c2-0.7,3.9-3.3,3.9-3.3L35,21.1z"/>
		<g>
			<path class="st8" d="M36.2,31.9c0,0,0.2,5.3,0.8,5.7c0.6,0.5,2.4,0.8,3.1-0.7c0.7-1.5-1.3-5.6-1.3-5.6L36.2,31.9z"/>
		</g>
		<g>
			<path class="st9" d="M36.4,34.4c0.9,0.5,2.5,0.8,3.6,0c-0.2-0.9-0.4-1.3-0.7-2l-3,0.7C36.3,33.9,36.2,33.5,36.4,34.4z"/>
		</g>
		<path class="st8" d="M41.3,28.9c0-0.6-1-2.4-1.8-3.9c-0.7-1.2-2.3-1.6-3.5-0.9c-1.9,1.1-3.9,2.5-4.2,3.2c-0.6,1.1,0.1,2.4,0.6,3.4
			c0.5,1,1.7,2.6,2.7,3.1c0.9,0.5,2.8,0.3,3.7-0.2C41.3,32.1,41.7,31,41.3,28.9z"/>
		<path class="st10" d="M37.8,37l0,20.4c0,0-1.1,18.2-0.8,18.3c0.3,0.1,4.6-0.6,7.2-1.1c2.6-0.5,9.4-2.4,9.4-2.4L49,43.5l-5.6-6.8
			L37.8,37z"/>
		<path class="st11" d="M38,36.5l2.5-0.7c0,0,0.6,2.6-0.4,2.9C39,39,38.2,38.5,38,36.5z"/>
		<g>
			<path class="st11" d="M39.6,37.8c0,0,0.3,8,2.2,17.9c1.9,9.9,2.8,18,2.8,18l6.4,2.6l2.9-5.7c0,0-11.7-31.7-13.6-33
				C38.5,36.3,39.6,37.8,39.6,37.8z"/>
			<path class="st12" d="M40.4,37.6c-0.9-0.6-1.1-0.6-1.1-0.4c0.2,0.1,0.4,0.2,0.8,0.4c1.9,1.3,13.6,33,13.6,33l-2.8,5.5l0.3,0.1
				l2.9-5.7C53.9,70.6,42.3,38.9,40.4,37.6z"/>
			<path class="st10" d="M49.9,70.7l-0.6,0.2l0.2,1c0.1,0.4-0.2,0.4-0.2,0.4c-0.3,0.1-0.3-0.2-0.3-0.2l-0.2-1l-0.6,0.2l0.2,1.1
				c0.2,0.7,1,0.3,1,0.3c0.8-0.3,0.7-1,0.7-1L49.9,70.7z M50.9,70.2L50,70.6l0.4,1.7l0.6-0.2l-0.1-0.6l0.3-0.1c0,0,0.2-0.1,0.2,0.1
				l0.1,0.4l0.6-0.2l0,0c0,0-0.1,0-0.1-0.1l-0.1-0.3c0,0,0-0.2-0.3-0.2c0,0,0.3-0.2,0.2-0.6C51.6,70.4,51.5,70,50.9,70.2z
				 M51.2,70.8c0,0.1-0.1,0.2-0.1,0.2l-0.3,0.1l-0.1-0.3l0.3-0.1C51.1,70.6,51.2,70.8,51.2,70.8z M47.7,72.3c0,0-0.4,0.2-0.4,0
				c0,0,0-0.1,0.2-0.2c0,0,0.2-0.1,0.2,0.1l0.5-0.2c0,0-0.1-0.5-0.9-0.2c0,0-0.7,0.3-0.6,0.9c0,0,0.1,0.4,0.6,0.3c0,0,0.5-0.1,0.5,0
				c0,0.1-0.1,0.2-0.2,0.2c0,0-0.2,0.1-0.3-0.1l-0.5,0.2c0,0,0.1,0.6,0.9,0.3c0,0,0.8-0.3,0.6-1C48.4,72.5,48.3,72.1,47.7,72.3z
				 M51.6,69.9c-0.1,0-0.1,0.1-0.1,0.1c0,0.1,0.1,0.1,0.1,0.1c0.1,0,0.1-0.1,0.1-0.1C51.8,69.9,51.7,69.9,51.6,69.9z M51.7,70.1
				c0,0-0.1,0-0.1,0c0,0,0-0.1,0-0.1c0,0,0.1,0,0.1,0C51.8,70.1,51.8,70.1,51.7,70.1z M51.7,70C51.7,70,51.7,70,51.7,70L51.7,70
				l0,0.1l0,0L51.7,70L51.7,70L51.7,70L51.7,70L51.7,70C51.7,70,51.7,70,51.7,70z M51.7,70L51.7,70L51.7,70C51.7,70,51.7,70,51.7,70
				C51.7,70,51.7,70,51.7,70L51.7,70z"/>
		</g>
		<path class="st4" d="M30.4,65.2C32,71.5,24,84.1,24,84.1s12.1,11.2,22.1,9.5c-0.5-5.3,1.4-33.4-2-42.4c-3-8-7.5-15.3-9.7-14.5
			c-6.7,2.5-12.1,4.3-13.5,7.4C20,46,28.5,57.3,30.4,65.2z"/>
		<g>
			<path class="st4" d="M25.6,43.6c0.7-1.4-0.7-2.8-2.1-2.1c-2.2,1.1-5,2.8-7.3,5.2C11.4,51.8,4.8,57.4,5.4,63.6
				C6,70.7,17.8,83.7,25.5,81.2c2.2-0.7,2.1-3.8,2-5c0-0.4-0.2-0.7-0.5-0.9l-13.1-13c-0.6-0.6-0.6-1.5-0.1-2.1l9.2-11.3
				c0.1-0.1,0.1-0.2,0.2-0.3L25.6,43.6z"/>
			<path class="st8" d="M27.1,77.1c0,0-0.4-3.6,0.8-4c1.2-0.4,3-1.1,3.4-0.7c0.3,0.4-1.1,0.9-1.1,0.9s1.3,0.4,1.5,0.5
				c0.2,0.2-0.4,0.6-0.4,0.6s0.4,0.1,0.5,0.5c0.1,0.4-1,0.2-1.5,0.5c-0.5,0.3-1,2.3-2,2.9C27.8,78.6,27.1,78.1,27.1,77.1z"/>
		</g>
		<path class="st4" d="M56.2,91.8c0,0,11.1-3.3,11.1-8.3c-7.4-15-5.5-6.6-5.8-10.7c-1-18.3-1.4-23.6-4.2-31.5
			c-0.5-1.5-0.9-4.7-2.8-5.6c-1.2-0.6-2.9-1-4.8-1.1c-1.3-0.1-2.6-0.1-4.1,0c-1.6,0.1-3.4,0.3-5.1,0.6c-0.2,0-1.4,0.3-1.4,0.3
			s4.8,7.9,8.5,15.7S56.2,91.8,56.2,91.8z"/>
		<g>
			<path class="st8" d="M62.7,72.7c0,0-1.1-3.5-2.3-3.4c-1.2,0.1-3.2,0.2-3.3,0.7c-0.1,0.5,1.4,0.4,1.4,0.4s-1,0.8-1.1,1.1
				c-0.1,0.2,0.6,0.4,0.6,0.4s-0.3,0.2-0.2,0.7c0.1,0.4,1-0.2,1.6-0.1c0.6,0.1,1.8,1.7,3,1.9C62.7,74.3,63,73.6,62.7,72.7z"/>
			<path class="st5" d="M75.4,52.3c-2-5.9-10.1-12.6-16.4-15.6c-1.5-0.7-3.4-1.2-5.2-1.5c0.3,0.1,0.6,0.2,0.9,0.4
				c1.8,0.9,2.4,5.6,3.7,8.6c0.1,0.1,0.2,0.3,0.3,0.4l8.5,8c0.3,0.3,0.4,0.7,0.3,1.2l-6,16.8c-0.1,0.2-0.1,0.4,0,0.6
				c0.3,1.1,1.4,4.3,3.9,4C73.3,74.6,77.6,59.1,75.4,52.3z"/>
		</g>
		<g>
			<polygon class="st13" points="40.6,50.4 53.4,63.1 40.9,49.4 			"/>
			<polygon class="st13" points="46.1,46 52.6,62.1 46.4,45 			"/>
			<g>
				<path class="st10" d="M53.9,69.4l4.3-2.4c0.3-0.1,0.3-0.5,0.2-0.7l-4-7.1c-0.1-0.3-0.5-0.3-0.7-0.2l-4.3,2.4
					c-0.3,0.1-0.3,0.5-0.2,0.7l4,7.1C53.3,69.5,53.6,69.6,53.9,69.4z"/>
				<path class="st13" d="M54.2,59c-0.1-0.1-0.2-0.2-0.4-0.1l-4.7,2.6c-0.1,0.1-0.2,0.2-0.1,0.4l1.1,2C50.3,64,54.2,59,54.2,59z"/>
				<path class="st14" d="M53,64.2c0.2,0.1,0.5,0,0.7-0.1c0.2-0.1,0.4-0.3,0.5-0.6c0.4-0.2,0.8,0,1,0.3l0.5,0.8
					c0.1,0.1,0,0.3-0.1,0.4l-1.9,1.1c-0.1,0.1-0.3,0-0.4-0.1l-0.5-0.8C52.5,64.9,52.6,64.4,53,64.2z"/>
				<path class="st14" d="M53.6,63.9c-0.4,0.2-0.9,0.1-1.1-0.3s-0.1-0.9,0.3-1.1c0.4-0.2,0.9-0.1,1.1,0.3
					C54.1,63.1,54,63.6,53.6,63.9z"/>
			</g>
		</g>
		<path class="st5" d="M35.4,36.4c-1.5,0.6-3.8,1.4-3.8,1.4l1.4,4.2l2.9-0.5L32.5,44l12.9,11.2c0,0-0.7-2.9-2.3-6.6
			C40.6,43,36.7,35.9,35.4,36.4z"/>
		<path class="st5" d="M48.3,38.8c0-1.2-4.8-0.2-4.8-0.2l1.8-1.5l-3-2.1c0,0-0.8,0.1-1.5,0.2c-0.2,0-1.4,0.3-1.4,0.3
			s8.5,16.2,9.6,18.5L48.3,38.8z"/>
		<path class="st15" d="M40.5,33c0,0-0.8,1.3-1,1.6C39,35.5,38.4,36,38.4,36l3.2,2.4l1.2-4.1L40.5,33z"/>
		<path class="st15" d="M38.6,35.9l-0.8,4c0,0-1.9-0.3-3.2-3.2L34.3,36l0.9-1.4c0,0,1.3,1.4,3.2,1.2"/>
	</g>
</g>
<g>
</g>
<g>
</g>
<g>
</g>
<g>
</g>
<g>
</g>
<g>
</g>
<g>
</g>
<g>
</g>
<g>
</g>
<g>
</g>
<g>
</g>
<g>
</g>
<g>
</g>
<g>
</g>
<g>
</g>
</svg>
