<?xml version="1.0" encoding="utf-8"?>
<!-- Generator: Adobe Illustrator 25.0.0, SVG Export Plug-In . SVG Version: 6.00 Build 0)  -->
<svg version="1.1" id="Capa_2" xmlns="http://www.w3.org/2000/svg" xmlns:xlink="http://www.w3.org/1999/xlink" x="0px" y="0px"
	 viewBox="0 0 150 84" style="enable-background:new 0 0 150 84;" xml:space="preserve">
<style type="text/css">
	.st0{fill:#FFFFFF;}
	.st1{fill:#DA291C;}
	.st2{fill:none;}
</style>
<g>
	<g>
		<path class="st0" d="M126.1,29.7h-0.4l0-0.8c0,0-0.5,0.9-1.7,0.9c-1.3,0-2.2-1.1-2.2-2.4c0-1.3,0.9-2.4,2.1-2.4
			c1.2,0,1.7,0.9,1.7,0.9v-3.1h0.5V29.7z M122.3,27.4c0,1.1,0.7,2,1.7,2c1,0,1.6-1,1.6-1.2v-1.7c0-0.2-0.6-1.2-1.6-1.2
			C123,25.4,122.3,26.3,122.3,27.4z"/>
		<path class="st0" d="M131.6,27.2c0,0.2,0,0.4,0,0.4h-3.9c0.1,1,0.8,1.8,1.9,1.8c0.7,0,1.4-0.5,1.4-0.5v0.5c0,0-0.7,0.4-1.5,0.4
			c-1.4,0-2.4-1.1-2.4-2.4c0-1.3,1-2.4,2.3-2.4C131,25,131.6,26.3,131.6,27.2z M127.7,27.2h3.4c0-1-0.6-1.9-1.6-1.9
			C128.5,25.4,127.7,26.3,127.7,27.2z"/>
	</g>
	<g>
		<g>
			<polygon class="st1" points="42.4,32 44,21.3 45.3,32.2 			"/>
			<path class="st1" d="M44.1,21.3l-3.2-8L13.9,8.2l2,7.8l6.2,1.2c-0.6,0.3-1.1,0.7-1.6,1.1c-0.2,0.1-0.3,0.3-0.4,0.4
				c0,0-0.1,0.1-0.1,0.1c-0.3,0.3-0.6,0.7-0.9,1c1.8,3.2,5.2,5.3,9,5.3c3.3,0,6.2-1.5,8.1-3.9c-0.3-0.6-0.7-1.1-1.1-1.5L44.1,21.3z"
				/>
		</g>
		<g>
			<g>
				<g>
					<g>
						<path class="st2" d="M18.6,18.8c0,0,0.1-0.1,0.1-0.1C18.7,18.8,18.7,18.8,18.6,18.8z"/>
						<path class="st2" d="M21.1,17c-0.6,0.4-1.3,0.8-1.8,1.3C19.9,17.8,20.5,17.3,21.1,17L21.1,17z"/>
						<path class="st0" d="M53.8,25.1c-0.1,0.5-0.2,1-0.3,1.5c-2.4,10-11.3,18.5-21.2,21L27,81.1c0.5,0,1-0.3,1.3-0.8
							c1-1.6,25.6-38.9,25.6-53.2C53.9,26.5,53.9,25.8,53.8,25.1z"/>
						<path class="st0" d="M27,0.2c-14.9,0-27,12.1-27,27c0,14.3,24.5,51.6,25.6,53.2c0.3,0.5,0.8,0.7,1.3,0.8l-5.3-33.3
							c-0.1,0-0.2,0-0.3-0.1C7.7,44.4,0.7,28.2,4,14.5c0.2-0.7,0.4-1.4,0.6-2c-2.1,13,6.2,25.6,19.1,28.7
							c12.9,3.1,25.8-4.1,30.1-16.4C52.6,11.1,41.1,0.2,27,0.2z M27,39c-6.5,0-11.8-5.3-11.8-11.8c0-2.7,0.9-5.2,2.5-7.2
							c0.3-0.4,0.6-0.8,1-1.2c0,0,0.1-0.1,0.1-0.1c0.2-0.2,0.3-0.3,0.5-0.5c0.6-0.5,1.2-0.9,1.8-1.3l-5.2-1l-2-7.8l26.9,5.1l3.2,8
							l-7.9-1.5c1.6,2,2.6,4.6,2.6,7.4C38.8,33.7,33.5,39,27,39z M42.4,32L44,21.3l1.2,10.9L42.4,32z"/>
					</g>
				</g>
				<path class="st0" d="M32.8,83.1c0,0.4-2.5,0.7-5.6,0.7c-3.1,0-5.6-0.3-5.6-0.7c0-0.4,2.5-0.7,5.6-0.7
					C30.2,82.4,32.8,82.7,32.8,83.1z"/>
			</g>
			<g>
				<path class="st0" d="M73.8,17.2c0,0-1.2-0.6-3-0.6c-3.3,0-6,2.6-6,6.1c0,3.7,2.7,6.2,5.7,6.2c2.2,0,3.6-1,3.6-1V29
					c0,0-1.4,0.8-3.6,0.8c-3.8,0-6.7-3.1-6.7-7.1c0-4,3.1-7.1,7.1-7.1c1.8,0,2.9,0.5,2.9,0.5V17.2z"/>
				<path class="st0" d="M84.9,24.4c0,0.4,0,0.8,0,0.8h-8.2c0.1,2.1,1.8,3.8,4,3.8c1.5,0,3-1,3-1v1c0,0-1.4,0.8-3.1,0.8
					c-2.9,0-5-2.2-5-5.1c0-2.8,2.2-5,4.9-5C83.6,19.7,84.9,22.4,84.9,24.4z M76.7,24.4h7.2c0-2-1.3-3.9-3.4-3.9
					C78.4,20.5,76.8,22.5,76.7,24.4z"/>
				<path class="st0" d="M95.5,29.8h-1v-6.1c0-2.1-1.3-3.1-2.9-3.1c-2.4,0-3.6,2.3-3.6,2.3v7h-1v-9.9h0.9l0.1,1.6
					c0,0,1.2-1.8,3.7-1.8c2.1,0,3.8,1.3,3.8,3.7V29.8z"/>
				<path class="st0" d="M98.6,20.7h-1.4v-0.8h1.4v-2h1v2h2.1v0.8h-2.1v9.1h-1V20.7z"/>
				<path class="st0" d="M108.1,20.6c0,0-0.2,0-0.5,0c-1.6,0-3.1,1.8-3.1,3.7v5.5h-1v-9.9h0.9l0.1,2c0,0,0.8-2.2,3.1-2.2
					c0.2,0,0.5,0,0.5,0V20.6z"/>
				<path class="st0" d="M113.7,19.7c2.8,0,5,2.3,5,5.1c0,2.8-2.2,5.1-5,5.1c-2.8,0-5-2.3-5-5.1C108.7,22,110.9,19.7,113.7,19.7z
					 M113.7,29c2.2,0,4-1.9,4-4.2c0-2.3-1.8-4.2-4-4.2c-2.2,0-4,1.9-4,4.2C109.7,27.1,111.5,29,113.7,29z"/>
				<path class="st0" d="M72,50.4h-8.2V36.5h8.1v0.9h-7.1v5.5h5.9v0.9h-5.9v5.6H72V50.4z"/>
				<path class="st0" d="M76.6,45.4l-3.3-4.8h1.2l2.7,4l2.7-4H81l-3.3,4.8l3.5,5h-1.2l-2.9-4.2l-2.9,4.2h-1.2L76.6,45.4z"/>
				<path class="st0" d="M89,41.7c0,0-0.8-0.4-2.1-0.4c-2.2,0-4,1.9-4,4.2c0,2.4,1.7,4.2,3.9,4.2c1.4,0,2.3-0.5,2.3-0.5v0.9
					c0,0-0.9,0.4-2.4,0.4c-2.8,0-4.9-2.2-4.9-5.1c0-2.8,2.2-5.1,5-5.1c1.3,0,2.1,0.3,2.1,0.3L89,41.7z"/>
				<path class="st0" d="M100.1,45.1c0,0.4,0,0.8,0,0.8h-8.2c0.1,2.1,1.8,3.8,4,3.8c1.5,0,3-1,3-1v1c0,0-1.4,0.8-3.1,0.8
					c-2.9,0-5-2.2-5-5.1c0-2.8,2.2-5,4.9-5C98.8,40.4,100.1,43.1,100.1,45.1z M91.9,45.2h7.2c0-2-1.3-3.9-3.4-3.9
					C93.6,41.3,92,43.2,91.9,45.2z"/>
				<path class="st0" d="M103.3,35.7v14.6h-1V35.7H103.3z"/>
				<path class="st0" d="M114.9,45.1c0,0.4,0,0.8,0,0.8h-8.2c0.1,2.1,1.8,3.8,4,3.8c1.5,0,3-1,3-1v1c0,0-1.4,0.8-3.1,0.8
					c-2.9,0-5-2.2-5-5.1c0-2.8,2.2-5,4.9-5C113.6,40.4,114.9,43.1,114.9,45.1z M106.7,45.2h7.2c0-2-1.3-3.9-3.4-3.9
					C108.4,41.3,106.8,43.2,106.7,45.2z"/>
				<path class="st0" d="M125.5,50.4h-1v-5.9c0-2.1-1.3-3.1-2.9-3.1c-2.4,0-3.6,2.3-3.6,2.3v6.8h-1v-9.7h0.9l0.1,1.6
					c0,0,1.2-1.8,3.7-1.8c2.1,0,3.8,1.3,3.8,3.7V50.4z"/>
				<path class="st0" d="M134.7,41.7c0,0-0.8-0.4-2.1-0.4c-2.2,0-4,1.9-4,4.2c0,2.4,1.7,4.2,3.9,4.2c1.4,0,2.3-0.5,2.3-0.5v0.9
					c0,0-0.9,0.4-2.4,0.4c-2.8,0-4.9-2.2-4.9-5.1c0-2.8,2.2-5.1,5-5.1c1.3,0,2.1,0.3,2.1,0.3L134.7,41.7z"/>
				<path class="st0" d="M137.2,37h1.1v1.8h-1.1V37z M138.3,40.7v9.7h-1v-9.7H138.3z"/>
				<path class="st0" d="M150,50.4h-0.9l-0.1-1.5c0,0-1.1,1.7-3.5,1.7c-2.8,0-4.9-2.2-4.9-5.1c0-2.8,2.1-5.1,4.9-5.1
					c2.4,0,3.5,1.7,3.5,1.7l0.1-1.5h0.9V50.4z M141.7,45.5c0,2.4,1.7,4.2,3.9,4.2c2.5,0,3.5-2.2,3.5-2.2v-4c0,0-1-2.3-3.5-2.3
					C143.4,41.3,141.7,43.1,141.7,45.5z"/>
				<path class="st0" d="M73.8,58.6c0,0-1.2-0.6-3-0.6c-3.3,0-6,2.6-6,6.1c0,3.7,2.7,6.2,5.7,6.2c2.2,0,3.6-1,3.6-1v1.1
					c0,0-1.4,0.8-3.6,0.8c-3.8,0-6.7-3.1-6.7-7.1c0-4,3.1-7.1,7.1-7.1c1.8,0,2.9,0.5,2.9,0.5V58.6z"/>
				<path class="st0" d="M80.3,61.2c2.8,0,5,2.3,5,5.1c0,2.8-2.2,5.1-5,5.1c-2.8,0-5-2.3-5-5.1C75.3,63.5,77.5,61.2,80.3,61.2z
					 M80.3,70.5c2.2,0,4-1.9,4-4.2c0-2.3-1.8-4.2-4-4.2c-2.2,0-4,1.9-4,4.2C76.3,68.6,78.1,70.5,80.3,70.5z"/>
				<path class="st0" d="M95.1,71.3h-1v-6.4c0-1.9-0.8-2.9-2.3-2.9c-1.7,0-3,1.6-3.2,2.2v7.2h-1v-10h0.9l0.1,1.5
					c0,0,1.4-1.7,3.3-1.7c2.2,0,2.9,1.7,2.9,1.7s1.3-1.7,3.4-1.7c2.3,0,3.3,1.7,3.3,3.7v6.5h-1v-6.2c0-2.1-0.9-3.1-2.4-3.1
					c-1.5,0-2.7,1.3-3,1.8V71.3z"/>
				<path class="st0" d="M112.9,65.9c0,0.4,0,0.8,0,0.8h-8.2c0.1,2.1,1.8,3.8,4,3.8c1.5,0,3-1,3-1v1c0,0-1.4,0.8-3.1,0.8
					c-2.9,0-5-2.2-5-5.1c0-2.8,2.2-5,4.9-5C111.6,61.2,112.9,63.9,112.9,65.9z M104.7,65.9h7.2c0-2-1.3-3.9-3.4-3.9
					C106.5,62,104.8,64,104.7,65.9z"/>
				<path class="st0" d="M119.7,62.1c0,0-0.2,0-0.5,0c-1.6,0-3.1,1.8-3.1,3.7v5.5h-1v-10h0.9l0.1,2c0,0,0.8-2.2,3.1-2.2
					c0.2,0,0.5,0,0.5,0V62.1z"/>
				<path class="st0" d="M127.3,62.5c0,0-0.8-0.4-2.1-0.4c-2.2,0-4,1.9-4,4.2c0,2.4,1.7,4.2,3.9,4.2c1.4,0,2.3-0.5,2.3-0.5v0.9
					c0,0-0.9,0.4-2.4,0.4c-2.8,0-4.9-2.2-4.9-5.1c0-2.8,2.2-5.1,5-5.1c1.3,0,2.1,0.3,2.1,0.3L127.3,62.5z"/>
				<path class="st0" d="M129.9,57.7h1.1v1.8h-1.1V57.7z M130.9,61.4v9.9h-1v-9.9H130.9z"/>
				<path class="st0" d="M142.7,71.3h-0.9l-0.1-1.7c0,0-1.1,1.7-3.5,1.7c-2.8,0-4.9-2.2-4.9-5.1c0-2.8,2.1-5.1,4.9-5.1
					c2.4,0,3.5,1.7,3.5,1.7l0.1-1.7h0.9V71.3z M134.3,66.2c0,2.4,1.7,4.2,3.9,4.2c2.5,0,3.5-2.2,3.5-2.2v-4c0,0-1-2.3-3.5-2.3
					C136.1,62,134.3,63.8,134.3,66.2z"/>
				<path class="st0" d="M146.8,56.5v14.8h-1V56.5H146.8z"/>
			</g>
		</g>
	</g>
</g>
</svg>
