<?xml version="1.0" encoding="utf-8"?>
<!-- Generator: Adobe Illustrator 25.0.0, SVG Export Plug-In . SVG Version: 6.00 Build 0)  -->
<svg version="1.1" id="Capa_1" xmlns="http://www.w3.org/2000/svg" xmlns:xlink="http://www.w3.org/1999/xlink" x="0px" y="0px"
	 viewBox="0 0 841.89 595.28" style="enable-background:new 0 0 841.89 595.28;" xml:space="preserve">
<style type="text/css">
	.st0{fill:none;}
	.st1{fill:#5E2366;}
</style>
<g>
	<g>
		<g>
			<path class="st0" d="M373.63,118.17H226.07c-12.93,0-23.73-9.18-26.26-21.35h-47.52c-14.82,0-26.84,12.04-26.84,26.84v402.43
				c0,14.8,12.02,26.84,26.84,26.84h295.12c14.79,0,26.83-12.04,26.83-26.84V123.65c0-14.79-12.04-26.84-26.83-26.84h-47.52
				C397.35,108.99,386.54,118.17,373.63,118.17z"/>
		</g>
		<g>
			<path class="st1" d="M447.41,69.98h-46.95v21.34c0,1.88-0.2,3.72-0.57,5.49h47.52c14.79,0,26.83,12.04,26.83,26.84v402.43
				c0,14.8-12.04,26.84-26.83,26.84H152.29c-14.82,0-26.84-12.04-26.84-26.84V123.65c0-14.79,12.02-26.84,26.84-26.84h47.52
				c-0.37-1.77-0.57-3.61-0.57-5.49V69.98h-46.94c-29.59,0-53.66,24.08-53.66,53.67v402.43c0,29.6,24.07,53.65,53.66,53.65h295.12
				c29.58,0,53.66-24.05,53.66-53.65V123.65C501.07,94.06,476.99,69.98,447.41,69.98z"/>
		</g>
	</g>
	<g>
		<rect x="298.79" y="217.48" class="st1" width="146.65" height="26.84"/>
	</g>
	<g>
		<rect x="298.79" y="343.83" class="st1" width="146.65" height="26.84"/>
	</g>
	<g>
		<rect x="298.79" y="450.67" class="st1" width="107.92" height="26.84"/>
	</g>
	<g>
		<g>
			<path class="st1" d="M373.63,15.54H226.07c-29.59,0-53.66,24.08-53.66,53.67v22.11c0,29.6,24.07,53.65,53.66,53.65h147.56
				c29.58,0,53.66-24.05,53.66-53.65V69.21C427.29,39.62,403.21,15.54,373.63,15.54z M414.82,84.02c0,22.9-18.74,41.64-41.64,41.64
				H234.1c-22.9,0-41.64-18.74-41.64-41.64V64.79c0-22.9,18.74-41.64,41.64-41.64h139.09c22.9,0,41.64,18.74,41.64,41.64V84.02z"/>
		</g>
		<g>
			<path class="st1" d="M373.18,23.15H234.1c-22.9,0-41.64,18.74-41.64,41.64v19.23c0,22.9,18.74,41.64,41.64,41.64h139.09
				c22.9,0,41.64-18.74,41.64-41.64V64.79C414.82,41.88,396.08,23.15,373.18,23.15z M400.46,91.32c0,14.8-12.04,26.84-26.83,26.84
				H226.07c-14.82,0-26.84-12.04-26.84-26.84V69.21c0-14.79,12.02-26.84,26.84-26.84h147.56c14.79,0,26.83,12.04,26.83,26.84V91.32z
				"/>
		</g>
	</g>
	<g>
		<g>
			
				<rect x="404.23" y="348.65" transform="matrix(0.8342 -0.5515 0.5515 0.8342 -102.1185 382.6531)" class="st1" width="362.1" height="24.99"/>
		</g>
	</g>
	<g>
		<path class="st1" d="M179.04,201.19c5.78-1.25,8.13,1.31,10.67,4.6l18.55,24.15l43.47-36.79l15.38,18.17l-52.99,44.86
			c-2.5,2.1-5.73,3.09-8.98,2.76c-3.23-0.36-6.18-2.01-8.15-4.6l-22.1-28.76C174.88,225.58,160.44,208.71,179.04,201.19z"/>
	</g>
	<g>
		<path class="st1" d="M179.04,318.95c5.78-1.25,8.13,1.31,10.67,4.6l18.55,24.15l43.47-36.79l15.38,18.17l-52.99,44.86
			c-2.5,2.1-5.73,3.1-8.98,2.76c-3.23-0.36-6.18-2.01-8.15-4.6l-22.1-28.76C174.88,343.33,160.44,326.47,179.04,318.95z"/>
	</g>
	<g>
		<path class="st1" d="M179.04,439.21c5.78-1.25,8.13,1.31,10.67,4.6l18.55,24.15l43.47-36.79l15.38,18.17l-52.99,44.86
			c-2.5,2.1-5.73,3.09-8.98,2.76c-3.23-0.36-6.18-2.01-8.15-4.6l-22.1-28.76C174.88,463.59,160.44,446.73,179.04,439.21z"/>
	</g>
</g>
</svg>
