<?xml version="1.0" encoding="utf-8"?>
<!-- Generator: Adobe Illustrator 25.0.0, SVG Export Plug-In . SVG Version: 6.00 Build 0)  -->
<svg version="1.1" id="Capa_1" xmlns="http://www.w3.org/2000/svg" xmlns:xlink="http://www.w3.org/1999/xlink" x="0px" y="0px"
	 viewBox="0 0 841.89 595.28" style="enable-background:new 0 0 841.89 595.28;" xml:space="preserve">
<style type="text/css">
	.st0{fill:#FFFFFF;}
</style>
<g>
	<path class="st0" d="M99.5,397.12c54.85,0,99.49-44.62,99.49-99.48c0-54.87-44.64-99.49-99.49-99.49S0,242.78,0,297.64
		S44.65,397.12,99.5,397.12z"/>
	<path class="st0" d="M421.47,397.12c54.85,0,99.48-44.62,99.48-99.48c0-54.87-44.6-99.49-99.48-99.49
		c-54.87,0-99.48,44.62-99.48,99.49C321.99,352.51,366.62,397.12,421.47,397.12z"/>
	<path class="st0" d="M742.41,397.12c54.85,0,99.48-44.62,99.48-99.48c0-54.87-44.6-99.49-99.48-99.49
		c-54.87,0-99.48,44.62-99.48,99.49C642.93,352.51,687.55,397.12,742.41,397.12z"/>
</g>
</svg>
